M48
;Layer_Color=9474304
;FILE_FORMAT=4:4
METRIC,LZ
;TYPE=PLATED
T01F00S00C0.2000
T02F00S00C0.5000
T04F00S00C1.0000
T05F00S00C1.1000
;TYPE=NON_PLATED
T06F00S00C1.0000
T07F00S00C3.3000
%
T01
X00837893Y00637879
X00854393Y00629879
X00863254Y00639004
X00857504Y00656504
Y00662504
Y00672004
X00865004Y00702004
X00880754Y00713254
X00889504
X00905754
X00932004Y00710754
Y00703754
X00945754Y00719504
X00953254
X00959254
X00944504Y00737004
X00943254Y00784754
Y00793254
X00871754Y00787004
X00858754Y00726504
X00853165Y00723254
X00805504Y00717004
X00898254Y00672004
X00892004Y00624504
X00871754Y00617004
X00943254Y00614754
Y00623254
Y00630754
Y00638254
Y00645754
X00941504Y00655004
X00933254Y00638254
X00958254Y00630754
X00974504Y00645754
Y00652004
X00975632Y00660004
X00975754Y00694004
X00742504Y00717004
X00669504Y00727254
X00655102Y00726345
X00648852Y00726345
X00642852Y00726345
X00636602Y00726345
X00637004Y00744254
X00609004
X00614004Y00785504
X00596004Y00792504
X00544004Y00793504
X00517126Y00778754
Y00745254
X00512254Y00731754
X00537704Y00727678
X00548254Y00727754
X00556004Y00744754
X00512254Y00695004
X00478376Y00694004
Y00660004
X00517126Y00608754
X00544004Y00623504
X00596004Y00622504
X00614004Y00615504
X00684754Y00666254
Y00836254
X00669504Y00897254
X00655102Y00896345
X00648852Y00896345
X00642852Y00896345
X00636602Y00896345
X00637004Y00914254
X00609004
X00614004Y00955504
X00596004Y00962504
X00544004Y00963504
X00517126Y00948754
Y00915254
X00512254Y00901754
X00537704Y00897678
X00548254Y00897754
X00556004Y00914754
X00512254Y00865004
X00478376Y00864004
Y00830004
Y01000004
Y01034004
X00512254Y01035004
Y01071754
X00517126Y01085254
Y01118754
X00544004Y01133504
X00596004Y01132504
X00614004Y01125504
X00609004Y01084254
X00637004
X00636602Y01066345
X00642852Y01066345
X00648852Y01066345
X00655102Y01066345
X00669504Y01067254
X00684754Y01006254
X00742504Y01057004
Y00887004
X00684754Y01176254
X00478376Y01170004
X00537704Y01067678
X00548254Y01067754
X00556004Y01084754
X00805504Y01057004
X00853165Y01063254
X00858754Y01066504
X00865004Y01042004
X00880754Y01053254
X00889504
X00905754
X00932004Y01050754
Y01043754
X00945754Y01059504
X00953254
X00959254
X00944504Y01077004
X00943254Y01124754
Y01133254
Y01140754
Y01148254
Y01155754
X00941504Y01165004
X00933254Y01148254
X00958254Y01140754
X00974504Y01155754
Y01162004
X00975632Y01170004
X00898254Y01182004
X00857504Y01182004
Y01172504
Y01166504
X00863254Y01149004
X00854393Y01139879
X00837893Y01147879
X00871754Y01127004
X00892004Y01134504
X00898254Y01012004
X00857504Y01012004
Y01002504
Y00996504
X00863254Y00979004
X00854393Y00969879
X00837893Y00977879
X00871754Y00957004
X00892004Y00964504
X00943254Y00963254
Y00970754
Y00978254
Y00985754
X00941504Y00995004
X00933254Y00978254
X00958254Y00970754
X00943254Y00954754
X00944504Y00907004
X00945754Y00889504
X00953254
X00959254
X00932004Y00880754
Y00873754
X00905754Y00883254
X00889504
X00880754
X00865004Y00872004
X00858754Y00896504
X00853165Y00893254
X00805504Y00887004
X00857504Y00842004
Y00832504
Y00826504
X00863254Y00809004
X00854393Y00799879
X00837893Y00807879
X00892004Y00794504
X00898254Y00842004
X00941504Y00825004
X00943254Y00815754
Y00808254
Y00800754
X00958254
X00974504Y00815754
Y00822004
X00975632Y00830004
X00975754Y00864004
X00933254Y00808254
X00974504Y00985754
Y00992004
X00975632Y01000004
X00975754Y01034004
Y01204004
X00959254Y01229504
X00953254
X00945754
X00944504Y01247004
X00932004Y01220754
Y01213754
X00905754Y01223254
X00889504
X00880754
X00865004Y01212004
X00858754Y01236504
X00853165Y01233254
X00805504Y01227004
X00837893Y01317879
X00854393Y01309879
X00863254Y01319004
X00857504Y01336504
Y01342504
Y01352004
X00865004Y01382004
X00880754Y01393254
X00889504
X00905754
X00932004Y01390754
Y01383754
X00945754Y01399504
X00953254
X00959254
X00944504Y01417004
X00975754Y01374004
X00975632Y01340004
X00974504Y01332004
Y01325754
X00958254Y01310754
X00943254
Y01318254
Y01325754
X00941504Y01335004
X00933254Y01318254
X00943254Y01303254
Y01294754
X00892004Y01304504
X00871754Y01297004
X00898254Y01352004
X00858754Y01406504
X00853165Y01403254
X00805504Y01397004
X00742504
X00669504Y01407254
X00655102Y01406345
X00648852Y01406345
X00642852Y01406345
X00636602Y01406345
X00637004Y01424254
X00609004
X00556004Y01424754
X00548254Y01407754
X00537704Y01407678
X00512254Y01411754
X00517126Y01425254
X00512254Y01375004
X00478376Y01374004
Y01340004
X00517126Y01288754
Y01255254
X00512254Y01241754
X00537704Y01237678
X00548254Y01237754
X00556004Y01254754
X00609004Y01254254
X00637004
X00636602Y01236345
X00642852Y01236345
X00648852Y01236345
X00655102Y01236345
X00669504Y01237254
X00742504Y01227004
X00684754Y01346254
X00614004Y01295504
X00596004Y01302504
X00544004Y01303504
X00512254Y01205004
X00478376Y01204004
T02
X00557004Y00644504
Y00654004
Y00663504
Y00672504
Y00681504
Y00690504
Y00700004
Y00709504
X00571004
Y00700004
Y00690504
Y00681504
Y00672504
Y00663504
Y00654004
Y00644504
Y00814504
Y00824004
Y00833504
Y00842504
Y00851504
Y00860504
Y00870004
Y00879504
X00557004
Y00870004
Y00860504
Y00851504
Y00842504
Y00833504
Y00824004
Y00814504
Y00984504
Y00994004
Y01003504
Y01012504
Y01021504
Y01030504
Y01040004
Y01049504
X00571004
Y01040004
Y01030504
Y01021504
Y01012504
Y01003504
Y00994004
Y00984504
Y01154504
Y01164004
Y01173504
Y01182504
X00557004
Y01173504
Y01164004
Y01154504
Y01191504
Y01200504
Y01210004
Y01219504
X00571004
Y01210004
Y01200504
Y01191504
Y01324504
Y01334004
Y01343504
Y01352504
Y01361504
Y01370504
Y01380004
Y01389504
X00557004
Y01380004
Y01370504
Y01361504
Y01352504
Y01343504
Y01334004
Y01324504
T04
X0080263Y00655541
X0082422
X0084581
Y00698467
X0082422
X0080263
X0078104
X0075945
X0073786
X0071627
X0069468
X0067309
X006515
X0062991
X0060832
Y00655541
X0062991
X006515
X0067309
X0069468
X0071627
X0073786
X0075945
X0078104
Y00825541
X0075945
X0073786
X0071627
X0069468
X0067309
X006515
X0062991
X0060832
Y00868467
X0062991
X006515
X0067309
X0069468
X0071627
X0073786
X0075945
X0078104
Y00995541
X0075945
X0073786
X0071627
X0069468
X0067309
X006515
X0062991
X0060832
Y01038467
X0062991
X006515
X0067309
X0069468
X0071627
X0073786
X0075945
X0078104
Y01165541
X0075945
X0073786
X0071627
X0069468
X0067309
X006515
X0062991
X0060832
X0080263
X0082422
X0084581
Y01038467
X0082422
X0080263
Y00995541
X0082422
X0084581
Y00868467
X0082422
X0080263
Y00825541
X0082422
X0084581
Y01208467
X0082422
X0080263
Y01335541
X0082422
X0084581
Y01378467
X0082422
X0080263
X0078104
X0075945
X0073786
X0071627
X0069468
X0067309
X006515
X0062991
X0060832
Y01335541
X0062991
X006515
X0067309
X0069468
X0071627
X0073786
X0075945
X0078104
Y01208467
X0075945
X0073786
X0071627
X0069468
X0067309
X006515
X0062991
X0060832
T05
X00796604Y00617254
X00822004Y00617254
Y00787254
X00796604Y00787254
X00771204Y00787254
X00745804Y00787254
X00720404Y00787254
X00695004Y00787254
Y00617254
X00720404Y00617254
X00745804Y00617254
X00771204Y00617254
Y00957254
X00745804Y00957254
X00720404Y00957254
X00695004Y00957254
Y01127254
X00720404Y01127254
X00745804Y01127254
X00771204Y01127254
X00796604Y01127254
X00822004Y01127254
Y00957254
X00796604Y00957254
Y01297254
X00822004Y01297254
X00771204Y01297254
X00745804Y01297254
X00720404Y01297254
X00695004Y01297254
T06
X00993254Y00662004
X00993504Y00677004
X00993254Y00692004
X00461004Y00692004
X00460504Y00677004
X00461004Y00662004
Y00832004
X00460504Y00847004
X00461004Y00862004
Y01002004
X00460504Y01017004
X00461004Y01032004
Y01172004
X00460504Y01187004
X00993504Y01187004
X00993254Y01172004
Y01032004
X00993504Y01017004
X00993254Y01002004
Y00862004
X00993504Y00847004
X00993254Y00832004
Y01202004
Y01342004
X00993504Y01357004
X00993254Y01372004
X00461004Y01372005
X00460504Y01357004
X00461004Y01342004
Y01202004
T07
X00961126Y00677004
X00493004
Y00847004
Y01017004
Y01187004
X00961126
Y01017004
Y00847004
Y01357004
X00493004
M30
