G04*
G04 #@! TF.GenerationSoftware,Altium Limited,Altium Designer,25.5.2 (35)*
G04*
G04 Layer_Color=255*
%FSLAX44Y44*%
%MOMM*%
G71*
G04*
G04 #@! TF.SameCoordinates,67B56F09-9997-41D6-AB2B-D5ECDE41145E*
G04*
G04*
G04 #@! TF.FilePolarity,Positive*
G04*
G01*
G75*
%ADD15O,1.5000X2.0000*%
%ADD16O,0.8000X2.0000*%
%ADD17C,0.7000*%
G04:AMPARAMS|DCode=18|XSize=1.7mm|YSize=1.7mm|CornerRadius=0.05mm|HoleSize=0mm|Usage=FLASHONLY|Rotation=180.000|XOffset=0mm|YOffset=0mm|HoleType=Round|Shape=RoundedRectangle|*
%AMROUNDEDRECTD18*
21,1,1.7000,1.6000,0,0,180.0*
21,1,1.6000,1.7000,0,0,180.0*
1,1,0.1000,-0.8000,0.8000*
1,1,0.1000,0.8000,0.8000*
1,1,0.1000,0.8000,-0.8000*
1,1,0.1000,-0.8000,-0.8000*
%
%ADD18ROUNDEDRECTD18*%
%ADD19C,1.7000*%
D15*
X608320Y698467D02*
D03*
X629910D02*
D03*
X651500D02*
D03*
X673090D02*
D03*
X694680D02*
D03*
X716270D02*
D03*
X737860D02*
D03*
X759450D02*
D03*
X781040D02*
D03*
X802630D02*
D03*
X824220D02*
D03*
X845810D02*
D03*
X608320Y655541D02*
D03*
X629910D02*
D03*
X651500D02*
D03*
X673090D02*
D03*
X694680D02*
D03*
X716270D02*
D03*
X737860D02*
D03*
X759450D02*
D03*
X781040D02*
D03*
X802630D02*
D03*
X824220D02*
D03*
X845810D02*
D03*
X608320Y868467D02*
D03*
X629910D02*
D03*
X651500D02*
D03*
X673090D02*
D03*
X694680D02*
D03*
X716270D02*
D03*
X737860D02*
D03*
X759450D02*
D03*
X781040D02*
D03*
X802630D02*
D03*
X824220D02*
D03*
X845810D02*
D03*
X608320Y825541D02*
D03*
X629910D02*
D03*
X651500D02*
D03*
X673090D02*
D03*
X694680D02*
D03*
X716270D02*
D03*
X737860D02*
D03*
X759450D02*
D03*
X781040D02*
D03*
X802630D02*
D03*
X824220D02*
D03*
X845810D02*
D03*
X608320Y1038467D02*
D03*
X629910D02*
D03*
X651500D02*
D03*
X673090D02*
D03*
X694680D02*
D03*
X716270D02*
D03*
X737860D02*
D03*
X759450D02*
D03*
X781040D02*
D03*
X802630D02*
D03*
X824220D02*
D03*
X845810D02*
D03*
X608320Y995541D02*
D03*
X629910D02*
D03*
X651500D02*
D03*
X673090D02*
D03*
X694680D02*
D03*
X716270D02*
D03*
X737860D02*
D03*
X759450D02*
D03*
X781040D02*
D03*
X802630D02*
D03*
X824220D02*
D03*
X845810D02*
D03*
X608320Y1208467D02*
D03*
X629910D02*
D03*
X651500D02*
D03*
X673090D02*
D03*
X694680D02*
D03*
X716270D02*
D03*
X737860D02*
D03*
X759450D02*
D03*
X781040D02*
D03*
X802630D02*
D03*
X824220D02*
D03*
X845810D02*
D03*
X608320Y1165541D02*
D03*
X629910D02*
D03*
X651500D02*
D03*
X673090D02*
D03*
X694680D02*
D03*
X716270D02*
D03*
X737860D02*
D03*
X759450D02*
D03*
X781040D02*
D03*
X802630D02*
D03*
X824220D02*
D03*
X845810D02*
D03*
X608320Y1378467D02*
D03*
X629910D02*
D03*
X651500D02*
D03*
X673090D02*
D03*
X694680D02*
D03*
X716270D02*
D03*
X737860D02*
D03*
X759450D02*
D03*
X781040D02*
D03*
X802630D02*
D03*
X824220D02*
D03*
X845810D02*
D03*
X608320Y1335541D02*
D03*
X629910D02*
D03*
X651500D02*
D03*
X673090D02*
D03*
X694680D02*
D03*
X716270D02*
D03*
X737860D02*
D03*
X759450D02*
D03*
X781040D02*
D03*
X802630D02*
D03*
X824220D02*
D03*
X845810D02*
D03*
D16*
X544704Y657004D02*
D03*
Y697004D02*
D03*
X583304D02*
D03*
Y657004D02*
D03*
X544704Y827004D02*
D03*
Y867004D02*
D03*
X583304D02*
D03*
Y827004D02*
D03*
X544704Y997004D02*
D03*
Y1037004D02*
D03*
X583304D02*
D03*
Y997004D02*
D03*
X544704Y1167004D02*
D03*
Y1207004D02*
D03*
X583304D02*
D03*
Y1167004D02*
D03*
X544704Y1337004D02*
D03*
Y1377004D02*
D03*
X583304D02*
D03*
Y1337004D02*
D03*
D17*
X571004Y644504D02*
D03*
Y654004D02*
D03*
Y663504D02*
D03*
Y672504D02*
D03*
Y681504D02*
D03*
Y690504D02*
D03*
Y700004D02*
D03*
Y709504D02*
D03*
X557004D02*
D03*
Y700004D02*
D03*
Y690504D02*
D03*
Y681504D02*
D03*
Y672504D02*
D03*
Y663504D02*
D03*
Y654004D02*
D03*
Y644504D02*
D03*
X571004Y814504D02*
D03*
Y824004D02*
D03*
Y833504D02*
D03*
Y842504D02*
D03*
Y851504D02*
D03*
Y860504D02*
D03*
Y870004D02*
D03*
Y879504D02*
D03*
X557004D02*
D03*
Y870004D02*
D03*
Y860504D02*
D03*
Y851504D02*
D03*
Y842504D02*
D03*
Y833504D02*
D03*
Y824004D02*
D03*
Y814504D02*
D03*
X571004Y984504D02*
D03*
Y994004D02*
D03*
Y1003504D02*
D03*
Y1012504D02*
D03*
Y1021504D02*
D03*
Y1030504D02*
D03*
Y1040004D02*
D03*
Y1049504D02*
D03*
X557004D02*
D03*
Y1040004D02*
D03*
Y1030504D02*
D03*
Y1021504D02*
D03*
Y1012504D02*
D03*
Y1003504D02*
D03*
Y994004D02*
D03*
Y984504D02*
D03*
X571004Y1154504D02*
D03*
Y1164004D02*
D03*
Y1173504D02*
D03*
Y1182504D02*
D03*
Y1191504D02*
D03*
Y1200504D02*
D03*
Y1210004D02*
D03*
Y1219504D02*
D03*
X557004D02*
D03*
Y1210004D02*
D03*
Y1200504D02*
D03*
Y1191504D02*
D03*
Y1182504D02*
D03*
Y1173504D02*
D03*
Y1164004D02*
D03*
Y1154504D02*
D03*
X571004Y1324504D02*
D03*
Y1334004D02*
D03*
Y1343504D02*
D03*
Y1352504D02*
D03*
Y1361504D02*
D03*
Y1370504D02*
D03*
Y1380004D02*
D03*
Y1389504D02*
D03*
X557004D02*
D03*
Y1380004D02*
D03*
Y1370504D02*
D03*
Y1361504D02*
D03*
Y1352504D02*
D03*
Y1343504D02*
D03*
Y1334004D02*
D03*
Y1324504D02*
D03*
D18*
X822004Y617254D02*
D03*
Y787254D02*
D03*
Y957254D02*
D03*
Y1127254D02*
D03*
Y1297254D02*
D03*
D19*
X695004Y617254D02*
D03*
X796604Y617254D02*
D03*
X771204Y617254D02*
D03*
X745804Y617254D02*
D03*
X720404Y617254D02*
D03*
X695004Y787254D02*
D03*
X796604Y787254D02*
D03*
X771204Y787254D02*
D03*
X745804Y787254D02*
D03*
X720404Y787254D02*
D03*
X695004Y957254D02*
D03*
X796604Y957254D02*
D03*
X771204Y957254D02*
D03*
X745804Y957254D02*
D03*
X720404Y957254D02*
D03*
X695004Y1127254D02*
D03*
X796604Y1127254D02*
D03*
X771204Y1127254D02*
D03*
X745804Y1127254D02*
D03*
X720404Y1127254D02*
D03*
X695004Y1297254D02*
D03*
X796604Y1297254D02*
D03*
X771204Y1297254D02*
D03*
X745804Y1297254D02*
D03*
X720404Y1297254D02*
D03*
M02*
