G04*
G04 #@! TF.GenerationSoftware,Altium Limited,Altium Designer,25.5.2 (35)*
G04*
G04 Layer_Color=16711935*
%FSLAX44Y44*%
%MOMM*%
G71*
G04*
G04 #@! TF.SameCoordinates,67B56F09-9997-41D6-AB2B-D5ECDE41145E*
G04*
G04*
G04 #@! TF.FilePolarity,Positive*
G04*
G01*
G75*
%ADD36C,0.0500*%
%ADD58C,0.0500*%
D36*
X400000Y550000D02*
Y1500000D01*
X1050000D01*
Y550000D02*
Y1500000D01*
X400000Y550000D02*
X1050000D01*
X986268Y646096D02*
G03*
X986271Y646099I-174J180D01*
G01*
X993504Y701753D02*
X993504Y701754D01*
X986271Y707088D02*
G03*
X991605Y701754I5334J0D01*
G01*
Y652254D02*
G03*
X986271Y646920I0J-5334D01*
G01*
X467486Y646920D02*
G03*
X462152Y652254I-5334J0D01*
G01*
Y701754D02*
G03*
X467486Y707088I0J5334D01*
G01*
X940747Y753683D02*
G03*
X940572Y753754I-175J-179D01*
G01*
X940751Y753679D02*
G03*
X940747Y753683I-179J-175D01*
G01*
X940749Y753681D02*
G03*
X940572Y753754I-177J-177D01*
G01*
X940747Y600325D02*
G03*
X940751Y600329I-175J179D01*
G01*
X940572Y600254D02*
G03*
X940747Y600325I0J250D01*
G01*
X940572Y600254D02*
G03*
X940749Y600327I0J250D01*
G01*
X513259Y600327D02*
G03*
X513435Y600254I177J177D01*
G01*
X513260Y600325D02*
G03*
X513435Y600254I175J179D01*
G01*
X513257Y600329D02*
G03*
X513260Y600325I179J175D01*
G01*
X513257Y753679D02*
X513332Y753754D01*
X513435D01*
X986271Y707909D02*
Y708159D01*
X984840Y709590D02*
X986271Y708159D01*
Y645849D02*
Y646099D01*
X985090Y644668D02*
X986271Y645849D01*
X986268Y646096D02*
X986271Y646099D01*
X993504Y667004D02*
Y687004D01*
Y701754D01*
X991605Y701754D02*
X993504D01*
X986271Y707088D02*
Y707909D01*
Y646099D02*
Y646920D01*
X991605Y652254D02*
X993504D01*
X993504Y652255D02*
Y667004D01*
X460254Y652255D02*
Y667004D01*
X460254Y652254D02*
X462152D01*
X467486Y646100D02*
Y646920D01*
Y707088D02*
Y707909D01*
X460254Y701754D02*
X462152D01*
X460254Y687004D02*
Y701754D01*
X940747Y753683D02*
X940749Y753681D01*
X940751Y753679D01*
X984840Y709590D01*
X940751Y600329D02*
X985090Y644668D01*
X940749Y600327D02*
X940751Y600329D01*
X940747Y600325D02*
X940749Y600327D01*
X513435Y753754D02*
X940572Y753754D01*
X467486Y707909D02*
X513257Y753679D01*
X460254Y667004D02*
Y687004D01*
X513435Y600254D02*
X940572Y600254D01*
X467489Y646097D02*
X513257Y600329D01*
X513259Y600327D01*
X513260Y600325D01*
X986268Y816096D02*
G03*
X986271Y816099I-174J180D01*
G01*
X993504Y871753D02*
X993504Y871754D01*
X986271Y877088D02*
G03*
X991605Y871754I5334J0D01*
G01*
Y822254D02*
G03*
X986271Y816920I0J-5334D01*
G01*
X467486Y816920D02*
G03*
X462152Y822254I-5334J0D01*
G01*
Y871754D02*
G03*
X467486Y877088I0J5334D01*
G01*
X940747Y923683D02*
G03*
X940572Y923754I-175J-179D01*
G01*
X940751Y923679D02*
G03*
X940747Y923683I-179J-175D01*
G01*
X940749Y923681D02*
G03*
X940572Y923754I-177J-177D01*
G01*
X940747Y770325D02*
G03*
X940751Y770329I-175J179D01*
G01*
X940572Y770254D02*
G03*
X940747Y770325I0J250D01*
G01*
X940572Y770254D02*
G03*
X940749Y770327I0J250D01*
G01*
X513259Y770327D02*
G03*
X513435Y770254I177J177D01*
G01*
X513260Y770325D02*
G03*
X513435Y770254I175J179D01*
G01*
X513257Y770329D02*
G03*
X513260Y770325I179J175D01*
G01*
X513257Y923679D02*
X513332Y923754D01*
X513435D01*
X986271Y877909D02*
Y878159D01*
X984840Y879590D02*
X986271Y878159D01*
Y815849D02*
Y816099D01*
X985090Y814668D02*
X986271Y815849D01*
X986268Y816096D02*
X986271Y816099D01*
X993504Y837004D02*
Y857004D01*
Y871754D01*
X991605Y871754D02*
X993504D01*
X986271Y877088D02*
Y877909D01*
Y816099D02*
Y816920D01*
X991605Y822254D02*
X993504D01*
X993504Y822255D02*
Y837004D01*
X460254Y822255D02*
Y837004D01*
X460254Y822254D02*
X462152D01*
X467486Y816100D02*
Y816920D01*
Y877088D02*
Y877909D01*
X460254Y871754D02*
X462152D01*
X460254Y857004D02*
Y871754D01*
X940747Y923683D02*
X940749Y923681D01*
X940751Y923679D01*
X984840Y879590D01*
X940751Y770329D02*
X985090Y814668D01*
X940749Y770327D02*
X940751Y770329D01*
X940747Y770325D02*
X940749Y770327D01*
X513435Y923754D02*
X940572Y923754D01*
X467486Y877909D02*
X513257Y923679D01*
X460254Y837004D02*
Y857004D01*
X513435Y770254D02*
X940572Y770254D01*
X467489Y816097D02*
X513257Y770329D01*
X513259Y770327D01*
X513260Y770325D01*
X986268Y986096D02*
G03*
X986271Y986099I-174J180D01*
G01*
X993504Y1041753D02*
X993504Y1041754D01*
X986271Y1047088D02*
G03*
X991605Y1041754I5334J0D01*
G01*
Y992254D02*
G03*
X986271Y986920I0J-5334D01*
G01*
X467486Y986920D02*
G03*
X462152Y992254I-5334J0D01*
G01*
Y1041754D02*
G03*
X467486Y1047088I0J5334D01*
G01*
X940747Y1093683D02*
G03*
X940572Y1093754I-175J-179D01*
G01*
X940751Y1093679D02*
G03*
X940747Y1093683I-179J-175D01*
G01*
X940749Y1093681D02*
G03*
X940572Y1093754I-177J-177D01*
G01*
X940747Y940325D02*
G03*
X940751Y940329I-175J179D01*
G01*
X940572Y940254D02*
G03*
X940747Y940325I0J250D01*
G01*
X940572Y940254D02*
G03*
X940749Y940327I0J250D01*
G01*
X513259Y940327D02*
G03*
X513435Y940254I177J177D01*
G01*
X513260Y940325D02*
G03*
X513435Y940254I175J179D01*
G01*
X513257Y940329D02*
G03*
X513260Y940325I179J175D01*
G01*
X513257Y1093679D02*
X513332Y1093754D01*
X513435D01*
X986271Y1047909D02*
Y1048159D01*
X984840Y1049590D02*
X986271Y1048159D01*
Y985849D02*
Y986099D01*
X985090Y984668D02*
X986271Y985849D01*
X986268Y986096D02*
X986271Y986099D01*
X993504Y1007004D02*
Y1027004D01*
Y1041754D01*
X991605Y1041754D02*
X993504D01*
X986271Y1047088D02*
Y1047909D01*
Y986099D02*
Y986920D01*
X991605Y992254D02*
X993504D01*
X993504Y992255D02*
Y1007004D01*
X460254Y992255D02*
Y1007004D01*
X460254Y992254D02*
X462152D01*
X467486Y986100D02*
Y986920D01*
Y1047088D02*
Y1047909D01*
X460254Y1041754D02*
X462152D01*
X460254Y1027004D02*
Y1041754D01*
X940747Y1093683D02*
X940749Y1093681D01*
X940751Y1093679D01*
X984840Y1049590D01*
X940751Y940329D02*
X985090Y984668D01*
X940749Y940327D02*
X940751Y940329D01*
X940747Y940325D02*
X940749Y940327D01*
X513435Y1093754D02*
X940572Y1093754D01*
X467486Y1047909D02*
X513257Y1093679D01*
X460254Y1007004D02*
Y1027004D01*
X513435Y940254D02*
X940572Y940254D01*
X467489Y986097D02*
X513257Y940329D01*
X513259Y940327D01*
X513260Y940325D01*
X986268Y1156096D02*
G03*
X986271Y1156099I-174J180D01*
G01*
X993504Y1211753D02*
X993504Y1211754D01*
X986271Y1217088D02*
G03*
X991605Y1211754I5334J0D01*
G01*
Y1162254D02*
G03*
X986271Y1156920I0J-5334D01*
G01*
X467486Y1156920D02*
G03*
X462152Y1162254I-5334J0D01*
G01*
Y1211754D02*
G03*
X467486Y1217088I0J5334D01*
G01*
X940747Y1263683D02*
G03*
X940572Y1263754I-175J-179D01*
G01*
X940751Y1263679D02*
G03*
X940747Y1263683I-179J-175D01*
G01*
X940749Y1263681D02*
G03*
X940572Y1263754I-177J-177D01*
G01*
X940747Y1110325D02*
G03*
X940751Y1110329I-175J179D01*
G01*
X940572Y1110254D02*
G03*
X940747Y1110325I0J250D01*
G01*
X940572Y1110254D02*
G03*
X940749Y1110327I0J250D01*
G01*
X513259Y1110327D02*
G03*
X513435Y1110254I177J177D01*
G01*
X513260Y1110325D02*
G03*
X513435Y1110254I175J179D01*
G01*
X513257Y1110329D02*
G03*
X513260Y1110325I179J175D01*
G01*
X513257Y1263679D02*
X513332Y1263754D01*
X513435D01*
X986271Y1217909D02*
Y1218159D01*
X984840Y1219590D02*
X986271Y1218159D01*
Y1155849D02*
Y1156099D01*
X985090Y1154668D02*
X986271Y1155849D01*
X986268Y1156096D02*
X986271Y1156099D01*
X993504Y1177004D02*
Y1197004D01*
Y1211754D01*
X991605Y1211754D02*
X993504D01*
X986271Y1217088D02*
Y1217909D01*
Y1156099D02*
Y1156920D01*
X991605Y1162254D02*
X993504D01*
X993504Y1162255D02*
Y1177004D01*
X460254Y1162255D02*
Y1177004D01*
X460254Y1162254D02*
X462152D01*
X467486Y1156099D02*
Y1156920D01*
Y1217088D02*
Y1217909D01*
X460254Y1211754D02*
X462152D01*
X460254Y1197004D02*
Y1211754D01*
X940747Y1263683D02*
X940749Y1263681D01*
X940751Y1263679D01*
X984840Y1219590D01*
X940751Y1110329D02*
X985090Y1154668D01*
X940749Y1110327D02*
X940751Y1110329D01*
X940747Y1110325D02*
X940749Y1110327D01*
X513435Y1263754D02*
X940572Y1263754D01*
X467486Y1217909D02*
X513257Y1263679D01*
X460254Y1177004D02*
Y1197004D01*
X513435Y1110254D02*
X940572Y1110254D01*
X467489Y1156096D02*
X513257Y1110329D01*
X513259Y1110327D01*
X513260Y1110325D01*
X986268Y1326096D02*
G03*
X986271Y1326099I-174J180D01*
G01*
X986271Y1387088D02*
G03*
X991605Y1381754I5334J0D01*
G01*
Y1332254D02*
G03*
X986271Y1326920I0J-5334D01*
G01*
X467486Y1326920D02*
G03*
X462152Y1332254I-5334J0D01*
G01*
Y1381754D02*
G03*
X467486Y1387088I0J5334D01*
G01*
X940747Y1433683D02*
G03*
X940572Y1433754I-175J-179D01*
G01*
X940751Y1433679D02*
G03*
X940747Y1433683I-179J-175D01*
G01*
X940749Y1433681D02*
G03*
X940572Y1433754I-177J-177D01*
G01*
X940747Y1280325D02*
G03*
X940751Y1280329I-175J179D01*
G01*
X940572Y1280254D02*
G03*
X940747Y1280325I0J250D01*
G01*
X940572Y1280254D02*
G03*
X940749Y1280327I0J250D01*
G01*
X513259Y1280327D02*
G03*
X513435Y1280254I177J177D01*
G01*
X513260Y1280325D02*
G03*
X513435Y1280254I175J179D01*
G01*
X513257Y1280329D02*
G03*
X513260Y1280325I179J175D01*
G01*
X513257Y1433679D02*
X513332Y1433754D01*
X513435D01*
X986271Y1387909D02*
Y1388159D01*
X984840Y1389590D02*
X986271Y1388159D01*
Y1325849D02*
Y1326099D01*
X985090Y1324668D02*
X986271Y1325849D01*
X986268Y1326096D02*
X986271Y1326099D01*
X993504Y1347004D02*
Y1367004D01*
Y1381754D01*
X991605Y1381754D02*
X993504D01*
X986271Y1387088D02*
Y1387909D01*
Y1326099D02*
Y1326920D01*
X991605Y1332254D02*
X993504D01*
X993504Y1332255D02*
Y1347004D01*
X460254Y1332255D02*
Y1347004D01*
X460254Y1332254D02*
X462152D01*
X467486Y1326100D02*
Y1326920D01*
Y1387088D02*
Y1387909D01*
X460254Y1381754D02*
X462152D01*
X460254Y1367004D02*
Y1381754D01*
X940747Y1433683D02*
X940749Y1433681D01*
X940751Y1433679D01*
X984840Y1389590D01*
X940751Y1280329D02*
X985090Y1324668D01*
X940749Y1280327D02*
X940751Y1280329D01*
X940747Y1280325D02*
X940749Y1280327D01*
X513435Y1433754D02*
X940572Y1433754D01*
X467486Y1387909D02*
X513257Y1433679D01*
X460254Y1347004D02*
Y1367004D01*
X513435Y1280254D02*
X940572Y1280254D01*
X467489Y1326096D02*
X513257Y1280329D01*
X513259Y1280327D01*
X513260Y1280325D01*
D58*
X986271Y707909D02*
D03*
Y877909D02*
D03*
Y1047909D02*
D03*
Y1217909D02*
D03*
Y1387909D02*
D03*
X993504Y1381754D02*
D03*
M02*
