M48
;Layer_Color=9474304
;FILE_FORMAT=4:4
METRIC,LZ
;TYPE=PLATED
T03F00S00C0.5000
;TYPE=NON_PLATED
%
G90
G05
T03
G00X00544704Y00651004
M15
G01Y00663004
M16
G00X00583304Y00651004
M15
G01Y00663004
M16
G00X00583304Y00691004
M15
G01Y00703004
M16
G00X00544704Y00691004
M15
G01Y00703004
M16
G00X00544704Y00821004
M15
G01Y00833004
M16
G00X00583304Y00821004
M15
G01Y00833004
M16
G00X00583304Y00861004
M15
G01Y00873004
M16
G00X00544704Y00861004
M15
G01Y00873004
M16
G00X00544704Y00991004
M15
G01Y01003004
M16
G00X00583304Y00991004
M15
G01Y01003004
M16
G00X00583304Y01031004
M15
G01Y01043004
M16
G00X00544704Y01031004
M15
G01Y01043004
M16
G00X00544704Y01161004
M15
G01Y01173004
M16
G00X00583304Y01161004
M15
G01Y01173004
M16
G00X00583304Y01201004
M15
G01Y01213004
M16
G00X00544704Y01201004
M15
G01Y01213004
M16
G00X00544704Y01331004
M15
G01Y01343004
M16
G00X00583304Y01331004
M15
G01Y01343004
M16
G00X00583304Y01371004
M15
G01Y01383004
M16
G00X00544704Y01371004
M15
G01Y01383004
M16
M17
M30
