G04*
G04 #@! TF.GenerationSoftware,Altium Limited,Altium Designer,25.5.2 (35)*
G04*
G04 Layer_Physical_Order=1*
G04 Layer_Color=255*
%FSLAX44Y44*%
%MOMM*%
G71*
G04*
G04 #@! TF.SameCoordinates,67B56F09-9997-41D6-AB2B-D5ECDE41145E*
G04*
G04*
G04 #@! TF.FilePolarity,Positive*
G04*
G01*
G75*
%ADD10C,0.1500*%
%ADD11C,0.4000*%
%ADD12C,0.6000*%
%ADD13C,0.5153*%
%ADD14C,0.4000*%
%ADD15O,1.5000X2.0000*%
%ADD16O,0.8000X2.0000*%
%ADD17C,0.7000*%
G04:AMPARAMS|DCode=18|XSize=1.7mm|YSize=1.7mm|CornerRadius=0.05mm|HoleSize=0mm|Usage=FLASHONLY|Rotation=180.000|XOffset=0mm|YOffset=0mm|HoleType=Round|Shape=RoundedRectangle|*
%AMROUNDEDRECTD18*
21,1,1.7000,1.6000,0,0,180.0*
21,1,1.6000,1.7000,0,0,180.0*
1,1,0.1000,-0.8000,0.8000*
1,1,0.1000,0.8000,0.8000*
1,1,0.1000,0.8000,-0.8000*
1,1,0.1000,-0.8000,-0.8000*
%
%ADD18ROUNDEDRECTD18*%
%ADD19C,1.7000*%
%ADD20C,0.5000*%
%ADD21C,0.4500*%
D10*
X905754Y701416D02*
Y713254D01*
Y701416D02*
X948557Y658613D01*
X864368Y655004D02*
X941504D01*
X852655Y643291D02*
X864368Y655004D01*
X671384Y737231D02*
X909528D01*
X915754Y731004D01*
X671361Y737254D02*
X671384Y737231D01*
X949004Y731004D02*
X952754Y727254D01*
Y727254D02*
Y727254D01*
X915754Y731004D02*
X949004D01*
X647761Y737254D02*
X671361D01*
X644254Y728559D02*
Y733747D01*
X647761Y737254D01*
X642852Y727157D02*
X644254Y728559D01*
X642852Y726345D02*
Y727157D01*
X952754Y727254D02*
X959254Y720754D01*
Y719504D02*
Y720754D01*
X670118Y734254D02*
X670142Y734231D01*
X908285D01*
X649004Y734254D02*
X670118D01*
X914511Y728004D02*
X947761D01*
X908285Y734231D02*
X914511Y728004D01*
X647254Y732504D02*
X649004Y734254D01*
X648852Y726345D02*
Y727125D01*
X953076Y719682D02*
X953254Y719504D01*
X947761Y728004D02*
X953076Y722690D01*
Y719682D02*
Y722690D01*
X647254Y728723D02*
Y732504D01*
Y728723D02*
X648852Y727125D01*
X831663Y629260D02*
X834541Y626382D01*
X846307D01*
X835662Y629504D02*
X847427D01*
X832906Y632260D02*
X835662Y629504D01*
X846307Y626382D02*
X850310Y622379D01*
X943254Y638254D02*
X948557Y643558D01*
X771204Y617254D02*
X786210Y632260D01*
X847427Y629504D02*
X851552Y625379D01*
X834148Y635260D02*
X836029Y633379D01*
X845643D02*
X846643Y634379D01*
X836029Y633379D02*
X845643D01*
X846643Y634379D02*
X856257D01*
X850310Y622379D02*
X881394D01*
X935504Y630504D02*
X943254Y638254D01*
X881394Y622379D02*
X889519Y630504D01*
X856257Y634379D02*
X857257Y633379D01*
X851552Y625379D02*
X880151D01*
X745804Y617254D02*
X763810Y635260D01*
X857257Y633379D02*
X883909D01*
X895784Y645254D01*
X880151Y625379D02*
X893026Y638254D01*
X933254D01*
X895784Y645254D02*
X942754D01*
X836941Y643291D02*
X852655D01*
X835441Y641791D02*
X836941Y643291D01*
X889519Y630504D02*
X935504D01*
X948557Y643558D02*
Y658613D01*
X942754Y645254D02*
X943254Y645754D01*
X763810Y635260D02*
X834148D01*
X808610Y629260D02*
X831663D01*
X796604Y617254D02*
X808610Y629260D01*
X786210Y632260D02*
X832906D01*
X720404Y617254D02*
X744941Y641791D01*
X835441D01*
X905754Y871416D02*
Y883254D01*
Y871416D02*
X948557Y828613D01*
X864368Y825004D02*
X941504D01*
X852655Y813291D02*
X864368Y825004D01*
X671384Y907231D02*
X909528D01*
X915754Y901004D01*
X671361Y907254D02*
X671384Y907231D01*
X949004Y901004D02*
X952754Y897254D01*
Y897254D02*
Y897254D01*
X915754Y901004D02*
X949004D01*
X647761Y907254D02*
X671361D01*
X644254Y898559D02*
Y903747D01*
X647761Y907254D01*
X642852Y897157D02*
X644254Y898559D01*
X642852Y896345D02*
Y897157D01*
X952754Y897254D02*
X959254Y890754D01*
Y889504D02*
Y890754D01*
X670118Y904254D02*
X670142Y904231D01*
X908285D01*
X649004Y904254D02*
X670118D01*
X914511Y898004D02*
X947761D01*
X908285Y904231D02*
X914511Y898004D01*
X647254Y902504D02*
X649004Y904254D01*
X648852Y896345D02*
Y897125D01*
X953076Y889682D02*
X953254Y889504D01*
X947761Y898004D02*
X953076Y892690D01*
Y889682D02*
Y892690D01*
X647254Y898723D02*
Y902504D01*
Y898723D02*
X648852Y897125D01*
X831663Y799260D02*
X834541Y796382D01*
X846307D01*
X835662Y799504D02*
X847427D01*
X832906Y802260D02*
X835662Y799504D01*
X846307Y796382D02*
X850310Y792379D01*
X943254Y808254D02*
X948557Y813558D01*
X771204Y787254D02*
X786210Y802260D01*
X847427Y799504D02*
X851552Y795379D01*
X834148Y805260D02*
X836029Y803379D01*
X845643D02*
X846643Y804379D01*
X836029Y803379D02*
X845643D01*
X846643Y804379D02*
X856257D01*
X850310Y792379D02*
X881394D01*
X935504Y800504D02*
X943254Y808254D01*
X881394Y792379D02*
X889519Y800504D01*
X856257Y804379D02*
X857257Y803379D01*
X851552Y795379D02*
X880151D01*
X745804Y787254D02*
X763810Y805260D01*
X857257Y803379D02*
X883909D01*
X895784Y815254D01*
X880151Y795379D02*
X893026Y808254D01*
X933254D01*
X895784Y815254D02*
X942754D01*
X836941Y813291D02*
X852655D01*
X835441Y811791D02*
X836941Y813291D01*
X889519Y800504D02*
X935504D01*
X948557Y813558D02*
Y828613D01*
X942754Y815254D02*
X943254Y815754D01*
X763810Y805260D02*
X834148D01*
X808610Y799260D02*
X831663D01*
X796604Y787254D02*
X808610Y799260D01*
X786210Y802260D02*
X832906D01*
X720404Y787254D02*
X744941Y811791D01*
X835441D01*
X905754Y1041416D02*
Y1053254D01*
Y1041416D02*
X948557Y998613D01*
X864368Y995004D02*
X941504D01*
X852655Y983291D02*
X864368Y995004D01*
X671384Y1077231D02*
X909528D01*
X915754Y1071004D01*
X671361Y1077254D02*
X671384Y1077231D01*
X949004Y1071004D02*
X952754Y1067254D01*
Y1067254D02*
Y1067254D01*
X915754Y1071004D02*
X949004D01*
X647761Y1077254D02*
X671361D01*
X644254Y1068559D02*
Y1073747D01*
X647761Y1077254D01*
X642852Y1067157D02*
X644254Y1068559D01*
X642852Y1066345D02*
Y1067157D01*
X952754Y1067254D02*
X959254Y1060754D01*
Y1059504D02*
Y1060754D01*
X670118Y1074254D02*
X670142Y1074231D01*
X908285D01*
X649004Y1074254D02*
X670118D01*
X914511Y1068004D02*
X947761D01*
X908285Y1074231D02*
X914511Y1068004D01*
X647254Y1072504D02*
X649004Y1074254D01*
X648852Y1066345D02*
Y1067125D01*
X953076Y1059682D02*
X953254Y1059504D01*
X947761Y1068004D02*
X953076Y1062690D01*
Y1059682D02*
Y1062690D01*
X647254Y1068723D02*
Y1072504D01*
Y1068723D02*
X648852Y1067125D01*
X831663Y969260D02*
X834541Y966382D01*
X846307D01*
X835662Y969504D02*
X847427D01*
X832906Y972260D02*
X835662Y969504D01*
X846307Y966382D02*
X850310Y962379D01*
X943254Y978254D02*
X948557Y983558D01*
X771204Y957254D02*
X786210Y972260D01*
X847427Y969504D02*
X851552Y965379D01*
X834148Y975260D02*
X836029Y973379D01*
X845643D02*
X846643Y974379D01*
X836029Y973379D02*
X845643D01*
X846643Y974379D02*
X856257D01*
X850310Y962379D02*
X881394D01*
X935504Y970504D02*
X943254Y978254D01*
X881394Y962379D02*
X889519Y970504D01*
X856257Y974379D02*
X857257Y973379D01*
X851552Y965379D02*
X880151D01*
X745804Y957254D02*
X763810Y975260D01*
X857257Y973379D02*
X883909D01*
X895784Y985254D01*
X880151Y965379D02*
X893026Y978254D01*
X933254D01*
X895784Y985254D02*
X942754D01*
X836941Y983291D02*
X852655D01*
X835441Y981791D02*
X836941Y983291D01*
X889519Y970504D02*
X935504D01*
X948557Y983558D02*
Y998613D01*
X942754Y985254D02*
X943254Y985754D01*
X763810Y975260D02*
X834148D01*
X808610Y969260D02*
X831663D01*
X796604Y957254D02*
X808610Y969260D01*
X786210Y972260D02*
X832906D01*
X720404Y957254D02*
X744941Y981791D01*
X835441D01*
X905754Y1211416D02*
Y1223254D01*
Y1211416D02*
X948557Y1168613D01*
X864368Y1165004D02*
X941504D01*
X852655Y1153291D02*
X864368Y1165004D01*
X671384Y1247231D02*
X909528D01*
X915754Y1241004D01*
X671361Y1247254D02*
X671384Y1247231D01*
X949004Y1241004D02*
X952754Y1237254D01*
Y1237254D02*
Y1237254D01*
X915754Y1241004D02*
X949004D01*
X647761Y1247254D02*
X671361D01*
X644254Y1238559D02*
Y1243747D01*
X647761Y1247254D01*
X642852Y1237157D02*
X644254Y1238559D01*
X642852Y1236345D02*
Y1237157D01*
X952754Y1237254D02*
X959254Y1230754D01*
Y1229504D02*
Y1230754D01*
X670118Y1244254D02*
X670142Y1244231D01*
X908285D01*
X649004Y1244254D02*
X670118D01*
X914511Y1238004D02*
X947761D01*
X908285Y1244231D02*
X914511Y1238004D01*
X647254Y1242504D02*
X649004Y1244254D01*
X648852Y1236345D02*
Y1237125D01*
X953076Y1229682D02*
X953254Y1229504D01*
X947761Y1238004D02*
X953076Y1232690D01*
Y1229682D02*
Y1232690D01*
X647254Y1238723D02*
Y1242504D01*
Y1238723D02*
X648852Y1237125D01*
X831663Y1139260D02*
X834541Y1136382D01*
X846307D01*
X835662Y1139504D02*
X847427D01*
X832906Y1142260D02*
X835662Y1139504D01*
X846307Y1136382D02*
X850310Y1132379D01*
X943254Y1148254D02*
X948557Y1153558D01*
X771204Y1127254D02*
X786210Y1142260D01*
X847427Y1139504D02*
X851552Y1135379D01*
X834148Y1145260D02*
X836029Y1143379D01*
X845643D02*
X846643Y1144379D01*
X836029Y1143379D02*
X845643D01*
X846643Y1144379D02*
X856257D01*
X850310Y1132379D02*
X881394D01*
X935504Y1140504D02*
X943254Y1148254D01*
X881394Y1132379D02*
X889519Y1140504D01*
X856257Y1144379D02*
X857257Y1143379D01*
X851552Y1135379D02*
X880151D01*
X745804Y1127254D02*
X763810Y1145260D01*
X857257Y1143379D02*
X883909D01*
X895784Y1155254D01*
X880151Y1135379D02*
X893026Y1148254D01*
X933254D01*
X895784Y1155254D02*
X942754D01*
X836941Y1153291D02*
X852655D01*
X835441Y1151791D02*
X836941Y1153291D01*
X889519Y1140504D02*
X935504D01*
X948557Y1153558D02*
Y1168613D01*
X942754Y1155254D02*
X943254Y1155754D01*
X763810Y1145260D02*
X834148D01*
X808610Y1139260D02*
X831663D01*
X796604Y1127254D02*
X808610Y1139260D01*
X786210Y1142260D02*
X832906D01*
X720404Y1127254D02*
X744941Y1151791D01*
X835441D01*
X905754Y1381416D02*
Y1393254D01*
Y1381416D02*
X948557Y1338613D01*
X864368Y1335004D02*
X941504D01*
X852655Y1323291D02*
X864368Y1335004D01*
X671384Y1417231D02*
X909528D01*
X915754Y1411004D01*
X671361Y1417254D02*
X671384Y1417231D01*
X949004Y1411004D02*
X952754Y1407254D01*
Y1407254D02*
Y1407254D01*
X915754Y1411004D02*
X949004D01*
X647761Y1417254D02*
X671361D01*
X644254Y1408559D02*
Y1413747D01*
X647761Y1417254D01*
X642852Y1407156D02*
X644254Y1408559D01*
X642852Y1406345D02*
Y1407156D01*
X952754Y1407254D02*
X959254Y1400754D01*
Y1399504D02*
Y1400754D01*
X670118Y1414254D02*
X670142Y1414231D01*
X908285D01*
X649004Y1414254D02*
X670118D01*
X914511Y1408004D02*
X947761D01*
X908285Y1414231D02*
X914511Y1408004D01*
X647254Y1412504D02*
X649004Y1414254D01*
X648852Y1406345D02*
Y1407126D01*
X953076Y1399682D02*
X953254Y1399504D01*
X947761Y1408004D02*
X953076Y1402690D01*
Y1399682D02*
Y1402690D01*
X647254Y1408723D02*
Y1412504D01*
Y1408723D02*
X648852Y1407126D01*
X831663Y1309260D02*
X834541Y1306382D01*
X846307D01*
X835662Y1309504D02*
X847427D01*
X832906Y1312260D02*
X835662Y1309504D01*
X846307Y1306382D02*
X850310Y1302379D01*
X943254Y1318254D02*
X948557Y1323557D01*
X771204Y1297254D02*
X786210Y1312260D01*
X847427Y1309504D02*
X851552Y1305379D01*
X834148Y1315260D02*
X836029Y1313379D01*
X845643D02*
X846643Y1314379D01*
X836029Y1313379D02*
X845643D01*
X846643Y1314379D02*
X856257D01*
X850310Y1302379D02*
X881394D01*
X935504Y1310504D02*
X943254Y1318254D01*
X881394Y1302379D02*
X889519Y1310504D01*
X856257Y1314379D02*
X857257Y1313379D01*
X851552Y1305379D02*
X880151D01*
X745804Y1297254D02*
X763810Y1315260D01*
X857257Y1313379D02*
X883909D01*
X895784Y1325254D01*
X880151Y1305379D02*
X893026Y1318254D01*
X933254D01*
X895784Y1325254D02*
X942754D01*
X836941Y1323291D02*
X852655D01*
X835441Y1321791D02*
X836941Y1323291D01*
X889519Y1310504D02*
X935504D01*
X948557Y1323557D02*
Y1338613D01*
X942754Y1325254D02*
X943254Y1325754D01*
X763810Y1315260D02*
X834148D01*
X808610Y1309260D02*
X831663D01*
X796604Y1297254D02*
X808610Y1309260D01*
X786210Y1312260D02*
X832906D01*
X720404Y1297254D02*
X744941Y1321791D01*
X835441D01*
D11*
X544704Y657004D02*
Y697004D01*
X845810Y682724D02*
Y698467D01*
X840090Y677004D02*
X845810Y682724D01*
X735728Y677004D02*
X840090D01*
X583304Y674054D02*
X586254Y677004D01*
X583304Y657004D02*
Y674054D01*
X577025Y633504D02*
X583304Y639784D01*
Y657004D01*
X550983Y633504D02*
X577025D01*
X544704Y639784D02*
X550983Y633504D01*
X544704Y639784D02*
Y657004D01*
X583304Y679954D02*
Y697004D01*
Y679954D02*
X586254Y677004D01*
X702535D01*
X702535Y677004D01*
X735728D01*
X735728Y677004D01*
X544704Y827004D02*
Y867004D01*
X845810Y852724D02*
Y868467D01*
X840090Y847004D02*
X845810Y852724D01*
X735728Y847004D02*
X840090D01*
X583304Y844054D02*
X586254Y847004D01*
X583304Y827004D02*
Y844054D01*
X577025Y803504D02*
X583304Y809783D01*
Y827004D01*
X550983Y803504D02*
X577025D01*
X544704Y809783D02*
X550983Y803504D01*
X544704Y809783D02*
Y827004D01*
X583304Y849954D02*
Y867004D01*
Y849954D02*
X586254Y847004D01*
X702535D01*
X702535Y847004D01*
X735728D01*
X735728Y847004D01*
X544704Y997004D02*
Y1037004D01*
X845810Y1022724D02*
Y1038467D01*
X840090Y1017004D02*
X845810Y1022724D01*
X735728Y1017004D02*
X840090D01*
X583304Y1014054D02*
X586254Y1017004D01*
X583304Y997004D02*
Y1014054D01*
X577025Y973504D02*
X583304Y979783D01*
Y997004D01*
X550983Y973504D02*
X577025D01*
X544704Y979783D02*
X550983Y973504D01*
X544704Y979783D02*
Y997004D01*
X583304Y1019954D02*
Y1037004D01*
Y1019954D02*
X586254Y1017004D01*
X702535D01*
X702535Y1017004D01*
X735728D01*
X735728Y1017004D01*
X544704Y1167004D02*
Y1207004D01*
X845810Y1192724D02*
Y1208467D01*
X840090Y1187004D02*
X845810Y1192724D01*
X735728Y1187004D02*
X840090D01*
X583304Y1184054D02*
X586254Y1187004D01*
X583304Y1167004D02*
Y1184054D01*
X577025Y1143504D02*
X583304Y1149783D01*
Y1167004D01*
X550983Y1143504D02*
X577025D01*
X544704Y1149783D02*
X550983Y1143504D01*
X544704Y1149783D02*
Y1167004D01*
X583304Y1189954D02*
Y1207004D01*
Y1189954D02*
X586254Y1187004D01*
X702535D01*
X702535Y1187004D01*
X735728D01*
X735728Y1187004D01*
X544704Y1337004D02*
Y1377004D01*
X845810Y1362724D02*
Y1378467D01*
X840090Y1357004D02*
X845810Y1362724D01*
X735728Y1357004D02*
X840090D01*
X583304Y1354054D02*
X586254Y1357004D01*
X583304Y1337004D02*
Y1354054D01*
X577025Y1313504D02*
X583304Y1319783D01*
Y1337004D01*
X550983Y1313504D02*
X577025D01*
X544704Y1319783D02*
X550983Y1313504D01*
X544704Y1319783D02*
Y1337004D01*
X583304Y1359954D02*
Y1377004D01*
Y1359954D02*
X586254Y1357004D01*
X702535D01*
X702535Y1357004D01*
X735728D01*
X735728Y1357004D01*
D12*
X564004Y694818D02*
Y700004D01*
Y654004D02*
Y659191D01*
Y700004D02*
X571004D01*
X557004Y654004D02*
X564004D01*
X571004D01*
X557004Y700004D02*
X564004D01*
Y864818D02*
Y870004D01*
Y824004D02*
Y829191D01*
Y870004D02*
X571004D01*
X557004Y824004D02*
X564004D01*
X571004D01*
X557004Y870004D02*
X564004D01*
Y1034818D02*
Y1040004D01*
Y994004D02*
Y999191D01*
Y1040004D02*
X571004D01*
X557004Y994004D02*
X564004D01*
X571004D01*
X557004Y1040004D02*
X564004D01*
Y1204818D02*
Y1210004D01*
Y1164004D02*
Y1169191D01*
Y1210004D02*
X571004D01*
X557004Y1164004D02*
X564004D01*
X571004D01*
X557004Y1210004D02*
X564004D01*
Y1374818D02*
Y1380004D01*
Y1334004D02*
Y1339191D01*
Y1380004D02*
X571004D01*
X557004Y1334004D02*
X564004D01*
X571004D01*
X557004Y1380004D02*
X564004D01*
D13*
Y694818D02*
X564004Y694818D01*
Y693404D02*
Y694818D01*
X564004Y864818D02*
X564004Y864818D01*
Y863404D02*
Y864818D01*
X564004Y1034818D02*
X564004Y1034818D01*
Y1033404D02*
Y1034818D01*
X564004Y1204818D02*
X564004Y1204818D01*
Y1203404D02*
Y1204818D01*
X564004Y1374818D02*
X564004Y1374818D01*
Y1373404D02*
Y1374818D01*
D14*
Y681254D02*
Y693404D01*
X564004Y681254D02*
X564004Y681254D01*
X564004Y659191D02*
Y681254D01*
X564004Y851254D02*
Y863404D01*
X564004Y851254D02*
X564004Y851254D01*
X564004Y829191D02*
Y851254D01*
X564004Y1021254D02*
Y1033404D01*
X564004Y1021254D02*
X564004Y1021254D01*
X564004Y999191D02*
Y1021254D01*
X564004Y1191254D02*
Y1203404D01*
X564004Y1191254D02*
X564004Y1191254D01*
X564004Y1169191D02*
Y1191254D01*
X564004Y1361254D02*
Y1373404D01*
X564004Y1361254D02*
X564004Y1361254D01*
X564004Y1339191D02*
Y1361254D01*
D15*
X608320Y698467D02*
D03*
X629910D02*
D03*
X651500D02*
D03*
X673090D02*
D03*
X694680D02*
D03*
X716270D02*
D03*
X737860D02*
D03*
X759450D02*
D03*
X781040D02*
D03*
X802630D02*
D03*
X824220D02*
D03*
X845810D02*
D03*
X608320Y655541D02*
D03*
X629910D02*
D03*
X651500D02*
D03*
X673090D02*
D03*
X694680D02*
D03*
X716270D02*
D03*
X737860D02*
D03*
X759450D02*
D03*
X781040D02*
D03*
X802630D02*
D03*
X824220D02*
D03*
X845810D02*
D03*
X608320Y868467D02*
D03*
X629910D02*
D03*
X651500D02*
D03*
X673090D02*
D03*
X694680D02*
D03*
X716270D02*
D03*
X737860D02*
D03*
X759450D02*
D03*
X781040D02*
D03*
X802630D02*
D03*
X824220D02*
D03*
X845810D02*
D03*
X608320Y825541D02*
D03*
X629910D02*
D03*
X651500D02*
D03*
X673090D02*
D03*
X694680D02*
D03*
X716270D02*
D03*
X737860D02*
D03*
X759450D02*
D03*
X781040D02*
D03*
X802630D02*
D03*
X824220D02*
D03*
X845810D02*
D03*
X608320Y1038467D02*
D03*
X629910D02*
D03*
X651500D02*
D03*
X673090D02*
D03*
X694680D02*
D03*
X716270D02*
D03*
X737860D02*
D03*
X759450D02*
D03*
X781040D02*
D03*
X802630D02*
D03*
X824220D02*
D03*
X845810D02*
D03*
X608320Y995541D02*
D03*
X629910D02*
D03*
X651500D02*
D03*
X673090D02*
D03*
X694680D02*
D03*
X716270D02*
D03*
X737860D02*
D03*
X759450D02*
D03*
X781040D02*
D03*
X802630D02*
D03*
X824220D02*
D03*
X845810D02*
D03*
X608320Y1208467D02*
D03*
X629910D02*
D03*
X651500D02*
D03*
X673090D02*
D03*
X694680D02*
D03*
X716270D02*
D03*
X737860D02*
D03*
X759450D02*
D03*
X781040D02*
D03*
X802630D02*
D03*
X824220D02*
D03*
X845810D02*
D03*
X608320Y1165541D02*
D03*
X629910D02*
D03*
X651500D02*
D03*
X673090D02*
D03*
X694680D02*
D03*
X716270D02*
D03*
X737860D02*
D03*
X759450D02*
D03*
X781040D02*
D03*
X802630D02*
D03*
X824220D02*
D03*
X845810D02*
D03*
X608320Y1378467D02*
D03*
X629910D02*
D03*
X651500D02*
D03*
X673090D02*
D03*
X694680D02*
D03*
X716270D02*
D03*
X737860D02*
D03*
X759450D02*
D03*
X781040D02*
D03*
X802630D02*
D03*
X824220D02*
D03*
X845810D02*
D03*
X608320Y1335541D02*
D03*
X629910D02*
D03*
X651500D02*
D03*
X673090D02*
D03*
X694680D02*
D03*
X716270D02*
D03*
X737860D02*
D03*
X759450D02*
D03*
X781040D02*
D03*
X802630D02*
D03*
X824220D02*
D03*
X845810D02*
D03*
D16*
X544704Y657004D02*
D03*
Y697004D02*
D03*
X583304D02*
D03*
Y657004D02*
D03*
X544704Y827004D02*
D03*
Y867004D02*
D03*
X583304D02*
D03*
Y827004D02*
D03*
X544704Y997004D02*
D03*
Y1037004D02*
D03*
X583304D02*
D03*
Y997004D02*
D03*
X544704Y1167004D02*
D03*
Y1207004D02*
D03*
X583304D02*
D03*
Y1167004D02*
D03*
X544704Y1337004D02*
D03*
Y1377004D02*
D03*
X583304D02*
D03*
Y1337004D02*
D03*
D17*
X571004Y644504D02*
D03*
Y654004D02*
D03*
Y663504D02*
D03*
Y672504D02*
D03*
Y681504D02*
D03*
Y690504D02*
D03*
Y700004D02*
D03*
Y709504D02*
D03*
X557004D02*
D03*
Y700004D02*
D03*
Y690504D02*
D03*
Y681504D02*
D03*
Y672504D02*
D03*
Y663504D02*
D03*
Y654004D02*
D03*
Y644504D02*
D03*
X571004Y814504D02*
D03*
Y824004D02*
D03*
Y833504D02*
D03*
Y842504D02*
D03*
Y851504D02*
D03*
Y860504D02*
D03*
Y870004D02*
D03*
Y879504D02*
D03*
X557004D02*
D03*
Y870004D02*
D03*
Y860504D02*
D03*
Y851504D02*
D03*
Y842504D02*
D03*
Y833504D02*
D03*
Y824004D02*
D03*
Y814504D02*
D03*
X571004Y984504D02*
D03*
Y994004D02*
D03*
Y1003504D02*
D03*
Y1012504D02*
D03*
Y1021504D02*
D03*
Y1030504D02*
D03*
Y1040004D02*
D03*
Y1049504D02*
D03*
X557004D02*
D03*
Y1040004D02*
D03*
Y1030504D02*
D03*
Y1021504D02*
D03*
Y1012504D02*
D03*
Y1003504D02*
D03*
Y994004D02*
D03*
Y984504D02*
D03*
X571004Y1154504D02*
D03*
Y1164004D02*
D03*
Y1173504D02*
D03*
Y1182504D02*
D03*
Y1191504D02*
D03*
Y1200504D02*
D03*
Y1210004D02*
D03*
Y1219504D02*
D03*
X557004D02*
D03*
Y1210004D02*
D03*
Y1200504D02*
D03*
Y1191504D02*
D03*
Y1182504D02*
D03*
Y1173504D02*
D03*
Y1164004D02*
D03*
Y1154504D02*
D03*
X571004Y1324504D02*
D03*
Y1334004D02*
D03*
Y1343504D02*
D03*
Y1352504D02*
D03*
Y1361504D02*
D03*
Y1370504D02*
D03*
Y1380004D02*
D03*
Y1389504D02*
D03*
X557004D02*
D03*
Y1380004D02*
D03*
Y1370504D02*
D03*
Y1361504D02*
D03*
Y1352504D02*
D03*
Y1343504D02*
D03*
Y1334004D02*
D03*
Y1324504D02*
D03*
D18*
X822004Y617254D02*
D03*
Y787254D02*
D03*
Y957254D02*
D03*
Y1127254D02*
D03*
Y1297254D02*
D03*
D19*
X695004Y617254D02*
D03*
X796604Y617254D02*
D03*
X771204Y617254D02*
D03*
X745804Y617254D02*
D03*
X720404Y617254D02*
D03*
X695004Y787254D02*
D03*
X796604Y787254D02*
D03*
X771204Y787254D02*
D03*
X745804Y787254D02*
D03*
X720404Y787254D02*
D03*
X695004Y957254D02*
D03*
X796604Y957254D02*
D03*
X771204Y957254D02*
D03*
X745804Y957254D02*
D03*
X720404Y957254D02*
D03*
X695004Y1127254D02*
D03*
X796604Y1127254D02*
D03*
X771204Y1127254D02*
D03*
X745804Y1127254D02*
D03*
X720404Y1127254D02*
D03*
X695004Y1297254D02*
D03*
X796604Y1297254D02*
D03*
X771204Y1297254D02*
D03*
X745804Y1297254D02*
D03*
X720404Y1297254D02*
D03*
D20*
X898254Y672004D02*
D03*
Y842004D02*
D03*
Y1012004D02*
D03*
Y1182004D02*
D03*
Y1352004D02*
D03*
D21*
X863254Y639004D02*
D03*
X865004Y702004D02*
D03*
X857504Y656504D02*
D03*
Y662504D02*
D03*
Y672004D02*
D03*
X941504Y655004D02*
D03*
X853165Y723254D02*
D03*
X959254Y719504D02*
D03*
X642852Y726345D02*
D03*
X953254Y719504D02*
D03*
X648852Y726345D02*
D03*
X805504Y717004D02*
D03*
X517126Y608754D02*
D03*
Y745254D02*
D03*
X478376Y694004D02*
D03*
Y660004D02*
D03*
X975632Y660004D02*
D03*
X975754Y694004D02*
D03*
X556004Y744754D02*
D03*
X636602Y726345D02*
D03*
X655102Y726345D02*
D03*
X871754Y617004D02*
D03*
X858754Y726504D02*
D03*
X637004Y744254D02*
D03*
X609004D02*
D03*
X669504Y727254D02*
D03*
X742504Y717004D02*
D03*
X544004Y623504D02*
D03*
X889504Y713254D02*
D03*
X945754Y719504D02*
D03*
X943254Y614754D02*
D03*
X974504Y645754D02*
D03*
Y652004D02*
D03*
X932004Y710754D02*
D03*
Y703754D02*
D03*
X944504Y737004D02*
D03*
X880754Y713254D02*
D03*
X905754D02*
D03*
X892004Y624504D02*
D03*
X933254Y638254D02*
D03*
X958254Y630754D02*
D03*
X943254Y645754D02*
D03*
Y623254D02*
D03*
Y630754D02*
D03*
Y638254D02*
D03*
X512254Y695004D02*
D03*
Y731754D02*
D03*
X614004Y615504D02*
D03*
X548254Y727754D02*
D03*
X537704Y727678D02*
D03*
X684754Y666254D02*
D03*
X596004Y622504D02*
D03*
X854393Y629879D02*
D03*
X837893Y637879D02*
D03*
X863254Y809004D02*
D03*
X865004Y872004D02*
D03*
X857504Y826504D02*
D03*
Y832504D02*
D03*
Y842004D02*
D03*
X941504Y825004D02*
D03*
X853165Y893254D02*
D03*
X959254Y889504D02*
D03*
X642852Y896345D02*
D03*
X953254Y889504D02*
D03*
X648852Y896345D02*
D03*
X805504Y887004D02*
D03*
X517126Y778754D02*
D03*
Y915254D02*
D03*
X478376Y864004D02*
D03*
Y830004D02*
D03*
X975632Y830004D02*
D03*
X975754Y864004D02*
D03*
X556004Y914754D02*
D03*
X636602Y896345D02*
D03*
X655102Y896345D02*
D03*
X871754Y787004D02*
D03*
X858754Y896504D02*
D03*
X637004Y914254D02*
D03*
X609004D02*
D03*
X669504Y897254D02*
D03*
X742504Y887004D02*
D03*
X544004Y793504D02*
D03*
X889504Y883254D02*
D03*
X945754Y889504D02*
D03*
X943254Y784754D02*
D03*
X974504Y815754D02*
D03*
Y822004D02*
D03*
X932004Y880754D02*
D03*
Y873754D02*
D03*
X944504Y907004D02*
D03*
X880754Y883254D02*
D03*
X905754D02*
D03*
X892004Y794504D02*
D03*
X933254Y808254D02*
D03*
X958254Y800754D02*
D03*
X943254Y815754D02*
D03*
Y793254D02*
D03*
Y800754D02*
D03*
Y808254D02*
D03*
X512254Y865004D02*
D03*
Y901754D02*
D03*
X614004Y785504D02*
D03*
X548254Y897754D02*
D03*
X537704Y897678D02*
D03*
X684754Y836254D02*
D03*
X596004Y792504D02*
D03*
X854393Y799879D02*
D03*
X837893Y807879D02*
D03*
X863254Y979004D02*
D03*
X865004Y1042004D02*
D03*
X857504Y996504D02*
D03*
Y1002504D02*
D03*
Y1012004D02*
D03*
X941504Y995004D02*
D03*
X853165Y1063254D02*
D03*
X959254Y1059504D02*
D03*
X642852Y1066345D02*
D03*
X953254Y1059504D02*
D03*
X648852Y1066345D02*
D03*
X805504Y1057004D02*
D03*
X517126Y948754D02*
D03*
Y1085254D02*
D03*
X478376Y1034004D02*
D03*
Y1000004D02*
D03*
X975632Y1000004D02*
D03*
X975754Y1034004D02*
D03*
X556004Y1084754D02*
D03*
X636602Y1066345D02*
D03*
X655102Y1066345D02*
D03*
X871754Y957004D02*
D03*
X858754Y1066504D02*
D03*
X637004Y1084254D02*
D03*
X609004D02*
D03*
X669504Y1067254D02*
D03*
X742504Y1057004D02*
D03*
X544004Y963504D02*
D03*
X889504Y1053254D02*
D03*
X945754Y1059504D02*
D03*
X943254Y954754D02*
D03*
X974504Y985754D02*
D03*
Y992004D02*
D03*
X932004Y1050754D02*
D03*
Y1043754D02*
D03*
X944504Y1077004D02*
D03*
X880754Y1053254D02*
D03*
X905754D02*
D03*
X892004Y964504D02*
D03*
X933254Y978254D02*
D03*
X958254Y970754D02*
D03*
X943254Y985754D02*
D03*
Y963254D02*
D03*
Y970754D02*
D03*
Y978254D02*
D03*
X512254Y1035004D02*
D03*
Y1071754D02*
D03*
X614004Y955504D02*
D03*
X548254Y1067754D02*
D03*
X537704Y1067678D02*
D03*
X684754Y1006254D02*
D03*
X596004Y962504D02*
D03*
X854393Y969879D02*
D03*
X837893Y977879D02*
D03*
X863254Y1149004D02*
D03*
X865004Y1212004D02*
D03*
X857504Y1166504D02*
D03*
Y1172504D02*
D03*
Y1182004D02*
D03*
X941504Y1165004D02*
D03*
X853165Y1233254D02*
D03*
X959254Y1229504D02*
D03*
X642852Y1236345D02*
D03*
X953254Y1229504D02*
D03*
X648852Y1236345D02*
D03*
X805504Y1227004D02*
D03*
X517126Y1118754D02*
D03*
Y1255254D02*
D03*
X478376Y1204004D02*
D03*
Y1170004D02*
D03*
X975632Y1170004D02*
D03*
X975754Y1204004D02*
D03*
X556004Y1254754D02*
D03*
X636602Y1236345D02*
D03*
X655102Y1236345D02*
D03*
X871754Y1127004D02*
D03*
X858754Y1236504D02*
D03*
X637004Y1254254D02*
D03*
X609004D02*
D03*
X669504Y1237254D02*
D03*
X742504Y1227004D02*
D03*
X544004Y1133504D02*
D03*
X889504Y1223254D02*
D03*
X945754Y1229504D02*
D03*
X943254Y1124754D02*
D03*
X974504Y1155754D02*
D03*
Y1162004D02*
D03*
X932004Y1220754D02*
D03*
Y1213754D02*
D03*
X944504Y1247004D02*
D03*
X880754Y1223254D02*
D03*
X905754D02*
D03*
X892004Y1134504D02*
D03*
X933254Y1148254D02*
D03*
X958254Y1140754D02*
D03*
X943254Y1155754D02*
D03*
Y1133254D02*
D03*
Y1140754D02*
D03*
Y1148254D02*
D03*
X512254Y1205004D02*
D03*
Y1241754D02*
D03*
X614004Y1125504D02*
D03*
X548254Y1237754D02*
D03*
X537704Y1237678D02*
D03*
X684754Y1176254D02*
D03*
X596004Y1132504D02*
D03*
X854393Y1139879D02*
D03*
X837893Y1147879D02*
D03*
X863254Y1319004D02*
D03*
X865004Y1382004D02*
D03*
X857504Y1336504D02*
D03*
Y1342504D02*
D03*
Y1352004D02*
D03*
X941504Y1335004D02*
D03*
X853165Y1403254D02*
D03*
X959254Y1399504D02*
D03*
X642852Y1406345D02*
D03*
X953254Y1399504D02*
D03*
X648852Y1406345D02*
D03*
X805504Y1397004D02*
D03*
X517126Y1288754D02*
D03*
Y1425254D02*
D03*
X478376Y1374004D02*
D03*
Y1340004D02*
D03*
X975632Y1340004D02*
D03*
X975754Y1374004D02*
D03*
X556004Y1424754D02*
D03*
X636602Y1406345D02*
D03*
X655102Y1406345D02*
D03*
X871754Y1297004D02*
D03*
X858754Y1406504D02*
D03*
X637004Y1424254D02*
D03*
X609004D02*
D03*
X669504Y1407254D02*
D03*
X742504Y1397004D02*
D03*
X544004Y1303504D02*
D03*
X889504Y1393254D02*
D03*
X945754Y1399504D02*
D03*
X943254Y1294754D02*
D03*
X974504Y1325754D02*
D03*
Y1332004D02*
D03*
X932004Y1390754D02*
D03*
Y1383754D02*
D03*
X944504Y1417004D02*
D03*
X880754Y1393254D02*
D03*
X905754D02*
D03*
X892004Y1304504D02*
D03*
X933254Y1318254D02*
D03*
X958254Y1310754D02*
D03*
X943254Y1325754D02*
D03*
Y1303254D02*
D03*
Y1310754D02*
D03*
Y1318254D02*
D03*
X512254Y1375004D02*
D03*
Y1411754D02*
D03*
X614004Y1295504D02*
D03*
X548254Y1407754D02*
D03*
X537704Y1407678D02*
D03*
X684754Y1346254D02*
D03*
X596004Y1302504D02*
D03*
X854393Y1309879D02*
D03*
X837893Y1317879D02*
D03*
M02*
