G04*
G04 #@! TF.GenerationSoftware,Altium Limited,Altium Designer,25.5.2 (35)*
G04*
G04 Layer_Color=8388736*
%FSLAX44Y44*%
%MOMM*%
G71*
G04*
G04 #@! TF.SameCoordinates,67B56F09-9997-41D6-AB2B-D5ECDE41145E*
G04*
G04*
G04 #@! TF.FilePolarity,Positive*
G04*
G01*
G75*
%ADD36C,0.0500*%
G36*
X885254Y1413504D02*
X873754D01*
Y1424004D01*
X885254D01*
Y1413504D01*
D02*
G37*
G36*
X750608Y1401004D02*
X734754D01*
Y1424858D01*
X750608D01*
Y1401004D01*
D02*
G37*
G36*
X690608D02*
X674754D01*
Y1424858D01*
X690608D01*
Y1401004D01*
D02*
G37*
G36*
X885254Y1243504D02*
X873754D01*
Y1254004D01*
X885254D01*
Y1243504D01*
D02*
G37*
G36*
X750608Y1231004D02*
X734754D01*
Y1254858D01*
X750608D01*
Y1231004D01*
D02*
G37*
G36*
X690608D02*
X674754D01*
Y1254858D01*
X690608D01*
Y1231004D01*
D02*
G37*
G36*
X885254Y1073504D02*
X873754D01*
Y1084004D01*
X885254D01*
Y1073504D01*
D02*
G37*
G36*
X750608Y1061004D02*
X734754D01*
Y1084858D01*
X750608D01*
Y1061004D01*
D02*
G37*
G36*
X690608D02*
X674754D01*
Y1084858D01*
X690608D01*
Y1061004D01*
D02*
G37*
G36*
X885254Y903504D02*
X873754D01*
Y914004D01*
X885254D01*
Y903504D01*
D02*
G37*
G36*
X750608Y891004D02*
X734754D01*
Y914858D01*
X750608D01*
Y891004D01*
D02*
G37*
G36*
X690608D02*
X674754D01*
Y914858D01*
X690608D01*
Y891004D01*
D02*
G37*
G36*
X885254Y733504D02*
X873754D01*
Y744004D01*
X885254D01*
Y733504D01*
D02*
G37*
G36*
X750608Y721004D02*
X734754D01*
Y744858D01*
X750608D01*
Y721004D01*
D02*
G37*
G36*
X690608D02*
X674754D01*
Y744858D01*
X690608D01*
Y721004D01*
D02*
G37*
%LPC*%
G36*
X880863Y1421358D02*
X878145D01*
X878103Y1421344D01*
X878089Y1421330D01*
X878062Y1421302D01*
Y1421296D01*
X878048Y1421282D01*
X878041Y1421254D01*
X878027Y1421219D01*
Y1421212D01*
Y1421185D01*
X878020Y1421143D01*
Y1421087D01*
Y1421074D01*
Y1421046D01*
Y1421011D01*
X878027Y1420970D01*
Y1420963D01*
X878034Y1420935D01*
X878048Y1420907D01*
X878055Y1420880D01*
X878062Y1420873D01*
X878069Y1420859D01*
X878103Y1420824D01*
X878110Y1420817D01*
X878124Y1420810D01*
X878138Y1420803D01*
X879240D01*
Y1416871D01*
X878242Y1417468D01*
X878228Y1417475D01*
X878200Y1417489D01*
X878159Y1417509D01*
X878117Y1417523D01*
X878089D01*
X878062Y1417516D01*
X878041Y1417502D01*
X878034Y1417496D01*
X878027Y1417482D01*
X878013Y1417454D01*
X878006Y1417419D01*
Y1417406D01*
Y1417378D01*
X877999Y1417329D01*
Y1417142D01*
X878006Y1417121D01*
X878013Y1417093D01*
X878020Y1417073D01*
Y1417066D01*
X878027Y1417052D01*
X878055Y1417017D01*
X878062Y1417010D01*
X878069Y1416996D01*
X878110Y1416962D01*
X879303Y1416199D01*
X879310Y1416192D01*
X879338Y1416185D01*
X879344D01*
X879358Y1416178D01*
X879400Y1416164D01*
X879407D01*
X879421Y1416157D01*
X879490D01*
X879518Y1416150D01*
X877999D01*
D01*
X879657D01*
X879712Y1416157D01*
X879761Y1416164D01*
X879774D01*
X879802Y1416171D01*
X879837Y1416178D01*
X879865Y1416185D01*
X879872D01*
X879885Y1416192D01*
X879899Y1416206D01*
X879913Y1416220D01*
X879920Y1416234D01*
X879927Y1416268D01*
Y1420803D01*
X880884D01*
X880898Y1420810D01*
X880919Y1420824D01*
X880926Y1420831D01*
X880932Y1420838D01*
X880967Y1420880D01*
X880974Y1420886D01*
X880981Y1420900D01*
X880988Y1420935D01*
X880995Y1420970D01*
Y1420977D01*
X881002Y1421004D01*
X881009Y1421039D01*
Y1421129D01*
X881002Y1421178D01*
X880995Y1421219D01*
Y1421226D01*
X880988Y1421247D01*
X880960Y1421302D01*
Y1421309D01*
X880946Y1421316D01*
X880912Y1421344D01*
X880898Y1421351D01*
X880863Y1421358D01*
D02*
G37*
G36*
X746051Y1418145D02*
X740395D01*
X745177D01*
X745039Y1418132D01*
X744886Y1418118D01*
X744858D01*
X744789Y1418104D01*
X744706Y1418076D01*
X744622Y1418048D01*
X744609Y1418035D01*
X744581Y1418007D01*
X744525Y1417951D01*
X744484Y1417896D01*
X740684Y1412737D01*
Y1417896D01*
Y1417910D01*
Y1417924D01*
X740670Y1417965D01*
X740642Y1418007D01*
Y1418021D01*
X740614Y1418035D01*
X740587Y1418062D01*
X740531Y1418090D01*
X740517D01*
X740476Y1418104D01*
X740406D01*
X740309Y1418118D01*
X740282D01*
X740226Y1418132D01*
X740129Y1418145D01*
X739311D01*
X739879D01*
X739769Y1418132D01*
X739658Y1418118D01*
X739644D01*
X739588Y1418104D01*
X739519D01*
X739449Y1418090D01*
X739436D01*
X739408Y1418062D01*
X739366Y1418048D01*
X739339Y1418007D01*
Y1417993D01*
X739325Y1417965D01*
X739311Y1417896D01*
Y1407717D01*
D01*
Y1407938D01*
X739339Y1407869D01*
Y1407855D01*
X739366Y1407841D01*
X739394Y1407814D01*
X739449Y1407786D01*
X739463D01*
X739505Y1407772D01*
X739574Y1407758D01*
X739658Y1407744D01*
X739685D01*
X739755Y1407730D01*
X739852Y1407717D01*
X740101D01*
X740212Y1407730D01*
X740309Y1407744D01*
X740337D01*
X740393Y1407758D01*
X740462Y1407772D01*
X740531Y1407786D01*
X740545D01*
X740573Y1407800D01*
X740614Y1407827D01*
X740642Y1407869D01*
X740656Y1407883D01*
X740670Y1407897D01*
X740684Y1407938D01*
Y1407980D01*
Y1412570D01*
X744331Y1407980D01*
X744345Y1407966D01*
X744373Y1407938D01*
X744442Y1407869D01*
X744456Y1407855D01*
X744484Y1407841D01*
X744539Y1407814D01*
X744595Y1407786D01*
X744609D01*
X744664Y1407772D01*
X744733Y1407758D01*
X744817Y1407744D01*
X744844D01*
X744914Y1407730D01*
X745025Y1407717D01*
X745288D01*
X745385Y1407730D01*
X745496Y1407744D01*
X745524D01*
X745579Y1407758D01*
X745649Y1407772D01*
X745704Y1407800D01*
X745718D01*
X745746Y1407814D01*
X745787Y1407841D01*
X745815Y1407883D01*
X745829Y1407911D01*
X745843Y1407980D01*
Y1407994D01*
Y1408035D01*
X745815Y1408105D01*
X745787Y1408188D01*
X745773Y1408202D01*
X745746Y1408257D01*
X745676Y1408354D01*
X745593Y1408479D01*
X742168Y1412570D01*
X745857Y1417480D01*
Y1417494D01*
X745884Y1417508D01*
X745926Y1417591D01*
X745982Y1417688D01*
X746023Y1417757D01*
Y1417771D01*
X746037Y1417799D01*
X746051Y1417882D01*
Y1417924D01*
X746023Y1418007D01*
X745995Y1418035D01*
X745968Y1418048D01*
X745912Y1418076D01*
X745898D01*
X745857Y1418090D01*
X745787Y1418104D01*
X745690Y1418118D01*
X745663D01*
X745607Y1418132D01*
X745496Y1418145D01*
X746051D01*
D02*
G37*
G36*
X685496D02*
X685177D01*
X685038Y1418132D01*
X684886Y1418118D01*
X684858D01*
X684789Y1418104D01*
X684706Y1418076D01*
X684622Y1418048D01*
X684609Y1418035D01*
X684581Y1418007D01*
X684525Y1417951D01*
X684484Y1417896D01*
X680684Y1412737D01*
Y1417896D01*
Y1417910D01*
Y1417924D01*
X680670Y1417965D01*
X680642Y1418007D01*
Y1418021D01*
X680614Y1418035D01*
X680587Y1418062D01*
X680531Y1418090D01*
X680517D01*
X680476Y1418104D01*
X680406D01*
X680309Y1418118D01*
X680282D01*
X680226Y1418132D01*
X680129Y1418145D01*
X679879D01*
X679768Y1418132D01*
X679658Y1418118D01*
X679644D01*
X679588Y1418104D01*
X679519D01*
X679449Y1418090D01*
X679436D01*
X679408Y1418062D01*
X679366Y1418048D01*
X679339Y1418007D01*
Y1417993D01*
X679325Y1417965D01*
X679311Y1417896D01*
Y1407717D01*
X686051D01*
D01*
X685288D01*
X685385Y1407730D01*
X685496Y1407744D01*
X685524D01*
X685579Y1407758D01*
X685649Y1407772D01*
X685704Y1407800D01*
X685718D01*
X685746Y1407814D01*
X685787Y1407841D01*
X685815Y1407883D01*
X685829Y1407911D01*
X685843Y1407980D01*
Y1407994D01*
Y1408035D01*
X685815Y1408105D01*
X685787Y1408188D01*
X685773Y1408202D01*
X685746Y1408257D01*
X685676Y1408354D01*
X685593Y1408479D01*
X682168Y1412570D01*
X685857Y1417480D01*
Y1417494D01*
X685884Y1417508D01*
X685926Y1417591D01*
X685982Y1417688D01*
X686023Y1417757D01*
Y1417771D01*
X686037Y1417799D01*
X686051Y1417882D01*
Y1417924D01*
X686023Y1418007D01*
X685995Y1418035D01*
X685968Y1418048D01*
X685912Y1418076D01*
X685898D01*
X685857Y1418090D01*
X685787Y1418104D01*
X685690Y1418118D01*
X685663D01*
X685607Y1418132D01*
X685496Y1418145D01*
D02*
G37*
%LPD*%
G36*
X684331Y1407980D02*
X684345Y1407966D01*
X684373Y1407938D01*
X684442Y1407869D01*
X684456Y1407855D01*
X684484Y1407841D01*
X684539Y1407814D01*
X684595Y1407786D01*
X684609D01*
X684664Y1407772D01*
X684733Y1407758D01*
X684817Y1407744D01*
X684844D01*
X684914Y1407730D01*
X685025Y1407717D01*
X680101D01*
X680212Y1407730D01*
X680309Y1407744D01*
X680337D01*
X680393Y1407758D01*
X680462Y1407772D01*
X680531Y1407786D01*
X680545D01*
X680573Y1407800D01*
X680614Y1407827D01*
X680642Y1407869D01*
X680656Y1407883D01*
X680670Y1407897D01*
X680684Y1407938D01*
Y1407980D01*
Y1412570D01*
X684331Y1407980D01*
D02*
G37*
G36*
X679339Y1407869D02*
Y1407855D01*
X679366Y1407841D01*
X679394Y1407814D01*
X679449Y1407786D01*
X679463D01*
X679505Y1407772D01*
X679574Y1407758D01*
X679658Y1407744D01*
X679685D01*
X679755Y1407730D01*
X679852Y1407717D01*
X679311D01*
Y1407938D01*
X679339Y1407869D01*
D02*
G37*
%LPC*%
G36*
X880863Y1251358D02*
X878145D01*
X878103Y1251344D01*
X878089Y1251330D01*
X878062Y1251302D01*
Y1251296D01*
X878048Y1251282D01*
X878041Y1251254D01*
X878027Y1251219D01*
Y1251212D01*
Y1251185D01*
X878020Y1251143D01*
Y1251087D01*
Y1251074D01*
Y1251046D01*
Y1251011D01*
X878027Y1250970D01*
Y1250963D01*
X878034Y1250935D01*
X878048Y1250907D01*
X878055Y1250880D01*
X878062Y1250873D01*
X878069Y1250859D01*
X878103Y1250824D01*
X878110Y1250817D01*
X878124Y1250810D01*
X878138Y1250803D01*
X879240D01*
Y1246871D01*
X878242Y1247468D01*
X878228Y1247475D01*
X878200Y1247489D01*
X878159Y1247510D01*
X878117Y1247523D01*
X878089D01*
X878062Y1247516D01*
X878041Y1247503D01*
X878034Y1247496D01*
X878027Y1247482D01*
X878013Y1247454D01*
X878006Y1247419D01*
Y1247405D01*
Y1247378D01*
X877999Y1247329D01*
Y1247142D01*
X878006Y1247121D01*
X878013Y1247093D01*
X878020Y1247073D01*
Y1247066D01*
X878027Y1247052D01*
X878055Y1247017D01*
X878062Y1247010D01*
X878069Y1246996D01*
X878110Y1246962D01*
X879303Y1246199D01*
X879310Y1246192D01*
X879338Y1246185D01*
X879344D01*
X879358Y1246178D01*
X879400Y1246164D01*
X879407D01*
X879421Y1246157D01*
X879490D01*
X879518Y1246150D01*
X877999D01*
D01*
X879657D01*
X879712Y1246157D01*
X879761Y1246164D01*
X879774D01*
X879802Y1246171D01*
X879837Y1246178D01*
X879865Y1246185D01*
X879872D01*
X879885Y1246192D01*
X879899Y1246206D01*
X879913Y1246220D01*
X879920Y1246234D01*
X879927Y1246268D01*
Y1250803D01*
X880884D01*
X880898Y1250810D01*
X880919Y1250824D01*
X880926Y1250831D01*
X880932Y1250838D01*
X880967Y1250880D01*
X880974Y1250886D01*
X880981Y1250900D01*
X880988Y1250935D01*
X880995Y1250970D01*
Y1250977D01*
X881002Y1251004D01*
X881009Y1251039D01*
Y1251129D01*
X881002Y1251178D01*
X880995Y1251219D01*
Y1251226D01*
X880988Y1251247D01*
X880960Y1251302D01*
Y1251309D01*
X880946Y1251316D01*
X880912Y1251344D01*
X880898Y1251351D01*
X880863Y1251358D01*
D02*
G37*
G36*
X746051Y1248146D02*
X740395D01*
X745177D01*
X745039Y1248132D01*
X744886Y1248118D01*
X744858D01*
X744789Y1248104D01*
X744706Y1248076D01*
X744622Y1248048D01*
X744609Y1248035D01*
X744581Y1248007D01*
X744525Y1247951D01*
X744484Y1247896D01*
X740684Y1242737D01*
Y1247896D01*
Y1247910D01*
Y1247924D01*
X740670Y1247965D01*
X740642Y1248007D01*
Y1248021D01*
X740614Y1248035D01*
X740587Y1248062D01*
X740531Y1248090D01*
X740517D01*
X740476Y1248104D01*
X740406D01*
X740309Y1248118D01*
X740282D01*
X740226Y1248132D01*
X740129Y1248146D01*
X739311D01*
X739879D01*
X739769Y1248132D01*
X739658Y1248118D01*
X739644D01*
X739588Y1248104D01*
X739519D01*
X739449Y1248090D01*
X739436D01*
X739408Y1248062D01*
X739366Y1248048D01*
X739339Y1248007D01*
Y1247993D01*
X739325Y1247965D01*
X739311Y1247896D01*
Y1237717D01*
D01*
Y1237938D01*
X739339Y1237869D01*
Y1237855D01*
X739366Y1237841D01*
X739394Y1237814D01*
X739449Y1237786D01*
X739463D01*
X739505Y1237772D01*
X739574Y1237758D01*
X739658Y1237744D01*
X739685D01*
X739755Y1237730D01*
X739852Y1237717D01*
X740101D01*
X740212Y1237730D01*
X740309Y1237744D01*
X740337D01*
X740393Y1237758D01*
X740462Y1237772D01*
X740531Y1237786D01*
X740545D01*
X740573Y1237800D01*
X740614Y1237827D01*
X740642Y1237869D01*
X740656Y1237883D01*
X740670Y1237897D01*
X740684Y1237938D01*
Y1237980D01*
Y1242570D01*
X744331Y1237980D01*
X744345Y1237966D01*
X744373Y1237938D01*
X744442Y1237869D01*
X744456Y1237855D01*
X744484Y1237841D01*
X744539Y1237814D01*
X744595Y1237786D01*
X744609D01*
X744664Y1237772D01*
X744733Y1237758D01*
X744817Y1237744D01*
X744844D01*
X744914Y1237730D01*
X745025Y1237717D01*
X745288D01*
X745385Y1237730D01*
X745496Y1237744D01*
X745524D01*
X745579Y1237758D01*
X745649Y1237772D01*
X745704Y1237800D01*
X745718D01*
X745746Y1237814D01*
X745787Y1237841D01*
X745815Y1237883D01*
X745829Y1237911D01*
X745843Y1237980D01*
Y1237994D01*
Y1238035D01*
X745815Y1238105D01*
X745787Y1238188D01*
X745773Y1238202D01*
X745746Y1238257D01*
X745676Y1238354D01*
X745593Y1238479D01*
X742168Y1242570D01*
X745857Y1247480D01*
Y1247494D01*
X745884Y1247508D01*
X745926Y1247591D01*
X745982Y1247688D01*
X746023Y1247757D01*
Y1247771D01*
X746037Y1247799D01*
X746051Y1247882D01*
Y1247924D01*
X746023Y1248007D01*
X745995Y1248035D01*
X745968Y1248048D01*
X745912Y1248076D01*
X745898D01*
X745857Y1248090D01*
X745787Y1248104D01*
X745690Y1248118D01*
X745663D01*
X745607Y1248132D01*
X745496Y1248146D01*
X746051D01*
D02*
G37*
G36*
X685496D02*
X685177D01*
X685038Y1248132D01*
X684886Y1248118D01*
X684858D01*
X684789Y1248104D01*
X684706Y1248076D01*
X684622Y1248048D01*
X684609Y1248035D01*
X684581Y1248007D01*
X684525Y1247951D01*
X684484Y1247896D01*
X680684Y1242737D01*
Y1247896D01*
Y1247910D01*
Y1247924D01*
X680670Y1247965D01*
X680642Y1248007D01*
Y1248021D01*
X680614Y1248035D01*
X680587Y1248062D01*
X680531Y1248090D01*
X680517D01*
X680476Y1248104D01*
X680406D01*
X680309Y1248118D01*
X680282D01*
X680226Y1248132D01*
X680129Y1248146D01*
X679879D01*
X679768Y1248132D01*
X679658Y1248118D01*
X679644D01*
X679588Y1248104D01*
X679519D01*
X679449Y1248090D01*
X679436D01*
X679408Y1248062D01*
X679366Y1248048D01*
X679339Y1248007D01*
Y1247993D01*
X679325Y1247965D01*
X679311Y1247896D01*
Y1237717D01*
X686051D01*
D01*
X685288D01*
X685385Y1237730D01*
X685496Y1237744D01*
X685524D01*
X685579Y1237758D01*
X685649Y1237772D01*
X685704Y1237800D01*
X685718D01*
X685746Y1237814D01*
X685787Y1237841D01*
X685815Y1237883D01*
X685829Y1237911D01*
X685843Y1237980D01*
Y1237994D01*
Y1238035D01*
X685815Y1238105D01*
X685787Y1238188D01*
X685773Y1238202D01*
X685746Y1238257D01*
X685676Y1238354D01*
X685593Y1238479D01*
X682168Y1242570D01*
X685857Y1247480D01*
Y1247494D01*
X685884Y1247508D01*
X685926Y1247591D01*
X685982Y1247688D01*
X686023Y1247757D01*
Y1247771D01*
X686037Y1247799D01*
X686051Y1247882D01*
Y1247924D01*
X686023Y1248007D01*
X685995Y1248035D01*
X685968Y1248048D01*
X685912Y1248076D01*
X685898D01*
X685857Y1248090D01*
X685787Y1248104D01*
X685690Y1248118D01*
X685663D01*
X685607Y1248132D01*
X685496Y1248146D01*
D02*
G37*
%LPD*%
G36*
X684331Y1237980D02*
X684345Y1237966D01*
X684373Y1237938D01*
X684442Y1237869D01*
X684456Y1237855D01*
X684484Y1237841D01*
X684539Y1237814D01*
X684595Y1237786D01*
X684609D01*
X684664Y1237772D01*
X684733Y1237758D01*
X684817Y1237744D01*
X684844D01*
X684914Y1237730D01*
X685025Y1237717D01*
X680101D01*
X680212Y1237730D01*
X680309Y1237744D01*
X680337D01*
X680393Y1237758D01*
X680462Y1237772D01*
X680531Y1237786D01*
X680545D01*
X680573Y1237800D01*
X680614Y1237827D01*
X680642Y1237869D01*
X680656Y1237883D01*
X680670Y1237897D01*
X680684Y1237938D01*
Y1237980D01*
Y1242570D01*
X684331Y1237980D01*
D02*
G37*
G36*
X679339Y1237869D02*
Y1237855D01*
X679366Y1237841D01*
X679394Y1237814D01*
X679449Y1237786D01*
X679463D01*
X679505Y1237772D01*
X679574Y1237758D01*
X679658Y1237744D01*
X679685D01*
X679755Y1237730D01*
X679852Y1237717D01*
X679311D01*
Y1237938D01*
X679339Y1237869D01*
D02*
G37*
%LPC*%
G36*
X880863Y1081358D02*
X878145D01*
X878103Y1081344D01*
X878089Y1081330D01*
X878062Y1081302D01*
Y1081296D01*
X878048Y1081282D01*
X878041Y1081254D01*
X878027Y1081219D01*
Y1081212D01*
Y1081185D01*
X878020Y1081143D01*
Y1081088D01*
Y1081074D01*
Y1081046D01*
Y1081011D01*
X878027Y1080970D01*
Y1080963D01*
X878034Y1080935D01*
X878048Y1080907D01*
X878055Y1080880D01*
X878062Y1080873D01*
X878069Y1080859D01*
X878103Y1080824D01*
X878110Y1080817D01*
X878124Y1080810D01*
X878138Y1080803D01*
X879240D01*
Y1076872D01*
X878242Y1077468D01*
X878228Y1077475D01*
X878200Y1077489D01*
X878159Y1077510D01*
X878117Y1077523D01*
X878089D01*
X878062Y1077516D01*
X878041Y1077503D01*
X878034Y1077496D01*
X878027Y1077482D01*
X878013Y1077454D01*
X878006Y1077419D01*
Y1077405D01*
Y1077378D01*
X877999Y1077329D01*
Y1077142D01*
X878006Y1077121D01*
X878013Y1077094D01*
X878020Y1077073D01*
Y1077066D01*
X878027Y1077052D01*
X878055Y1077017D01*
X878062Y1077010D01*
X878069Y1076996D01*
X878110Y1076962D01*
X879303Y1076199D01*
X879310Y1076192D01*
X879338Y1076185D01*
X879344D01*
X879358Y1076178D01*
X879400Y1076164D01*
X879407D01*
X879421Y1076157D01*
X879490D01*
X879518Y1076150D01*
X877999D01*
D01*
X879657D01*
X879712Y1076157D01*
X879761Y1076164D01*
X879774D01*
X879802Y1076171D01*
X879837Y1076178D01*
X879865Y1076185D01*
X879872D01*
X879885Y1076192D01*
X879899Y1076206D01*
X879913Y1076220D01*
X879920Y1076234D01*
X879927Y1076268D01*
Y1080803D01*
X880884D01*
X880898Y1080810D01*
X880919Y1080824D01*
X880926Y1080831D01*
X880932Y1080838D01*
X880967Y1080880D01*
X880974Y1080887D01*
X880981Y1080900D01*
X880988Y1080935D01*
X880995Y1080970D01*
Y1080977D01*
X881002Y1081004D01*
X881009Y1081039D01*
Y1081129D01*
X881002Y1081178D01*
X880995Y1081219D01*
Y1081226D01*
X880988Y1081247D01*
X880960Y1081302D01*
Y1081309D01*
X880946Y1081316D01*
X880912Y1081344D01*
X880898Y1081351D01*
X880863Y1081358D01*
D02*
G37*
G36*
X746051Y1078146D02*
X740395D01*
X745177D01*
X745039Y1078132D01*
X744886Y1078118D01*
X744858D01*
X744789Y1078104D01*
X744706Y1078076D01*
X744622Y1078048D01*
X744609Y1078035D01*
X744581Y1078007D01*
X744525Y1077951D01*
X744484Y1077896D01*
X740684Y1072737D01*
Y1077896D01*
Y1077910D01*
Y1077924D01*
X740670Y1077965D01*
X740642Y1078007D01*
Y1078021D01*
X740614Y1078035D01*
X740587Y1078062D01*
X740531Y1078090D01*
X740517D01*
X740476Y1078104D01*
X740406D01*
X740309Y1078118D01*
X740282D01*
X740226Y1078132D01*
X740129Y1078146D01*
X739311D01*
X739879D01*
X739769Y1078132D01*
X739658Y1078118D01*
X739644D01*
X739588Y1078104D01*
X739519D01*
X739449Y1078090D01*
X739436D01*
X739408Y1078062D01*
X739366Y1078048D01*
X739339Y1078007D01*
Y1077993D01*
X739325Y1077965D01*
X739311Y1077896D01*
Y1067717D01*
D01*
Y1067938D01*
X739339Y1067869D01*
Y1067855D01*
X739366Y1067841D01*
X739394Y1067814D01*
X739449Y1067786D01*
X739463D01*
X739505Y1067772D01*
X739574Y1067758D01*
X739658Y1067744D01*
X739685D01*
X739755Y1067730D01*
X739852Y1067717D01*
X740101D01*
X740212Y1067730D01*
X740309Y1067744D01*
X740337D01*
X740393Y1067758D01*
X740462Y1067772D01*
X740531Y1067786D01*
X740545D01*
X740573Y1067800D01*
X740614Y1067827D01*
X740642Y1067869D01*
X740656Y1067883D01*
X740670Y1067897D01*
X740684Y1067938D01*
Y1067980D01*
Y1072570D01*
X744331Y1067980D01*
X744345Y1067966D01*
X744373Y1067938D01*
X744442Y1067869D01*
X744456Y1067855D01*
X744484Y1067841D01*
X744539Y1067814D01*
X744595Y1067786D01*
X744609D01*
X744664Y1067772D01*
X744733Y1067758D01*
X744817Y1067744D01*
X744844D01*
X744914Y1067730D01*
X745025Y1067717D01*
X745288D01*
X745385Y1067730D01*
X745496Y1067744D01*
X745524D01*
X745579Y1067758D01*
X745649Y1067772D01*
X745704Y1067800D01*
X745718D01*
X745746Y1067814D01*
X745787Y1067841D01*
X745815Y1067883D01*
X745829Y1067911D01*
X745843Y1067980D01*
Y1067994D01*
Y1068036D01*
X745815Y1068105D01*
X745787Y1068188D01*
X745773Y1068202D01*
X745746Y1068257D01*
X745676Y1068354D01*
X745593Y1068479D01*
X742168Y1072570D01*
X745857Y1077480D01*
Y1077494D01*
X745884Y1077508D01*
X745926Y1077591D01*
X745982Y1077688D01*
X746023Y1077757D01*
Y1077771D01*
X746037Y1077799D01*
X746051Y1077882D01*
Y1077924D01*
X746023Y1078007D01*
X745995Y1078035D01*
X745968Y1078048D01*
X745912Y1078076D01*
X745898D01*
X745857Y1078090D01*
X745787Y1078104D01*
X745690Y1078118D01*
X745663D01*
X745607Y1078132D01*
X745496Y1078146D01*
X746051D01*
D02*
G37*
G36*
X685496D02*
X685177D01*
X685038Y1078132D01*
X684886Y1078118D01*
X684858D01*
X684789Y1078104D01*
X684706Y1078076D01*
X684622Y1078048D01*
X684609Y1078035D01*
X684581Y1078007D01*
X684525Y1077951D01*
X684484Y1077896D01*
X680684Y1072737D01*
Y1077896D01*
Y1077910D01*
Y1077924D01*
X680670Y1077965D01*
X680642Y1078007D01*
Y1078021D01*
X680614Y1078035D01*
X680587Y1078062D01*
X680531Y1078090D01*
X680517D01*
X680476Y1078104D01*
X680406D01*
X680309Y1078118D01*
X680282D01*
X680226Y1078132D01*
X680129Y1078146D01*
X679879D01*
X679768Y1078132D01*
X679658Y1078118D01*
X679644D01*
X679588Y1078104D01*
X679519D01*
X679449Y1078090D01*
X679436D01*
X679408Y1078062D01*
X679366Y1078048D01*
X679339Y1078007D01*
Y1077993D01*
X679325Y1077965D01*
X679311Y1077896D01*
Y1067717D01*
X686051D01*
D01*
X685288D01*
X685385Y1067730D01*
X685496Y1067744D01*
X685524D01*
X685579Y1067758D01*
X685649Y1067772D01*
X685704Y1067800D01*
X685718D01*
X685746Y1067814D01*
X685787Y1067841D01*
X685815Y1067883D01*
X685829Y1067911D01*
X685843Y1067980D01*
Y1067994D01*
Y1068036D01*
X685815Y1068105D01*
X685787Y1068188D01*
X685773Y1068202D01*
X685746Y1068257D01*
X685676Y1068354D01*
X685593Y1068479D01*
X682168Y1072570D01*
X685857Y1077480D01*
Y1077494D01*
X685884Y1077508D01*
X685926Y1077591D01*
X685982Y1077688D01*
X686023Y1077757D01*
Y1077771D01*
X686037Y1077799D01*
X686051Y1077882D01*
Y1077924D01*
X686023Y1078007D01*
X685995Y1078035D01*
X685968Y1078048D01*
X685912Y1078076D01*
X685898D01*
X685857Y1078090D01*
X685787Y1078104D01*
X685690Y1078118D01*
X685663D01*
X685607Y1078132D01*
X685496Y1078146D01*
D02*
G37*
%LPD*%
G36*
X684331Y1067980D02*
X684345Y1067966D01*
X684373Y1067938D01*
X684442Y1067869D01*
X684456Y1067855D01*
X684484Y1067841D01*
X684539Y1067814D01*
X684595Y1067786D01*
X684609D01*
X684664Y1067772D01*
X684733Y1067758D01*
X684817Y1067744D01*
X684844D01*
X684914Y1067730D01*
X685025Y1067717D01*
X680101D01*
X680212Y1067730D01*
X680309Y1067744D01*
X680337D01*
X680393Y1067758D01*
X680462Y1067772D01*
X680531Y1067786D01*
X680545D01*
X680573Y1067800D01*
X680614Y1067827D01*
X680642Y1067869D01*
X680656Y1067883D01*
X680670Y1067897D01*
X680684Y1067938D01*
Y1067980D01*
Y1072570D01*
X684331Y1067980D01*
D02*
G37*
G36*
X679339Y1067869D02*
Y1067855D01*
X679366Y1067841D01*
X679394Y1067814D01*
X679449Y1067786D01*
X679463D01*
X679505Y1067772D01*
X679574Y1067758D01*
X679658Y1067744D01*
X679685D01*
X679755Y1067730D01*
X679852Y1067717D01*
X679311D01*
Y1067938D01*
X679339Y1067869D01*
D02*
G37*
%LPC*%
G36*
X880863Y911358D02*
X878145D01*
X878103Y911344D01*
X878089Y911330D01*
X878062Y911302D01*
Y911296D01*
X878048Y911282D01*
X878041Y911254D01*
X878027Y911219D01*
Y911212D01*
Y911185D01*
X878020Y911143D01*
Y911088D01*
Y911074D01*
Y911046D01*
Y911011D01*
X878027Y910970D01*
Y910963D01*
X878034Y910935D01*
X878048Y910907D01*
X878055Y910880D01*
X878062Y910873D01*
X878069Y910859D01*
X878103Y910824D01*
X878110Y910817D01*
X878124Y910810D01*
X878138Y910803D01*
X879240D01*
Y906872D01*
X878242Y907468D01*
X878228Y907475D01*
X878200Y907489D01*
X878159Y907510D01*
X878117Y907523D01*
X878089D01*
X878062Y907516D01*
X878041Y907503D01*
X878034Y907496D01*
X878027Y907482D01*
X878013Y907454D01*
X878006Y907419D01*
Y907405D01*
Y907378D01*
X877999Y907329D01*
Y907142D01*
X878006Y907121D01*
X878013Y907094D01*
X878020Y907073D01*
Y907066D01*
X878027Y907052D01*
X878055Y907017D01*
X878062Y907010D01*
X878069Y906996D01*
X878110Y906962D01*
X879303Y906199D01*
X879310Y906192D01*
X879338Y906185D01*
X879344D01*
X879358Y906178D01*
X879400Y906164D01*
X879407D01*
X879421Y906157D01*
X879490D01*
X879518Y906150D01*
X877999D01*
D01*
X879657D01*
X879712Y906157D01*
X879761Y906164D01*
X879774D01*
X879802Y906171D01*
X879837Y906178D01*
X879865Y906185D01*
X879872D01*
X879885Y906192D01*
X879899Y906206D01*
X879913Y906220D01*
X879920Y906234D01*
X879927Y906268D01*
Y910803D01*
X880884D01*
X880898Y910810D01*
X880919Y910824D01*
X880926Y910831D01*
X880932Y910838D01*
X880967Y910880D01*
X880974Y910887D01*
X880981Y910900D01*
X880988Y910935D01*
X880995Y910970D01*
Y910977D01*
X881002Y911004D01*
X881009Y911039D01*
Y911129D01*
X881002Y911178D01*
X880995Y911219D01*
Y911226D01*
X880988Y911247D01*
X880960Y911302D01*
Y911310D01*
X880946Y911316D01*
X880912Y911344D01*
X880898Y911351D01*
X880863Y911358D01*
D02*
G37*
G36*
X746051Y908146D02*
X740395D01*
X745177D01*
X745039Y908132D01*
X744886Y908118D01*
X744858D01*
X744789Y908104D01*
X744706Y908076D01*
X744622Y908048D01*
X744609Y908035D01*
X744581Y908007D01*
X744525Y907951D01*
X744484Y907896D01*
X740684Y902737D01*
Y907896D01*
Y907910D01*
Y907924D01*
X740670Y907965D01*
X740642Y908007D01*
Y908021D01*
X740614Y908035D01*
X740587Y908062D01*
X740531Y908090D01*
X740517D01*
X740476Y908104D01*
X740406D01*
X740309Y908118D01*
X740282D01*
X740226Y908132D01*
X740129Y908146D01*
X739311D01*
X739879D01*
X739769Y908132D01*
X739658Y908118D01*
X739644D01*
X739588Y908104D01*
X739519D01*
X739449Y908090D01*
X739436D01*
X739408Y908062D01*
X739366Y908048D01*
X739339Y908007D01*
Y907993D01*
X739325Y907965D01*
X739311Y907896D01*
Y897717D01*
D01*
Y897938D01*
X739339Y897869D01*
Y897855D01*
X739366Y897841D01*
X739394Y897814D01*
X739449Y897786D01*
X739463D01*
X739505Y897772D01*
X739574Y897758D01*
X739658Y897744D01*
X739685D01*
X739755Y897730D01*
X739852Y897717D01*
X740101D01*
X740212Y897730D01*
X740309Y897744D01*
X740337D01*
X740393Y897758D01*
X740462Y897772D01*
X740531Y897786D01*
X740545D01*
X740573Y897800D01*
X740614Y897827D01*
X740642Y897869D01*
X740656Y897883D01*
X740670Y897897D01*
X740684Y897938D01*
Y897980D01*
Y902570D01*
X744331Y897980D01*
X744345Y897966D01*
X744373Y897938D01*
X744442Y897869D01*
X744456Y897855D01*
X744484Y897841D01*
X744539Y897814D01*
X744595Y897786D01*
X744609D01*
X744664Y897772D01*
X744733Y897758D01*
X744817Y897744D01*
X744844D01*
X744914Y897730D01*
X745025Y897717D01*
X745288D01*
X745385Y897730D01*
X745496Y897744D01*
X745524D01*
X745579Y897758D01*
X745649Y897772D01*
X745704Y897800D01*
X745718D01*
X745746Y897814D01*
X745787Y897841D01*
X745815Y897883D01*
X745829Y897911D01*
X745843Y897980D01*
Y897994D01*
Y898036D01*
X745815Y898105D01*
X745787Y898188D01*
X745773Y898202D01*
X745746Y898257D01*
X745676Y898354D01*
X745593Y898479D01*
X742168Y902570D01*
X745857Y907480D01*
Y907494D01*
X745884Y907508D01*
X745926Y907591D01*
X745982Y907688D01*
X746023Y907757D01*
Y907771D01*
X746037Y907799D01*
X746051Y907882D01*
Y907924D01*
X746023Y908007D01*
X745995Y908035D01*
X745968Y908048D01*
X745912Y908076D01*
X745898D01*
X745857Y908090D01*
X745787Y908104D01*
X745690Y908118D01*
X745663D01*
X745607Y908132D01*
X745496Y908146D01*
X746051D01*
D02*
G37*
G36*
X685496D02*
X685177D01*
X685038Y908132D01*
X684886Y908118D01*
X684858D01*
X684789Y908104D01*
X684706Y908076D01*
X684622Y908048D01*
X684609Y908035D01*
X684581Y908007D01*
X684525Y907951D01*
X684484Y907896D01*
X680684Y902737D01*
Y907896D01*
Y907910D01*
Y907924D01*
X680670Y907965D01*
X680642Y908007D01*
Y908021D01*
X680614Y908035D01*
X680587Y908062D01*
X680531Y908090D01*
X680517D01*
X680476Y908104D01*
X680406D01*
X680309Y908118D01*
X680282D01*
X680226Y908132D01*
X680129Y908146D01*
X679879D01*
X679768Y908132D01*
X679658Y908118D01*
X679644D01*
X679588Y908104D01*
X679519D01*
X679449Y908090D01*
X679436D01*
X679408Y908062D01*
X679366Y908048D01*
X679339Y908007D01*
Y907993D01*
X679325Y907965D01*
X679311Y907896D01*
Y897717D01*
X686051D01*
D01*
X685288D01*
X685385Y897730D01*
X685496Y897744D01*
X685524D01*
X685579Y897758D01*
X685649Y897772D01*
X685704Y897800D01*
X685718D01*
X685746Y897814D01*
X685787Y897841D01*
X685815Y897883D01*
X685829Y897911D01*
X685843Y897980D01*
Y897994D01*
Y898036D01*
X685815Y898105D01*
X685787Y898188D01*
X685773Y898202D01*
X685746Y898257D01*
X685676Y898354D01*
X685593Y898479D01*
X682168Y902570D01*
X685857Y907480D01*
Y907494D01*
X685884Y907508D01*
X685926Y907591D01*
X685982Y907688D01*
X686023Y907757D01*
Y907771D01*
X686037Y907799D01*
X686051Y907882D01*
Y907924D01*
X686023Y908007D01*
X685995Y908035D01*
X685968Y908048D01*
X685912Y908076D01*
X685898D01*
X685857Y908090D01*
X685787Y908104D01*
X685690Y908118D01*
X685663D01*
X685607Y908132D01*
X685496Y908146D01*
D02*
G37*
%LPD*%
G36*
X684331Y897980D02*
X684345Y897966D01*
X684373Y897938D01*
X684442Y897869D01*
X684456Y897855D01*
X684484Y897841D01*
X684539Y897814D01*
X684595Y897786D01*
X684609D01*
X684664Y897772D01*
X684733Y897758D01*
X684817Y897744D01*
X684844D01*
X684914Y897730D01*
X685025Y897717D01*
X680101D01*
X680212Y897730D01*
X680309Y897744D01*
X680337D01*
X680393Y897758D01*
X680462Y897772D01*
X680531Y897786D01*
X680545D01*
X680573Y897800D01*
X680614Y897827D01*
X680642Y897869D01*
X680656Y897883D01*
X680670Y897897D01*
X680684Y897938D01*
Y897980D01*
Y902570D01*
X684331Y897980D01*
D02*
G37*
G36*
X679339Y897869D02*
Y897855D01*
X679366Y897841D01*
X679394Y897814D01*
X679449Y897786D01*
X679463D01*
X679505Y897772D01*
X679574Y897758D01*
X679658Y897744D01*
X679685D01*
X679755Y897730D01*
X679852Y897717D01*
X679311D01*
Y897938D01*
X679339Y897869D01*
D02*
G37*
%LPC*%
G36*
X880863Y741358D02*
X878145D01*
X878103Y741344D01*
X878089Y741330D01*
X878062Y741302D01*
Y741296D01*
X878048Y741282D01*
X878041Y741254D01*
X878027Y741219D01*
Y741212D01*
Y741185D01*
X878020Y741143D01*
Y741088D01*
Y741074D01*
Y741046D01*
Y741011D01*
X878027Y740970D01*
Y740963D01*
X878034Y740935D01*
X878048Y740907D01*
X878055Y740880D01*
X878062Y740873D01*
X878069Y740859D01*
X878103Y740824D01*
X878110Y740817D01*
X878124Y740810D01*
X878138Y740803D01*
X879240D01*
Y736872D01*
X878242Y737468D01*
X878228Y737475D01*
X878200Y737489D01*
X878159Y737510D01*
X878117Y737523D01*
X878089D01*
X878062Y737516D01*
X878041Y737503D01*
X878034Y737496D01*
X878027Y737482D01*
X878013Y737454D01*
X878006Y737419D01*
Y737405D01*
Y737378D01*
X877999Y737329D01*
Y737142D01*
X878006Y737121D01*
X878013Y737094D01*
X878020Y737073D01*
Y737066D01*
X878027Y737052D01*
X878055Y737017D01*
X878062Y737010D01*
X878069Y736996D01*
X878110Y736962D01*
X879303Y736199D01*
X879310Y736192D01*
X879338Y736185D01*
X879344D01*
X879358Y736178D01*
X879400Y736164D01*
X879407D01*
X879421Y736157D01*
X879490D01*
X879518Y736150D01*
X877999D01*
D01*
X879657D01*
X879712Y736157D01*
X879761Y736164D01*
X879774D01*
X879802Y736171D01*
X879837Y736178D01*
X879865Y736185D01*
X879872D01*
X879885Y736192D01*
X879899Y736206D01*
X879913Y736220D01*
X879920Y736234D01*
X879927Y736268D01*
Y740803D01*
X880884D01*
X880898Y740810D01*
X880919Y740824D01*
X880926Y740831D01*
X880932Y740838D01*
X880967Y740880D01*
X880974Y740887D01*
X880981Y740900D01*
X880988Y740935D01*
X880995Y740970D01*
Y740977D01*
X881002Y741004D01*
X881009Y741039D01*
Y741129D01*
X881002Y741178D01*
X880995Y741219D01*
Y741226D01*
X880988Y741247D01*
X880960Y741302D01*
Y741310D01*
X880946Y741316D01*
X880912Y741344D01*
X880898Y741351D01*
X880863Y741358D01*
D02*
G37*
G36*
X746051Y738146D02*
X740395D01*
X745177D01*
X745039Y738132D01*
X744886Y738118D01*
X744858D01*
X744789Y738104D01*
X744706Y738076D01*
X744622Y738048D01*
X744609Y738035D01*
X744581Y738007D01*
X744525Y737951D01*
X744484Y737896D01*
X740684Y732737D01*
Y737896D01*
Y737910D01*
Y737924D01*
X740670Y737965D01*
X740642Y738007D01*
Y738021D01*
X740614Y738035D01*
X740587Y738062D01*
X740531Y738090D01*
X740517D01*
X740476Y738104D01*
X740406D01*
X740309Y738118D01*
X740282D01*
X740226Y738132D01*
X740129Y738146D01*
X739311D01*
X739879D01*
X739769Y738132D01*
X739658Y738118D01*
X739644D01*
X739588Y738104D01*
X739519D01*
X739449Y738090D01*
X739436D01*
X739408Y738062D01*
X739366Y738048D01*
X739339Y738007D01*
Y737993D01*
X739325Y737965D01*
X739311Y737896D01*
Y727717D01*
D01*
Y727938D01*
X739339Y727869D01*
Y727855D01*
X739366Y727841D01*
X739394Y727814D01*
X739449Y727786D01*
X739463D01*
X739505Y727772D01*
X739574Y727758D01*
X739658Y727744D01*
X739685D01*
X739755Y727730D01*
X739852Y727717D01*
X740101D01*
X740212Y727730D01*
X740309Y727744D01*
X740337D01*
X740393Y727758D01*
X740462Y727772D01*
X740531Y727786D01*
X740545D01*
X740573Y727800D01*
X740614Y727827D01*
X740642Y727869D01*
X740656Y727883D01*
X740670Y727897D01*
X740684Y727938D01*
Y727980D01*
Y732570D01*
X744331Y727980D01*
X744345Y727966D01*
X744373Y727938D01*
X744442Y727869D01*
X744456Y727855D01*
X744484Y727841D01*
X744539Y727814D01*
X744595Y727786D01*
X744609D01*
X744664Y727772D01*
X744733Y727758D01*
X744817Y727744D01*
X744844D01*
X744914Y727730D01*
X745025Y727717D01*
X745288D01*
X745385Y727730D01*
X745496Y727744D01*
X745524D01*
X745579Y727758D01*
X745649Y727772D01*
X745704Y727800D01*
X745718D01*
X745746Y727814D01*
X745787Y727841D01*
X745815Y727883D01*
X745829Y727911D01*
X745843Y727980D01*
Y727994D01*
Y728036D01*
X745815Y728105D01*
X745787Y728188D01*
X745773Y728202D01*
X745746Y728257D01*
X745676Y728354D01*
X745593Y728479D01*
X742168Y732570D01*
X745857Y737480D01*
Y737494D01*
X745884Y737508D01*
X745926Y737591D01*
X745982Y737688D01*
X746023Y737757D01*
Y737771D01*
X746037Y737799D01*
X746051Y737882D01*
Y737924D01*
X746023Y738007D01*
X745995Y738035D01*
X745968Y738048D01*
X745912Y738076D01*
X745898D01*
X745857Y738090D01*
X745787Y738104D01*
X745690Y738118D01*
X745663D01*
X745607Y738132D01*
X745496Y738146D01*
X746051D01*
D02*
G37*
G36*
X685496D02*
X685177D01*
X685038Y738132D01*
X684886Y738118D01*
X684858D01*
X684789Y738104D01*
X684706Y738076D01*
X684622Y738048D01*
X684609Y738035D01*
X684581Y738007D01*
X684525Y737951D01*
X684484Y737896D01*
X680684Y732737D01*
Y737896D01*
Y737910D01*
Y737924D01*
X680670Y737965D01*
X680642Y738007D01*
Y738021D01*
X680614Y738035D01*
X680587Y738062D01*
X680531Y738090D01*
X680517D01*
X680476Y738104D01*
X680406D01*
X680309Y738118D01*
X680282D01*
X680226Y738132D01*
X680129Y738146D01*
X679879D01*
X679768Y738132D01*
X679658Y738118D01*
X679644D01*
X679588Y738104D01*
X679519D01*
X679449Y738090D01*
X679436D01*
X679408Y738062D01*
X679366Y738048D01*
X679339Y738007D01*
Y737993D01*
X679325Y737965D01*
X679311Y737896D01*
Y727717D01*
X686051D01*
D01*
X685288D01*
X685385Y727730D01*
X685496Y727744D01*
X685524D01*
X685579Y727758D01*
X685649Y727772D01*
X685704Y727800D01*
X685718D01*
X685746Y727814D01*
X685787Y727841D01*
X685815Y727883D01*
X685829Y727911D01*
X685843Y727980D01*
Y727994D01*
Y728036D01*
X685815Y728105D01*
X685787Y728188D01*
X685773Y728202D01*
X685746Y728257D01*
X685676Y728354D01*
X685593Y728479D01*
X682168Y732570D01*
X685857Y737480D01*
Y737494D01*
X685884Y737508D01*
X685926Y737591D01*
X685982Y737688D01*
X686023Y737757D01*
Y737771D01*
X686037Y737799D01*
X686051Y737882D01*
Y737924D01*
X686023Y738007D01*
X685995Y738035D01*
X685968Y738048D01*
X685912Y738076D01*
X685898D01*
X685857Y738090D01*
X685787Y738104D01*
X685690Y738118D01*
X685663D01*
X685607Y738132D01*
X685496Y738146D01*
D02*
G37*
%LPD*%
G36*
X684331Y727980D02*
X684345Y727966D01*
X684373Y727938D01*
X684442Y727869D01*
X684456Y727855D01*
X684484Y727841D01*
X684539Y727814D01*
X684595Y727786D01*
X684609D01*
X684664Y727772D01*
X684733Y727758D01*
X684817Y727744D01*
X684844D01*
X684914Y727730D01*
X685025Y727717D01*
X680101D01*
X680212Y727730D01*
X680309Y727744D01*
X680337D01*
X680393Y727758D01*
X680462Y727772D01*
X680531Y727786D01*
X680545D01*
X680573Y727800D01*
X680614Y727827D01*
X680642Y727869D01*
X680656Y727883D01*
X680670Y727897D01*
X680684Y727938D01*
Y727980D01*
Y732570D01*
X684331Y727980D01*
D02*
G37*
G36*
X679339Y727869D02*
Y727855D01*
X679366Y727841D01*
X679394Y727814D01*
X679449Y727786D01*
X679463D01*
X679505Y727772D01*
X679574Y727758D01*
X679658Y727744D01*
X679685D01*
X679755Y727730D01*
X679852Y727717D01*
X679311D01*
Y727938D01*
X679339Y727869D01*
D02*
G37*
D36*
X579802Y708703D02*
G03*
X566802Y721703I-13000J0D01*
G01*
X561202D02*
G03*
X548202Y708703I0J-13000D01*
G01*
Y645303D02*
G03*
X561202Y632303I13000J0D01*
G01*
X566802D02*
G03*
X579802Y645303I0J13000D01*
G01*
X566754Y629754D02*
G03*
X582254Y645254I0J15500D01*
G01*
X545754D02*
G03*
X561254Y629754I15500J0D01*
G01*
Y724254D02*
G03*
X545754Y708754I0J-15500D01*
G01*
X582254D02*
G03*
X566754Y724254I-15500J0D01*
G01*
X827510Y617254D02*
G03*
X827510Y617254I-5506J0D01*
G01*
X805104Y617254D02*
G03*
X805104Y617254I-8500J0D01*
G01*
X801954D02*
G03*
X801954Y617254I-5350J0D01*
G01*
X779704Y617254D02*
G03*
X779704Y617254I-8500J0D01*
G01*
X776554D02*
G03*
X776554Y617254I-5350J0D01*
G01*
X754304Y617254D02*
G03*
X754304Y617254I-8500J0D01*
G01*
X751154D02*
G03*
X751154Y617254I-5350J0D01*
G01*
X728904Y617254D02*
G03*
X728904Y617254I-8500J0D01*
G01*
X725754D02*
G03*
X725754Y617254I-5350J0D01*
G01*
X703504Y617254D02*
G03*
X703504Y617254I-8500J0D01*
G01*
X700354D02*
G03*
X700354Y617254I-5350J0D01*
G01*
X522554Y702054D02*
X529754D01*
X522554Y711954D02*
X529754D01*
X522554Y702054D02*
Y711954D01*
X529754Y702054D02*
Y711954D01*
X508754Y702054D02*
X515954D01*
X508754Y711954D02*
X515954D01*
X508754Y702054D02*
Y711954D01*
X515954Y702054D02*
Y711954D01*
X511152Y711106D02*
X527353D01*
X511152Y702906D02*
X527353D01*
X511152D02*
Y711106D01*
X527353Y702906D02*
Y711106D01*
X926755Y609744D02*
Y614764D01*
X936755Y609744D02*
Y614764D01*
X926755D02*
X936755D01*
X926755Y609744D02*
X936755D01*
X933504Y609254D02*
Y615254D01*
X939004Y609254D02*
Y615254D01*
X933504Y609254D02*
X939004D01*
X933504Y615254D02*
X939004D01*
X924504Y609254D02*
Y615254D01*
X930004Y609254D02*
Y615254D01*
X924504Y609254D02*
X930004D01*
X924504Y615254D02*
X930004D01*
X889503Y609745D02*
Y614765D01*
X879503Y609745D02*
Y614765D01*
Y609745D02*
X889503D01*
X879503Y614765D02*
X889503D01*
X882754Y609254D02*
Y615254D01*
X877254Y609254D02*
Y615254D01*
X882754D01*
X877254Y609254D02*
X882754D01*
X891754D02*
Y615254D01*
X886254Y609254D02*
Y615254D01*
X891754D01*
X886254Y609254D02*
X891754D01*
X854642Y635370D02*
Y640390D01*
X844642Y635370D02*
Y640390D01*
Y635370D02*
X854642D01*
X844642Y640390D02*
X854642D01*
X847893Y634879D02*
Y640879D01*
X842393Y634879D02*
Y640879D01*
X847893D01*
X842393Y634879D02*
X847893D01*
X856893D02*
Y640879D01*
X851393Y634879D02*
Y640879D01*
X856893D01*
X851393Y634879D02*
X856893D01*
X927005Y739494D02*
Y744514D01*
X937005Y739494D02*
Y744514D01*
X927005D02*
X937005D01*
X927005Y739494D02*
X937005D01*
X933754Y739004D02*
Y745004D01*
X939254Y739004D02*
Y745004D01*
X933754Y739004D02*
X939254D01*
X933754Y745004D02*
X939254D01*
X924754Y739004D02*
Y745004D01*
X930254Y739004D02*
Y745004D01*
X924754Y739004D02*
X930254D01*
X924754Y745004D02*
X930254D01*
X927005Y719494D02*
Y724514D01*
X937005Y719494D02*
Y724514D01*
X927005D02*
X937005D01*
X927005Y719494D02*
X937005D01*
X933754Y719004D02*
Y725004D01*
X939254Y719004D02*
Y725004D01*
X933754Y719004D02*
X939254D01*
X933754Y725004D02*
X939254D01*
X924754Y719004D02*
Y725004D01*
X930254Y719004D02*
Y725004D01*
X924754Y719004D02*
X930254D01*
X924754Y725004D02*
X930254D01*
X553503Y612995D02*
Y618015D01*
X543503Y612995D02*
Y618015D01*
Y612995D02*
X553503D01*
X543503Y618015D02*
X553503D01*
X546754Y612504D02*
Y618504D01*
X541254Y612504D02*
Y618504D01*
X546754D01*
X541254Y612504D02*
X546754D01*
X555754D02*
Y618504D01*
X550254Y612504D02*
Y618504D01*
X555754D01*
X550254Y612504D02*
X555754D01*
X926755Y620994D02*
Y626014D01*
X936755Y620994D02*
Y626014D01*
X926755D02*
X936755D01*
X926755Y620994D02*
X936755D01*
X933504Y620504D02*
Y626504D01*
X939004Y620504D02*
Y626504D01*
X933504Y620504D02*
X939004D01*
X933504Y626504D02*
X939004D01*
X924504Y620504D02*
Y626504D01*
X930004Y620504D02*
Y626504D01*
X924504Y620504D02*
X930004D01*
X924504Y626504D02*
X930004D01*
X957005Y649494D02*
Y654514D01*
X967005Y649494D02*
Y654514D01*
X957005D02*
X967005D01*
X957005Y649494D02*
X967005D01*
X963754Y649004D02*
Y655004D01*
X969254Y649004D02*
Y655004D01*
X963754Y649004D02*
X969254D01*
X963754Y655004D02*
X969254D01*
X954754Y649004D02*
Y655004D01*
X960254Y649004D02*
Y655004D01*
X954754Y649004D02*
X960254D01*
X954754Y655004D02*
X960254D01*
X595755Y612994D02*
Y618014D01*
X605755Y612994D02*
Y618014D01*
X595755D02*
X605755D01*
X595755Y612994D02*
X605755D01*
X602504Y612504D02*
Y618504D01*
X608004Y612504D02*
Y618504D01*
X602504Y612504D02*
X608004D01*
X602504Y618504D02*
X608004D01*
X593504Y612504D02*
Y618504D01*
X599004Y612504D02*
Y618504D01*
X593504Y612504D02*
X599004D01*
X593504Y618504D02*
X599004D01*
X863244Y717005D02*
X868264D01*
X863244Y727005D02*
X868264D01*
X863244Y717005D02*
Y727005D01*
X868264Y717005D02*
Y727005D01*
X862754Y723754D02*
X868754D01*
X862754Y729254D02*
X868754D01*
Y723754D02*
Y729254D01*
X862754Y723754D02*
Y729254D01*
Y714754D02*
X868754D01*
X862754Y720254D02*
X868754D01*
Y714754D02*
Y720254D01*
X862754Y714754D02*
Y720254D01*
X957005Y639494D02*
Y644514D01*
X967005Y639494D02*
Y644514D01*
X957005D02*
X967005D01*
X957005Y639494D02*
X967005D01*
X963754Y639004D02*
Y645004D01*
X969254Y639004D02*
Y645004D01*
X963754Y639004D02*
X969254D01*
X963754Y645004D02*
X969254D01*
X954754Y639004D02*
Y645004D01*
X960254Y639004D02*
Y645004D01*
X954754Y639004D02*
X960254D01*
X954754Y645004D02*
X960254D01*
X940744Y703255D02*
X945765D01*
X940744Y713255D02*
X945765D01*
X940744Y703255D02*
Y713255D01*
X945765Y703255D02*
Y713255D01*
X940254Y710004D02*
X946254D01*
X940254Y715504D02*
X946254D01*
Y710004D02*
Y715504D01*
X940254Y710004D02*
Y715504D01*
Y701004D02*
X946254D01*
X940254Y706504D02*
X946254D01*
Y701004D02*
Y706504D01*
X940254Y701004D02*
Y706504D01*
X522554Y717054D02*
Y726954D01*
X511253Y717995D02*
X527253D01*
X511253D02*
Y726015D01*
X508754Y717054D02*
X515954D01*
X522554D02*
X529754D01*
X508754Y726954D02*
X515954D01*
X508754Y717054D02*
Y726954D01*
X529754Y717054D02*
Y726954D01*
X511253Y726015D02*
X527253D01*
X522554Y726954D02*
X529754D01*
X527253Y717995D02*
Y726015D01*
X515954Y717054D02*
Y726954D01*
X541004Y742004D02*
Y747504D01*
X535004Y738504D02*
X541004D01*
X535004Y747504D02*
X541004D01*
Y733004D02*
Y738504D01*
X535494Y735255D02*
Y745255D01*
X535004Y733004D02*
X541004D01*
X535494Y735255D02*
X540514D01*
X535494Y745255D02*
X540514D01*
X535004Y742004D02*
Y747504D01*
X540514Y735255D02*
Y745255D01*
X535004Y733004D02*
Y738504D01*
Y742004D02*
X541004D01*
X818004Y727754D02*
Y733754D01*
X821504Y727754D02*
X827004D01*
X814753Y733265D02*
X824753D01*
X812504Y727754D02*
X818004D01*
X814753Y728245D02*
Y733265D01*
X824753Y728245D02*
Y733265D01*
X827004Y727754D02*
Y733754D01*
X814753Y728245D02*
X824753D01*
X821504Y733754D02*
X827004D01*
X812504Y727754D02*
Y733754D01*
X821504Y727754D02*
Y733754D01*
X812504D02*
X818004D01*
X812504Y743754D02*
X818004D01*
X821504Y737754D02*
Y743754D01*
X812504Y737754D02*
Y743754D01*
X821504D02*
X827004D01*
X814753Y738245D02*
X824753D01*
X827004Y737754D02*
Y743754D01*
X824753Y738245D02*
Y743265D01*
X814753Y738245D02*
Y743265D01*
X812504Y737754D02*
X818004D01*
X814753Y743265D02*
X824753D01*
X821504Y737754D02*
X827004D01*
X818004D02*
Y743754D01*
X545254Y742004D02*
X551254D01*
X545254Y733004D02*
Y738504D01*
X550765Y735255D02*
Y745255D01*
X545254Y742004D02*
Y747504D01*
X545745Y745255D02*
X550765D01*
X545745Y735255D02*
X550765D01*
X545254Y733004D02*
X551254D01*
X545745Y735255D02*
Y745255D01*
X551254Y733004D02*
Y738504D01*
X545254Y747504D02*
X551254D01*
X545254Y738504D02*
X551254D01*
Y742004D02*
Y747504D01*
X924754Y735004D02*
X930254D01*
X933754Y729004D02*
Y735004D01*
X924754Y729004D02*
Y735004D01*
X933754D02*
X939254D01*
X927003Y729495D02*
X937003D01*
X939254Y729004D02*
Y735004D01*
X937003Y729495D02*
Y734515D01*
X927003Y729495D02*
Y734515D01*
X924754Y729004D02*
X930254D01*
X927003Y734515D02*
X937003D01*
X933754Y729004D02*
X939254D01*
X930254D02*
Y735004D01*
X818004Y713754D02*
Y719754D01*
X821504Y713754D02*
X827004D01*
X814753Y719265D02*
X824753D01*
X812504Y713754D02*
X818004D01*
X814753Y714245D02*
Y719265D01*
X824753Y714245D02*
Y719265D01*
X827004Y713754D02*
Y719754D01*
X814753Y714245D02*
X824753D01*
X821504Y719754D02*
X827004D01*
X812504Y713754D02*
Y719754D01*
X821504Y713754D02*
Y719754D01*
X812504D02*
X818004D01*
X960254Y701004D02*
Y706504D01*
Y710004D02*
X966254D01*
X960254Y701004D02*
X966254D01*
X960254Y710004D02*
Y715504D01*
X965763Y703253D02*
Y713253D01*
X960254Y715504D02*
X966254D01*
X960743Y713253D02*
X965763D01*
X960743Y703253D02*
X965763D01*
X966254Y701004D02*
Y706504D01*
X960743Y703253D02*
Y713253D01*
X966254Y710004D02*
Y715504D01*
X960254Y706504D02*
X966254D01*
X950254D02*
X956254D01*
Y710004D02*
Y715504D01*
X950743Y703253D02*
Y713253D01*
X956254Y701004D02*
Y706504D01*
X950743Y703253D02*
X955763D01*
X950743Y713253D02*
X955763D01*
X950254Y715504D02*
X956254D01*
X955763Y703253D02*
Y713253D01*
X950254Y710004D02*
Y715504D01*
Y701004D02*
X956254D01*
X950254Y710004D02*
X956254D01*
X950254Y701004D02*
Y706504D01*
X933254Y707004D02*
X933254Y637004D01*
X863254Y637004D02*
X863254Y707004D01*
X933254Y707004D01*
X863254Y637004D02*
X933254Y637004D01*
X579802Y645303D02*
Y708703D01*
X561202Y721703D02*
X566802D01*
X548202Y645303D02*
Y708703D01*
X561202Y632303D02*
X566802D01*
X561254Y629754D02*
X566754D01*
X545754Y645254D02*
Y708754D01*
X561254Y724254D02*
X566754D01*
X582254Y645254D02*
Y708754D01*
X581002Y629503D02*
X583002Y631503D01*
Y722502D01*
X581002Y724503D02*
X583002Y722502D01*
X547003Y724503D02*
X581002D01*
X545002Y722502D02*
X547003Y724503D01*
X545002Y631503D02*
Y722502D01*
Y631503D02*
X547003Y629503D01*
X581002D01*
X574904Y610554D02*
X582104Y610554D01*
X561004Y620454D02*
X561004Y610554D01*
X568204Y610554D02*
Y620454D01*
X563505Y611503D02*
X563505Y619502D01*
X561004Y610554D02*
X568204Y610554D01*
X579506Y611503D02*
X579506Y619502D01*
X561004Y620454D02*
X568204Y620454D01*
X574904Y620454D02*
X582104D01*
X574904Y610554D02*
X574904Y620454D01*
X563505Y619502D02*
X579506Y619502D01*
X563505Y611503D02*
X579506Y611503D01*
X582104Y620454D02*
X582104Y610554D01*
X618004Y743754D02*
X628004Y743754D01*
X618004Y731754D02*
X628004Y731754D01*
Y743754D01*
X618004Y743754D02*
X618004Y731754D01*
X906254Y625504D02*
X916254Y625504D01*
Y609504D02*
Y625504D01*
X896254Y609504D02*
X916254Y609504D01*
X896254Y609504D02*
Y625504D01*
X906254D01*
X896108Y618999D02*
X899884Y618999D01*
X903759D01*
X903759Y625749D01*
X896009Y625749D02*
X903759Y625749D01*
X896009Y618999D02*
X896009Y625749D01*
X896009Y618999D02*
X896254Y618999D01*
X908853Y618999D02*
X912629Y618999D01*
X916504Y618999D01*
X916504Y625749D02*
X916504Y618999D01*
X908754Y625749D02*
X916504Y625749D01*
X908754Y625749D02*
X908754Y618999D01*
X908999Y618999D01*
X908853Y609254D02*
X912629Y609254D01*
X916504D01*
X916504Y616004D01*
X908754Y616004D02*
X916504Y616004D01*
X908754Y616004D02*
X908754Y609254D01*
X908999Y609254D01*
X896108D02*
X899884D01*
X903759Y609254D01*
Y616004D01*
X896009Y616004D02*
X903759Y616004D01*
X896009Y616004D02*
X896009Y609254D01*
X896254Y609254D01*
X711254Y721004D02*
X719254Y721004D01*
Y745004D01*
X703254Y745004D02*
X719254Y745004D01*
X703254Y733004D02*
Y745004D01*
Y721004D02*
Y733004D01*
Y721004D02*
X711254Y721004D01*
X682754Y721004D02*
X690754Y721004D01*
Y745004D01*
X674754Y745004D02*
X690754Y745004D01*
X674754Y721004D02*
Y745004D01*
Y721004D02*
X682754Y721004D01*
X681004Y727004D02*
X689004Y719004D01*
X681004Y719004D02*
X713004Y719004D01*
X713004Y747004D01*
X681004Y747004D02*
X713004Y747004D01*
X681004Y719004D02*
X681004Y747004D01*
X771254Y721004D02*
X779254Y721004D01*
Y745004D01*
X763254Y745004D02*
X779254Y745004D01*
X763254Y733004D02*
Y745004D01*
Y721004D02*
Y733004D01*
Y721004D02*
X771254Y721004D01*
X742754Y721004D02*
X750754Y721004D01*
Y745004D01*
X734754Y745004D02*
X750754Y745004D01*
X734754Y721004D02*
Y745004D01*
Y721004D02*
X742754Y721004D01*
X741004Y727004D02*
X749004Y719004D01*
X741004Y719004D02*
X773004Y719004D01*
X773004Y747004D01*
X741004Y747004D02*
X773004Y747004D01*
X741004Y719004D02*
X741004Y747004D01*
X874754Y746551D02*
X874754Y715458D01*
X874754Y746551D02*
X917754Y746551D01*
X917754Y715458D01*
X874754Y715458D02*
X917754Y715458D01*
X873754Y733504D02*
X879504Y733504D01*
X873754Y744004D02*
X873754Y733504D01*
X873754Y744004D02*
X885254Y744004D01*
X885254Y733504D01*
X879504Y733504D02*
X885254Y733504D01*
X873754Y718004D02*
X879504Y718004D01*
X873754Y728504D02*
X873754Y718004D01*
X873754Y728504D02*
X885254Y728504D01*
X885254Y718004D01*
X879504D02*
X885254D01*
X907254Y718004D02*
X913004Y718004D01*
X907254Y728504D02*
X907254Y718004D01*
X907254Y728504D02*
X918754Y728504D01*
X918754Y718004D01*
X913004Y718004D02*
X918754Y718004D01*
X907254Y733504D02*
X913004Y733504D01*
X907254Y744004D02*
X907254Y733504D01*
X907254Y744004D02*
X918754Y744004D01*
X918754Y733504D01*
X913004Y733504D02*
X918754Y733504D01*
X682304Y629954D02*
X834704Y629954D01*
X834704Y604554D02*
X834704Y629954D01*
X682304Y604554D02*
X834704Y604554D01*
X682304Y604554D02*
Y629954D01*
X822004Y625754D02*
X830504D01*
X830504Y608754D02*
X830504Y625754D01*
X813504Y608754D02*
X830504Y608754D01*
X813504Y625754D02*
X813504Y608754D01*
X813504Y625754D02*
X822004Y625754D01*
X579802Y878703D02*
G03*
X566802Y891703I-13000J0D01*
G01*
X561202D02*
G03*
X548202Y878703I0J-13000D01*
G01*
Y815303D02*
G03*
X561202Y802303I13000J0D01*
G01*
X566802D02*
G03*
X579802Y815303I0J13000D01*
G01*
X566754Y799754D02*
G03*
X582254Y815254I0J15500D01*
G01*
X545754D02*
G03*
X561254Y799754I15500J0D01*
G01*
Y894254D02*
G03*
X545754Y878754I0J-15500D01*
G01*
X582254D02*
G03*
X566754Y894254I-15500J0D01*
G01*
X827510Y787254D02*
G03*
X827510Y787254I-5506J0D01*
G01*
X805104Y787254D02*
G03*
X805104Y787254I-8500J0D01*
G01*
X801954D02*
G03*
X801954Y787254I-5350J0D01*
G01*
X779704Y787254D02*
G03*
X779704Y787254I-8500J0D01*
G01*
X776554D02*
G03*
X776554Y787254I-5350J0D01*
G01*
X754304Y787254D02*
G03*
X754304Y787254I-8500J0D01*
G01*
X751154D02*
G03*
X751154Y787254I-5350J0D01*
G01*
X728904Y787254D02*
G03*
X728904Y787254I-8500J0D01*
G01*
X725754D02*
G03*
X725754Y787254I-5350J0D01*
G01*
X703504Y787254D02*
G03*
X703504Y787254I-8500J0D01*
G01*
X700354D02*
G03*
X700354Y787254I-5350J0D01*
G01*
X522554Y872054D02*
X529754D01*
X522554Y881954D02*
X529754D01*
X522554Y872054D02*
Y881954D01*
X529754Y872054D02*
Y881954D01*
X508754Y872054D02*
X515954D01*
X508754Y881954D02*
X515954D01*
X508754Y872054D02*
Y881954D01*
X515954Y872054D02*
Y881954D01*
X511152Y881106D02*
X527353D01*
X511152Y872906D02*
X527353D01*
X511152D02*
Y881106D01*
X527353Y872906D02*
Y881106D01*
X926755Y779744D02*
Y784764D01*
X936755Y779744D02*
Y784764D01*
X926755D02*
X936755D01*
X926755Y779744D02*
X936755D01*
X933504Y779254D02*
Y785254D01*
X939004Y779254D02*
Y785254D01*
X933504Y779254D02*
X939004D01*
X933504Y785254D02*
X939004D01*
X924504Y779254D02*
Y785254D01*
X930004Y779254D02*
Y785254D01*
X924504Y779254D02*
X930004D01*
X924504Y785254D02*
X930004D01*
X889503Y779745D02*
Y784765D01*
X879503Y779745D02*
Y784765D01*
Y779745D02*
X889503D01*
X879503Y784765D02*
X889503D01*
X882754Y779254D02*
Y785254D01*
X877254Y779254D02*
Y785254D01*
X882754D01*
X877254Y779254D02*
X882754D01*
X891754D02*
Y785254D01*
X886254Y779254D02*
Y785254D01*
X891754D01*
X886254Y779254D02*
X891754D01*
X854642Y805370D02*
Y810390D01*
X844642Y805370D02*
Y810390D01*
Y805370D02*
X854642D01*
X844642Y810390D02*
X854642D01*
X847893Y804879D02*
Y810879D01*
X842393Y804879D02*
Y810879D01*
X847893D01*
X842393Y804879D02*
X847893D01*
X856893D02*
Y810879D01*
X851393Y804879D02*
Y810879D01*
X856893D01*
X851393Y804879D02*
X856893D01*
X927005Y909494D02*
Y914514D01*
X937005Y909494D02*
Y914514D01*
X927005D02*
X937005D01*
X927005Y909494D02*
X937005D01*
X933754Y909004D02*
Y915004D01*
X939254Y909004D02*
Y915004D01*
X933754Y909004D02*
X939254D01*
X933754Y915004D02*
X939254D01*
X924754Y909004D02*
Y915004D01*
X930254Y909004D02*
Y915004D01*
X924754Y909004D02*
X930254D01*
X924754Y915004D02*
X930254D01*
X927005Y889494D02*
Y894514D01*
X937005Y889494D02*
Y894514D01*
X927005D02*
X937005D01*
X927005Y889494D02*
X937005D01*
X933754Y889004D02*
Y895004D01*
X939254Y889004D02*
Y895004D01*
X933754Y889004D02*
X939254D01*
X933754Y895004D02*
X939254D01*
X924754Y889004D02*
Y895004D01*
X930254Y889004D02*
Y895004D01*
X924754Y889004D02*
X930254D01*
X924754Y895004D02*
X930254D01*
X553503Y782995D02*
Y788015D01*
X543503Y782995D02*
Y788015D01*
Y782995D02*
X553503D01*
X543503Y788015D02*
X553503D01*
X546754Y782504D02*
Y788504D01*
X541254Y782504D02*
Y788504D01*
X546754D01*
X541254Y782504D02*
X546754D01*
X555754D02*
Y788504D01*
X550254Y782504D02*
Y788504D01*
X555754D01*
X550254Y782504D02*
X555754D01*
X926755Y790994D02*
Y796014D01*
X936755Y790994D02*
Y796014D01*
X926755D02*
X936755D01*
X926755Y790994D02*
X936755D01*
X933504Y790504D02*
Y796504D01*
X939004Y790504D02*
Y796504D01*
X933504Y790504D02*
X939004D01*
X933504Y796504D02*
X939004D01*
X924504Y790504D02*
Y796504D01*
X930004Y790504D02*
Y796504D01*
X924504Y790504D02*
X930004D01*
X924504Y796504D02*
X930004D01*
X957005Y819494D02*
Y824514D01*
X967005Y819494D02*
Y824514D01*
X957005D02*
X967005D01*
X957005Y819494D02*
X967005D01*
X963754Y819004D02*
Y825004D01*
X969254Y819004D02*
Y825004D01*
X963754Y819004D02*
X969254D01*
X963754Y825004D02*
X969254D01*
X954754Y819004D02*
Y825004D01*
X960254Y819004D02*
Y825004D01*
X954754Y819004D02*
X960254D01*
X954754Y825004D02*
X960254D01*
X595755Y782994D02*
Y788014D01*
X605755Y782994D02*
Y788014D01*
X595755D02*
X605755D01*
X595755Y782994D02*
X605755D01*
X602504Y782504D02*
Y788504D01*
X608004Y782504D02*
Y788504D01*
X602504Y782504D02*
X608004D01*
X602504Y788504D02*
X608004D01*
X593504Y782504D02*
Y788504D01*
X599004Y782504D02*
Y788504D01*
X593504Y782504D02*
X599004D01*
X593504Y788504D02*
X599004D01*
X863244Y887005D02*
X868264D01*
X863244Y897005D02*
X868264D01*
X863244Y887005D02*
Y897005D01*
X868264Y887005D02*
Y897005D01*
X862754Y893754D02*
X868754D01*
X862754Y899254D02*
X868754D01*
Y893754D02*
Y899254D01*
X862754Y893754D02*
Y899254D01*
Y884754D02*
X868754D01*
X862754Y890254D02*
X868754D01*
Y884754D02*
Y890254D01*
X862754Y884754D02*
Y890254D01*
X957005Y809494D02*
Y814514D01*
X967005Y809494D02*
Y814514D01*
X957005D02*
X967005D01*
X957005Y809494D02*
X967005D01*
X963754Y809004D02*
Y815004D01*
X969254Y809004D02*
Y815004D01*
X963754Y809004D02*
X969254D01*
X963754Y815004D02*
X969254D01*
X954754Y809004D02*
Y815004D01*
X960254Y809004D02*
Y815004D01*
X954754Y809004D02*
X960254D01*
X954754Y815004D02*
X960254D01*
X940744Y873255D02*
X945765D01*
X940744Y883255D02*
X945765D01*
X940744Y873255D02*
Y883255D01*
X945765Y873255D02*
Y883255D01*
X940254Y880004D02*
X946254D01*
X940254Y885504D02*
X946254D01*
Y880004D02*
Y885504D01*
X940254Y880004D02*
Y885504D01*
Y871004D02*
X946254D01*
X940254Y876504D02*
X946254D01*
Y871004D02*
Y876504D01*
X940254Y871004D02*
Y876504D01*
X522554Y887054D02*
Y896954D01*
X511253Y887995D02*
X527253D01*
X511253D02*
Y896015D01*
X508754Y887054D02*
X515954D01*
X522554D02*
X529754D01*
X508754Y896954D02*
X515954D01*
X508754Y887054D02*
Y896954D01*
X529754Y887054D02*
Y896954D01*
X511253Y896015D02*
X527253D01*
X522554Y896954D02*
X529754D01*
X527253Y887995D02*
Y896015D01*
X515954Y887054D02*
Y896954D01*
X541004Y912004D02*
Y917504D01*
X535004Y908504D02*
X541004D01*
X535004Y917504D02*
X541004D01*
Y903004D02*
Y908504D01*
X535494Y905255D02*
Y915255D01*
X535004Y903004D02*
X541004D01*
X535494Y905255D02*
X540514D01*
X535494Y915255D02*
X540514D01*
X535004Y912004D02*
Y917504D01*
X540514Y905255D02*
Y915255D01*
X535004Y903004D02*
Y908504D01*
Y912004D02*
X541004D01*
X818004Y897754D02*
Y903754D01*
X821504Y897754D02*
X827004D01*
X814753Y903265D02*
X824753D01*
X812504Y897754D02*
X818004D01*
X814753Y898245D02*
Y903265D01*
X824753Y898245D02*
Y903265D01*
X827004Y897754D02*
Y903754D01*
X814753Y898245D02*
X824753D01*
X821504Y903754D02*
X827004D01*
X812504Y897754D02*
Y903754D01*
X821504Y897754D02*
Y903754D01*
X812504D02*
X818004D01*
X812504Y913754D02*
X818004D01*
X821504Y907754D02*
Y913754D01*
X812504Y907754D02*
Y913754D01*
X821504D02*
X827004D01*
X814753Y908245D02*
X824753D01*
X827004Y907754D02*
Y913754D01*
X824753Y908245D02*
Y913265D01*
X814753Y908245D02*
Y913265D01*
X812504Y907754D02*
X818004D01*
X814753Y913265D02*
X824753D01*
X821504Y907754D02*
X827004D01*
X818004D02*
Y913754D01*
X545254Y912004D02*
X551254D01*
X545254Y903004D02*
Y908504D01*
X550765Y905255D02*
Y915255D01*
X545254Y912004D02*
Y917504D01*
X545745Y915255D02*
X550765D01*
X545745Y905255D02*
X550765D01*
X545254Y903004D02*
X551254D01*
X545745Y905255D02*
Y915255D01*
X551254Y903004D02*
Y908504D01*
X545254Y917504D02*
X551254D01*
X545254Y908504D02*
X551254D01*
Y912004D02*
Y917504D01*
X924754Y905004D02*
X930254D01*
X933754Y899004D02*
Y905004D01*
X924754Y899004D02*
Y905004D01*
X933754D02*
X939254D01*
X927003Y899495D02*
X937003D01*
X939254Y899004D02*
Y905004D01*
X937003Y899495D02*
Y904515D01*
X927003Y899495D02*
Y904515D01*
X924754Y899004D02*
X930254D01*
X927003Y904515D02*
X937003D01*
X933754Y899004D02*
X939254D01*
X930254D02*
Y905004D01*
X818004Y883754D02*
Y889754D01*
X821504Y883754D02*
X827004D01*
X814753Y889265D02*
X824753D01*
X812504Y883754D02*
X818004D01*
X814753Y884245D02*
Y889265D01*
X824753Y884245D02*
Y889265D01*
X827004Y883754D02*
Y889754D01*
X814753Y884245D02*
X824753D01*
X821504Y889754D02*
X827004D01*
X812504Y883754D02*
Y889754D01*
X821504Y883754D02*
Y889754D01*
X812504D02*
X818004D01*
X960254Y871004D02*
Y876504D01*
Y880004D02*
X966254D01*
X960254Y871004D02*
X966254D01*
X960254Y880004D02*
Y885504D01*
X965763Y873253D02*
Y883253D01*
X960254Y885504D02*
X966254D01*
X960743Y883253D02*
X965763D01*
X960743Y873253D02*
X965763D01*
X966254Y871004D02*
Y876504D01*
X960743Y873253D02*
Y883253D01*
X966254Y880004D02*
Y885504D01*
X960254Y876504D02*
X966254D01*
X950254D02*
X956254D01*
Y880004D02*
Y885504D01*
X950743Y873253D02*
Y883253D01*
X956254Y871004D02*
Y876504D01*
X950743Y873253D02*
X955763D01*
X950743Y883253D02*
X955763D01*
X950254Y885504D02*
X956254D01*
X955763Y873253D02*
Y883253D01*
X950254Y880004D02*
Y885504D01*
Y871004D02*
X956254D01*
X950254Y880004D02*
X956254D01*
X950254Y871004D02*
Y876504D01*
X933254Y877004D02*
X933254Y807004D01*
X863254Y807004D02*
X863254Y877004D01*
X933254Y877004D01*
X863254Y807004D02*
X933254Y807004D01*
X579802Y815303D02*
Y878703D01*
X561202Y891703D02*
X566802D01*
X548202Y815303D02*
Y878703D01*
X561202Y802303D02*
X566802D01*
X561254Y799754D02*
X566754D01*
X545754Y815254D02*
Y878754D01*
X561254Y894254D02*
X566754D01*
X582254Y815254D02*
Y878754D01*
X581002Y799503D02*
X583002Y801503D01*
Y892502D01*
X581002Y894503D02*
X583002Y892502D01*
X547003Y894503D02*
X581002D01*
X545002Y892502D02*
X547003Y894503D01*
X545002Y801503D02*
Y892502D01*
Y801503D02*
X547003Y799503D01*
X581002D01*
X574904Y780554D02*
X582104Y780554D01*
X561004Y790454D02*
X561004Y780554D01*
X568204Y780554D02*
Y790454D01*
X563505Y781503D02*
X563505Y789502D01*
X561004Y780554D02*
X568204Y780554D01*
X579506Y781503D02*
X579506Y789502D01*
X561004Y790454D02*
X568204Y790454D01*
X574904Y790454D02*
X582104D01*
X574904Y780554D02*
X574904Y790454D01*
X563505Y789502D02*
X579506Y789502D01*
X563505Y781503D02*
X579506Y781503D01*
X582104Y790454D02*
X582104Y780554D01*
X618004Y913754D02*
X628004Y913754D01*
X618004Y901754D02*
X628004Y901754D01*
Y913754D01*
X618004Y913754D02*
X618004Y901754D01*
X906254Y795504D02*
X916254Y795504D01*
Y779504D02*
Y795504D01*
X896254Y779504D02*
X916254Y779504D01*
X896254Y779504D02*
Y795504D01*
X906254D01*
X896108Y788999D02*
X899884Y788999D01*
X903759D01*
X903759Y795749D01*
X896009Y795749D02*
X903759Y795749D01*
X896009Y788999D02*
X896009Y795749D01*
X896009Y788999D02*
X896254Y788999D01*
X908853Y788999D02*
X912629Y788999D01*
X916504Y788999D01*
X916504Y795749D02*
X916504Y788999D01*
X908754Y795749D02*
X916504Y795749D01*
X908754Y795749D02*
X908754Y788999D01*
X908999Y788999D01*
X908853Y779254D02*
X912629Y779254D01*
X916504D01*
X916504Y786004D01*
X908754Y786004D02*
X916504Y786004D01*
X908754Y786004D02*
X908754Y779254D01*
X908999Y779254D01*
X896108D02*
X899884D01*
X903759Y779254D01*
Y786004D01*
X896009Y786004D02*
X903759Y786004D01*
X896009Y786004D02*
X896009Y779254D01*
X896254Y779254D01*
X711254Y891004D02*
X719254Y891004D01*
Y915004D01*
X703254Y915004D02*
X719254Y915004D01*
X703254Y903004D02*
Y915004D01*
Y891004D02*
Y903004D01*
Y891004D02*
X711254Y891004D01*
X682754Y891004D02*
X690754Y891004D01*
Y915004D01*
X674754Y915004D02*
X690754Y915004D01*
X674754Y891004D02*
Y915004D01*
Y891004D02*
X682754Y891004D01*
X681004Y897004D02*
X689004Y889004D01*
X681004Y889004D02*
X713004Y889004D01*
X713004Y917004D01*
X681004Y917004D02*
X713004Y917004D01*
X681004Y889004D02*
X681004Y917004D01*
X771254Y891004D02*
X779254Y891004D01*
Y915004D01*
X763254Y915004D02*
X779254Y915004D01*
X763254Y903004D02*
Y915004D01*
Y891004D02*
Y903004D01*
Y891004D02*
X771254Y891004D01*
X742754Y891004D02*
X750754Y891004D01*
Y915004D01*
X734754Y915004D02*
X750754Y915004D01*
X734754Y891004D02*
Y915004D01*
Y891004D02*
X742754Y891004D01*
X741004Y897004D02*
X749004Y889004D01*
X741004Y889004D02*
X773004Y889004D01*
X773004Y917004D01*
X741004Y917004D02*
X773004Y917004D01*
X741004Y889004D02*
X741004Y917004D01*
X874754Y916551D02*
X874754Y885458D01*
X874754Y916551D02*
X917754Y916551D01*
X917754Y885458D01*
X874754Y885458D02*
X917754Y885458D01*
X873754Y903504D02*
X879504Y903504D01*
X873754Y914004D02*
X873754Y903504D01*
X873754Y914004D02*
X885254Y914004D01*
X885254Y903504D01*
X879504Y903504D02*
X885254Y903504D01*
X873754Y888004D02*
X879504Y888004D01*
X873754Y898504D02*
X873754Y888004D01*
X873754Y898504D02*
X885254Y898504D01*
X885254Y888004D01*
X879504D02*
X885254D01*
X907254Y888004D02*
X913004Y888004D01*
X907254Y898504D02*
X907254Y888004D01*
X907254Y898504D02*
X918754Y898504D01*
X918754Y888004D01*
X913004Y888004D02*
X918754Y888004D01*
X907254Y903504D02*
X913004Y903504D01*
X907254Y914004D02*
X907254Y903504D01*
X907254Y914004D02*
X918754Y914004D01*
X918754Y903504D01*
X913004Y903504D02*
X918754Y903504D01*
X682304Y799954D02*
X834704Y799954D01*
X834704Y774554D02*
X834704Y799954D01*
X682304Y774554D02*
X834704Y774554D01*
X682304Y774554D02*
Y799954D01*
X822004Y795754D02*
X830504D01*
X830504Y778754D02*
X830504Y795754D01*
X813504Y778754D02*
X830504Y778754D01*
X813504Y795754D02*
X813504Y778754D01*
X813504Y795754D02*
X822004Y795754D01*
X579802Y1048703D02*
G03*
X566802Y1061703I-13000J0D01*
G01*
X561202D02*
G03*
X548202Y1048703I0J-13000D01*
G01*
Y985303D02*
G03*
X561202Y972303I13000J0D01*
G01*
X566802D02*
G03*
X579802Y985303I0J13000D01*
G01*
X566754Y969754D02*
G03*
X582254Y985254I0J15500D01*
G01*
X545754D02*
G03*
X561254Y969754I15500J0D01*
G01*
Y1064254D02*
G03*
X545754Y1048754I0J-15500D01*
G01*
X582254D02*
G03*
X566754Y1064254I-15500J0D01*
G01*
X827510Y957254D02*
G03*
X827510Y957254I-5506J0D01*
G01*
X805104Y957254D02*
G03*
X805104Y957254I-8500J0D01*
G01*
X801954D02*
G03*
X801954Y957254I-5350J0D01*
G01*
X779704Y957254D02*
G03*
X779704Y957254I-8500J0D01*
G01*
X776554D02*
G03*
X776554Y957254I-5350J0D01*
G01*
X754304Y957254D02*
G03*
X754304Y957254I-8500J0D01*
G01*
X751154D02*
G03*
X751154Y957254I-5350J0D01*
G01*
X728904Y957254D02*
G03*
X728904Y957254I-8500J0D01*
G01*
X725754D02*
G03*
X725754Y957254I-5350J0D01*
G01*
X703504Y957254D02*
G03*
X703504Y957254I-8500J0D01*
G01*
X700354D02*
G03*
X700354Y957254I-5350J0D01*
G01*
X522554Y1042054D02*
X529754D01*
X522554Y1051954D02*
X529754D01*
X522554Y1042054D02*
Y1051954D01*
X529754Y1042054D02*
Y1051954D01*
X508754Y1042054D02*
X515954D01*
X508754Y1051954D02*
X515954D01*
X508754Y1042054D02*
Y1051954D01*
X515954Y1042054D02*
Y1051954D01*
X511152Y1051106D02*
X527353D01*
X511152Y1042906D02*
X527353D01*
X511152D02*
Y1051106D01*
X527353Y1042906D02*
Y1051106D01*
X926755Y949744D02*
Y954764D01*
X936755Y949744D02*
Y954764D01*
X926755D02*
X936755D01*
X926755Y949744D02*
X936755D01*
X933504Y949254D02*
Y955254D01*
X939004Y949254D02*
Y955254D01*
X933504Y949254D02*
X939004D01*
X933504Y955254D02*
X939004D01*
X924504Y949254D02*
Y955254D01*
X930004Y949254D02*
Y955254D01*
X924504Y949254D02*
X930004D01*
X924504Y955254D02*
X930004D01*
X889503Y949745D02*
Y954765D01*
X879503Y949745D02*
Y954765D01*
Y949745D02*
X889503D01*
X879503Y954765D02*
X889503D01*
X882754Y949254D02*
Y955254D01*
X877254Y949254D02*
Y955254D01*
X882754D01*
X877254Y949254D02*
X882754D01*
X891754D02*
Y955254D01*
X886254Y949254D02*
Y955254D01*
X891754D01*
X886254Y949254D02*
X891754D01*
X854642Y975370D02*
Y980390D01*
X844642Y975370D02*
Y980390D01*
Y975370D02*
X854642D01*
X844642Y980390D02*
X854642D01*
X847893Y974879D02*
Y980879D01*
X842393Y974879D02*
Y980879D01*
X847893D01*
X842393Y974879D02*
X847893D01*
X856893D02*
Y980879D01*
X851393Y974879D02*
Y980879D01*
X856893D01*
X851393Y974879D02*
X856893D01*
X927005Y1079494D02*
Y1084514D01*
X937005Y1079494D02*
Y1084514D01*
X927005D02*
X937005D01*
X927005Y1079494D02*
X937005D01*
X933754Y1079004D02*
Y1085004D01*
X939254Y1079004D02*
Y1085004D01*
X933754Y1079004D02*
X939254D01*
X933754Y1085004D02*
X939254D01*
X924754Y1079004D02*
Y1085004D01*
X930254Y1079004D02*
Y1085004D01*
X924754Y1079004D02*
X930254D01*
X924754Y1085004D02*
X930254D01*
X927005Y1059494D02*
Y1064514D01*
X937005Y1059494D02*
Y1064514D01*
X927005D02*
X937005D01*
X927005Y1059494D02*
X937005D01*
X933754Y1059004D02*
Y1065004D01*
X939254Y1059004D02*
Y1065004D01*
X933754Y1059004D02*
X939254D01*
X933754Y1065004D02*
X939254D01*
X924754Y1059004D02*
Y1065004D01*
X930254Y1059004D02*
Y1065004D01*
X924754Y1059004D02*
X930254D01*
X924754Y1065004D02*
X930254D01*
X553503Y952995D02*
Y958015D01*
X543503Y952995D02*
Y958015D01*
Y952995D02*
X553503D01*
X543503Y958015D02*
X553503D01*
X546754Y952504D02*
Y958504D01*
X541254Y952504D02*
Y958504D01*
X546754D01*
X541254Y952504D02*
X546754D01*
X555754D02*
Y958504D01*
X550254Y952504D02*
Y958504D01*
X555754D01*
X550254Y952504D02*
X555754D01*
X926755Y960994D02*
Y966014D01*
X936755Y960994D02*
Y966014D01*
X926755D02*
X936755D01*
X926755Y960994D02*
X936755D01*
X933504Y960504D02*
Y966504D01*
X939004Y960504D02*
Y966504D01*
X933504Y960504D02*
X939004D01*
X933504Y966504D02*
X939004D01*
X924504Y960504D02*
Y966504D01*
X930004Y960504D02*
Y966504D01*
X924504Y960504D02*
X930004D01*
X924504Y966504D02*
X930004D01*
X957005Y989494D02*
Y994514D01*
X967005Y989494D02*
Y994514D01*
X957005D02*
X967005D01*
X957005Y989494D02*
X967005D01*
X963754Y989004D02*
Y995004D01*
X969254Y989004D02*
Y995004D01*
X963754Y989004D02*
X969254D01*
X963754Y995004D02*
X969254D01*
X954754Y989004D02*
Y995004D01*
X960254Y989004D02*
Y995004D01*
X954754Y989004D02*
X960254D01*
X954754Y995004D02*
X960254D01*
X595755Y952994D02*
Y958014D01*
X605755Y952994D02*
Y958014D01*
X595755D02*
X605755D01*
X595755Y952994D02*
X605755D01*
X602504Y952504D02*
Y958504D01*
X608004Y952504D02*
Y958504D01*
X602504Y952504D02*
X608004D01*
X602504Y958504D02*
X608004D01*
X593504Y952504D02*
Y958504D01*
X599004Y952504D02*
Y958504D01*
X593504Y952504D02*
X599004D01*
X593504Y958504D02*
X599004D01*
X863244Y1057005D02*
X868264D01*
X863244Y1067005D02*
X868264D01*
X863244Y1057005D02*
Y1067005D01*
X868264Y1057005D02*
Y1067005D01*
X862754Y1063754D02*
X868754D01*
X862754Y1069254D02*
X868754D01*
Y1063754D02*
Y1069254D01*
X862754Y1063754D02*
Y1069254D01*
Y1054754D02*
X868754D01*
X862754Y1060254D02*
X868754D01*
Y1054754D02*
Y1060254D01*
X862754Y1054754D02*
Y1060254D01*
X957005Y979494D02*
Y984514D01*
X967005Y979494D02*
Y984514D01*
X957005D02*
X967005D01*
X957005Y979494D02*
X967005D01*
X963754Y979004D02*
Y985004D01*
X969254Y979004D02*
Y985004D01*
X963754Y979004D02*
X969254D01*
X963754Y985004D02*
X969254D01*
X954754Y979004D02*
Y985004D01*
X960254Y979004D02*
Y985004D01*
X954754Y979004D02*
X960254D01*
X954754Y985004D02*
X960254D01*
X940744Y1043255D02*
X945765D01*
X940744Y1053255D02*
X945765D01*
X940744Y1043255D02*
Y1053255D01*
X945765Y1043255D02*
Y1053255D01*
X940254Y1050004D02*
X946254D01*
X940254Y1055504D02*
X946254D01*
Y1050004D02*
Y1055504D01*
X940254Y1050004D02*
Y1055504D01*
Y1041004D02*
X946254D01*
X940254Y1046504D02*
X946254D01*
Y1041004D02*
Y1046504D01*
X940254Y1041004D02*
Y1046504D01*
X522554Y1057054D02*
Y1066954D01*
X511253Y1057995D02*
X527253D01*
X511253D02*
Y1066015D01*
X508754Y1057054D02*
X515954D01*
X522554D02*
X529754D01*
X508754Y1066954D02*
X515954D01*
X508754Y1057054D02*
Y1066954D01*
X529754Y1057054D02*
Y1066954D01*
X511253Y1066015D02*
X527253D01*
X522554Y1066954D02*
X529754D01*
X527253Y1057995D02*
Y1066015D01*
X515954Y1057054D02*
Y1066954D01*
X541004Y1082004D02*
Y1087504D01*
X535004Y1078504D02*
X541004D01*
X535004Y1087504D02*
X541004D01*
Y1073004D02*
Y1078504D01*
X535494Y1075255D02*
Y1085255D01*
X535004Y1073004D02*
X541004D01*
X535494Y1075255D02*
X540514D01*
X535494Y1085255D02*
X540514D01*
X535004Y1082004D02*
Y1087504D01*
X540514Y1075255D02*
Y1085255D01*
X535004Y1073004D02*
Y1078504D01*
Y1082004D02*
X541004D01*
X818004Y1067754D02*
Y1073754D01*
X821504Y1067754D02*
X827004D01*
X814753Y1073265D02*
X824753D01*
X812504Y1067754D02*
X818004D01*
X814753Y1068245D02*
Y1073265D01*
X824753Y1068245D02*
Y1073265D01*
X827004Y1067754D02*
Y1073754D01*
X814753Y1068245D02*
X824753D01*
X821504Y1073754D02*
X827004D01*
X812504Y1067754D02*
Y1073754D01*
X821504Y1067754D02*
Y1073754D01*
X812504D02*
X818004D01*
X812504Y1083754D02*
X818004D01*
X821504Y1077754D02*
Y1083754D01*
X812504Y1077754D02*
Y1083754D01*
X821504D02*
X827004D01*
X814753Y1078245D02*
X824753D01*
X827004Y1077754D02*
Y1083754D01*
X824753Y1078245D02*
Y1083265D01*
X814753Y1078245D02*
Y1083265D01*
X812504Y1077754D02*
X818004D01*
X814753Y1083265D02*
X824753D01*
X821504Y1077754D02*
X827004D01*
X818004D02*
Y1083754D01*
X545254Y1082004D02*
X551254D01*
X545254Y1073004D02*
Y1078504D01*
X550765Y1075255D02*
Y1085255D01*
X545254Y1082004D02*
Y1087504D01*
X545745Y1085255D02*
X550765D01*
X545745Y1075255D02*
X550765D01*
X545254Y1073004D02*
X551254D01*
X545745Y1075255D02*
Y1085255D01*
X551254Y1073004D02*
Y1078504D01*
X545254Y1087504D02*
X551254D01*
X545254Y1078504D02*
X551254D01*
Y1082004D02*
Y1087504D01*
X924754Y1075004D02*
X930254D01*
X933754Y1069004D02*
Y1075004D01*
X924754Y1069004D02*
Y1075004D01*
X933754D02*
X939254D01*
X927003Y1069495D02*
X937003D01*
X939254Y1069004D02*
Y1075004D01*
X937003Y1069495D02*
Y1074515D01*
X927003Y1069495D02*
Y1074515D01*
X924754Y1069004D02*
X930254D01*
X927003Y1074515D02*
X937003D01*
X933754Y1069004D02*
X939254D01*
X930254D02*
Y1075004D01*
X818004Y1053754D02*
Y1059754D01*
X821504Y1053754D02*
X827004D01*
X814753Y1059265D02*
X824753D01*
X812504Y1053754D02*
X818004D01*
X814753Y1054245D02*
Y1059265D01*
X824753Y1054245D02*
Y1059265D01*
X827004Y1053754D02*
Y1059754D01*
X814753Y1054245D02*
X824753D01*
X821504Y1059754D02*
X827004D01*
X812504Y1053754D02*
Y1059754D01*
X821504Y1053754D02*
Y1059754D01*
X812504D02*
X818004D01*
X960254Y1041004D02*
Y1046504D01*
Y1050004D02*
X966254D01*
X960254Y1041004D02*
X966254D01*
X960254Y1050004D02*
Y1055504D01*
X965763Y1043253D02*
Y1053253D01*
X960254Y1055504D02*
X966254D01*
X960743Y1053253D02*
X965763D01*
X960743Y1043253D02*
X965763D01*
X966254Y1041004D02*
Y1046504D01*
X960743Y1043253D02*
Y1053253D01*
X966254Y1050004D02*
Y1055504D01*
X960254Y1046504D02*
X966254D01*
X950254D02*
X956254D01*
Y1050004D02*
Y1055504D01*
X950743Y1043253D02*
Y1053253D01*
X956254Y1041004D02*
Y1046504D01*
X950743Y1043253D02*
X955763D01*
X950743Y1053253D02*
X955763D01*
X950254Y1055504D02*
X956254D01*
X955763Y1043253D02*
Y1053253D01*
X950254Y1050004D02*
Y1055504D01*
Y1041004D02*
X956254D01*
X950254Y1050004D02*
X956254D01*
X950254Y1041004D02*
Y1046504D01*
X933254Y1047004D02*
X933254Y977004D01*
X863254Y977004D02*
X863254Y1047004D01*
X933254Y1047004D01*
X863254Y977004D02*
X933254Y977004D01*
X579802Y985303D02*
Y1048703D01*
X561202Y1061703D02*
X566802D01*
X548202Y985303D02*
Y1048703D01*
X561202Y972303D02*
X566802D01*
X561254Y969754D02*
X566754D01*
X545754Y985254D02*
Y1048754D01*
X561254Y1064254D02*
X566754D01*
X582254Y985254D02*
Y1048754D01*
X581002Y969503D02*
X583002Y971503D01*
Y1062502D01*
X581002Y1064503D02*
X583002Y1062502D01*
X547003Y1064503D02*
X581002D01*
X545002Y1062502D02*
X547003Y1064503D01*
X545002Y971503D02*
Y1062502D01*
Y971503D02*
X547003Y969503D01*
X581002D01*
X574904Y950554D02*
X582104Y950554D01*
X561004Y960454D02*
X561004Y950554D01*
X568204Y950554D02*
Y960454D01*
X563505Y951503D02*
X563505Y959502D01*
X561004Y950554D02*
X568204Y950554D01*
X579506Y951503D02*
X579506Y959502D01*
X561004Y960454D02*
X568204Y960454D01*
X574904Y960454D02*
X582104D01*
X574904Y950554D02*
X574904Y960454D01*
X563505Y959502D02*
X579506Y959502D01*
X563505Y951503D02*
X579506Y951503D01*
X582104Y960454D02*
X582104Y950554D01*
X618004Y1083754D02*
X628004Y1083754D01*
X618004Y1071754D02*
X628004Y1071754D01*
Y1083754D01*
X618004Y1083754D02*
X618004Y1071754D01*
X906254Y965504D02*
X916254Y965504D01*
Y949504D02*
Y965504D01*
X896254Y949504D02*
X916254Y949504D01*
X896254Y949504D02*
Y965504D01*
X906254D01*
X896108Y958999D02*
X899884Y958999D01*
X903759D01*
X903759Y965749D01*
X896009Y965749D02*
X903759Y965749D01*
X896009Y958999D02*
X896009Y965749D01*
X896009Y958999D02*
X896254Y958999D01*
X908853Y958999D02*
X912629Y958999D01*
X916504Y958999D01*
X916504Y965749D02*
X916504Y958999D01*
X908754Y965749D02*
X916504Y965749D01*
X908754Y965749D02*
X908754Y958999D01*
X908999Y958999D01*
X908853Y949254D02*
X912629Y949254D01*
X916504D01*
X916504Y956004D01*
X908754Y956004D02*
X916504Y956004D01*
X908754Y956004D02*
X908754Y949254D01*
X908999Y949254D01*
X896108D02*
X899884D01*
X903759Y949254D01*
Y956004D01*
X896009Y956004D02*
X903759Y956004D01*
X896009Y956004D02*
X896009Y949254D01*
X896254Y949254D01*
X711254Y1061004D02*
X719254Y1061004D01*
Y1085004D01*
X703254Y1085004D02*
X719254Y1085004D01*
X703254Y1073004D02*
Y1085004D01*
Y1061004D02*
Y1073004D01*
Y1061004D02*
X711254Y1061004D01*
X682754Y1061004D02*
X690754Y1061004D01*
Y1085004D01*
X674754Y1085004D02*
X690754Y1085004D01*
X674754Y1061004D02*
Y1085004D01*
Y1061004D02*
X682754Y1061004D01*
X681004Y1067004D02*
X689004Y1059004D01*
X681004Y1059004D02*
X713004Y1059004D01*
X713004Y1087004D01*
X681004Y1087004D02*
X713004Y1087004D01*
X681004Y1059004D02*
X681004Y1087004D01*
X771254Y1061004D02*
X779254Y1061004D01*
Y1085004D01*
X763254Y1085004D02*
X779254Y1085004D01*
X763254Y1073004D02*
Y1085004D01*
Y1061004D02*
Y1073004D01*
Y1061004D02*
X771254Y1061004D01*
X742754Y1061004D02*
X750754Y1061004D01*
Y1085004D01*
X734754Y1085004D02*
X750754Y1085004D01*
X734754Y1061004D02*
Y1085004D01*
Y1061004D02*
X742754Y1061004D01*
X741004Y1067004D02*
X749004Y1059004D01*
X741004Y1059004D02*
X773004Y1059004D01*
X773004Y1087004D01*
X741004Y1087004D02*
X773004Y1087004D01*
X741004Y1059004D02*
X741004Y1087004D01*
X874754Y1086551D02*
X874754Y1055458D01*
X874754Y1086551D02*
X917754Y1086551D01*
X917754Y1055458D01*
X874754Y1055458D02*
X917754Y1055458D01*
X873754Y1073504D02*
X879504Y1073504D01*
X873754Y1084004D02*
X873754Y1073504D01*
X873754Y1084004D02*
X885254Y1084004D01*
X885254Y1073504D01*
X879504Y1073504D02*
X885254Y1073504D01*
X873754Y1058004D02*
X879504Y1058004D01*
X873754Y1068504D02*
X873754Y1058004D01*
X873754Y1068504D02*
X885254Y1068504D01*
X885254Y1058004D01*
X879504D02*
X885254D01*
X907254Y1058004D02*
X913004Y1058004D01*
X907254Y1068504D02*
X907254Y1058004D01*
X907254Y1068504D02*
X918754Y1068504D01*
X918754Y1058004D01*
X913004Y1058004D02*
X918754Y1058004D01*
X907254Y1073504D02*
X913004Y1073504D01*
X907254Y1084004D02*
X907254Y1073504D01*
X907254Y1084004D02*
X918754Y1084004D01*
X918754Y1073504D01*
X913004Y1073504D02*
X918754Y1073504D01*
X682304Y969954D02*
X834704Y969954D01*
X834704Y944554D02*
X834704Y969954D01*
X682304Y944554D02*
X834704Y944554D01*
X682304Y944554D02*
Y969954D01*
X822004Y965754D02*
X830504D01*
X830504Y948754D02*
X830504Y965754D01*
X813504Y948754D02*
X830504Y948754D01*
X813504Y965754D02*
X813504Y948754D01*
X813504Y965754D02*
X822004Y965754D01*
X579802Y1218703D02*
G03*
X566802Y1231702I-13000J0D01*
G01*
X561202D02*
G03*
X548202Y1218703I0J-13000D01*
G01*
Y1155303D02*
G03*
X561202Y1142303I13000J0D01*
G01*
X566802D02*
G03*
X579802Y1155303I0J13000D01*
G01*
X566754Y1139754D02*
G03*
X582254Y1155254I0J15500D01*
G01*
X545754D02*
G03*
X561254Y1139754I15500J0D01*
G01*
Y1234254D02*
G03*
X545754Y1218754I0J-15500D01*
G01*
X582254D02*
G03*
X566754Y1234254I-15500J0D01*
G01*
X827510Y1127254D02*
G03*
X827510Y1127254I-5506J0D01*
G01*
X805104Y1127254D02*
G03*
X805104Y1127254I-8500J0D01*
G01*
X801954D02*
G03*
X801954Y1127254I-5350J0D01*
G01*
X779704Y1127254D02*
G03*
X779704Y1127254I-8500J0D01*
G01*
X776554D02*
G03*
X776554Y1127254I-5350J0D01*
G01*
X754304Y1127254D02*
G03*
X754304Y1127254I-8500J0D01*
G01*
X751154D02*
G03*
X751154Y1127254I-5350J0D01*
G01*
X728904Y1127254D02*
G03*
X728904Y1127254I-8500J0D01*
G01*
X725754D02*
G03*
X725754Y1127254I-5350J0D01*
G01*
X703504Y1127254D02*
G03*
X703504Y1127254I-8500J0D01*
G01*
X700354D02*
G03*
X700354Y1127254I-5350J0D01*
G01*
X522554Y1212054D02*
X529754D01*
X522554Y1221954D02*
X529754D01*
X522554Y1212054D02*
Y1221954D01*
X529754Y1212054D02*
Y1221954D01*
X508754Y1212054D02*
X515954D01*
X508754Y1221954D02*
X515954D01*
X508754Y1212054D02*
Y1221954D01*
X515954Y1212054D02*
Y1221954D01*
X511152Y1221106D02*
X527353D01*
X511152Y1212906D02*
X527353D01*
X511152D02*
Y1221106D01*
X527353Y1212906D02*
Y1221106D01*
X926755Y1119744D02*
Y1124764D01*
X936755Y1119744D02*
Y1124764D01*
X926755D02*
X936755D01*
X926755Y1119744D02*
X936755D01*
X933504Y1119254D02*
Y1125254D01*
X939004Y1119254D02*
Y1125254D01*
X933504Y1119254D02*
X939004D01*
X933504Y1125254D02*
X939004D01*
X924504Y1119254D02*
Y1125254D01*
X930004Y1119254D02*
Y1125254D01*
X924504Y1119254D02*
X930004D01*
X924504Y1125254D02*
X930004D01*
X889503Y1119745D02*
Y1124765D01*
X879503Y1119745D02*
Y1124765D01*
Y1119745D02*
X889503D01*
X879503Y1124765D02*
X889503D01*
X882754Y1119254D02*
Y1125254D01*
X877254Y1119254D02*
Y1125254D01*
X882754D01*
X877254Y1119254D02*
X882754D01*
X891754D02*
Y1125254D01*
X886254Y1119254D02*
Y1125254D01*
X891754D01*
X886254Y1119254D02*
X891754D01*
X854642Y1145370D02*
Y1150390D01*
X844642Y1145370D02*
Y1150390D01*
Y1145370D02*
X854642D01*
X844642Y1150390D02*
X854642D01*
X847893Y1144879D02*
Y1150879D01*
X842393Y1144879D02*
Y1150879D01*
X847893D01*
X842393Y1144879D02*
X847893D01*
X856893D02*
Y1150879D01*
X851393Y1144879D02*
Y1150879D01*
X856893D01*
X851393Y1144879D02*
X856893D01*
X927005Y1249494D02*
Y1254514D01*
X937005Y1249494D02*
Y1254514D01*
X927005D02*
X937005D01*
X927005Y1249494D02*
X937005D01*
X933754Y1249004D02*
Y1255004D01*
X939254Y1249004D02*
Y1255004D01*
X933754Y1249004D02*
X939254D01*
X933754Y1255004D02*
X939254D01*
X924754Y1249004D02*
Y1255004D01*
X930254Y1249004D02*
Y1255004D01*
X924754Y1249004D02*
X930254D01*
X924754Y1255004D02*
X930254D01*
X927005Y1229494D02*
Y1234514D01*
X937005Y1229494D02*
Y1234514D01*
X927005D02*
X937005D01*
X927005Y1229494D02*
X937005D01*
X933754Y1229004D02*
Y1235004D01*
X939254Y1229004D02*
Y1235004D01*
X933754Y1229004D02*
X939254D01*
X933754Y1235004D02*
X939254D01*
X924754Y1229004D02*
Y1235004D01*
X930254Y1229004D02*
Y1235004D01*
X924754Y1229004D02*
X930254D01*
X924754Y1235004D02*
X930254D01*
X553503Y1122995D02*
Y1128015D01*
X543503Y1122995D02*
Y1128015D01*
Y1122995D02*
X553503D01*
X543503Y1128015D02*
X553503D01*
X546754Y1122504D02*
Y1128504D01*
X541254Y1122504D02*
Y1128504D01*
X546754D01*
X541254Y1122504D02*
X546754D01*
X555754D02*
Y1128504D01*
X550254Y1122504D02*
Y1128504D01*
X555754D01*
X550254Y1122504D02*
X555754D01*
X926755Y1130994D02*
Y1136014D01*
X936755Y1130994D02*
Y1136014D01*
X926755D02*
X936755D01*
X926755Y1130994D02*
X936755D01*
X933504Y1130504D02*
Y1136504D01*
X939004Y1130504D02*
Y1136504D01*
X933504Y1130504D02*
X939004D01*
X933504Y1136504D02*
X939004D01*
X924504Y1130504D02*
Y1136504D01*
X930004Y1130504D02*
Y1136504D01*
X924504Y1130504D02*
X930004D01*
X924504Y1136504D02*
X930004D01*
X957005Y1159494D02*
Y1164514D01*
X967005Y1159494D02*
Y1164514D01*
X957005D02*
X967005D01*
X957005Y1159494D02*
X967005D01*
X963754Y1159004D02*
Y1165004D01*
X969254Y1159004D02*
Y1165004D01*
X963754Y1159004D02*
X969254D01*
X963754Y1165004D02*
X969254D01*
X954754Y1159004D02*
Y1165004D01*
X960254Y1159004D02*
Y1165004D01*
X954754Y1159004D02*
X960254D01*
X954754Y1165004D02*
X960254D01*
X595755Y1122994D02*
Y1128014D01*
X605755Y1122994D02*
Y1128014D01*
X595755D02*
X605755D01*
X595755Y1122994D02*
X605755D01*
X602504Y1122504D02*
Y1128504D01*
X608004Y1122504D02*
Y1128504D01*
X602504Y1122504D02*
X608004D01*
X602504Y1128504D02*
X608004D01*
X593504Y1122504D02*
Y1128504D01*
X599004Y1122504D02*
Y1128504D01*
X593504Y1122504D02*
X599004D01*
X593504Y1128504D02*
X599004D01*
X863244Y1227005D02*
X868264D01*
X863244Y1237005D02*
X868264D01*
X863244Y1227005D02*
Y1237005D01*
X868264Y1227005D02*
Y1237005D01*
X862754Y1233754D02*
X868754D01*
X862754Y1239254D02*
X868754D01*
Y1233754D02*
Y1239254D01*
X862754Y1233754D02*
Y1239254D01*
Y1224754D02*
X868754D01*
X862754Y1230254D02*
X868754D01*
Y1224754D02*
Y1230254D01*
X862754Y1224754D02*
Y1230254D01*
X957005Y1149494D02*
Y1154514D01*
X967005Y1149494D02*
Y1154514D01*
X957005D02*
X967005D01*
X957005Y1149494D02*
X967005D01*
X963754Y1149004D02*
Y1155004D01*
X969254Y1149004D02*
Y1155004D01*
X963754Y1149004D02*
X969254D01*
X963754Y1155004D02*
X969254D01*
X954754Y1149004D02*
Y1155004D01*
X960254Y1149004D02*
Y1155004D01*
X954754Y1149004D02*
X960254D01*
X954754Y1155004D02*
X960254D01*
X940744Y1213255D02*
X945765D01*
X940744Y1223255D02*
X945765D01*
X940744Y1213255D02*
Y1223255D01*
X945765Y1213255D02*
Y1223255D01*
X940254Y1220004D02*
X946254D01*
X940254Y1225504D02*
X946254D01*
Y1220004D02*
Y1225504D01*
X940254Y1220004D02*
Y1225504D01*
Y1211004D02*
X946254D01*
X940254Y1216504D02*
X946254D01*
Y1211004D02*
Y1216504D01*
X940254Y1211004D02*
Y1216504D01*
X522554Y1227054D02*
Y1236954D01*
X511253Y1227995D02*
X527253D01*
X511253D02*
Y1236015D01*
X508754Y1227054D02*
X515954D01*
X522554D02*
X529754D01*
X508754Y1236954D02*
X515954D01*
X508754Y1227054D02*
Y1236954D01*
X529754Y1227054D02*
Y1236954D01*
X511253Y1236015D02*
X527253D01*
X522554Y1236954D02*
X529754D01*
X527253Y1227995D02*
Y1236015D01*
X515954Y1227054D02*
Y1236954D01*
X541004Y1252004D02*
Y1257504D01*
X535004Y1248504D02*
X541004D01*
X535004Y1257504D02*
X541004D01*
Y1243004D02*
Y1248504D01*
X535494Y1245255D02*
Y1255255D01*
X535004Y1243004D02*
X541004D01*
X535494Y1245255D02*
X540514D01*
X535494Y1255255D02*
X540514D01*
X535004Y1252004D02*
Y1257504D01*
X540514Y1245255D02*
Y1255255D01*
X535004Y1243004D02*
Y1248504D01*
Y1252004D02*
X541004D01*
X818004Y1237754D02*
Y1243754D01*
X821504Y1237754D02*
X827004D01*
X814753Y1243265D02*
X824753D01*
X812504Y1237754D02*
X818004D01*
X814753Y1238245D02*
Y1243265D01*
X824753Y1238245D02*
Y1243265D01*
X827004Y1237754D02*
Y1243754D01*
X814753Y1238245D02*
X824753D01*
X821504Y1243754D02*
X827004D01*
X812504Y1237754D02*
Y1243754D01*
X821504Y1237754D02*
Y1243754D01*
X812504D02*
X818004D01*
X812504Y1253754D02*
X818004D01*
X821504Y1247754D02*
Y1253754D01*
X812504Y1247754D02*
Y1253754D01*
X821504D02*
X827004D01*
X814753Y1248245D02*
X824753D01*
X827004Y1247754D02*
Y1253754D01*
X824753Y1248245D02*
Y1253265D01*
X814753Y1248245D02*
Y1253265D01*
X812504Y1247754D02*
X818004D01*
X814753Y1253265D02*
X824753D01*
X821504Y1247754D02*
X827004D01*
X818004D02*
Y1253754D01*
X545254Y1252004D02*
X551254D01*
X545254Y1243004D02*
Y1248504D01*
X550765Y1245255D02*
Y1255255D01*
X545254Y1252004D02*
Y1257504D01*
X545745Y1255255D02*
X550765D01*
X545745Y1245255D02*
X550765D01*
X545254Y1243004D02*
X551254D01*
X545745Y1245255D02*
Y1255255D01*
X551254Y1243004D02*
Y1248504D01*
X545254Y1257504D02*
X551254D01*
X545254Y1248504D02*
X551254D01*
Y1252004D02*
Y1257504D01*
X924754Y1245004D02*
X930254D01*
X933754Y1239004D02*
Y1245004D01*
X924754Y1239004D02*
Y1245004D01*
X933754D02*
X939254D01*
X927003Y1239495D02*
X937003D01*
X939254Y1239004D02*
Y1245004D01*
X937003Y1239495D02*
Y1244515D01*
X927003Y1239495D02*
Y1244515D01*
X924754Y1239004D02*
X930254D01*
X927003Y1244515D02*
X937003D01*
X933754Y1239004D02*
X939254D01*
X930254D02*
Y1245004D01*
X818004Y1223754D02*
Y1229754D01*
X821504Y1223754D02*
X827004D01*
X814753Y1229265D02*
X824753D01*
X812504Y1223754D02*
X818004D01*
X814753Y1224245D02*
Y1229265D01*
X824753Y1224245D02*
Y1229265D01*
X827004Y1223754D02*
Y1229754D01*
X814753Y1224245D02*
X824753D01*
X821504Y1229754D02*
X827004D01*
X812504Y1223754D02*
Y1229754D01*
X821504Y1223754D02*
Y1229754D01*
X812504D02*
X818004D01*
X960254Y1211004D02*
Y1216504D01*
Y1220004D02*
X966254D01*
X960254Y1211004D02*
X966254D01*
X960254Y1220004D02*
Y1225504D01*
X965763Y1213253D02*
Y1223253D01*
X960254Y1225504D02*
X966254D01*
X960743Y1223253D02*
X965763D01*
X960743Y1213253D02*
X965763D01*
X966254Y1211004D02*
Y1216504D01*
X960743Y1213253D02*
Y1223253D01*
X966254Y1220004D02*
Y1225504D01*
X960254Y1216504D02*
X966254D01*
X950254D02*
X956254D01*
Y1220004D02*
Y1225504D01*
X950743Y1213253D02*
Y1223253D01*
X956254Y1211004D02*
Y1216504D01*
X950743Y1213253D02*
X955763D01*
X950743Y1223253D02*
X955763D01*
X950254Y1225504D02*
X956254D01*
X955763Y1213253D02*
Y1223253D01*
X950254Y1220004D02*
Y1225504D01*
Y1211004D02*
X956254D01*
X950254Y1220004D02*
X956254D01*
X950254Y1211004D02*
Y1216504D01*
X933254Y1217004D02*
X933254Y1147004D01*
X863254Y1147004D02*
X863254Y1217004D01*
X933254Y1217004D01*
X863254Y1147004D02*
X933254Y1147004D01*
X579802Y1155303D02*
Y1218703D01*
X561202Y1231702D02*
X566802D01*
X548202Y1155303D02*
Y1218703D01*
X561202Y1142303D02*
X566802D01*
X561254Y1139754D02*
X566754D01*
X545754Y1155254D02*
Y1218754D01*
X561254Y1234254D02*
X566754D01*
X582254Y1155254D02*
Y1218754D01*
X581002Y1139503D02*
X583002Y1141503D01*
Y1232502D01*
X581002Y1234503D02*
X583002Y1232502D01*
X547003Y1234503D02*
X581002D01*
X545002Y1232502D02*
X547003Y1234503D01*
X545002Y1141503D02*
Y1232502D01*
Y1141503D02*
X547003Y1139503D01*
X581002D01*
X574904Y1120554D02*
X582104Y1120554D01*
X561004Y1130454D02*
X561004Y1120554D01*
X568204Y1120554D02*
Y1130454D01*
X563505Y1121503D02*
X563505Y1129502D01*
X561004Y1120554D02*
X568204Y1120554D01*
X579506Y1121503D02*
X579506Y1129502D01*
X561004Y1130454D02*
X568204Y1130454D01*
X574904Y1130454D02*
X582104D01*
X574904Y1120554D02*
X574904Y1130454D01*
X563505Y1129502D02*
X579506Y1129502D01*
X563505Y1121503D02*
X579506Y1121503D01*
X582104Y1130454D02*
X582104Y1120554D01*
X618004Y1253754D02*
X628004Y1253754D01*
X618004Y1241754D02*
X628004Y1241754D01*
Y1253754D01*
X618004Y1253754D02*
X618004Y1241754D01*
X906254Y1135504D02*
X916254Y1135504D01*
Y1119504D02*
Y1135504D01*
X896254Y1119504D02*
X916254Y1119504D01*
X896254Y1119504D02*
Y1135504D01*
X906254D01*
X896108Y1128999D02*
X899884Y1128999D01*
X903759D01*
X903759Y1135749D01*
X896009Y1135749D02*
X903759Y1135749D01*
X896009Y1128999D02*
X896009Y1135749D01*
X896009Y1128999D02*
X896254Y1128999D01*
X908853Y1128999D02*
X912629Y1128999D01*
X916504Y1128999D01*
X916504Y1135749D02*
X916504Y1128999D01*
X908754Y1135749D02*
X916504Y1135749D01*
X908754Y1135749D02*
X908754Y1128999D01*
X908999Y1128999D01*
X908853Y1119254D02*
X912629Y1119254D01*
X916504D01*
X916504Y1126004D01*
X908754Y1126004D02*
X916504Y1126004D01*
X908754Y1126004D02*
X908754Y1119254D01*
X908999Y1119254D01*
X896108D02*
X899884D01*
X903759Y1119254D01*
Y1126004D01*
X896009Y1126004D02*
X903759Y1126004D01*
X896009Y1126004D02*
X896009Y1119254D01*
X896254Y1119254D01*
X711254Y1231004D02*
X719254Y1231004D01*
Y1255004D01*
X703254Y1255004D02*
X719254Y1255004D01*
X703254Y1243004D02*
Y1255004D01*
Y1231004D02*
Y1243004D01*
Y1231004D02*
X711254Y1231004D01*
X682754Y1231004D02*
X690754Y1231004D01*
Y1255004D01*
X674754Y1255004D02*
X690754Y1255004D01*
X674754Y1231004D02*
Y1255004D01*
Y1231004D02*
X682754Y1231004D01*
X681004Y1237004D02*
X689004Y1229004D01*
X681004Y1229004D02*
X713004Y1229004D01*
X713004Y1257004D01*
X681004Y1257004D02*
X713004Y1257004D01*
X681004Y1229004D02*
X681004Y1257004D01*
X771254Y1231004D02*
X779254Y1231004D01*
Y1255004D01*
X763254Y1255004D02*
X779254Y1255004D01*
X763254Y1243004D02*
Y1255004D01*
Y1231004D02*
Y1243004D01*
Y1231004D02*
X771254Y1231004D01*
X742754Y1231004D02*
X750754Y1231004D01*
Y1255004D01*
X734754Y1255004D02*
X750754Y1255004D01*
X734754Y1231004D02*
Y1255004D01*
Y1231004D02*
X742754Y1231004D01*
X741004Y1237004D02*
X749004Y1229004D01*
X741004Y1229004D02*
X773004Y1229004D01*
X773004Y1257004D01*
X741004Y1257004D02*
X773004Y1257004D01*
X741004Y1229004D02*
X741004Y1257004D01*
X874754Y1256551D02*
X874754Y1225458D01*
X874754Y1256551D02*
X917754Y1256551D01*
X917754Y1225458D01*
X874754Y1225458D02*
X917754Y1225458D01*
X873754Y1243504D02*
X879504Y1243504D01*
X873754Y1254004D02*
X873754Y1243504D01*
X873754Y1254004D02*
X885254Y1254004D01*
X885254Y1243504D01*
X879504Y1243504D02*
X885254Y1243504D01*
X873754Y1228004D02*
X879504Y1228004D01*
X873754Y1238504D02*
X873754Y1228004D01*
X873754Y1238504D02*
X885254Y1238504D01*
X885254Y1228004D01*
X879504D02*
X885254D01*
X907254Y1228004D02*
X913004Y1228004D01*
X907254Y1238504D02*
X907254Y1228004D01*
X907254Y1238504D02*
X918754Y1238504D01*
X918754Y1228004D01*
X913004Y1228004D02*
X918754Y1228004D01*
X907254Y1243504D02*
X913004Y1243504D01*
X907254Y1254004D02*
X907254Y1243504D01*
X907254Y1254004D02*
X918754Y1254004D01*
X918754Y1243504D01*
X913004Y1243504D02*
X918754Y1243504D01*
X682304Y1139954D02*
X834704Y1139954D01*
X834704Y1114554D02*
X834704Y1139954D01*
X682304Y1114554D02*
X834704Y1114554D01*
X682304Y1114554D02*
Y1139954D01*
X822004Y1135754D02*
X830504D01*
X830504Y1118754D02*
X830504Y1135754D01*
X813504Y1118754D02*
X830504Y1118754D01*
X813504Y1135754D02*
X813504Y1118754D01*
X813504Y1135754D02*
X822004Y1135754D01*
X579802Y1388703D02*
G03*
X566802Y1401703I-13000J0D01*
G01*
X561202D02*
G03*
X548202Y1388703I0J-13000D01*
G01*
Y1325303D02*
G03*
X561202Y1312303I13000J0D01*
G01*
X566802D02*
G03*
X579802Y1325303I0J13000D01*
G01*
X566754Y1309754D02*
G03*
X582254Y1325254I0J15500D01*
G01*
X545754D02*
G03*
X561254Y1309754I15500J0D01*
G01*
Y1404254D02*
G03*
X545754Y1388754I0J-15500D01*
G01*
X582254D02*
G03*
X566754Y1404254I-15500J0D01*
G01*
X827510Y1297254D02*
G03*
X827510Y1297254I-5506J0D01*
G01*
X805104Y1297254D02*
G03*
X805104Y1297254I-8500J0D01*
G01*
X801954D02*
G03*
X801954Y1297254I-5350J0D01*
G01*
X779704Y1297254D02*
G03*
X779704Y1297254I-8500J0D01*
G01*
X776554D02*
G03*
X776554Y1297254I-5350J0D01*
G01*
X754304Y1297254D02*
G03*
X754304Y1297254I-8500J0D01*
G01*
X751154D02*
G03*
X751154Y1297254I-5350J0D01*
G01*
X728904Y1297254D02*
G03*
X728904Y1297254I-8500J0D01*
G01*
X725754D02*
G03*
X725754Y1297254I-5350J0D01*
G01*
X703504Y1297254D02*
G03*
X703504Y1297254I-8500J0D01*
G01*
X700354D02*
G03*
X700354Y1297254I-5350J0D01*
G01*
X522554Y1382054D02*
X529754D01*
X522554Y1391954D02*
X529754D01*
X522554Y1382054D02*
Y1391954D01*
X529754Y1382054D02*
Y1391954D01*
X508754Y1382054D02*
X515954D01*
X508754Y1391954D02*
X515954D01*
X508754Y1382054D02*
Y1391954D01*
X515954Y1382054D02*
Y1391954D01*
X511152Y1391106D02*
X527353D01*
X511152Y1382906D02*
X527353D01*
X511152D02*
Y1391106D01*
X527353Y1382906D02*
Y1391106D01*
X926755Y1289744D02*
Y1294764D01*
X936755Y1289744D02*
Y1294764D01*
X926755D02*
X936755D01*
X926755Y1289744D02*
X936755D01*
X933504Y1289254D02*
Y1295254D01*
X939004Y1289254D02*
Y1295254D01*
X933504Y1289254D02*
X939004D01*
X933504Y1295254D02*
X939004D01*
X924504Y1289254D02*
Y1295254D01*
X930004Y1289254D02*
Y1295254D01*
X924504Y1289254D02*
X930004D01*
X924504Y1295254D02*
X930004D01*
X889503Y1289745D02*
Y1294765D01*
X879503Y1289745D02*
Y1294765D01*
Y1289745D02*
X889503D01*
X879503Y1294765D02*
X889503D01*
X882754Y1289254D02*
Y1295254D01*
X877254Y1289254D02*
Y1295254D01*
X882754D01*
X877254Y1289254D02*
X882754D01*
X891754D02*
Y1295254D01*
X886254Y1289254D02*
Y1295254D01*
X891754D01*
X886254Y1289254D02*
X891754D01*
X854642Y1315370D02*
Y1320390D01*
X844642Y1315370D02*
Y1320390D01*
Y1315370D02*
X854642D01*
X844642Y1320390D02*
X854642D01*
X847893Y1314879D02*
Y1320879D01*
X842393Y1314879D02*
Y1320879D01*
X847893D01*
X842393Y1314879D02*
X847893D01*
X856893D02*
Y1320879D01*
X851393Y1314879D02*
Y1320879D01*
X856893D01*
X851393Y1314879D02*
X856893D01*
X927005Y1419494D02*
Y1424514D01*
X937005Y1419494D02*
Y1424514D01*
X927005D02*
X937005D01*
X927005Y1419494D02*
X937005D01*
X933754Y1419004D02*
Y1425004D01*
X939254Y1419004D02*
Y1425004D01*
X933754Y1419004D02*
X939254D01*
X933754Y1425004D02*
X939254D01*
X924754Y1419004D02*
Y1425004D01*
X930254Y1419004D02*
Y1425004D01*
X924754Y1419004D02*
X930254D01*
X924754Y1425004D02*
X930254D01*
X927005Y1399494D02*
Y1404514D01*
X937005Y1399494D02*
Y1404514D01*
X927005D02*
X937005D01*
X927005Y1399494D02*
X937005D01*
X933754Y1399004D02*
Y1405004D01*
X939254Y1399004D02*
Y1405004D01*
X933754Y1399004D02*
X939254D01*
X933754Y1405004D02*
X939254D01*
X924754Y1399004D02*
Y1405004D01*
X930254Y1399004D02*
Y1405004D01*
X924754Y1399004D02*
X930254D01*
X924754Y1405004D02*
X930254D01*
X553503Y1292995D02*
Y1298015D01*
X543503Y1292995D02*
Y1298015D01*
Y1292995D02*
X553503D01*
X543503Y1298015D02*
X553503D01*
X546754Y1292504D02*
Y1298504D01*
X541254Y1292504D02*
Y1298504D01*
X546754D01*
X541254Y1292504D02*
X546754D01*
X555754D02*
Y1298504D01*
X550254Y1292504D02*
Y1298504D01*
X555754D01*
X550254Y1292504D02*
X555754D01*
X926755Y1300994D02*
Y1306014D01*
X936755Y1300994D02*
Y1306014D01*
X926755D02*
X936755D01*
X926755Y1300994D02*
X936755D01*
X933504Y1300504D02*
Y1306504D01*
X939004Y1300504D02*
Y1306504D01*
X933504Y1300504D02*
X939004D01*
X933504Y1306504D02*
X939004D01*
X924504Y1300504D02*
Y1306504D01*
X930004Y1300504D02*
Y1306504D01*
X924504Y1300504D02*
X930004D01*
X924504Y1306504D02*
X930004D01*
X957005Y1329494D02*
Y1334514D01*
X967005Y1329494D02*
Y1334514D01*
X957005D02*
X967005D01*
X957005Y1329494D02*
X967005D01*
X963754Y1329004D02*
Y1335004D01*
X969254Y1329004D02*
Y1335004D01*
X963754Y1329004D02*
X969254D01*
X963754Y1335004D02*
X969254D01*
X954754Y1329004D02*
Y1335004D01*
X960254Y1329004D02*
Y1335004D01*
X954754Y1329004D02*
X960254D01*
X954754Y1335004D02*
X960254D01*
X595755Y1292994D02*
Y1298014D01*
X605755Y1292994D02*
Y1298014D01*
X595755D02*
X605755D01*
X595755Y1292994D02*
X605755D01*
X602504Y1292504D02*
Y1298504D01*
X608004Y1292504D02*
Y1298504D01*
X602504Y1292504D02*
X608004D01*
X602504Y1298504D02*
X608004D01*
X593504Y1292504D02*
Y1298504D01*
X599004Y1292504D02*
Y1298504D01*
X593504Y1292504D02*
X599004D01*
X593504Y1298504D02*
X599004D01*
X863244Y1397005D02*
X868264D01*
X863244Y1407005D02*
X868264D01*
X863244Y1397005D02*
Y1407005D01*
X868264Y1397005D02*
Y1407005D01*
X862754Y1403754D02*
X868754D01*
X862754Y1409254D02*
X868754D01*
Y1403754D02*
Y1409254D01*
X862754Y1403754D02*
Y1409254D01*
Y1394754D02*
X868754D01*
X862754Y1400254D02*
X868754D01*
Y1394754D02*
Y1400254D01*
X862754Y1394754D02*
Y1400254D01*
X957005Y1319494D02*
Y1324514D01*
X967005Y1319494D02*
Y1324514D01*
X957005D02*
X967005D01*
X957005Y1319494D02*
X967005D01*
X963754Y1319004D02*
Y1325004D01*
X969254Y1319004D02*
Y1325004D01*
X963754Y1319004D02*
X969254D01*
X963754Y1325004D02*
X969254D01*
X954754Y1319004D02*
Y1325004D01*
X960254Y1319004D02*
Y1325004D01*
X954754Y1319004D02*
X960254D01*
X954754Y1325004D02*
X960254D01*
X940744Y1383255D02*
X945765D01*
X940744Y1393255D02*
X945765D01*
X940744Y1383255D02*
Y1393255D01*
X945765Y1383255D02*
Y1393255D01*
X940254Y1390004D02*
X946254D01*
X940254Y1395504D02*
X946254D01*
Y1390004D02*
Y1395504D01*
X940254Y1390004D02*
Y1395504D01*
Y1381004D02*
X946254D01*
X940254Y1386504D02*
X946254D01*
Y1381004D02*
Y1386504D01*
X940254Y1381004D02*
Y1386504D01*
X522554Y1397054D02*
Y1406954D01*
X511253Y1397995D02*
X527253D01*
X511253D02*
Y1406015D01*
X508754Y1397054D02*
X515954D01*
X522554D02*
X529754D01*
X508754Y1406954D02*
X515954D01*
X508754Y1397054D02*
Y1406954D01*
X529754Y1397054D02*
Y1406954D01*
X511253Y1406015D02*
X527253D01*
X522554Y1406954D02*
X529754D01*
X527253Y1397995D02*
Y1406015D01*
X515954Y1397054D02*
Y1406954D01*
X541004Y1422004D02*
Y1427504D01*
X535004Y1418504D02*
X541004D01*
X535004Y1427504D02*
X541004D01*
Y1413004D02*
Y1418504D01*
X535494Y1415255D02*
Y1425255D01*
X535004Y1413004D02*
X541004D01*
X535494Y1415255D02*
X540514D01*
X535494Y1425255D02*
X540514D01*
X535004Y1422004D02*
Y1427504D01*
X540514Y1415255D02*
Y1425255D01*
X535004Y1413004D02*
Y1418504D01*
Y1422004D02*
X541004D01*
X818004Y1407754D02*
Y1413754D01*
X821504Y1407754D02*
X827004D01*
X814753Y1413265D02*
X824753D01*
X812504Y1407754D02*
X818004D01*
X814753Y1408245D02*
Y1413265D01*
X824753Y1408245D02*
Y1413265D01*
X827004Y1407754D02*
Y1413754D01*
X814753Y1408245D02*
X824753D01*
X821504Y1413754D02*
X827004D01*
X812504Y1407754D02*
Y1413754D01*
X821504Y1407754D02*
Y1413754D01*
X812504D02*
X818004D01*
X812504Y1423754D02*
X818004D01*
X821504Y1417754D02*
Y1423754D01*
X812504Y1417754D02*
Y1423754D01*
X821504D02*
X827004D01*
X814753Y1418245D02*
X824753D01*
X827004Y1417754D02*
Y1423754D01*
X824753Y1418245D02*
Y1423265D01*
X814753Y1418245D02*
Y1423265D01*
X812504Y1417754D02*
X818004D01*
X814753Y1423265D02*
X824753D01*
X821504Y1417754D02*
X827004D01*
X818004D02*
Y1423754D01*
X545254Y1422004D02*
X551254D01*
X545254Y1413004D02*
Y1418504D01*
X550765Y1415255D02*
Y1425255D01*
X545254Y1422004D02*
Y1427504D01*
X545745Y1425255D02*
X550765D01*
X545745Y1415255D02*
X550765D01*
X545254Y1413004D02*
X551254D01*
X545745Y1415255D02*
Y1425255D01*
X551254Y1413004D02*
Y1418504D01*
X545254Y1427504D02*
X551254D01*
X545254Y1418504D02*
X551254D01*
Y1422004D02*
Y1427504D01*
X924754Y1415004D02*
X930254D01*
X933754Y1409004D02*
Y1415004D01*
X924754Y1409004D02*
Y1415004D01*
X933754D02*
X939254D01*
X927003Y1409495D02*
X937003D01*
X939254Y1409004D02*
Y1415004D01*
X937003Y1409495D02*
Y1414515D01*
X927003Y1409495D02*
Y1414515D01*
X924754Y1409004D02*
X930254D01*
X927003Y1414515D02*
X937003D01*
X933754Y1409004D02*
X939254D01*
X930254D02*
Y1415004D01*
X818004Y1393754D02*
Y1399754D01*
X821504Y1393754D02*
X827004D01*
X814753Y1399265D02*
X824753D01*
X812504Y1393754D02*
X818004D01*
X814753Y1394245D02*
Y1399265D01*
X824753Y1394245D02*
Y1399265D01*
X827004Y1393754D02*
Y1399754D01*
X814753Y1394245D02*
X824753D01*
X821504Y1399754D02*
X827004D01*
X812504Y1393754D02*
Y1399754D01*
X821504Y1393754D02*
Y1399754D01*
X812504D02*
X818004D01*
X960254Y1381004D02*
Y1386504D01*
Y1390004D02*
X966254D01*
X960254Y1381004D02*
X966254D01*
X960254Y1390004D02*
Y1395504D01*
X965763Y1383253D02*
Y1393253D01*
X960254Y1395504D02*
X966254D01*
X960743Y1393253D02*
X965763D01*
X960743Y1383253D02*
X965763D01*
X966254Y1381004D02*
Y1386504D01*
X960743Y1383253D02*
Y1393253D01*
X966254Y1390004D02*
Y1395504D01*
X960254Y1386504D02*
X966254D01*
X950254D02*
X956254D01*
Y1390004D02*
Y1395504D01*
X950743Y1383253D02*
Y1393253D01*
X956254Y1381004D02*
Y1386504D01*
X950743Y1383253D02*
X955763D01*
X950743Y1393253D02*
X955763D01*
X950254Y1395504D02*
X956254D01*
X955763Y1383253D02*
Y1393253D01*
X950254Y1390004D02*
Y1395504D01*
Y1381004D02*
X956254D01*
X950254Y1390004D02*
X956254D01*
X950254Y1381004D02*
Y1386504D01*
X933254Y1387004D02*
X933254Y1317004D01*
X863254Y1317004D02*
X863254Y1387004D01*
X933254Y1387004D01*
X863254Y1317004D02*
X933254Y1317004D01*
X579802Y1325303D02*
Y1388703D01*
X561202Y1401703D02*
X566802D01*
X548202Y1325303D02*
Y1388703D01*
X561202Y1312303D02*
X566802D01*
X561254Y1309754D02*
X566754D01*
X545754Y1325254D02*
Y1388754D01*
X561254Y1404254D02*
X566754D01*
X582254Y1325254D02*
Y1388754D01*
X581002Y1309503D02*
X583002Y1311503D01*
Y1402502D01*
X581002Y1404503D02*
X583002Y1402502D01*
X547003Y1404503D02*
X581002D01*
X545002Y1402502D02*
X547003Y1404503D01*
X545002Y1311503D02*
Y1402502D01*
Y1311503D02*
X547003Y1309503D01*
X581002D01*
X574904Y1290554D02*
X582104Y1290554D01*
X561004Y1300454D02*
X561004Y1290554D01*
X568204Y1290554D02*
Y1300454D01*
X563505Y1291503D02*
X563505Y1299502D01*
X561004Y1290554D02*
X568204Y1290554D01*
X579506Y1291503D02*
X579506Y1299502D01*
X561004Y1300454D02*
X568204Y1300454D01*
X574904Y1300454D02*
X582104D01*
X574904Y1290554D02*
X574904Y1300454D01*
X563505Y1299502D02*
X579506Y1299502D01*
X563505Y1291503D02*
X579506Y1291503D01*
X582104Y1300454D02*
X582104Y1290554D01*
X618004Y1423754D02*
X628004Y1423754D01*
X618004Y1411754D02*
X628004Y1411754D01*
Y1423754D01*
X618004Y1423754D02*
X618004Y1411754D01*
X906254Y1305504D02*
X916254Y1305504D01*
Y1289504D02*
Y1305504D01*
X896254Y1289504D02*
X916254Y1289504D01*
X896254Y1289504D02*
Y1305504D01*
X906254D01*
X896108Y1298999D02*
X899884Y1298999D01*
X903759D01*
X903759Y1305749D01*
X896009Y1305749D02*
X903759Y1305749D01*
X896009Y1298999D02*
X896009Y1305749D01*
X896009Y1298999D02*
X896254Y1298999D01*
X908853Y1298999D02*
X912629Y1298999D01*
X916504Y1298999D01*
X916504Y1305749D02*
X916504Y1298999D01*
X908754Y1305749D02*
X916504Y1305749D01*
X908754Y1305749D02*
X908754Y1298999D01*
X908999Y1298999D01*
X908853Y1289254D02*
X912629Y1289254D01*
X916504D01*
X916504Y1296004D01*
X908754Y1296004D02*
X916504Y1296004D01*
X908754Y1296004D02*
X908754Y1289254D01*
X908999Y1289254D01*
X896108D02*
X899884D01*
X903759Y1289254D01*
Y1296004D01*
X896009Y1296004D02*
X903759Y1296004D01*
X896009Y1296004D02*
X896009Y1289254D01*
X896254Y1289254D01*
X711254Y1401004D02*
X719254Y1401004D01*
Y1425004D01*
X703254Y1425004D02*
X719254Y1425004D01*
X703254Y1413004D02*
Y1425004D01*
Y1401004D02*
Y1413004D01*
Y1401004D02*
X711254Y1401004D01*
X682754Y1401004D02*
X690754Y1401004D01*
Y1425004D01*
X674754Y1425004D02*
X690754Y1425004D01*
X674754Y1401004D02*
Y1425004D01*
Y1401004D02*
X682754Y1401004D01*
X681004Y1407004D02*
X689004Y1399004D01*
X681004Y1399004D02*
X713004Y1399004D01*
X713004Y1427004D01*
X681004Y1427004D02*
X713004Y1427004D01*
X681004Y1399004D02*
X681004Y1427004D01*
X771254Y1401004D02*
X779254Y1401004D01*
Y1425004D01*
X763254Y1425004D02*
X779254Y1425004D01*
X763254Y1413004D02*
Y1425004D01*
Y1401004D02*
Y1413004D01*
Y1401004D02*
X771254Y1401004D01*
X742754Y1401004D02*
X750754Y1401004D01*
Y1425004D01*
X734754Y1425004D02*
X750754Y1425004D01*
X734754Y1401004D02*
Y1425004D01*
Y1401004D02*
X742754Y1401004D01*
X741004Y1407004D02*
X749004Y1399004D01*
X741004Y1399004D02*
X773004Y1399004D01*
X773004Y1427004D01*
X741004Y1427004D02*
X773004Y1427004D01*
X741004Y1399004D02*
X741004Y1427004D01*
X874754Y1426551D02*
X874754Y1395458D01*
X874754Y1426551D02*
X917754Y1426551D01*
X917754Y1395458D01*
X874754Y1395458D02*
X917754Y1395458D01*
X873754Y1413504D02*
X879504Y1413504D01*
X873754Y1424004D02*
X873754Y1413504D01*
X873754Y1424004D02*
X885254Y1424004D01*
X885254Y1413504D01*
X879504Y1413504D02*
X885254Y1413504D01*
X873754Y1398004D02*
X879504Y1398004D01*
X873754Y1408504D02*
X873754Y1398004D01*
X873754Y1408504D02*
X885254Y1408504D01*
X885254Y1398004D01*
X879504D02*
X885254D01*
X907254Y1398004D02*
X913004Y1398004D01*
X907254Y1408504D02*
X907254Y1398004D01*
X907254Y1408504D02*
X918754Y1408504D01*
X918754Y1398004D01*
X913004Y1398004D02*
X918754Y1398004D01*
X907254Y1413504D02*
X913004Y1413504D01*
X907254Y1424004D02*
X907254Y1413504D01*
X907254Y1424004D02*
X918754Y1424004D01*
X918754Y1413504D01*
X913004Y1413504D02*
X918754Y1413504D01*
X682304Y1309954D02*
X834704Y1309954D01*
X834704Y1284554D02*
X834704Y1309954D01*
X682304Y1284554D02*
X834704Y1284554D01*
X682304Y1284554D02*
Y1309954D01*
X822004Y1305754D02*
X830504D01*
X830504Y1288754D02*
X830504Y1305754D01*
X813504Y1288754D02*
X830504Y1288754D01*
X813504Y1305754D02*
X813504Y1288754D01*
X813504Y1305754D02*
X822004Y1305754D01*
M02*
