G04*
G04 #@! TF.GenerationSoftware,Altium Limited,Altium Designer,25.5.2 (35)*
G04*
G04 Layer_Color=8388736*
%FSLAX44Y44*%
%MOMM*%
G71*
G04*
G04 #@! TF.SameCoordinates,67B56F09-9997-41D6-AB2B-D5ECDE41145E*
G04*
G04*
G04 #@! TF.FilePolarity,Positive*
G04*
G01*
G75*
%ADD57C,1.0000*%
D57*
X464363Y711253D02*
G03*
X461500Y706751I8763J-8734D01*
G01*
Y647258D02*
G03*
X464363Y642755I11626J4232D01*
G01*
X989895Y642755D02*
G03*
X992758Y647258I-8763J8734D01*
G01*
Y706751D02*
G03*
X989895Y711253I-11626J-4232D01*
G01*
D02*
G03*
X989880Y711268I-8763J-8734D01*
G01*
X944111Y757037D02*
G03*
X940572Y758504I-3538J-3533D01*
G01*
X944108Y757040D02*
G03*
X940572Y758504I-3536J-3536D01*
G01*
X989895Y711253D02*
G03*
X989880Y711268I-3550J-3521D01*
G01*
X940572Y595504D02*
G03*
X944111Y596971I0J5000D01*
G01*
X940572Y595504D02*
G03*
X944108Y596968I0J5000D01*
G01*
X513435Y758504D02*
G03*
X509900Y757040I0J-5000D01*
G01*
X513435Y758504D02*
G03*
X509897Y757037I0J-5000D01*
G01*
X464127Y642741D02*
G03*
X464137Y642731I3536J3536D01*
G01*
X509900Y596968D02*
G03*
X513435Y595504I3536J3536D01*
G01*
X509897Y596971D02*
G03*
X513435Y595504I3538J3533D01*
G01*
X944108Y757040D02*
X944111Y757037D01*
X989880Y711268D01*
X944111Y596971D02*
X989880Y642741D01*
X944108Y596968D02*
X944111Y596971D01*
X513435Y758504D02*
X940572Y758504D01*
X509897Y757037D02*
X509900Y757040D01*
X464128Y711268D02*
X509897Y757037D01*
X513435Y595504D02*
X940572Y595504D01*
X464128Y642741D02*
X464137Y642731D01*
X509897Y596971D01*
X509900Y596968D01*
X464363Y881253D02*
G03*
X461500Y876751I8763J-8734D01*
G01*
Y817258D02*
G03*
X464363Y812755I11626J4232D01*
G01*
X989895Y812755D02*
G03*
X992758Y817258I-8763J8734D01*
G01*
Y876751D02*
G03*
X989895Y881253I-11626J-4232D01*
G01*
D02*
G03*
X989880Y881268I-8763J-8734D01*
G01*
X944111Y927037D02*
G03*
X940572Y928504I-3538J-3533D01*
G01*
X944108Y927040D02*
G03*
X940572Y928504I-3536J-3536D01*
G01*
X989895Y881253D02*
G03*
X989880Y881268I-3550J-3521D01*
G01*
X940572Y765504D02*
G03*
X944111Y766971I0J5000D01*
G01*
X940572Y765504D02*
G03*
X944108Y766968I0J5000D01*
G01*
X513435Y928504D02*
G03*
X509900Y927040I0J-5000D01*
G01*
X513435Y928504D02*
G03*
X509897Y927037I0J-5000D01*
G01*
X464127Y812741D02*
G03*
X464137Y812731I3536J3536D01*
G01*
X509900Y766968D02*
G03*
X513435Y765504I3536J3536D01*
G01*
X509897Y766971D02*
G03*
X513435Y765504I3538J3533D01*
G01*
X944108Y927040D02*
X944111Y927037D01*
X989880Y881268D01*
X944111Y766971D02*
X989880Y812741D01*
X944108Y766968D02*
X944111Y766971D01*
X513435Y928504D02*
X940572Y928504D01*
X509897Y927037D02*
X509900Y927040D01*
X464128Y881268D02*
X509897Y927037D01*
X513435Y765504D02*
X940572Y765504D01*
X464128Y812741D02*
X464137Y812731D01*
X509897Y766971D01*
X509900Y766968D01*
X464363Y1051253D02*
G03*
X461500Y1046751I8763J-8734D01*
G01*
Y987258D02*
G03*
X464363Y982755I11626J4232D01*
G01*
X989895Y982755D02*
G03*
X992758Y987258I-8763J8734D01*
G01*
Y1046751D02*
G03*
X989895Y1051253I-11626J-4232D01*
G01*
D02*
G03*
X989880Y1051268I-8763J-8734D01*
G01*
X944111Y1097037D02*
G03*
X940572Y1098504I-3538J-3533D01*
G01*
X944108Y1097040D02*
G03*
X940572Y1098504I-3536J-3536D01*
G01*
X989895Y1051253D02*
G03*
X989880Y1051268I-3550J-3521D01*
G01*
X940572Y935504D02*
G03*
X944111Y936971I0J5000D01*
G01*
X940572Y935504D02*
G03*
X944108Y936968I0J5000D01*
G01*
X513435Y1098504D02*
G03*
X509900Y1097040I0J-5000D01*
G01*
X513435Y1098504D02*
G03*
X509897Y1097037I0J-5000D01*
G01*
X464127Y982741D02*
G03*
X464137Y982731I3536J3536D01*
G01*
X509900Y936968D02*
G03*
X513435Y935504I3536J3536D01*
G01*
X509897Y936971D02*
G03*
X513435Y935504I3538J3533D01*
G01*
X944108Y1097040D02*
X944111Y1097037D01*
X989880Y1051268D01*
X944111Y936971D02*
X989880Y982741D01*
X944108Y936968D02*
X944111Y936971D01*
X513435Y1098504D02*
X940572Y1098504D01*
X509897Y1097037D02*
X509900Y1097040D01*
X464128Y1051268D02*
X509897Y1097037D01*
X513435Y935504D02*
X940572Y935504D01*
X464128Y982741D02*
X464137Y982731D01*
X509897Y936971D01*
X509900Y936968D01*
X464363Y1221253D02*
G03*
X461500Y1216751I8763J-8734D01*
G01*
Y1157258D02*
G03*
X464363Y1152755I11626J4232D01*
G01*
X989895Y1152755D02*
G03*
X992758Y1157258I-8763J8734D01*
G01*
Y1216751D02*
G03*
X989895Y1221253I-11626J-4232D01*
G01*
D02*
G03*
X989880Y1221268I-8763J-8734D01*
G01*
X944111Y1267037D02*
G03*
X940572Y1268504I-3538J-3533D01*
G01*
X944108Y1267040D02*
G03*
X940572Y1268504I-3536J-3536D01*
G01*
X989895Y1221253D02*
G03*
X989880Y1221268I-3550J-3521D01*
G01*
X940572Y1105504D02*
G03*
X944111Y1106971I0J5000D01*
G01*
X940572Y1105504D02*
G03*
X944108Y1106968I0J5000D01*
G01*
X513435Y1268504D02*
G03*
X509900Y1267040I0J-5000D01*
G01*
X513435Y1268504D02*
G03*
X509897Y1267037I0J-5000D01*
G01*
X464127Y1152741D02*
G03*
X464137Y1152731I3536J3536D01*
G01*
X509900Y1106968D02*
G03*
X513435Y1105504I3536J3536D01*
G01*
X509897Y1106971D02*
G03*
X513435Y1105504I3538J3533D01*
G01*
X944108Y1267040D02*
X944111Y1267037D01*
X989880Y1221268D01*
X944111Y1106971D02*
X989880Y1152741D01*
X944108Y1106968D02*
X944111Y1106971D01*
X513435Y1268504D02*
X940572Y1268504D01*
X509897Y1267037D02*
X509900Y1267040D01*
X464128Y1221268D02*
X509897Y1267037D01*
X513435Y1105504D02*
X940572Y1105504D01*
X464128Y1152741D02*
X464137Y1152731D01*
X509897Y1106971D01*
X509900Y1106968D01*
X464363Y1391253D02*
G03*
X461500Y1386751I8763J-8734D01*
G01*
Y1327258D02*
G03*
X464363Y1322755I11626J4232D01*
G01*
X989895Y1322755D02*
G03*
X992758Y1327258I-8763J8734D01*
G01*
Y1386751D02*
G03*
X989895Y1391253I-11626J-4232D01*
G01*
D02*
G03*
X989880Y1391268I-8763J-8734D01*
G01*
X944111Y1437037D02*
G03*
X940572Y1438504I-3538J-3533D01*
G01*
X944108Y1437040D02*
G03*
X940572Y1438504I-3536J-3536D01*
G01*
X989895Y1391253D02*
G03*
X989880Y1391268I-3550J-3521D01*
G01*
X940572Y1275504D02*
G03*
X944111Y1276971I0J5000D01*
G01*
X940572Y1275504D02*
G03*
X944108Y1276968I0J5000D01*
G01*
X513435Y1438504D02*
G03*
X509900Y1437040I0J-5000D01*
G01*
X513435Y1438504D02*
G03*
X509897Y1437037I0J-5000D01*
G01*
X464127Y1322741D02*
G03*
X464137Y1322731I3536J3536D01*
G01*
X509900Y1276968D02*
G03*
X513435Y1275504I3536J3536D01*
G01*
X509897Y1276971D02*
G03*
X513435Y1275504I3538J3533D01*
G01*
X944108Y1437040D02*
X944111Y1437037D01*
X989880Y1391268D01*
X944111Y1276971D02*
X989880Y1322741D01*
X944108Y1276968D02*
X944111Y1276971D01*
X513435Y1438504D02*
X940572Y1438504D01*
X509897Y1437037D02*
X509900Y1437040D01*
X464128Y1391268D02*
X509897Y1437037D01*
X513435Y1275504D02*
X940572Y1275504D01*
X464128Y1322741D02*
X464137Y1322731D01*
X509897Y1276971D01*
X509900Y1276968D01*
M02*
