G04*
G04 #@! TF.GenerationSoftware,Altium Limited,Altium Designer,25.5.2 (35)*
G04*
G04 Layer_Color=32896*
%FSLAX44Y44*%
%MOMM*%
G71*
G04*
G04 #@! TF.SameCoordinates,67B56F09-9997-41D6-AB2B-D5ECDE41145E*
G04*
G04*
G04 #@! TF.FilePolarity,Positive*
G04*
G01*
G75*
%ADD36C,0.0500*%
%ADD56C,0.1000*%
D36*
X506254Y714504D02*
X532254D01*
X506254Y699504D02*
X532254D01*
X506254D02*
Y714504D01*
X532254Y699504D02*
Y714504D01*
X519254Y707004D02*
Y712004D01*
Y702004D02*
Y707004D01*
X514254D02*
X519254D01*
X524254D01*
X926754Y612254D02*
X931754D01*
X936754D01*
X931754D02*
Y617004D01*
Y607504D02*
Y612254D01*
X922754Y607504D02*
Y617004D01*
X940754Y607504D02*
Y617004D01*
X922754D02*
X940754D01*
X922754Y607504D02*
X940754D01*
X884504Y612254D02*
X889504D01*
X879504D02*
X884504D01*
Y607504D02*
Y612254D01*
Y617004D01*
X893504Y607504D02*
Y617004D01*
X875504Y607504D02*
Y617004D01*
Y607504D02*
X893504D01*
X875504Y617004D02*
X893504D01*
X849643Y637879D02*
X854643D01*
X844643D02*
X849643D01*
Y633129D02*
Y637879D01*
Y642629D01*
X858643Y633129D02*
Y642629D01*
X840643Y633129D02*
Y642629D01*
Y633129D02*
X858643D01*
X840643Y642629D02*
X858643D01*
X927004Y742004D02*
X932004D01*
X937004D01*
X932004D02*
Y746754D01*
Y737254D02*
Y742004D01*
X923004Y737254D02*
Y746754D01*
X941004Y737254D02*
Y746754D01*
X923004D02*
X941004D01*
X923004Y737254D02*
X941004D01*
X927004Y722004D02*
X932004D01*
X937004D01*
X932004D02*
Y726754D01*
Y717254D02*
Y722004D01*
X923004Y717254D02*
Y726754D01*
X941004Y717254D02*
Y726754D01*
X923004D02*
X941004D01*
X923004Y717254D02*
X941004D01*
X548504Y615504D02*
X553504D01*
X543504D02*
X548504D01*
Y610754D02*
Y615504D01*
Y620254D01*
X557504Y610754D02*
Y620254D01*
X539504Y610754D02*
Y620254D01*
Y610754D02*
X557504D01*
X539504Y620254D02*
X557504D01*
X926754Y623504D02*
X931754D01*
X936754D01*
X931754D02*
Y628254D01*
Y618754D02*
Y623504D01*
X922754Y618754D02*
Y628254D01*
X940754Y618754D02*
Y628254D01*
X922754D02*
X940754D01*
X922754Y618754D02*
X940754D01*
X957004Y652004D02*
X962004D01*
X967004D01*
X962004D02*
Y656754D01*
Y647254D02*
Y652004D01*
X953004Y647254D02*
Y656754D01*
X971004Y647254D02*
Y656754D01*
X953004D02*
X971004D01*
X953004Y647254D02*
X971004D01*
X595754Y615504D02*
X600754D01*
X605754D01*
X600754D02*
Y620254D01*
Y610754D02*
Y615504D01*
X591754Y610754D02*
Y620254D01*
X609754Y610754D02*
Y620254D01*
X591754D02*
X609754D01*
X591754Y610754D02*
X609754D01*
X865754Y717004D02*
Y722004D01*
Y727004D01*
X861004Y722004D02*
X865754D01*
X870504D01*
X861004Y713004D02*
X870504D01*
X861004Y731004D02*
X870504D01*
X861004Y713004D02*
Y731004D01*
X870504Y713004D02*
Y731004D01*
X957004Y642004D02*
X962004D01*
X967004D01*
X962004D02*
Y646754D01*
Y637254D02*
Y642004D01*
X953004Y637254D02*
Y646754D01*
X971004Y637254D02*
Y646754D01*
X953004D02*
X971004D01*
X953004Y637254D02*
X971004D01*
X943254Y703254D02*
Y708254D01*
Y713254D01*
X938504Y708254D02*
X943254D01*
X948004D01*
X938504Y699254D02*
X948004D01*
X938504Y717254D02*
X948004D01*
X938504Y699254D02*
Y717254D01*
X948004Y699254D02*
Y717254D01*
X532254Y714504D02*
Y729504D01*
X514254Y722004D02*
X519254D01*
X506254Y714504D02*
X532254D01*
X519254Y722004D02*
Y727004D01*
X506254Y714504D02*
Y729504D01*
X519254Y722004D02*
X524254D01*
X519254Y717004D02*
Y722004D01*
X506254Y729504D02*
X532254D01*
X542754Y731254D02*
Y749254D01*
X533254Y731254D02*
X542754D01*
X538004Y735254D02*
Y740254D01*
X542754D01*
X533254D02*
X538004D01*
X533254Y749254D02*
X542754D01*
X538004Y740254D02*
Y745254D01*
X533254Y731254D02*
Y749254D01*
X810754Y726004D02*
X828754D01*
X814754Y730754D02*
X819754D01*
X810754Y726004D02*
Y735504D01*
X819754Y726004D02*
Y730754D01*
Y735504D01*
Y730754D02*
X824754D01*
X828754Y726004D02*
Y735504D01*
X810754D02*
X828754D01*
X810754Y745504D02*
X828754D01*
Y736004D02*
Y745504D01*
X819754Y740754D02*
X824754D01*
X819754D02*
Y745504D01*
Y736004D02*
Y740754D01*
X810754Y736004D02*
Y745504D01*
X814754Y740754D02*
X819754D01*
X810754Y736004D02*
X828754D01*
X543504Y731254D02*
Y749254D01*
X548254Y740254D02*
Y745254D01*
X543504Y749254D02*
X553004D01*
X543504Y740254D02*
X548254D01*
X553004D01*
X548254Y735254D02*
Y740254D01*
X543504Y731254D02*
X553004D01*
Y749254D01*
X923004Y736754D02*
X941004D01*
Y727254D02*
Y736754D01*
X932004Y732004D02*
X937004D01*
X932004D02*
Y736754D01*
Y727254D02*
Y732004D01*
X923004Y727254D02*
Y736754D01*
X927004Y732004D02*
X932004D01*
X923004Y727254D02*
X941004D01*
X810754Y712004D02*
X828754D01*
X814754Y716754D02*
X819754D01*
X810754Y712004D02*
Y721504D01*
X819754Y712004D02*
Y716754D01*
Y721504D01*
Y716754D02*
X824754D01*
X828754Y712004D02*
Y721504D01*
X810754D02*
X828754D01*
X958504Y699254D02*
Y717254D01*
X968004D01*
X963254Y708254D02*
Y713254D01*
X958504Y708254D02*
X963254D01*
X968004D01*
X958504Y699254D02*
X968004D01*
X963254Y703254D02*
Y708254D01*
X968004Y699254D02*
Y717254D01*
X958004Y699254D02*
Y717254D01*
X953254Y703254D02*
Y708254D01*
X948504Y699254D02*
X958004D01*
X953254Y708254D02*
X958004D01*
X948504D02*
X953254D01*
Y713254D01*
X948504Y717254D02*
X958004D01*
X948504Y699254D02*
Y717254D01*
X936504Y633754D02*
X936504Y710254D01*
X860004Y710254D02*
X860004Y633754D01*
X860004Y710254D02*
X936504Y710254D01*
X860004Y633754D02*
X936504Y633754D01*
X542504Y727004D02*
X585504D01*
Y627004D02*
Y727004D01*
X542504Y627004D02*
Y727004D01*
Y627004D02*
X585504D01*
X564003Y677003D02*
X564004Y682004D01*
X564003Y677003D02*
X569004Y677003D01*
X564002Y672003D02*
X564003Y677003D01*
X559002Y677004D02*
X564003Y677003D01*
X559254Y622254D02*
X584004Y622254D01*
X559254Y608754D02*
X584004D01*
X559254D02*
X559254Y622254D01*
X584004Y608754D02*
X584004Y622254D01*
X571504Y615504D02*
X576504D01*
X571504D02*
Y620504D01*
Y610504D02*
Y615504D01*
X566504D02*
X571504D01*
X623004Y732754D02*
Y742754D01*
X618004Y737754D02*
X628004D01*
X614654Y744754D02*
X631354Y744754D01*
X614654Y730754D02*
X631354Y730754D01*
X631354Y744754D01*
X614654Y744754D02*
X614654Y730754D01*
X906254Y617504D02*
Y622504D01*
Y617504D02*
X911254D01*
X906254Y612504D02*
Y617504D01*
X901254D02*
X906254D01*
X894254Y607504D02*
X900004Y607504D01*
X894254Y607504D02*
X894254Y627504D01*
X918254D01*
X918254Y607504D02*
X918254Y627504D01*
X900004Y607504D02*
X918254Y607504D01*
X672754Y716004D02*
X721254Y716004D01*
Y750004D01*
X672754Y750004D02*
X721254Y750004D01*
X672754Y716004D02*
Y750004D01*
X697004Y728004D02*
X697004Y738004D01*
X692004Y733004D02*
X702004Y733004D01*
X732754Y716004D02*
X781254Y716004D01*
Y750004D01*
X732754Y750004D02*
X781254Y750004D01*
X732754Y716004D02*
Y750004D01*
X757004Y728004D02*
X757004Y738004D01*
X752004Y733004D02*
X762004Y733004D01*
X921254Y749004D02*
X921254Y713004D01*
X871254Y749004D02*
X921254D01*
X871254D02*
X871254Y713004D01*
X921254D01*
X896254Y736004D02*
X896254Y731004D01*
X891254Y731004D02*
X896254Y731004D01*
X891254Y731004D02*
X896254Y731004D01*
X896254Y726004D01*
X896254Y731004D02*
X896254Y726004D01*
X896254Y731004D02*
X901254Y731004D01*
X896254Y731004D02*
X901254Y731004D01*
X679754Y602004D02*
X679754Y632504D01*
X679754Y602004D02*
X837254D01*
X837254Y632504D01*
X679754Y632504D02*
X837254Y632504D01*
X506254Y884504D02*
X532254D01*
X506254Y869504D02*
X532254D01*
X506254D02*
Y884504D01*
X532254Y869504D02*
Y884504D01*
X519254Y877004D02*
Y882004D01*
Y872004D02*
Y877004D01*
X514254D02*
X519254D01*
X524254D01*
X926754Y782254D02*
X931754D01*
X936754D01*
X931754D02*
Y787004D01*
Y777504D02*
Y782254D01*
X922754Y777504D02*
Y787004D01*
X940754Y777504D02*
Y787004D01*
X922754D02*
X940754D01*
X922754Y777504D02*
X940754D01*
X884504Y782254D02*
X889504D01*
X879504D02*
X884504D01*
Y777504D02*
Y782254D01*
Y787004D01*
X893504Y777504D02*
Y787004D01*
X875504Y777504D02*
Y787004D01*
Y777504D02*
X893504D01*
X875504Y787004D02*
X893504D01*
X849643Y807879D02*
X854643D01*
X844643D02*
X849643D01*
Y803129D02*
Y807879D01*
Y812629D01*
X858643Y803129D02*
Y812629D01*
X840643Y803129D02*
Y812629D01*
Y803129D02*
X858643D01*
X840643Y812629D02*
X858643D01*
X927004Y912004D02*
X932004D01*
X937004D01*
X932004D02*
Y916754D01*
Y907254D02*
Y912004D01*
X923004Y907254D02*
Y916754D01*
X941004Y907254D02*
Y916754D01*
X923004D02*
X941004D01*
X923004Y907254D02*
X941004D01*
X927004Y892004D02*
X932004D01*
X937004D01*
X932004D02*
Y896754D01*
Y887254D02*
Y892004D01*
X923004Y887254D02*
Y896754D01*
X941004Y887254D02*
Y896754D01*
X923004D02*
X941004D01*
X923004Y887254D02*
X941004D01*
X548504Y785504D02*
X553504D01*
X543504D02*
X548504D01*
Y780754D02*
Y785504D01*
Y790254D01*
X557504Y780754D02*
Y790254D01*
X539504Y780754D02*
Y790254D01*
Y780754D02*
X557504D01*
X539504Y790254D02*
X557504D01*
X926754Y793504D02*
X931754D01*
X936754D01*
X931754D02*
Y798254D01*
Y788754D02*
Y793504D01*
X922754Y788754D02*
Y798254D01*
X940754Y788754D02*
Y798254D01*
X922754D02*
X940754D01*
X922754Y788754D02*
X940754D01*
X957004Y822004D02*
X962004D01*
X967004D01*
X962004D02*
Y826754D01*
Y817254D02*
Y822004D01*
X953004Y817254D02*
Y826754D01*
X971004Y817254D02*
Y826754D01*
X953004D02*
X971004D01*
X953004Y817254D02*
X971004D01*
X595754Y785504D02*
X600754D01*
X605754D01*
X600754D02*
Y790254D01*
Y780754D02*
Y785504D01*
X591754Y780754D02*
Y790254D01*
X609754Y780754D02*
Y790254D01*
X591754D02*
X609754D01*
X591754Y780754D02*
X609754D01*
X865754Y887004D02*
Y892004D01*
Y897004D01*
X861004Y892004D02*
X865754D01*
X870504D01*
X861004Y883004D02*
X870504D01*
X861004Y901004D02*
X870504D01*
X861004Y883004D02*
Y901004D01*
X870504Y883004D02*
Y901004D01*
X957004Y812004D02*
X962004D01*
X967004D01*
X962004D02*
Y816754D01*
Y807254D02*
Y812004D01*
X953004Y807254D02*
Y816754D01*
X971004Y807254D02*
Y816754D01*
X953004D02*
X971004D01*
X953004Y807254D02*
X971004D01*
X943254Y873254D02*
Y878254D01*
Y883254D01*
X938504Y878254D02*
X943254D01*
X948004D01*
X938504Y869254D02*
X948004D01*
X938504Y887254D02*
X948004D01*
X938504Y869254D02*
Y887254D01*
X948004Y869254D02*
Y887254D01*
X532254Y884504D02*
Y899504D01*
X514254Y892004D02*
X519254D01*
X506254Y884504D02*
X532254D01*
X519254Y892004D02*
Y897004D01*
X506254Y884504D02*
Y899504D01*
X519254Y892004D02*
X524254D01*
X519254Y887004D02*
Y892004D01*
X506254Y899504D02*
X532254D01*
X542754Y901254D02*
Y919254D01*
X533254Y901254D02*
X542754D01*
X538004Y905254D02*
Y910254D01*
X542754D01*
X533254D02*
X538004D01*
X533254Y919254D02*
X542754D01*
X538004Y910254D02*
Y915254D01*
X533254Y901254D02*
Y919254D01*
X810754Y896004D02*
X828754D01*
X814754Y900754D02*
X819754D01*
X810754Y896004D02*
Y905504D01*
X819754Y896004D02*
Y900754D01*
Y905504D01*
Y900754D02*
X824754D01*
X828754Y896004D02*
Y905504D01*
X810754D02*
X828754D01*
X810754Y915504D02*
X828754D01*
Y906004D02*
Y915504D01*
X819754Y910754D02*
X824754D01*
X819754D02*
Y915504D01*
Y906004D02*
Y910754D01*
X810754Y906004D02*
Y915504D01*
X814754Y910754D02*
X819754D01*
X810754Y906004D02*
X828754D01*
X543504Y901254D02*
Y919254D01*
X548254Y910254D02*
Y915254D01*
X543504Y919254D02*
X553004D01*
X543504Y910254D02*
X548254D01*
X553004D01*
X548254Y905254D02*
Y910254D01*
X543504Y901254D02*
X553004D01*
Y919254D01*
X923004Y906754D02*
X941004D01*
Y897254D02*
Y906754D01*
X932004Y902004D02*
X937004D01*
X932004D02*
Y906754D01*
Y897254D02*
Y902004D01*
X923004Y897254D02*
Y906754D01*
X927004Y902004D02*
X932004D01*
X923004Y897254D02*
X941004D01*
X810754Y882004D02*
X828754D01*
X814754Y886754D02*
X819754D01*
X810754Y882004D02*
Y891504D01*
X819754Y882004D02*
Y886754D01*
Y891504D01*
Y886754D02*
X824754D01*
X828754Y882004D02*
Y891504D01*
X810754D02*
X828754D01*
X958504Y869254D02*
Y887254D01*
X968004D01*
X963254Y878254D02*
Y883254D01*
X958504Y878254D02*
X963254D01*
X968004D01*
X958504Y869254D02*
X968004D01*
X963254Y873254D02*
Y878254D01*
X968004Y869254D02*
Y887254D01*
X958004Y869254D02*
Y887254D01*
X953254Y873254D02*
Y878254D01*
X948504Y869254D02*
X958004D01*
X953254Y878254D02*
X958004D01*
X948504D02*
X953254D01*
Y883254D01*
X948504Y887254D02*
X958004D01*
X948504Y869254D02*
Y887254D01*
X936504Y803754D02*
X936504Y880254D01*
X860004Y880254D02*
X860004Y803754D01*
X860004Y880254D02*
X936504Y880254D01*
X860004Y803754D02*
X936504Y803754D01*
X542504Y897004D02*
X585504D01*
Y797004D02*
Y897004D01*
X542504Y797004D02*
Y897004D01*
Y797004D02*
X585504D01*
X564003Y847003D02*
X564004Y852004D01*
X564003Y847003D02*
X569004Y847003D01*
X564002Y842003D02*
X564003Y847003D01*
X559002Y847004D02*
X564003Y847003D01*
X559254Y792254D02*
X584004Y792254D01*
X559254Y778754D02*
X584004D01*
X559254D02*
X559254Y792254D01*
X584004Y778754D02*
X584004Y792254D01*
X571504Y785504D02*
X576504D01*
X571504D02*
Y790504D01*
Y780504D02*
Y785504D01*
X566504D02*
X571504D01*
X623004Y902754D02*
Y912754D01*
X618004Y907754D02*
X628004D01*
X614654Y914754D02*
X631354Y914754D01*
X614654Y900754D02*
X631354Y900754D01*
X631354Y914754D01*
X614654Y914754D02*
X614654Y900754D01*
X906254Y787504D02*
Y792504D01*
Y787504D02*
X911254D01*
X906254Y782504D02*
Y787504D01*
X901254D02*
X906254D01*
X894254Y777504D02*
X900004Y777504D01*
X894254Y777504D02*
X894254Y797504D01*
X918254D01*
X918254Y777504D02*
X918254Y797504D01*
X900004Y777504D02*
X918254Y777504D01*
X672754Y886004D02*
X721254Y886004D01*
Y920004D01*
X672754Y920004D02*
X721254Y920004D01*
X672754Y886004D02*
Y920004D01*
X697004Y898004D02*
X697004Y908004D01*
X692004Y903004D02*
X702004Y903004D01*
X732754Y886004D02*
X781254Y886004D01*
Y920004D01*
X732754Y920004D02*
X781254Y920004D01*
X732754Y886004D02*
Y920004D01*
X757004Y898004D02*
X757004Y908004D01*
X752004Y903004D02*
X762004Y903004D01*
X921254Y919004D02*
X921254Y883004D01*
X871254Y919004D02*
X921254D01*
X871254D02*
X871254Y883004D01*
X921254D01*
X896254Y906004D02*
X896254Y901004D01*
X891254Y901004D02*
X896254Y901004D01*
X891254Y901004D02*
X896254Y901004D01*
X896254Y896004D01*
X896254Y901004D02*
X896254Y896004D01*
X896254Y901004D02*
X901254Y901004D01*
X896254Y901004D02*
X901254Y901004D01*
X679754Y772004D02*
X679754Y802504D01*
X679754Y772004D02*
X837254D01*
X837254Y802504D01*
X679754Y802504D02*
X837254Y802504D01*
X506254Y1054504D02*
X532254D01*
X506254Y1039504D02*
X532254D01*
X506254D02*
Y1054504D01*
X532254Y1039504D02*
Y1054504D01*
X519254Y1047004D02*
Y1052004D01*
Y1042004D02*
Y1047004D01*
X514254D02*
X519254D01*
X524254D01*
X926754Y952254D02*
X931754D01*
X936754D01*
X931754D02*
Y957004D01*
Y947504D02*
Y952254D01*
X922754Y947504D02*
Y957004D01*
X940754Y947504D02*
Y957004D01*
X922754D02*
X940754D01*
X922754Y947504D02*
X940754D01*
X884504Y952254D02*
X889504D01*
X879504D02*
X884504D01*
Y947504D02*
Y952254D01*
Y957004D01*
X893504Y947504D02*
Y957004D01*
X875504Y947504D02*
Y957004D01*
Y947504D02*
X893504D01*
X875504Y957004D02*
X893504D01*
X849643Y977879D02*
X854643D01*
X844643D02*
X849643D01*
Y973129D02*
Y977879D01*
Y982629D01*
X858643Y973129D02*
Y982629D01*
X840643Y973129D02*
Y982629D01*
Y973129D02*
X858643D01*
X840643Y982629D02*
X858643D01*
X927004Y1082004D02*
X932004D01*
X937004D01*
X932004D02*
Y1086754D01*
Y1077254D02*
Y1082004D01*
X923004Y1077254D02*
Y1086754D01*
X941004Y1077254D02*
Y1086754D01*
X923004D02*
X941004D01*
X923004Y1077254D02*
X941004D01*
X927004Y1062004D02*
X932004D01*
X937004D01*
X932004D02*
Y1066754D01*
Y1057254D02*
Y1062004D01*
X923004Y1057254D02*
Y1066754D01*
X941004Y1057254D02*
Y1066754D01*
X923004D02*
X941004D01*
X923004Y1057254D02*
X941004D01*
X548504Y955504D02*
X553504D01*
X543504D02*
X548504D01*
Y950754D02*
Y955504D01*
Y960254D01*
X557504Y950754D02*
Y960254D01*
X539504Y950754D02*
Y960254D01*
Y950754D02*
X557504D01*
X539504Y960254D02*
X557504D01*
X926754Y963504D02*
X931754D01*
X936754D01*
X931754D02*
Y968254D01*
Y958754D02*
Y963504D01*
X922754Y958754D02*
Y968254D01*
X940754Y958754D02*
Y968254D01*
X922754D02*
X940754D01*
X922754Y958754D02*
X940754D01*
X957004Y992004D02*
X962004D01*
X967004D01*
X962004D02*
Y996754D01*
Y987254D02*
Y992004D01*
X953004Y987254D02*
Y996754D01*
X971004Y987254D02*
Y996754D01*
X953004D02*
X971004D01*
X953004Y987254D02*
X971004D01*
X595754Y955504D02*
X600754D01*
X605754D01*
X600754D02*
Y960254D01*
Y950754D02*
Y955504D01*
X591754Y950754D02*
Y960254D01*
X609754Y950754D02*
Y960254D01*
X591754D02*
X609754D01*
X591754Y950754D02*
X609754D01*
X865754Y1057004D02*
Y1062004D01*
Y1067004D01*
X861004Y1062004D02*
X865754D01*
X870504D01*
X861004Y1053004D02*
X870504D01*
X861004Y1071004D02*
X870504D01*
X861004Y1053004D02*
Y1071004D01*
X870504Y1053004D02*
Y1071004D01*
X957004Y982004D02*
X962004D01*
X967004D01*
X962004D02*
Y986754D01*
Y977254D02*
Y982004D01*
X953004Y977254D02*
Y986754D01*
X971004Y977254D02*
Y986754D01*
X953004D02*
X971004D01*
X953004Y977254D02*
X971004D01*
X943254Y1043254D02*
Y1048254D01*
Y1053254D01*
X938504Y1048254D02*
X943254D01*
X948004D01*
X938504Y1039254D02*
X948004D01*
X938504Y1057254D02*
X948004D01*
X938504Y1039254D02*
Y1057254D01*
X948004Y1039254D02*
Y1057254D01*
X532254Y1054504D02*
Y1069504D01*
X514254Y1062004D02*
X519254D01*
X506254Y1054504D02*
X532254D01*
X519254Y1062004D02*
Y1067004D01*
X506254Y1054504D02*
Y1069504D01*
X519254Y1062004D02*
X524254D01*
X519254Y1057004D02*
Y1062004D01*
X506254Y1069504D02*
X532254D01*
X542754Y1071254D02*
Y1089254D01*
X533254Y1071254D02*
X542754D01*
X538004Y1075254D02*
Y1080254D01*
X542754D01*
X533254D02*
X538004D01*
X533254Y1089254D02*
X542754D01*
X538004Y1080254D02*
Y1085254D01*
X533254Y1071254D02*
Y1089254D01*
X810754Y1066004D02*
X828754D01*
X814754Y1070754D02*
X819754D01*
X810754Y1066004D02*
Y1075504D01*
X819754Y1066004D02*
Y1070754D01*
Y1075504D01*
Y1070754D02*
X824754D01*
X828754Y1066004D02*
Y1075504D01*
X810754D02*
X828754D01*
X810754Y1085504D02*
X828754D01*
Y1076004D02*
Y1085504D01*
X819754Y1080754D02*
X824754D01*
X819754D02*
Y1085504D01*
Y1076004D02*
Y1080754D01*
X810754Y1076004D02*
Y1085504D01*
X814754Y1080754D02*
X819754D01*
X810754Y1076004D02*
X828754D01*
X543504Y1071254D02*
Y1089254D01*
X548254Y1080254D02*
Y1085254D01*
X543504Y1089254D02*
X553004D01*
X543504Y1080254D02*
X548254D01*
X553004D01*
X548254Y1075254D02*
Y1080254D01*
X543504Y1071254D02*
X553004D01*
Y1089254D01*
X923004Y1076754D02*
X941004D01*
Y1067254D02*
Y1076754D01*
X932004Y1072004D02*
X937004D01*
X932004D02*
Y1076754D01*
Y1067254D02*
Y1072004D01*
X923004Y1067254D02*
Y1076754D01*
X927004Y1072004D02*
X932004D01*
X923004Y1067254D02*
X941004D01*
X810754Y1052004D02*
X828754D01*
X814754Y1056754D02*
X819754D01*
X810754Y1052004D02*
Y1061504D01*
X819754Y1052004D02*
Y1056754D01*
Y1061504D01*
Y1056754D02*
X824754D01*
X828754Y1052004D02*
Y1061504D01*
X810754D02*
X828754D01*
X958504Y1039254D02*
Y1057254D01*
X968004D01*
X963254Y1048254D02*
Y1053254D01*
X958504Y1048254D02*
X963254D01*
X968004D01*
X958504Y1039254D02*
X968004D01*
X963254Y1043254D02*
Y1048254D01*
X968004Y1039254D02*
Y1057254D01*
X958004Y1039254D02*
Y1057254D01*
X953254Y1043254D02*
Y1048254D01*
X948504Y1039254D02*
X958004D01*
X953254Y1048254D02*
X958004D01*
X948504D02*
X953254D01*
Y1053254D01*
X948504Y1057254D02*
X958004D01*
X948504Y1039254D02*
Y1057254D01*
X936504Y973754D02*
X936504Y1050254D01*
X860004Y1050254D02*
X860004Y973754D01*
X860004Y1050254D02*
X936504Y1050254D01*
X860004Y973754D02*
X936504Y973754D01*
X542504Y1067004D02*
X585504D01*
Y967004D02*
Y1067004D01*
X542504Y967004D02*
Y1067004D01*
Y967004D02*
X585504D01*
X564003Y1017003D02*
X564004Y1022004D01*
X564003Y1017003D02*
X569004Y1017003D01*
X564002Y1012003D02*
X564003Y1017003D01*
X559002Y1017004D02*
X564003Y1017003D01*
X559254Y962254D02*
X584004Y962254D01*
X559254Y948754D02*
X584004D01*
X559254D02*
X559254Y962254D01*
X584004Y948754D02*
X584004Y962254D01*
X571504Y955504D02*
X576504D01*
X571504D02*
Y960504D01*
Y950504D02*
Y955504D01*
X566504D02*
X571504D01*
X623004Y1072754D02*
Y1082754D01*
X618004Y1077754D02*
X628004D01*
X614654Y1084754D02*
X631354Y1084754D01*
X614654Y1070754D02*
X631354Y1070754D01*
X631354Y1084754D01*
X614654Y1084754D02*
X614654Y1070754D01*
X906254Y957504D02*
Y962504D01*
Y957504D02*
X911254D01*
X906254Y952504D02*
Y957504D01*
X901254D02*
X906254D01*
X894254Y947504D02*
X900004Y947504D01*
X894254Y947504D02*
X894254Y967504D01*
X918254D01*
X918254Y947504D02*
X918254Y967504D01*
X900004Y947504D02*
X918254Y947504D01*
X672754Y1056004D02*
X721254Y1056004D01*
Y1090004D01*
X672754Y1090004D02*
X721254Y1090004D01*
X672754Y1056004D02*
Y1090004D01*
X697004Y1068004D02*
X697004Y1078004D01*
X692004Y1073004D02*
X702004Y1073004D01*
X732754Y1056004D02*
X781254Y1056004D01*
Y1090004D01*
X732754Y1090004D02*
X781254Y1090004D01*
X732754Y1056004D02*
Y1090004D01*
X757004Y1068004D02*
X757004Y1078004D01*
X752004Y1073004D02*
X762004Y1073004D01*
X921254Y1089004D02*
X921254Y1053004D01*
X871254Y1089004D02*
X921254D01*
X871254D02*
X871254Y1053004D01*
X921254D01*
X896254Y1076004D02*
X896254Y1071004D01*
X891254Y1071004D02*
X896254Y1071004D01*
X891254Y1071004D02*
X896254Y1071004D01*
X896254Y1066004D01*
X896254Y1071004D02*
X896254Y1066004D01*
X896254Y1071004D02*
X901254Y1071004D01*
X896254Y1071004D02*
X901254Y1071004D01*
X679754Y942004D02*
X679754Y972504D01*
X679754Y942004D02*
X837254D01*
X837254Y972504D01*
X679754Y972504D02*
X837254Y972504D01*
X506254Y1224504D02*
X532254D01*
X506254Y1209504D02*
X532254D01*
X506254D02*
Y1224504D01*
X532254Y1209504D02*
Y1224504D01*
X519254Y1217004D02*
Y1222004D01*
Y1212004D02*
Y1217004D01*
X514254D02*
X519254D01*
X524254D01*
X926754Y1122254D02*
X931754D01*
X936754D01*
X931754D02*
Y1127004D01*
Y1117504D02*
Y1122254D01*
X922754Y1117504D02*
Y1127004D01*
X940754Y1117504D02*
Y1127004D01*
X922754D02*
X940754D01*
X922754Y1117504D02*
X940754D01*
X884504Y1122254D02*
X889504D01*
X879504D02*
X884504D01*
Y1117504D02*
Y1122254D01*
Y1127004D01*
X893504Y1117504D02*
Y1127004D01*
X875504Y1117504D02*
Y1127004D01*
Y1117504D02*
X893504D01*
X875504Y1127004D02*
X893504D01*
X849643Y1147879D02*
X854643D01*
X844643D02*
X849643D01*
Y1143129D02*
Y1147879D01*
Y1152629D01*
X858643Y1143129D02*
Y1152629D01*
X840643Y1143129D02*
Y1152629D01*
Y1143129D02*
X858643D01*
X840643Y1152629D02*
X858643D01*
X927004Y1252004D02*
X932004D01*
X937004D01*
X932004D02*
Y1256754D01*
Y1247254D02*
Y1252004D01*
X923004Y1247254D02*
Y1256754D01*
X941004Y1247254D02*
Y1256754D01*
X923004D02*
X941004D01*
X923004Y1247254D02*
X941004D01*
X927004Y1232004D02*
X932004D01*
X937004D01*
X932004D02*
Y1236754D01*
Y1227254D02*
Y1232004D01*
X923004Y1227254D02*
Y1236754D01*
X941004Y1227254D02*
Y1236754D01*
X923004D02*
X941004D01*
X923004Y1227254D02*
X941004D01*
X548504Y1125504D02*
X553504D01*
X543504D02*
X548504D01*
Y1120754D02*
Y1125504D01*
Y1130254D01*
X557504Y1120754D02*
Y1130254D01*
X539504Y1120754D02*
Y1130254D01*
Y1120754D02*
X557504D01*
X539504Y1130254D02*
X557504D01*
X926754Y1133504D02*
X931754D01*
X936754D01*
X931754D02*
Y1138254D01*
Y1128754D02*
Y1133504D01*
X922754Y1128754D02*
Y1138254D01*
X940754Y1128754D02*
Y1138254D01*
X922754D02*
X940754D01*
X922754Y1128754D02*
X940754D01*
X957004Y1162004D02*
X962004D01*
X967004D01*
X962004D02*
Y1166754D01*
Y1157254D02*
Y1162004D01*
X953004Y1157254D02*
Y1166754D01*
X971004Y1157254D02*
Y1166754D01*
X953004D02*
X971004D01*
X953004Y1157254D02*
X971004D01*
X595754Y1125504D02*
X600754D01*
X605754D01*
X600754D02*
Y1130254D01*
Y1120754D02*
Y1125504D01*
X591754Y1120754D02*
Y1130254D01*
X609754Y1120754D02*
Y1130254D01*
X591754D02*
X609754D01*
X591754Y1120754D02*
X609754D01*
X865754Y1227004D02*
Y1232004D01*
Y1237004D01*
X861004Y1232004D02*
X865754D01*
X870504D01*
X861004Y1223004D02*
X870504D01*
X861004Y1241004D02*
X870504D01*
X861004Y1223004D02*
Y1241004D01*
X870504Y1223004D02*
Y1241004D01*
X957004Y1152004D02*
X962004D01*
X967004D01*
X962004D02*
Y1156754D01*
Y1147254D02*
Y1152004D01*
X953004Y1147254D02*
Y1156754D01*
X971004Y1147254D02*
Y1156754D01*
X953004D02*
X971004D01*
X953004Y1147254D02*
X971004D01*
X943254Y1213254D02*
Y1218254D01*
Y1223254D01*
X938504Y1218254D02*
X943254D01*
X948004D01*
X938504Y1209254D02*
X948004D01*
X938504Y1227254D02*
X948004D01*
X938504Y1209254D02*
Y1227254D01*
X948004Y1209254D02*
Y1227254D01*
X532254Y1224504D02*
Y1239504D01*
X514254Y1232004D02*
X519254D01*
X506254Y1224504D02*
X532254D01*
X519254Y1232004D02*
Y1237004D01*
X506254Y1224504D02*
Y1239504D01*
X519254Y1232004D02*
X524254D01*
X519254Y1227004D02*
Y1232004D01*
X506254Y1239504D02*
X532254D01*
X542754Y1241254D02*
Y1259254D01*
X533254Y1241254D02*
X542754D01*
X538004Y1245254D02*
Y1250254D01*
X542754D01*
X533254D02*
X538004D01*
X533254Y1259254D02*
X542754D01*
X538004Y1250254D02*
Y1255254D01*
X533254Y1241254D02*
Y1259254D01*
X810754Y1236004D02*
X828754D01*
X814754Y1240754D02*
X819754D01*
X810754Y1236004D02*
Y1245504D01*
X819754Y1236004D02*
Y1240754D01*
Y1245504D01*
Y1240754D02*
X824754D01*
X828754Y1236004D02*
Y1245504D01*
X810754D02*
X828754D01*
X810754Y1255504D02*
X828754D01*
Y1246004D02*
Y1255504D01*
X819754Y1250754D02*
X824754D01*
X819754D02*
Y1255504D01*
Y1246004D02*
Y1250754D01*
X810754Y1246004D02*
Y1255504D01*
X814754Y1250754D02*
X819754D01*
X810754Y1246004D02*
X828754D01*
X543504Y1241254D02*
Y1259254D01*
X548254Y1250254D02*
Y1255254D01*
X543504Y1259254D02*
X553004D01*
X543504Y1250254D02*
X548254D01*
X553004D01*
X548254Y1245254D02*
Y1250254D01*
X543504Y1241254D02*
X553004D01*
Y1259254D01*
X923004Y1246754D02*
X941004D01*
Y1237254D02*
Y1246754D01*
X932004Y1242004D02*
X937004D01*
X932004D02*
Y1246754D01*
Y1237254D02*
Y1242004D01*
X923004Y1237254D02*
Y1246754D01*
X927004Y1242004D02*
X932004D01*
X923004Y1237254D02*
X941004D01*
X810754Y1222004D02*
X828754D01*
X814754Y1226754D02*
X819754D01*
X810754Y1222004D02*
Y1231504D01*
X819754Y1222004D02*
Y1226754D01*
Y1231504D01*
Y1226754D02*
X824754D01*
X828754Y1222004D02*
Y1231504D01*
X810754D02*
X828754D01*
X958504Y1209254D02*
Y1227254D01*
X968004D01*
X963254Y1218254D02*
Y1223254D01*
X958504Y1218254D02*
X963254D01*
X968004D01*
X958504Y1209254D02*
X968004D01*
X963254Y1213254D02*
Y1218254D01*
X968004Y1209254D02*
Y1227254D01*
X958004Y1209254D02*
Y1227254D01*
X953254Y1213254D02*
Y1218254D01*
X948504Y1209254D02*
X958004D01*
X953254Y1218254D02*
X958004D01*
X948504D02*
X953254D01*
Y1223254D01*
X948504Y1227254D02*
X958004D01*
X948504Y1209254D02*
Y1227254D01*
X936504Y1143754D02*
X936504Y1220254D01*
X860004Y1220254D02*
X860004Y1143754D01*
X860004Y1220254D02*
X936504Y1220254D01*
X860004Y1143754D02*
X936504Y1143754D01*
X542504Y1237004D02*
X585504D01*
Y1137004D02*
Y1237004D01*
X542504Y1137004D02*
Y1237004D01*
Y1137004D02*
X585504D01*
X564003Y1187003D02*
X564004Y1192004D01*
X564003Y1187003D02*
X569004Y1187003D01*
X564002Y1182003D02*
X564003Y1187003D01*
X559002Y1187004D02*
X564003Y1187003D01*
X559254Y1132254D02*
X584004Y1132254D01*
X559254Y1118754D02*
X584004D01*
X559254D02*
X559254Y1132254D01*
X584004Y1118754D02*
X584004Y1132254D01*
X571504Y1125504D02*
X576504D01*
X571504D02*
Y1130504D01*
Y1120504D02*
Y1125504D01*
X566504D02*
X571504D01*
X623004Y1242754D02*
Y1252754D01*
X618004Y1247754D02*
X628004D01*
X614654Y1254754D02*
X631354Y1254754D01*
X614654Y1240754D02*
X631354Y1240754D01*
X631354Y1254754D01*
X614654Y1254754D02*
X614654Y1240754D01*
X906254Y1127504D02*
Y1132504D01*
Y1127504D02*
X911254D01*
X906254Y1122504D02*
Y1127504D01*
X901254D02*
X906254D01*
X894254Y1117504D02*
X900004Y1117504D01*
X894254Y1117504D02*
X894254Y1137504D01*
X918254D01*
X918254Y1117504D02*
X918254Y1137504D01*
X900004Y1117504D02*
X918254Y1117504D01*
X672754Y1226004D02*
X721254Y1226004D01*
Y1260004D01*
X672754Y1260004D02*
X721254Y1260004D01*
X672754Y1226004D02*
Y1260004D01*
X697004Y1238004D02*
X697004Y1248004D01*
X692004Y1243004D02*
X702004Y1243004D01*
X732754Y1226004D02*
X781254Y1226004D01*
Y1260004D01*
X732754Y1260004D02*
X781254Y1260004D01*
X732754Y1226004D02*
Y1260004D01*
X757004Y1238004D02*
X757004Y1248004D01*
X752004Y1243004D02*
X762004Y1243004D01*
X921254Y1259004D02*
X921254Y1223004D01*
X871254Y1259004D02*
X921254D01*
X871254D02*
X871254Y1223004D01*
X921254D01*
X896254Y1246004D02*
X896254Y1241004D01*
X891254Y1241004D02*
X896254Y1241004D01*
X891254Y1241004D02*
X896254Y1241004D01*
X896254Y1236004D01*
X896254Y1241004D02*
X896254Y1236004D01*
X896254Y1241004D02*
X901254Y1241004D01*
X896254Y1241004D02*
X901254Y1241004D01*
X679754Y1112004D02*
X679754Y1142504D01*
X679754Y1112004D02*
X837254D01*
X837254Y1142504D01*
X679754Y1142504D02*
X837254Y1142504D01*
X506254Y1394504D02*
X532254D01*
X506254Y1379504D02*
X532254D01*
X506254D02*
Y1394504D01*
X532254Y1379504D02*
Y1394504D01*
X519254Y1387004D02*
Y1392004D01*
Y1382004D02*
Y1387004D01*
X514254D02*
X519254D01*
X524254D01*
X926754Y1292254D02*
X931754D01*
X936754D01*
X931754D02*
Y1297004D01*
Y1287504D02*
Y1292254D01*
X922754Y1287504D02*
Y1297004D01*
X940754Y1287504D02*
Y1297004D01*
X922754D02*
X940754D01*
X922754Y1287504D02*
X940754D01*
X884504Y1292254D02*
X889504D01*
X879504D02*
X884504D01*
Y1287504D02*
Y1292254D01*
Y1297004D01*
X893504Y1287504D02*
Y1297004D01*
X875504Y1287504D02*
Y1297004D01*
Y1287504D02*
X893504D01*
X875504Y1297004D02*
X893504D01*
X849643Y1317879D02*
X854643D01*
X844643D02*
X849643D01*
Y1313129D02*
Y1317879D01*
Y1322629D01*
X858643Y1313129D02*
Y1322629D01*
X840643Y1313129D02*
Y1322629D01*
Y1313129D02*
X858643D01*
X840643Y1322629D02*
X858643D01*
X927004Y1422004D02*
X932004D01*
X937004D01*
X932004D02*
Y1426754D01*
Y1417254D02*
Y1422004D01*
X923004Y1417254D02*
Y1426754D01*
X941004Y1417254D02*
Y1426754D01*
X923004D02*
X941004D01*
X923004Y1417254D02*
X941004D01*
X927004Y1402004D02*
X932004D01*
X937004D01*
X932004D02*
Y1406754D01*
Y1397254D02*
Y1402004D01*
X923004Y1397254D02*
Y1406754D01*
X941004Y1397254D02*
Y1406754D01*
X923004D02*
X941004D01*
X923004Y1397254D02*
X941004D01*
X548504Y1295504D02*
X553504D01*
X543504D02*
X548504D01*
Y1290754D02*
Y1295504D01*
Y1300254D01*
X557504Y1290754D02*
Y1300254D01*
X539504Y1290754D02*
Y1300254D01*
Y1290754D02*
X557504D01*
X539504Y1300254D02*
X557504D01*
X926754Y1303504D02*
X931754D01*
X936754D01*
X931754D02*
Y1308254D01*
Y1298754D02*
Y1303504D01*
X922754Y1298754D02*
Y1308254D01*
X940754Y1298754D02*
Y1308254D01*
X922754D02*
X940754D01*
X922754Y1298754D02*
X940754D01*
X957004Y1332004D02*
X962004D01*
X967004D01*
X962004D02*
Y1336754D01*
Y1327254D02*
Y1332004D01*
X953004Y1327254D02*
Y1336754D01*
X971004Y1327254D02*
Y1336754D01*
X953004D02*
X971004D01*
X953004Y1327254D02*
X971004D01*
X595754Y1295504D02*
X600754D01*
X605754D01*
X600754D02*
Y1300254D01*
Y1290754D02*
Y1295504D01*
X591754Y1290754D02*
Y1300254D01*
X609754Y1290754D02*
Y1300254D01*
X591754D02*
X609754D01*
X591754Y1290754D02*
X609754D01*
X865754Y1397004D02*
Y1402004D01*
Y1407004D01*
X861004Y1402004D02*
X865754D01*
X870504D01*
X861004Y1393004D02*
X870504D01*
X861004Y1411004D02*
X870504D01*
X861004Y1393004D02*
Y1411004D01*
X870504Y1393004D02*
Y1411004D01*
X957004Y1322004D02*
X962004D01*
X967004D01*
X962004D02*
Y1326754D01*
Y1317254D02*
Y1322004D01*
X953004Y1317254D02*
Y1326754D01*
X971004Y1317254D02*
Y1326754D01*
X953004D02*
X971004D01*
X953004Y1317254D02*
X971004D01*
X943254Y1383254D02*
Y1388254D01*
Y1393254D01*
X938504Y1388254D02*
X943254D01*
X948004D01*
X938504Y1379254D02*
X948004D01*
X938504Y1397254D02*
X948004D01*
X938504Y1379254D02*
Y1397254D01*
X948004Y1379254D02*
Y1397254D01*
X532254Y1394504D02*
Y1409504D01*
X514254Y1402004D02*
X519254D01*
X506254Y1394504D02*
X532254D01*
X519254Y1402004D02*
Y1407004D01*
X506254Y1394504D02*
Y1409504D01*
X519254Y1402004D02*
X524254D01*
X519254Y1397004D02*
Y1402004D01*
X506254Y1409504D02*
X532254D01*
X542754Y1411254D02*
Y1429254D01*
X533254Y1411254D02*
X542754D01*
X538004Y1415254D02*
Y1420254D01*
X542754D01*
X533254D02*
X538004D01*
X533254Y1429254D02*
X542754D01*
X538004Y1420254D02*
Y1425254D01*
X533254Y1411254D02*
Y1429254D01*
X810754Y1406004D02*
X828754D01*
X814754Y1410754D02*
X819754D01*
X810754Y1406004D02*
Y1415504D01*
X819754Y1406004D02*
Y1410754D01*
Y1415504D01*
Y1410754D02*
X824754D01*
X828754Y1406004D02*
Y1415504D01*
X810754D02*
X828754D01*
X810754Y1425504D02*
X828754D01*
Y1416004D02*
Y1425504D01*
X819754Y1420754D02*
X824754D01*
X819754D02*
Y1425504D01*
Y1416004D02*
Y1420754D01*
X810754Y1416004D02*
Y1425504D01*
X814754Y1420754D02*
X819754D01*
X810754Y1416004D02*
X828754D01*
X543504Y1411254D02*
Y1429254D01*
X548254Y1420254D02*
Y1425254D01*
X543504Y1429254D02*
X553004D01*
X543504Y1420254D02*
X548254D01*
X553004D01*
X548254Y1415254D02*
Y1420254D01*
X543504Y1411254D02*
X553004D01*
Y1429254D01*
X923004Y1416754D02*
X941004D01*
Y1407254D02*
Y1416754D01*
X932004Y1412004D02*
X937004D01*
X932004D02*
Y1416754D01*
Y1407254D02*
Y1412004D01*
X923004Y1407254D02*
Y1416754D01*
X927004Y1412004D02*
X932004D01*
X923004Y1407254D02*
X941004D01*
X810754Y1392004D02*
X828754D01*
X814754Y1396754D02*
X819754D01*
X810754Y1392004D02*
Y1401504D01*
X819754Y1392004D02*
Y1396754D01*
Y1401504D01*
Y1396754D02*
X824754D01*
X828754Y1392004D02*
Y1401504D01*
X810754D02*
X828754D01*
X958504Y1379254D02*
Y1397254D01*
X968004D01*
X963254Y1388254D02*
Y1393254D01*
X958504Y1388254D02*
X963254D01*
X968004D01*
X958504Y1379254D02*
X968004D01*
X963254Y1383254D02*
Y1388254D01*
X968004Y1379254D02*
Y1397254D01*
X958004Y1379254D02*
Y1397254D01*
X953254Y1383254D02*
Y1388254D01*
X948504Y1379254D02*
X958004D01*
X953254Y1388254D02*
X958004D01*
X948504D02*
X953254D01*
Y1393254D01*
X948504Y1397254D02*
X958004D01*
X948504Y1379254D02*
Y1397254D01*
X936504Y1313754D02*
X936504Y1390254D01*
X860004Y1390254D02*
X860004Y1313754D01*
X860004Y1390254D02*
X936504Y1390254D01*
X860004Y1313754D02*
X936504Y1313754D01*
X542504Y1407004D02*
X585504D01*
Y1307004D02*
Y1407004D01*
X542504Y1307004D02*
Y1407004D01*
Y1307004D02*
X585504D01*
X564003Y1357003D02*
X564004Y1362004D01*
X564003Y1357003D02*
X569004Y1357003D01*
X564002Y1352003D02*
X564003Y1357003D01*
X559002Y1357004D02*
X564003Y1357003D01*
X559254Y1302254D02*
X584004Y1302254D01*
X559254Y1288754D02*
X584004D01*
X559254D02*
X559254Y1302254D01*
X584004Y1288754D02*
X584004Y1302254D01*
X571504Y1295504D02*
X576504D01*
X571504D02*
Y1300504D01*
Y1290504D02*
Y1295504D01*
X566504D02*
X571504D01*
X623004Y1412754D02*
Y1422754D01*
X618004Y1417754D02*
X628004D01*
X614654Y1424754D02*
X631354Y1424754D01*
X614654Y1410754D02*
X631354Y1410754D01*
X631354Y1424754D01*
X614654Y1424754D02*
X614654Y1410754D01*
X906254Y1297504D02*
Y1302504D01*
Y1297504D02*
X911254D01*
X906254Y1292504D02*
Y1297504D01*
X901254D02*
X906254D01*
X894254Y1287504D02*
X900004Y1287504D01*
X894254Y1287504D02*
X894254Y1307504D01*
X918254D01*
X918254Y1287504D02*
X918254Y1307504D01*
X900004Y1287504D02*
X918254Y1287504D01*
X672754Y1396004D02*
X721254Y1396004D01*
Y1430004D01*
X672754Y1430004D02*
X721254Y1430004D01*
X672754Y1396004D02*
Y1430004D01*
X697004Y1408004D02*
X697004Y1418004D01*
X692004Y1413004D02*
X702004Y1413004D01*
X732754Y1396004D02*
X781254Y1396004D01*
Y1430004D01*
X732754Y1430004D02*
X781254Y1430004D01*
X732754Y1396004D02*
Y1430004D01*
X757004Y1408004D02*
X757004Y1418004D01*
X752004Y1413004D02*
X762004Y1413004D01*
X921254Y1429004D02*
X921254Y1393004D01*
X871254Y1429004D02*
X921254D01*
X871254D02*
X871254Y1393004D01*
X921254D01*
X896254Y1416004D02*
X896254Y1411004D01*
X891254Y1411004D02*
X896254Y1411004D01*
X891254Y1411004D02*
X896254Y1411004D01*
X896254Y1406004D01*
X896254Y1411004D02*
X896254Y1406004D01*
X896254Y1411004D02*
X901254Y1411004D01*
X896254Y1411004D02*
X901254Y1411004D01*
X679754Y1282004D02*
X679754Y1312504D01*
X679754Y1282004D02*
X837254D01*
X837254Y1312504D01*
X679754Y1312504D02*
X837254Y1312504D01*
D56*
X893254Y672004D02*
X903254Y672004D01*
X898254Y667004D02*
X898254Y677004D01*
X893254Y842004D02*
X903254Y842004D01*
X898254Y837004D02*
X898254Y847004D01*
X893254Y1012004D02*
X903254Y1012004D01*
X898254Y1007004D02*
X898254Y1017004D01*
X893254Y1182004D02*
X903254Y1182004D01*
X898254Y1177004D02*
X898254Y1187004D01*
X893254Y1352004D02*
X903254Y1352004D01*
X898254Y1347004D02*
X898254Y1357004D01*
M02*
