G04*
G04 #@! TF.GenerationSoftware,Altium Limited,Altium Designer,25.5.2 (35)*
G04*
G04 Layer_Physical_Order=4*
G04 Layer_Color=16711680*
%FSLAX44Y44*%
%MOMM*%
G71*
G04*
G04 #@! TF.SameCoordinates,128D8583-6615-4204-B1AC-86CD56F38C64*
G04*
G04*
G04 #@! TF.FilePolarity,Positive*
G04*
G01*
G75*
%ADD11C,0.1500*%
%ADD20C,0.4000*%
%ADD21C,0.6000*%
%ADD24O,1.5000X2.0000*%
%ADD25O,0.8000X2.0000*%
%ADD26C,0.7000*%
G04:AMPARAMS|DCode=27|XSize=1.7mm|YSize=1.7mm|CornerRadius=0.05mm|HoleSize=0mm|Usage=FLASHONLY|Rotation=180.000|XOffset=0mm|YOffset=0mm|HoleType=Round|Shape=RoundedRectangle|*
%AMROUNDEDRECTD27*
21,1,1.7000,1.6000,0,0,180.0*
21,1,1.6000,1.7000,0,0,180.0*
1,1,0.1000,-0.8000,0.8000*
1,1,0.1000,0.8000,0.8000*
1,1,0.1000,0.8000,-0.8000*
1,1,0.1000,-0.8000,-0.8000*
%
%ADD27ROUNDEDRECTD27*%
%ADD28C,1.7000*%
%ADD29C,0.5000*%
%ADD30C,0.4500*%
G04:AMPARAMS|DCode=32|XSize=0.72mm|YSize=0.99mm|CornerRadius=0.09mm|HoleSize=0mm|Usage=FLASHONLY|Rotation=180.000|XOffset=0mm|YOffset=0mm|HoleType=Round|Shape=RoundedRectangle|*
%AMROUNDEDRECTD32*
21,1,0.7200,0.8100,0,0,180.0*
21,1,0.5400,0.9900,0,0,180.0*
1,1,0.1800,-0.2700,0.4050*
1,1,0.1800,0.2700,0.4050*
1,1,0.1800,0.2700,-0.4050*
1,1,0.1800,-0.2700,-0.4050*
%
%ADD32ROUNDEDRECTD32*%
G04:AMPARAMS|DCode=33|XSize=0.55mm|YSize=0.6mm|CornerRadius=0.0688mm|HoleSize=0mm|Usage=FLASHONLY|Rotation=0.000|XOffset=0mm|YOffset=0mm|HoleType=Round|Shape=RoundedRectangle|*
%AMROUNDEDRECTD33*
21,1,0.5500,0.4625,0,0,0.0*
21,1,0.4125,0.6000,0,0,0.0*
1,1,0.1375,0.2063,-0.2313*
1,1,0.1375,-0.2063,-0.2313*
1,1,0.1375,-0.2063,0.2313*
1,1,0.1375,0.2063,0.2313*
%
%ADD33ROUNDEDRECTD33*%
G04:AMPARAMS|DCode=34|XSize=0.55mm|YSize=0.6mm|CornerRadius=0.0688mm|HoleSize=0mm|Usage=FLASHONLY|Rotation=90.000|XOffset=0mm|YOffset=0mm|HoleType=Round|Shape=RoundedRectangle|*
%AMROUNDEDRECTD34*
21,1,0.5500,0.4625,0,0,90.0*
21,1,0.4125,0.6000,0,0,90.0*
1,1,0.1375,0.2313,0.2063*
1,1,0.1375,0.2313,-0.2063*
1,1,0.1375,-0.2313,-0.2063*
1,1,0.1375,-0.2313,0.2063*
%
%ADD34ROUNDEDRECTD34*%
G04:AMPARAMS|DCode=35|XSize=0.25mm|YSize=0.85mm|CornerRadius=0.05mm|HoleSize=0mm|Usage=FLASHONLY|Rotation=180.000|XOffset=0mm|YOffset=0mm|HoleType=Round|Shape=RoundedRectangle|*
%AMROUNDEDRECTD35*
21,1,0.2500,0.7500,0,0,180.0*
21,1,0.1500,0.8500,0,0,180.0*
1,1,0.1000,-0.0750,0.3750*
1,1,0.1000,0.0750,0.3750*
1,1,0.1000,0.0750,-0.3750*
1,1,0.1000,-0.0750,-0.3750*
%
%ADD35ROUNDEDRECTD35*%
G04:AMPARAMS|DCode=36|XSize=0.25mm|YSize=0.85mm|CornerRadius=0.05mm|HoleSize=0mm|Usage=FLASHONLY|Rotation=90.000|XOffset=0mm|YOffset=0mm|HoleType=Round|Shape=RoundedRectangle|*
%AMROUNDEDRECTD36*
21,1,0.2500,0.7500,0,0,90.0*
21,1,0.1500,0.8500,0,0,90.0*
1,1,0.1000,0.3750,0.0750*
1,1,0.1000,0.3750,-0.0750*
1,1,0.1000,-0.3750,-0.0750*
1,1,0.1000,-0.3750,0.0750*
%
%ADD36ROUNDEDRECTD36*%
G04:AMPARAMS|DCode=37|XSize=5.2mm|YSize=5.2mm|CornerRadius=0.05mm|HoleSize=0mm|Usage=FLASHONLY|Rotation=180.000|XOffset=0mm|YOffset=0mm|HoleType=Round|Shape=RoundedRectangle|*
%AMROUNDEDRECTD37*
21,1,5.2000,5.1000,0,0,180.0*
21,1,5.1000,5.2000,0,0,180.0*
1,1,0.1000,-2.5500,2.5500*
1,1,0.1000,2.5500,2.5500*
1,1,0.1000,2.5500,-2.5500*
1,1,0.1000,-2.5500,-2.5500*
%
%ADD37ROUNDEDRECTD37*%
G04:AMPARAMS|DCode=38|XSize=0.2mm|YSize=0.6mm|CornerRadius=0.05mm|HoleSize=0mm|Usage=FLASHONLY|Rotation=270.000|XOffset=0mm|YOffset=0mm|HoleType=Round|Shape=RoundedRectangle|*
%AMROUNDEDRECTD38*
21,1,0.2000,0.5000,0,0,270.0*
21,1,0.1000,0.6000,0,0,270.0*
1,1,0.1000,-0.2500,-0.0500*
1,1,0.1000,-0.2500,0.0500*
1,1,0.1000,0.2500,0.0500*
1,1,0.1000,0.2500,-0.0500*
%
%ADD38ROUNDEDRECTD38*%
G04:AMPARAMS|DCode=39|XSize=0.775mm|YSize=0.675mm|CornerRadius=0.0338mm|HoleSize=0mm|Usage=FLASHONLY|Rotation=0.000|XOffset=0mm|YOffset=0mm|HoleType=Round|Shape=RoundedRectangle|*
%AMROUNDEDRECTD39*
21,1,0.7750,0.6075,0,0,0.0*
21,1,0.7075,0.6750,0,0,0.0*
1,1,0.0675,0.3538,-0.3038*
1,1,0.0675,-0.3538,-0.3038*
1,1,0.0675,-0.3538,0.3038*
1,1,0.0675,0.3538,0.3038*
%
%ADD39ROUNDEDRECTD39*%
G04:AMPARAMS|DCode=40|XSize=1.15mm|YSize=1.05mm|CornerRadius=0.1313mm|HoleSize=0mm|Usage=FLASHONLY|Rotation=0.000|XOffset=0mm|YOffset=0mm|HoleType=Round|Shape=RoundedRectangle|*
%AMROUNDEDRECTD40*
21,1,1.1500,0.7875,0,0,0.0*
21,1,0.8875,1.0500,0,0,0.0*
1,1,0.2625,0.4438,-0.3938*
1,1,0.2625,-0.4438,-0.3938*
1,1,0.2625,-0.4438,0.3938*
1,1,0.2625,0.4438,0.3938*
%
%ADD40ROUNDEDRECTD40*%
G04:AMPARAMS|DCode=41|XSize=1.6mm|YSize=2.4mm|CornerRadius=0.05mm|HoleSize=0mm|Usage=FLASHONLY|Rotation=0.000|XOffset=0mm|YOffset=0mm|HoleType=Round|Shape=RoundedRectangle|*
%AMROUNDEDRECTD41*
21,1,1.6000,2.3000,0,0,0.0*
21,1,1.5000,2.4000,0,0,0.0*
1,1,0.1000,0.7500,-1.1500*
1,1,0.1000,-0.7500,-1.1500*
1,1,0.1000,-0.7500,1.1500*
1,1,0.1000,0.7500,1.1500*
%
%ADD41ROUNDEDRECTD41*%
%ADD42R,1.1500X1.0500*%
%ADD43C,0.4897*%
%ADD44C,0.2000*%
D11*
X234000Y23849D02*
Y24750D01*
X224000D02*
X226000Y26750D01*
X210484Y5000D02*
X225734Y20250D01*
X205500Y10000D02*
X210151D01*
X224000Y23849D02*
Y24750D01*
X226000Y26750D02*
X226250D01*
X225734Y20250D02*
X230401D01*
X234000Y23849D01*
X210151Y10000D02*
X224000Y23849D01*
X214688Y19927D02*
Y25187D01*
X214562Y25312D02*
X214688Y25187D01*
X205500Y15000D02*
X209760D01*
X214688Y19927D01*
X196250Y28000D02*
Y40500D01*
X171250Y-5000D02*
X191250Y15000D01*
Y28000D01*
X161636Y54000D02*
X167500Y48136D01*
Y34886D02*
Y48136D01*
X159700Y70500D02*
X171250Y58950D01*
Y28000D02*
Y58950D01*
X166250Y33636D02*
X167500Y34886D01*
X166250Y28000D02*
Y33636D01*
X162500Y35438D02*
Y36250D01*
X161250Y34188D02*
X162500Y35438D01*
X161250Y28000D02*
Y34188D01*
X153750Y36250D02*
X156250Y33750D01*
Y28000D02*
Y33750D01*
X152452Y19048D02*
X152500D01*
X151250Y20250D02*
X152452Y19048D01*
X151250Y20250D02*
Y28000D01*
X138750Y40500D02*
X139000D01*
X143250Y36250D01*
X144250D01*
X146250Y34250D01*
Y28000D02*
Y34250D01*
X216500Y-13393D02*
Y-11740D01*
X209760Y-5000D02*
X216500Y-11740D01*
X204250Y-5000D02*
X209760D01*
X204250Y-5000D02*
X204250Y-5000D01*
X213500Y-14636D02*
Y-13740D01*
X209760Y-10000D02*
X213500Y-13740D01*
X204250Y-10000D02*
X209760D01*
X191250Y-43510D02*
X193740Y-46000D01*
X191250Y-43510D02*
Y-38000D01*
X189870Y-46380D02*
X192740Y-49250D01*
X189120Y-46380D02*
X189870D01*
X186250Y-43510D02*
X189120Y-46380D01*
X186250Y-43510D02*
Y-38000D01*
X186250Y-38000D02*
X186250Y-38000D01*
X185125Y-54630D02*
X185397Y-54358D01*
Y-49500D01*
X181250Y-45353D02*
X185397Y-49500D01*
X181250Y-45353D02*
Y-38000D01*
X181331Y-60255D02*
X182500Y-61424D01*
X180666Y-60255D02*
X181331D01*
X179252Y-58842D02*
X180666Y-60255D01*
X179252Y-58842D02*
Y-50418D01*
X179252Y-50418D02*
X179252Y-50418D01*
X179252Y-50418D02*
Y-48647D01*
X176250Y-45644D02*
X179252Y-48647D01*
X176250Y-45644D02*
Y-38000D01*
X171250Y-47870D02*
X172880Y-49500D01*
X171250Y-47870D02*
Y-38000D01*
Y-45188D02*
Y-38000D01*
X155260Y-55750D02*
X166250Y-44760D01*
Y-38000D01*
X153260Y-52750D02*
X161250Y-44760D01*
Y-38000D01*
X151260Y-49750D02*
X156250Y-44760D01*
Y-38000D01*
X148010Y-46750D02*
X151250Y-43510D01*
Y-38000D01*
X151250Y-38000D01*
X145750Y-38000D02*
X146250Y-38500D01*
X136250Y-38000D02*
X145750D01*
X146250Y-39125D02*
Y-38500D01*
X138000Y20500D02*
Y25000D01*
X138500Y20000D02*
X139500D01*
X138000Y20500D02*
X138500Y20000D01*
X127139Y-32225D02*
X130000Y-29364D01*
Y-26143D01*
X130879Y-25265D01*
X139235D01*
X130500Y-20500D02*
X131000Y-20000D01*
X139500D01*
X131000Y-15000D02*
X139000D01*
X139000Y-15000D01*
X130500Y-14500D02*
X131000Y-15000D01*
X125753Y-10000D02*
X139500D01*
X123466Y-7713D02*
X125753Y-10000D01*
X127139Y-39125D02*
Y-32225D01*
X130500Y-5000D02*
X139000D01*
X131708Y15879D02*
Y29307D01*
Y15879D02*
X132587Y15000D01*
X139500D01*
X122500Y38516D02*
Y39007D01*
X114757Y46750D02*
X122500Y39007D01*
Y38516D02*
X131708Y29307D01*
X205500Y5000D02*
X210484D01*
X234000Y24750D02*
X236000Y26750D01*
X205500Y-20000D02*
X212121D01*
X214121Y-22000D02*
X214500D01*
X212121Y-20000D02*
X214121Y-22000D01*
X211010Y-25000D02*
X213500Y-27490D01*
X205500Y-25000D02*
X205500Y-25000D01*
X213500Y-28879D02*
Y-27490D01*
Y-28879D02*
X215871Y-31250D01*
X216250D01*
X205500Y-25000D02*
X211010D01*
X223357Y-20250D02*
X226000D01*
X220750Y-25901D02*
Y-21886D01*
X216500Y-13393D02*
X223357Y-20250D01*
X213500Y-14636D02*
X220750Y-21886D01*
X227600Y-32750D02*
X228500D01*
X230500Y-34750D01*
X220750Y-25901D02*
X227600Y-32750D01*
X230500Y-35000D02*
Y-34750D01*
Y-35000D02*
X230875Y-35375D01*
X226000Y-20250D02*
X231000Y-25250D01*
X126161Y46250D02*
X126338D01*
X132088Y40500D01*
X138750D01*
X-157253Y4500D02*
X-156000D01*
X-161754Y-1D02*
X-157253Y4500D01*
X-164248Y-1D02*
X-161754D01*
X-168747Y-4500D02*
X-164248Y-1D01*
X-170000Y-4500D02*
X-168747D01*
X-156000D02*
X-153000Y-1500D01*
X-138885D01*
X-132000Y5385D01*
Y49000D01*
X-123750Y57250D01*
X-112350D01*
X-156000Y4500D02*
X-153000Y1500D01*
X-140127D01*
X-135000Y6627D01*
Y50243D01*
X-124993Y60250D01*
X-112350D01*
X-82750Y50743D02*
Y54257D01*
X232250Y41997D02*
X234126Y40121D01*
Y37750D02*
Y40121D01*
Y37750D02*
X236126Y35750D01*
X236250D01*
X-84152Y49340D02*
X-82750Y50743D01*
X232250Y41997D02*
Y42500D01*
X-95650Y57250D02*
X-85743D01*
X-96150Y56750D02*
X-95650Y57250D01*
X-85743D02*
X-82750Y54257D01*
X-99900Y56750D02*
X-96150D01*
X-112350Y57250D02*
X-111850Y56750D01*
X-108100D02*
X-99900D01*
X-111850D02*
X-108100D01*
X-79750Y51554D02*
Y55500D01*
Y51554D02*
X-78152Y49957D01*
X226250Y35750D02*
Y42500D01*
X-78152Y49340D02*
Y49957D01*
X-99900Y60750D02*
X-99900Y60750D01*
X-96150D01*
X-95650Y60250D02*
X-84500D01*
X-96150Y60750D02*
X-95650Y60250D01*
X-112350Y60250D02*
X-111850Y60750D01*
X-108100D02*
X-99900D01*
X-111850D02*
X-108100D01*
X-84500Y60250D02*
X-79750Y55500D01*
X-178750Y50750D02*
Y58750D01*
X97216Y21463D02*
X97250Y21497D01*
Y39750D01*
X60316Y39000D02*
X68066Y46750D01*
X114757D01*
X72033Y56000D02*
X74283Y53750D01*
X88250D01*
X44250Y56000D02*
X72033D01*
X97250Y53750D02*
X109982D01*
X109316Y63750D02*
X116066Y70500D01*
X97250Y63750D02*
X109316D01*
X116066Y70500D02*
X159700D01*
X66500Y63750D02*
X88250D01*
X32446Y21463D02*
X33230Y22247D01*
Y32834D01*
X39396Y39000D01*
X60316D01*
X109982Y53750D02*
X111982Y55750D01*
X143965D01*
X-131000Y-54500D02*
X-131000Y-61500D01*
X209500Y54750D02*
Y56000D01*
X200000Y-53500D02*
X207250Y-46250D01*
X127389Y-46996D02*
Y-39000D01*
X-131000Y-61500D02*
Y-61500D01*
X-107322Y-29645D02*
X-91729Y-45238D01*
X102153D01*
X116165Y-59250D01*
X133699D01*
X-107000Y-29645D02*
Y-29323D01*
X-76669Y-41744D02*
X102902D01*
X-57451Y-38500D02*
X103900D01*
X-86299Y-32115D02*
X-76669Y-41744D01*
X102902D02*
X115783Y-54625D01*
X103900Y-38500D02*
X117025Y-51625D01*
X-64709Y-31242D02*
X-57451Y-38500D01*
X-64709Y-31242D02*
Y-3459D01*
X117025Y-51625D02*
X131018D01*
X115783Y-54625D02*
X132659D01*
X-86299Y-32115D02*
Y-5049D01*
X140199Y-52750D02*
X153260D01*
X133699Y-59250D02*
X140199Y-52750D01*
X132659Y-54625D02*
X137534Y-49750D01*
X131018Y-51625D02*
X135893Y-46750D01*
X144750Y-60000D02*
X149000Y-55750D01*
X155260D01*
X138750Y49500D02*
X139000D01*
X141500Y47000D01*
X142901D01*
X143651Y46250D01*
X152500D01*
X161636Y54000D02*
X161636Y54000D01*
X145715Y54000D02*
X161636D01*
X143965Y55750D02*
X145715Y54000D01*
X-97094Y1323D02*
Y21463D01*
X-107889Y-9472D02*
X-97094Y1323D01*
X-107889Y-28435D02*
Y-9472D01*
Y-28435D02*
X-107000Y-29323D01*
X139235Y-25265D02*
X139500Y-25000D01*
Y-30000D02*
X147500D01*
X-53914Y-33086D02*
X-51787Y-35213D01*
X-28308D01*
X-53914Y-33086D02*
Y-21463D01*
X-28308Y-35213D02*
X-21529Y-28435D01*
X-14750Y-7713D02*
X123466D01*
X139000Y-5000D02*
X139750Y-5750D01*
X-21529Y-28435D02*
Y-14492D01*
X-14750Y-7713D01*
X-32324Y-8074D02*
X-25537Y-1287D01*
X127194D01*
X-32324Y-21463D02*
Y-8074D01*
X128481Y0D02*
X139500D01*
X127194Y-1287D02*
X128481Y0D01*
X-53914Y7336D02*
Y21463D01*
X-64709Y-3459D02*
X-53914Y7336D01*
X-75504Y5746D02*
Y21463D01*
X-86299Y-5049D02*
X-75504Y5746D01*
X129238Y5000D02*
X139500D01*
X125951Y1713D02*
X129238Y5000D01*
X10856Y9213D02*
X15356Y4713D01*
X129996Y10000D02*
X139500D01*
X131750Y49500D02*
X138750D01*
X-57500Y54000D02*
X-55250Y56250D01*
X-57500Y50250D02*
Y54000D01*
X-55250Y56250D02*
X-45750D01*
X-214750Y54750D02*
X-201750Y67750D01*
X-178750D01*
X-183000Y-61500D02*
Y-53500D01*
X216250Y40000D02*
X218750Y42500D01*
X216250Y35750D02*
Y40000D01*
X200500Y55000D02*
Y65000D01*
X185500Y61750D02*
X197500D01*
X200500Y64750D01*
X205000Y33750D02*
Y34379D01*
X200500Y44750D02*
X203000Y42250D01*
Y36379D02*
Y42250D01*
Y36379D02*
X205000Y34379D01*
X165549Y-70438D02*
X171183D01*
X158500Y-70500D02*
X165486D01*
X165549Y-70438D01*
X172880Y-68741D02*
Y-64375D01*
X153000Y-65000D02*
X158500Y-70500D01*
X171183Y-70438D02*
X172880Y-68741D01*
X185125Y-64375D02*
X199875D01*
X182500Y-61750D02*
Y-61424D01*
Y-61750D02*
X185125Y-64375D01*
X185125Y-54630D02*
X192320D01*
X174879Y-70500D02*
X187158D01*
X173000Y-68621D02*
X174879Y-70500D01*
X187158Y-70438D02*
X203812D01*
X155000Y-62500D02*
Y-61099D01*
X163025Y-53074D02*
X164426D01*
X209000Y-64750D02*
X211031Y-62719D01*
X195740Y-49250D02*
X199995Y-53505D01*
X192740Y-49250D02*
X195740D01*
X193740Y-46000D02*
X203258D01*
X206007Y-43250D01*
X211750D02*
X216250Y-38750D01*
X207250Y-46250D02*
X216250D01*
X199995Y-53505D02*
Y-53505D01*
X205750Y-33750D02*
X206250Y-34250D01*
Y-38750D02*
Y-34250D01*
X205750Y-33750D02*
Y-30750D01*
X230875Y-45875D02*
X231250Y-46250D01*
X236000Y26750D02*
X236250D01*
X200500Y44750D02*
Y45000D01*
X196250Y40500D02*
X200500Y44750D01*
X201250Y46000D02*
X203324Y48074D01*
X230875Y-45875D02*
Y-35375D01*
X205000Y26750D02*
X216250D01*
X205500Y15000D02*
X205500Y15000D01*
X209500Y45750D02*
X210000D01*
X209500Y64750D02*
X211500Y62750D01*
X213938D01*
X206007Y-43250D02*
X211750D01*
X-148500Y-61500D02*
X-131000D01*
X59750Y70500D02*
X66500Y63750D01*
X-32324Y-824D02*
Y21463D01*
X-42250Y-10750D02*
X-32324Y-824D01*
X-10734Y9213D02*
X-3234Y1713D01*
X124708Y4713D02*
X129996Y10000D01*
X137534Y-49750D02*
X151260D01*
X135893Y-46750D02*
X148010D01*
X166121Y-58778D02*
X167649Y-57250D01*
X170260D01*
X215781Y-62719D02*
X216250Y-62250D01*
X153000Y-65000D02*
Y-64750D01*
X164426Y-53074D02*
X165000Y-52500D01*
X155000Y-61099D02*
X163025Y-53074D01*
X153000Y-64500D02*
X155000Y-62500D01*
X211031Y-62719D02*
X215781D01*
X196815Y-59125D02*
X203875D01*
X209250Y-64500D01*
Y-65000D02*
Y-64500D01*
X192320Y-54630D02*
X196815Y-59125D01*
X203812Y-70438D02*
X209250Y-65000D01*
X199875Y-64375D02*
X200250Y-64750D01*
X172880Y-54630D02*
Y-49500D01*
X162000Y-64500D02*
X166121Y-60379D01*
X170260Y-57250D02*
X172880Y-54630D01*
X166121Y-60379D02*
Y-58778D01*
X162000Y-64750D02*
Y-64500D01*
X207500Y52750D02*
X209500Y54750D01*
X203324Y49016D02*
X207057Y52750D01*
X203324Y48074D02*
Y49016D01*
X207057Y52750D02*
X207500D01*
X200500Y46000D02*
X201250D01*
X110889Y-39125D02*
X118139D01*
X217500Y52349D02*
Y60000D01*
X209500Y64750D02*
Y66500D01*
X210000Y45750D02*
X212500Y48250D01*
X213401D01*
X216688Y60000D02*
X217500D01*
X213401Y48250D02*
X217500Y52349D01*
X213938Y62750D02*
X216688Y60000D01*
X-8961Y66621D02*
X-7121D01*
X-3243Y70500D01*
X59750D01*
X-8961Y66621D02*
X-7671D01*
X178750Y36250D02*
Y37062D01*
X176500Y52750D02*
X185500Y61750D01*
X-3234Y1713D02*
X125951D01*
X15356Y4713D02*
X124708D01*
X176500Y39312D02*
X178750Y37062D01*
X176500Y39312D02*
Y52750D01*
X-17250Y56250D02*
Y59621D01*
X-10250Y66621D01*
X-8961D01*
X-10734Y9213D02*
Y21463D01*
X10856Y9213D02*
Y21463D01*
D20*
X-182300Y20000D02*
Y24223D01*
X-184148Y26071D02*
X-182300Y24223D01*
X-188371Y26071D02*
X-184148D01*
X-192300Y30000D02*
X-188371Y26071D01*
X-200850Y30000D02*
X-192300D01*
X-163000Y-36814D02*
Y-29601D01*
X-199250Y27050D02*
X-197900D01*
X-200850Y28650D02*
X-199250Y27050D01*
X-200850Y28650D02*
Y30000D01*
Y45000D01*
D21*
X-163250Y-23250D02*
X-163000Y-23000D01*
X-163250Y-27936D02*
Y-23250D01*
X-163000Y-41038D02*
Y-36814D01*
X-170000Y-23000D02*
X-163000D01*
X-156000D01*
X-174000Y-52038D02*
X-163000Y-41038D01*
X-174000Y-61500D02*
Y-52038D01*
X-174000Y-61500D02*
X-162400D01*
X-174000Y-61500D02*
X-174000Y-61500D01*
D24*
X-118684Y21463D02*
D03*
X-97094D02*
D03*
X-75504D02*
D03*
X-53914D02*
D03*
X-32324D02*
D03*
X-10734D02*
D03*
X10856D02*
D03*
X32446D02*
D03*
X54036D02*
D03*
X75626D02*
D03*
X97216D02*
D03*
X118806D02*
D03*
X-118684Y-21463D02*
D03*
X-97094D02*
D03*
X-75504D02*
D03*
X-53914D02*
D03*
X-32324D02*
D03*
X-10734D02*
D03*
X10856D02*
D03*
X32446D02*
D03*
X54036D02*
D03*
X75626D02*
D03*
X97216D02*
D03*
X118806D02*
D03*
D25*
X-182300Y-20000D02*
D03*
Y20000D02*
D03*
X-143700D02*
D03*
Y-20000D02*
D03*
D26*
X-156000Y-32500D02*
D03*
Y-23000D02*
D03*
Y-13500D02*
D03*
Y-4500D02*
D03*
Y4500D02*
D03*
Y13500D02*
D03*
Y23000D02*
D03*
Y32500D02*
D03*
X-170000D02*
D03*
Y23000D02*
D03*
Y13500D02*
D03*
Y4500D02*
D03*
Y-4500D02*
D03*
Y-13500D02*
D03*
Y-23000D02*
D03*
Y-32500D02*
D03*
D27*
X95000Y-59750D02*
D03*
D28*
X-32000D02*
D03*
X69600Y-59750D02*
D03*
X44200Y-59750D02*
D03*
X18800Y-59750D02*
D03*
X-6600Y-59750D02*
D03*
D29*
X171250Y-5000D02*
D03*
D30*
X136250Y-38000D02*
D03*
X138000Y25000D02*
D03*
X130500Y-20500D02*
D03*
Y-14500D02*
D03*
Y-5000D02*
D03*
X214500Y-22000D02*
D03*
X126161Y46250D02*
D03*
X232250Y42500D02*
D03*
X-84152Y49340D02*
D03*
X226250Y42500D02*
D03*
X-78152Y49340D02*
D03*
X78500Y40000D02*
D03*
X-209878Y-68250D02*
D03*
Y68250D02*
D03*
X-248628Y17000D02*
D03*
Y-17000D02*
D03*
X248628Y-17000D02*
D03*
X248750Y17000D02*
D03*
X-171000Y67750D02*
D03*
X-90402Y49340D02*
D03*
X-71902Y49340D02*
D03*
X144750Y-60000D02*
D03*
X131750Y49500D02*
D03*
X-90000Y67250D02*
D03*
X-118000D02*
D03*
X-57500Y50250D02*
D03*
X15500Y40000D02*
D03*
X-183000Y-53500D02*
D03*
X162500Y36250D02*
D03*
X218750Y42500D02*
D03*
X216250Y-62250D02*
D03*
X247500Y-31250D02*
D03*
Y-25000D02*
D03*
X205000Y33750D02*
D03*
Y26750D02*
D03*
X217500Y60000D02*
D03*
X153750Y36250D02*
D03*
X178750D02*
D03*
X165000Y-52500D02*
D03*
X206250Y-38750D02*
D03*
X231250Y-46250D02*
D03*
X216250Y-31250D02*
D03*
Y-53750D02*
D03*
Y-46250D02*
D03*
Y-38750D02*
D03*
X-214750Y18000D02*
D03*
Y54750D02*
D03*
X-113000Y-61500D02*
D03*
X-178750Y50750D02*
D03*
X-189300Y50674D02*
D03*
X-42250Y-10750D02*
D03*
X-131000Y-54500D02*
D03*
X127389Y-47125D02*
D03*
X110889Y-39125D02*
D03*
D32*
X-200850Y30000D02*
D03*
X-214650D02*
D03*
Y45000D02*
D03*
X-200850D02*
D03*
X-162400Y-61500D02*
D03*
X-148500D02*
D03*
D33*
X209250Y-64750D02*
D03*
X200250D02*
D03*
X153000Y-64750D02*
D03*
X162000D02*
D03*
X118139Y-39125D02*
D03*
X127139D02*
D03*
X209500Y65000D02*
D03*
X200500D02*
D03*
X209500Y45000D02*
D03*
X200500D02*
D03*
X-183000Y-61500D02*
D03*
X-174000D02*
D03*
X209250Y-53500D02*
D03*
X200250D02*
D03*
X239500Y-25000D02*
D03*
X230500D02*
D03*
X-121750Y-61500D02*
D03*
X-130750D02*
D03*
X239500Y-35000D02*
D03*
X230500D02*
D03*
X97250Y53750D02*
D03*
X88250D02*
D03*
Y63750D02*
D03*
X97250D02*
D03*
X200500Y55000D02*
D03*
X209500D02*
D03*
X97250Y39750D02*
D03*
X88250D02*
D03*
D34*
X138750Y49500D02*
D03*
Y40500D02*
D03*
X216250Y35750D02*
D03*
Y26750D02*
D03*
X-189000Y67750D02*
D03*
Y58750D02*
D03*
X-178750D02*
D03*
Y67750D02*
D03*
X236250Y26750D02*
D03*
Y35750D02*
D03*
X226250D02*
D03*
Y26750D02*
D03*
D35*
X146250Y-38000D02*
D03*
X196250Y-38000D02*
D03*
X191250Y-38000D02*
D03*
X171250Y-38000D02*
D03*
X166250Y-38000D02*
D03*
X161250Y-38000D02*
D03*
X156250Y-38000D02*
D03*
X151250D02*
D03*
X156250Y28000D02*
D03*
X161250Y28000D02*
D03*
X166250Y28000D02*
D03*
X171250D02*
D03*
X176250D02*
D03*
X181250Y28000D02*
D03*
X186250Y28000D02*
D03*
X191250Y28000D02*
D03*
X151250D02*
D03*
X181250Y-38000D02*
D03*
X176250Y-38000D02*
D03*
X196250Y28000D02*
D03*
X146250D02*
D03*
X186250Y-38000D02*
D03*
D36*
X204250Y20000D02*
D03*
X204250Y10000D02*
D03*
X204250Y5000D02*
D03*
X204250Y-5000D02*
D03*
X204250Y-15000D02*
D03*
X204250Y-20000D02*
D03*
X204250Y-25000D02*
D03*
Y-30000D02*
D03*
X138250Y-20000D02*
D03*
X138250Y-15000D02*
D03*
X138250Y-10000D02*
D03*
X138250Y-5000D02*
D03*
X138250Y0D02*
D03*
Y5000D02*
D03*
X138250Y10000D02*
D03*
Y15000D02*
D03*
X138250Y20000D02*
D03*
X138250Y-30000D02*
D03*
X204250Y-0D02*
D03*
X138250Y-25000D02*
D03*
X204250Y-10000D02*
D03*
X204250Y15000D02*
D03*
D37*
X171250Y-5000D02*
D03*
D38*
X-99900Y64750D02*
D03*
X-99900Y60750D02*
D03*
X-99900Y56750D02*
D03*
X-108100Y64750D02*
D03*
X-108100Y60750D02*
D03*
X-108100Y56750D02*
D03*
D39*
X185625Y-54630D02*
D03*
X185625Y-64375D02*
D03*
X172880Y-64375D02*
D03*
X172880Y-54630D02*
D03*
D40*
X152500Y46250D02*
D03*
X186000D02*
D03*
Y61750D02*
D03*
D41*
X15750Y56000D02*
D03*
X-44250D02*
D03*
X-15750Y56000D02*
D03*
X44250D02*
D03*
D42*
X152500Y61750D02*
D03*
D43*
X-163250Y-29351D02*
Y-27936D01*
Y-29351D02*
X-163000Y-29601D01*
D44*
X78750Y39750D02*
X88250D01*
X78500Y40000D02*
X78750Y39750D01*
X-99900Y64750D02*
X-92500D01*
X-90000Y67250D01*
X-118000D02*
X-115500Y64750D01*
X-108100D01*
X-99900D01*
X15404Y40096D02*
X15500Y40000D01*
X15404Y40096D02*
Y55654D01*
X15329Y55578D02*
X15750Y56000D01*
X8750Y55578D02*
X15329D01*
X15404Y55654D02*
X15750Y56000D01*
X172250Y-5000D02*
X177500Y-0D01*
X205500D01*
X244078Y-34672D02*
X247500Y-31250D01*
X239828Y-34672D02*
X244078D01*
X239500Y-35000D02*
X239828Y-34672D01*
X239500Y-25000D02*
X247500D01*
X209404Y-53654D02*
X216154D01*
X216250Y-53750D01*
X209250Y-53500D02*
X209404Y-53654D01*
X-214750Y18000D02*
X-214650Y18100D01*
Y30000D01*
X-214750Y45100D02*
Y54750D01*
Y45100D02*
X-214650Y45000D01*
X-113000Y-61500D02*
X-113000Y-61500D01*
X-121750Y-61500D02*
X-113000D01*
X-189300Y58450D02*
X-189000Y58750D01*
X-189300Y50674D02*
Y58450D01*
M02*
