G04*
G04 #@! TF.GenerationSoftware,Altium Limited,Altium Designer,25.5.2 (35)*
G04*
G04 Layer_Color=2752767*
%FSLAX44Y44*%
%MOMM*%
G71*
G04*
G04 #@! TF.SameCoordinates,128D8583-6615-4204-B1AC-86CD56F38C64*
G04*
G04*
G04 #@! TF.FilePolarity,Positive*
G04*
G01*
G75*
%ADD59C,0.1270*%
D59*
X-234000Y-5080D02*
X-239080Y5080D01*
X-228920D01*
X-234000Y-5080D01*
X234122D02*
X229042Y5080D01*
X239202D01*
X234122Y-5080D01*
X-123764Y16383D02*
Y26543D01*
X-113604D01*
Y16383D01*
X-123764D01*
X-102174D02*
Y26543D01*
X-92014D01*
Y16383D01*
X-102174D01*
X-80584D02*
Y26543D01*
X-70424D01*
Y16383D01*
X-80584D01*
X-58994D02*
Y26543D01*
X-48834D01*
Y16383D01*
X-58994D01*
X-37404D02*
Y26543D01*
X-27244D01*
Y16383D01*
X-37404D01*
X-15814D02*
Y26543D01*
X-5654D01*
Y16383D01*
X-15814D01*
X5776D02*
Y26543D01*
X15936D01*
Y16383D01*
X5776D01*
X27366D02*
Y26543D01*
X37526D01*
Y16383D01*
X27366D01*
X48956D02*
Y26543D01*
X59116D01*
Y16383D01*
X48956D01*
X70546D02*
Y26543D01*
X80706D01*
Y16383D01*
X70546D01*
X92136D02*
Y26543D01*
X102296D01*
Y16383D01*
X92136D01*
X113726D02*
Y26543D01*
X123886D01*
Y16383D01*
X113726D01*
X-123764Y-26543D02*
Y-16383D01*
X-113604D01*
Y-26543D01*
X-123764D01*
X-102174D02*
Y-16383D01*
X-92014D01*
Y-26543D01*
X-102174D01*
X-80584D02*
Y-16383D01*
X-70424D01*
Y-26543D01*
X-80584D01*
X-58994D02*
Y-16383D01*
X-48834D01*
Y-26543D01*
X-58994D01*
X-37404D02*
Y-16383D01*
X-27244D01*
Y-26543D01*
X-37404D01*
X-15814D02*
Y-16383D01*
X-5654D01*
Y-26543D01*
X-15814D01*
X5776D02*
Y-16383D01*
X15936D01*
Y-26543D01*
X5776D01*
X27366D02*
Y-16383D01*
X37526D01*
Y-26543D01*
X27366D01*
X48956D02*
Y-16383D01*
X59116D01*
Y-26543D01*
X48956D01*
X70546D02*
Y-16383D01*
X80706D01*
Y-26543D01*
X70546D01*
X92136D02*
Y-16383D01*
X102296D01*
Y-26543D01*
X92136D01*
X113726D02*
Y-16383D01*
X123886D01*
Y-26543D01*
X113726D01*
X-271080Y9920D02*
X-268540Y15000D01*
X-271080Y20080D01*
X-266000Y17540D01*
X-260920Y20080D01*
X-263460Y15000D01*
X-260920Y9920D01*
X-266000Y12460D01*
X-271080Y9920D01*
Y-20080D02*
X-268540Y-15000D01*
X-271080Y-9920D01*
X-266000Y-12460D01*
X-260920Y-9920D01*
X-263460Y-15000D01*
X-260920Y-20080D01*
X-266000Y-17540D01*
X-271080Y-20080D01*
X261170Y-20080D02*
X263710Y-15000D01*
X261170Y-9920D01*
X266250Y-12460D01*
X271330Y-9920D01*
X268790Y-15000D01*
X271330Y-20080D01*
X266250Y-17540D01*
X261170Y-20080D01*
Y9920D02*
X263710Y15000D01*
X261170Y20080D01*
X266250Y17540D01*
X271330Y20080D01*
X268790Y15000D01*
X271330Y9920D01*
X266250Y12460D01*
X261170Y9920D01*
X-187380Y-20000D02*
X-182300Y-14920D01*
X-177220Y-20000D01*
X-182300Y-25080D01*
X-187380Y-20000D01*
Y20000D02*
X-182300Y25080D01*
X-177220Y20000D01*
X-182300Y14920D01*
X-187380Y20000D01*
X-148780D02*
X-143700Y25080D01*
X-138620Y20000D01*
X-143700Y14920D01*
X-148780Y20000D01*
Y-20000D02*
X-143700Y-14920D01*
X-138620Y-20000D01*
X-143700Y-25080D01*
X-148780Y-20000D01*
X-161080Y-37580D02*
Y-27420D01*
X-150920D01*
Y-37580D01*
X-161080D01*
X-159048Y-35548D02*
Y-29452D01*
X-152952D01*
Y-35548D01*
X-159048D01*
X-161080Y-28080D02*
Y-17920D01*
X-150920D01*
Y-28080D01*
X-161080D01*
X-159048Y-26048D02*
Y-19952D01*
X-152952D01*
Y-26048D01*
X-159048D01*
X-161080Y-18580D02*
Y-8420D01*
X-150920D01*
Y-18580D01*
X-161080D01*
X-159048Y-16548D02*
Y-10452D01*
X-152952D01*
Y-16548D01*
X-159048D01*
X-161080Y-9580D02*
Y580D01*
X-150920D01*
Y-9580D01*
X-161080D01*
X-159048Y-7548D02*
Y-1452D01*
X-152952D01*
Y-7548D01*
X-159048D01*
X-161080Y-580D02*
Y9580D01*
X-150920D01*
Y-580D01*
X-161080D01*
X-159048Y1452D02*
Y7548D01*
X-152952D01*
Y1452D01*
X-159048D01*
X-161080Y8420D02*
Y18580D01*
X-150920D01*
Y8420D01*
X-161080D01*
X-159048Y10452D02*
Y16548D01*
X-152952D01*
Y10452D01*
X-159048D01*
X-161080Y17920D02*
Y28080D01*
X-150920D01*
Y17920D01*
X-161080D01*
X-159048Y19952D02*
Y26048D01*
X-152952D01*
Y19952D01*
X-159048D01*
X-161080Y27420D02*
Y37580D01*
X-150920D01*
Y27420D01*
X-161080D01*
X-159048Y29452D02*
Y35548D01*
X-152952D01*
Y29452D01*
X-159048D01*
X-175080Y27420D02*
Y37580D01*
X-164920D01*
Y27420D01*
X-175080D01*
X-173048Y29452D02*
Y35548D01*
X-166952D01*
Y29452D01*
X-173048D01*
X-175080Y17920D02*
Y28080D01*
X-164920D01*
Y17920D01*
X-175080D01*
X-173048Y19952D02*
Y26048D01*
X-166952D01*
Y19952D01*
X-173048D01*
X-175080Y8420D02*
Y18580D01*
X-164920D01*
Y8420D01*
X-175080D01*
X-173048Y10452D02*
Y16548D01*
X-166952D01*
Y10452D01*
X-173048D01*
X-175080Y-580D02*
Y9580D01*
X-164920D01*
Y-580D01*
X-175080D01*
X-173048Y1452D02*
Y7548D01*
X-166952D01*
Y1452D01*
X-173048D01*
X-175080Y-9580D02*
Y580D01*
X-164920D01*
Y-9580D01*
X-175080D01*
X-173048Y-7548D02*
Y-1452D01*
X-166952D01*
Y-7548D01*
X-173048D01*
X-175080Y-18580D02*
Y-8420D01*
X-164920D01*
Y-18580D01*
X-175080D01*
X-173048Y-16548D02*
Y-10452D01*
X-166952D01*
Y-16548D01*
X-173048D01*
X-175080Y-28080D02*
Y-17920D01*
X-164920D01*
Y-28080D01*
X-175080D01*
X-173048Y-26048D02*
Y-19952D01*
X-166952D01*
Y-26048D01*
X-173048D01*
X-175080Y-37580D02*
Y-27420D01*
X-164920D01*
Y-37580D01*
X-175080D01*
X-173048Y-35548D02*
Y-29452D01*
X-166952D01*
Y-35548D01*
X-173048D01*
X261420Y-5080D02*
X263960Y-0D01*
X261420Y5080D01*
X266500Y2540D01*
X271580Y5080D01*
X269040Y-0D01*
X271580Y-5080D01*
X266500Y-2540D01*
X261420Y-5080D01*
X-271580Y-5080D02*
X-269040Y0D01*
X-271580Y5080D01*
X-266500Y2540D01*
X-261420Y5080D01*
X-263960Y0D01*
X-261420Y-5080D01*
X-266500Y-2540D01*
X-271580Y-5080D01*
X92460Y-62290D02*
Y-64830D01*
X97540D01*
Y-62290D01*
X100080D01*
Y-57210D01*
X97540D01*
Y-54670D01*
X92460D01*
Y-57210D01*
X89920D01*
Y-62290D01*
X92460D01*
X-34540D02*
Y-64830D01*
X-29460D01*
Y-62290D01*
X-26920D01*
Y-57210D01*
X-29460D01*
Y-54670D01*
X-34540D01*
Y-57210D01*
X-37080D01*
Y-62290D01*
X-34540D01*
X67060Y-62290D02*
Y-64830D01*
X72140D01*
Y-62290D01*
X74680D01*
Y-57210D01*
X72140D01*
Y-54670D01*
X67060D01*
Y-57210D01*
X64520D01*
Y-62290D01*
X67060D01*
X41660Y-62290D02*
Y-64830D01*
X46740D01*
Y-62290D01*
X49280D01*
Y-57210D01*
X46740D01*
Y-54670D01*
X41660D01*
Y-57210D01*
X39120D01*
Y-62290D01*
X41660D01*
X16260Y-62290D02*
Y-64830D01*
X21340D01*
Y-62290D01*
X23880D01*
Y-57210D01*
X21340D01*
Y-54670D01*
X16260D01*
Y-57210D01*
X13720D01*
Y-62290D01*
X16260D01*
X-9140Y-62290D02*
Y-64830D01*
X-4060D01*
Y-62290D01*
X-1520D01*
Y-57210D01*
X-4060D01*
Y-54670D01*
X-9140D01*
Y-57210D01*
X-11680D01*
Y-62290D01*
X-9140D01*
X166170Y-10080D02*
X168710D01*
X171250Y-7540D01*
X173790Y-10080D01*
X176330D01*
Y-7540D01*
X173790Y-5000D01*
X176330Y-2460D01*
Y80D01*
X173790D01*
X171250Y-2460D01*
X168710Y80D01*
X166170D01*
Y-2460D01*
X168710Y-5000D01*
X166170Y-7540D01*
Y-10080D01*
X131170Y-43080D02*
X133710D01*
X136250Y-40540D01*
X138790Y-43080D01*
X141330D01*
Y-40540D01*
X138790Y-38000D01*
X141330Y-35460D01*
Y-32920D01*
X138790D01*
X136250Y-35460D01*
X133710Y-32920D01*
X131170D01*
Y-35460D01*
X133710Y-38000D01*
X131170Y-40540D01*
Y-43080D01*
X132920Y19920D02*
X135460D01*
X138000Y22460D01*
X140540Y19920D01*
X143080D01*
Y22460D01*
X140540Y25000D01*
X143080Y27540D01*
Y30080D01*
X140540D01*
X138000Y27540D01*
X135460Y30080D01*
X132920D01*
Y27540D01*
X135460Y25000D01*
X132920Y22460D01*
Y19920D01*
X125420Y-25580D02*
X127960D01*
X130500Y-23040D01*
X133040Y-25580D01*
X135580D01*
Y-23040D01*
X133040Y-20500D01*
X135580Y-17960D01*
Y-15420D01*
X133040D01*
X130500Y-17960D01*
X127960Y-15420D01*
X125420D01*
Y-17960D01*
X127960Y-20500D01*
X125420Y-23040D01*
Y-25580D01*
Y-19580D02*
X127960D01*
X130500Y-17040D01*
X133040Y-19580D01*
X135580D01*
Y-17040D01*
X133040Y-14500D01*
X135580Y-11960D01*
Y-9420D01*
X133040D01*
X130500Y-11960D01*
X127960Y-9420D01*
X125420D01*
Y-11960D01*
X127960Y-14500D01*
X125420Y-17040D01*
Y-19580D01*
Y-10080D02*
X127960D01*
X130500Y-7540D01*
X133040Y-10080D01*
X135580D01*
Y-7540D01*
X133040Y-5000D01*
X135580Y-2460D01*
Y80D01*
X133040D01*
X130500Y-2460D01*
X127960Y80D01*
X125420D01*
Y-2460D01*
X127960Y-5000D01*
X125420Y-7540D01*
Y-10080D01*
X209420Y-27080D02*
X211960D01*
X214500Y-24540D01*
X217040Y-27080D01*
X219580D01*
Y-24540D01*
X217040Y-22000D01*
X219580Y-19460D01*
Y-16920D01*
X217040D01*
X214500Y-19460D01*
X211960Y-16920D01*
X209420D01*
Y-19460D01*
X211960Y-22000D01*
X209420Y-24540D01*
Y-27080D01*
X121081Y41170D02*
X123621D01*
X126161Y43710D01*
X128701Y41170D01*
X131241D01*
Y43710D01*
X128701Y46250D01*
X131241Y48790D01*
Y51330D01*
X128701D01*
X126161Y48790D01*
X123621Y51330D01*
X121081D01*
Y48790D01*
X123621Y46250D01*
X121081Y43710D01*
Y41170D01*
X227170Y37420D02*
X229710D01*
X232250Y39960D01*
X234790Y37420D01*
X237330D01*
Y39960D01*
X234790Y42500D01*
X237330Y45040D01*
Y47580D01*
X234790D01*
X232250Y45040D01*
X229710Y47580D01*
X227170D01*
Y45040D01*
X229710Y42500D01*
X227170Y39960D01*
Y37420D01*
X-89232Y44260D02*
X-86692D01*
X-84152Y46800D01*
X-81612Y44260D01*
X-79072D01*
Y46800D01*
X-81612Y49340D01*
X-79072Y51880D01*
Y54420D01*
X-81612D01*
X-84152Y51880D01*
X-86692Y54420D01*
X-89232D01*
Y51880D01*
X-86692Y49340D01*
X-89232Y46800D01*
Y44260D01*
X221170Y37420D02*
X223710D01*
X226250Y39960D01*
X228790Y37420D01*
X231330D01*
Y39960D01*
X228790Y42500D01*
X231330Y45040D01*
Y47580D01*
X228790D01*
X226250Y45040D01*
X223710Y47580D01*
X221170D01*
Y45040D01*
X223710Y42500D01*
X221170Y39960D01*
Y37420D01*
X-83232Y44260D02*
X-80692D01*
X-78152Y46800D01*
X-75612Y44260D01*
X-73072D01*
Y46800D01*
X-75612Y49340D01*
X-73072Y51880D01*
Y54420D01*
X-75612D01*
X-78152Y51880D01*
X-80692Y54420D01*
X-83232D01*
Y51880D01*
X-80692Y49340D01*
X-83232Y46800D01*
Y44260D01*
X73420Y34920D02*
X75960D01*
X78500Y37460D01*
X81040Y34920D01*
X83580D01*
Y37460D01*
X81040Y40000D01*
X83580Y42540D01*
Y45080D01*
X81040D01*
X78500Y42540D01*
X75960Y45080D01*
X73420D01*
Y42540D01*
X75960Y40000D01*
X73420Y37460D01*
Y34920D01*
X-214958Y-73330D02*
X-212418D01*
X-209878Y-70790D01*
X-207338Y-73330D01*
X-204798D01*
Y-70790D01*
X-207338Y-68250D01*
X-204798Y-65710D01*
Y-63170D01*
X-207338D01*
X-209878Y-65710D01*
X-212418Y-63170D01*
X-214958D01*
Y-65710D01*
X-212418Y-68250D01*
X-214958Y-70790D01*
Y-73330D01*
Y63170D02*
X-212418D01*
X-209878Y65710D01*
X-207338Y63170D01*
X-204798D01*
Y65710D01*
X-207338Y68250D01*
X-204798Y70790D01*
Y73330D01*
X-207338D01*
X-209878Y70790D01*
X-212418Y73330D01*
X-214958D01*
Y70790D01*
X-212418Y68250D01*
X-214958Y65710D01*
Y63170D01*
X-253708Y11920D02*
X-251168D01*
X-248628Y14460D01*
X-246088Y11920D01*
X-243548D01*
Y14460D01*
X-246088Y17000D01*
X-243548Y19540D01*
Y22080D01*
X-246088D01*
X-248628Y19540D01*
X-251168Y22080D01*
X-253708D01*
Y19540D01*
X-251168Y17000D01*
X-253708Y14460D01*
Y11920D01*
Y-22080D02*
X-251168D01*
X-248628Y-19540D01*
X-246088Y-22080D01*
X-243548D01*
Y-19540D01*
X-246088Y-17000D01*
X-243548Y-14460D01*
Y-11920D01*
X-246088D01*
X-248628Y-14460D01*
X-251168Y-11920D01*
X-253708D01*
Y-14460D01*
X-251168Y-17000D01*
X-253708Y-19540D01*
Y-22080D01*
X243548Y-22080D02*
X246088D01*
X248628Y-19540D01*
X251168Y-22080D01*
X253708D01*
Y-19540D01*
X251168Y-17000D01*
X253708Y-14460D01*
Y-11920D01*
X251168D01*
X248628Y-14460D01*
X246088Y-11920D01*
X243548D01*
Y-14460D01*
X246088Y-17000D01*
X243548Y-19540D01*
Y-22080D01*
X243670Y11920D02*
X246210D01*
X248750Y14460D01*
X251290Y11920D01*
X253830D01*
Y14460D01*
X251290Y17000D01*
X253830Y19540D01*
Y22080D01*
X251290D01*
X248750Y19540D01*
X246210Y22080D01*
X243670D01*
Y19540D01*
X246210Y17000D01*
X243670Y14460D01*
Y11920D01*
X-176080Y62670D02*
X-173540D01*
X-171000Y65210D01*
X-168460Y62670D01*
X-165920D01*
Y65210D01*
X-168460Y67750D01*
X-165920Y70290D01*
Y72830D01*
X-168460D01*
X-171000Y70290D01*
X-173540Y72830D01*
X-176080D01*
Y70290D01*
X-173540Y67750D01*
X-176080Y65210D01*
Y62670D01*
X-95482Y44260D02*
X-92942D01*
X-90402Y46800D01*
X-87862Y44260D01*
X-85322D01*
Y46800D01*
X-87862Y49340D01*
X-85322Y51880D01*
Y54420D01*
X-87862D01*
X-90402Y51880D01*
X-92942Y54420D01*
X-95482D01*
Y51880D01*
X-92942Y49340D01*
X-95482Y46800D01*
Y44260D01*
X-76982Y44260D02*
X-74442D01*
X-71902Y46800D01*
X-69362Y44260D01*
X-66822D01*
Y46800D01*
X-69362Y49340D01*
X-66822Y51880D01*
Y54420D01*
X-69362D01*
X-71902Y51880D01*
X-74442Y54420D01*
X-76982D01*
Y51880D01*
X-74442Y49340D01*
X-76982Y46800D01*
Y44260D01*
X139670Y-65080D02*
X142210D01*
X144750Y-62540D01*
X147290Y-65080D01*
X149830D01*
Y-62540D01*
X147290Y-60000D01*
X149830Y-57460D01*
Y-54920D01*
X147290D01*
X144750Y-57460D01*
X142210Y-54920D01*
X139670D01*
Y-57460D01*
X142210Y-60000D01*
X139670Y-62540D01*
Y-65080D01*
X126670Y44420D02*
X129210D01*
X131750Y46960D01*
X134290Y44420D01*
X136830D01*
Y46960D01*
X134290Y49500D01*
X136830Y52040D01*
Y54580D01*
X134290D01*
X131750Y52040D01*
X129210Y54580D01*
X126670D01*
Y52040D01*
X129210Y49500D01*
X126670Y46960D01*
Y44420D01*
X-95080Y62170D02*
X-92540D01*
X-90000Y64710D01*
X-87460Y62170D01*
X-84920D01*
Y64710D01*
X-87460Y67250D01*
X-84920Y69790D01*
Y72330D01*
X-87460D01*
X-90000Y69790D01*
X-92540Y72330D01*
X-95080D01*
Y69790D01*
X-92540Y67250D01*
X-95080Y64710D01*
Y62170D01*
X-123080D02*
X-120540D01*
X-118000Y64710D01*
X-115460Y62170D01*
X-112920D01*
Y64710D01*
X-115460Y67250D01*
X-112920Y69790D01*
Y72330D01*
X-115460D01*
X-118000Y69790D01*
X-120540Y72330D01*
X-123080D01*
Y69790D01*
X-120540Y67250D01*
X-123080Y64710D01*
Y62170D01*
X-62580Y45170D02*
X-60040D01*
X-57500Y47710D01*
X-54960Y45170D01*
X-52420D01*
Y47710D01*
X-54960Y50250D01*
X-52420Y52790D01*
Y55330D01*
X-54960D01*
X-57500Y52790D01*
X-60040Y55330D01*
X-62580D01*
Y52790D01*
X-60040Y50250D01*
X-62580Y47710D01*
Y45170D01*
X10420Y34920D02*
X12960D01*
X15500Y37460D01*
X18040Y34920D01*
X20580D01*
Y37460D01*
X18040Y40000D01*
X20580Y42540D01*
Y45080D01*
X18040D01*
X15500Y42540D01*
X12960Y45080D01*
X10420D01*
Y42540D01*
X12960Y40000D01*
X10420Y37460D01*
Y34920D01*
X-188080Y-58580D02*
X-185540D01*
X-183000Y-56040D01*
X-180460Y-58580D01*
X-177920D01*
Y-56040D01*
X-180460Y-53500D01*
X-177920Y-50960D01*
Y-48420D01*
X-180460D01*
X-183000Y-50960D01*
X-185540Y-48420D01*
X-188080D01*
Y-50960D01*
X-185540Y-53500D01*
X-188080Y-56040D01*
Y-58580D01*
X157420Y31170D02*
X159960D01*
X162500Y33710D01*
X165040Y31170D01*
X167580D01*
Y33710D01*
X165040Y36250D01*
X167580Y38790D01*
Y41330D01*
X165040D01*
X162500Y38790D01*
X159960Y41330D01*
X157420D01*
Y38790D01*
X159960Y36250D01*
X157420Y33710D01*
Y31170D01*
X213670Y37420D02*
X216210D01*
X218750Y39960D01*
X221290Y37420D01*
X223830D01*
Y39960D01*
X221290Y42500D01*
X223830Y45040D01*
Y47580D01*
X221290D01*
X218750Y45040D01*
X216210Y47580D01*
X213670D01*
Y45040D01*
X216210Y42500D01*
X213670Y39960D01*
Y37420D01*
X211170Y-67330D02*
X213710D01*
X216250Y-64790D01*
X218790Y-67330D01*
X221330D01*
Y-64790D01*
X218790Y-62250D01*
X221330Y-59710D01*
Y-57170D01*
X218790D01*
X216250Y-59710D01*
X213710Y-57170D01*
X211170D01*
Y-59710D01*
X213710Y-62250D01*
X211170Y-64790D01*
Y-67330D01*
X242420Y-36330D02*
X244960D01*
X247500Y-33790D01*
X250040Y-36330D01*
X252580D01*
Y-33790D01*
X250040Y-31250D01*
X252580Y-28710D01*
Y-26170D01*
X250040D01*
X247500Y-28710D01*
X244960Y-26170D01*
X242420D01*
Y-28710D01*
X244960Y-31250D01*
X242420Y-33790D01*
Y-36330D01*
Y-30080D02*
X244960D01*
X247500Y-27540D01*
X250040Y-30080D01*
X252580D01*
Y-27540D01*
X250040Y-25000D01*
X252580Y-22460D01*
Y-19920D01*
X250040D01*
X247500Y-22460D01*
X244960Y-19920D01*
X242420D01*
Y-22460D01*
X244960Y-25000D01*
X242420Y-27540D01*
Y-30080D01*
X199920Y28670D02*
X202460D01*
X205000Y31210D01*
X207540Y28670D01*
X210080D01*
Y31210D01*
X207540Y33750D01*
X210080Y36290D01*
Y38830D01*
X207540D01*
X205000Y36290D01*
X202460Y38830D01*
X199920D01*
Y36290D01*
X202460Y33750D01*
X199920Y31210D01*
Y28670D01*
Y21670D02*
X202460D01*
X205000Y24210D01*
X207540Y21670D01*
X210080D01*
Y24210D01*
X207540Y26750D01*
X210080Y29290D01*
Y31830D01*
X207540D01*
X205000Y29290D01*
X202460Y31830D01*
X199920D01*
Y29290D01*
X202460Y26750D01*
X199920Y24210D01*
Y21670D01*
X212420Y54920D02*
X214960D01*
X217500Y57460D01*
X220040Y54920D01*
X222580D01*
Y57460D01*
X220040Y60000D01*
X222580Y62540D01*
Y65080D01*
X220040D01*
X217500Y62540D01*
X214960Y65080D01*
X212420D01*
Y62540D01*
X214960Y60000D01*
X212420Y57460D01*
Y54920D01*
X148670Y31170D02*
X151210D01*
X153750Y33710D01*
X156290Y31170D01*
X158830D01*
Y33710D01*
X156290Y36250D01*
X158830Y38790D01*
Y41330D01*
X156290D01*
X153750Y38790D01*
X151210Y41330D01*
X148670D01*
Y38790D01*
X151210Y36250D01*
X148670Y33710D01*
Y31170D01*
X173670D02*
X176210D01*
X178750Y33710D01*
X181290Y31170D01*
X183830D01*
Y33710D01*
X181290Y36250D01*
X183830Y38790D01*
Y41330D01*
X181290D01*
X178750Y38790D01*
X176210Y41330D01*
X173670D01*
Y38790D01*
X176210Y36250D01*
X173670Y33710D01*
Y31170D01*
X159920Y-57580D02*
X162460D01*
X165000Y-55040D01*
X167540Y-57580D01*
X170080D01*
Y-55040D01*
X167540Y-52500D01*
X170080Y-49960D01*
Y-47420D01*
X167540D01*
X165000Y-49960D01*
X162460Y-47420D01*
X159920D01*
Y-49960D01*
X162460Y-52500D01*
X159920Y-55040D01*
Y-57580D01*
X201170Y-43830D02*
X203710D01*
X206250Y-41290D01*
X208790Y-43830D01*
X211330D01*
Y-41290D01*
X208790Y-38750D01*
X211330Y-36210D01*
Y-33670D01*
X208790D01*
X206250Y-36210D01*
X203710Y-33670D01*
X201170D01*
Y-36210D01*
X203710Y-38750D01*
X201170Y-41290D01*
Y-43830D01*
X226170Y-51330D02*
X228710D01*
X231250Y-48790D01*
X233790Y-51330D01*
X236330D01*
Y-48790D01*
X233790Y-46250D01*
X236330Y-43710D01*
Y-41170D01*
X233790D01*
X231250Y-43710D01*
X228710Y-41170D01*
X226170D01*
Y-43710D01*
X228710Y-46250D01*
X226170Y-48790D01*
Y-51330D01*
X211170Y-36330D02*
X213710D01*
X216250Y-33790D01*
X218790Y-36330D01*
X221330D01*
Y-33790D01*
X218790Y-31250D01*
X221330Y-28710D01*
Y-26170D01*
X218790D01*
X216250Y-28710D01*
X213710Y-26170D01*
X211170D01*
Y-28710D01*
X213710Y-31250D01*
X211170Y-33790D01*
Y-36330D01*
Y-58830D02*
X213710D01*
X216250Y-56290D01*
X218790Y-58830D01*
X221330D01*
Y-56290D01*
X218790Y-53750D01*
X221330Y-51210D01*
Y-48670D01*
X218790D01*
X216250Y-51210D01*
X213710Y-48670D01*
X211170D01*
Y-51210D01*
X213710Y-53750D01*
X211170Y-56290D01*
Y-58830D01*
Y-51330D02*
X213710D01*
X216250Y-48790D01*
X218790Y-51330D01*
X221330D01*
Y-48790D01*
X218790Y-46250D01*
X221330Y-43710D01*
Y-41170D01*
X218790D01*
X216250Y-43710D01*
X213710Y-41170D01*
X211170D01*
Y-43710D01*
X213710Y-46250D01*
X211170Y-48790D01*
Y-51330D01*
Y-43830D02*
X213710D01*
X216250Y-41290D01*
X218790Y-43830D01*
X221330D01*
Y-41290D01*
X218790Y-38750D01*
X221330Y-36210D01*
Y-33670D01*
X218790D01*
X216250Y-36210D01*
X213710Y-33670D01*
X211170D01*
Y-36210D01*
X213710Y-38750D01*
X211170Y-41290D01*
Y-43830D01*
X-219830Y12920D02*
X-217290D01*
X-214750Y15460D01*
X-212210Y12920D01*
X-209670D01*
Y15460D01*
X-212210Y18000D01*
X-209670Y20540D01*
Y23080D01*
X-212210D01*
X-214750Y20540D01*
X-217290Y23080D01*
X-219830D01*
Y20540D01*
X-217290Y18000D01*
X-219830Y15460D01*
Y12920D01*
Y49670D02*
X-217290D01*
X-214750Y52210D01*
X-212210Y49670D01*
X-209670D01*
Y52210D01*
X-212210Y54750D01*
X-209670Y57290D01*
Y59830D01*
X-212210D01*
X-214750Y57290D01*
X-217290Y59830D01*
X-219830D01*
Y57290D01*
X-217290Y54750D01*
X-219830Y52210D01*
Y49670D01*
X-118080Y-66580D02*
X-115540D01*
X-113000Y-64040D01*
X-110460Y-66580D01*
X-107920D01*
Y-64040D01*
X-110460Y-61500D01*
X-107920Y-58960D01*
Y-56420D01*
X-110460D01*
X-113000Y-58960D01*
X-115540Y-56420D01*
X-118080D01*
Y-58960D01*
X-115540Y-61500D01*
X-118080Y-64040D01*
Y-66580D01*
X-183830Y45670D02*
X-181290D01*
X-178750Y48210D01*
X-176210Y45670D01*
X-173670D01*
Y48210D01*
X-176210Y50750D01*
X-173670Y53290D01*
Y55830D01*
X-176210D01*
X-178750Y53290D01*
X-181290Y55830D01*
X-183830D01*
Y53290D01*
X-181290Y50750D01*
X-183830Y48210D01*
Y45670D01*
X-194380Y45594D02*
X-191840D01*
X-189300Y48134D01*
X-186760Y45594D01*
X-184220D01*
Y48134D01*
X-186760Y50674D01*
X-184220Y53214D01*
Y55754D01*
X-186760D01*
X-189300Y53214D01*
X-191840Y55754D01*
X-194380D01*
Y53214D01*
X-191840Y50674D01*
X-194380Y48134D01*
Y45594D01*
X-47330Y-15830D02*
X-44790D01*
X-42250Y-13290D01*
X-39710Y-15830D01*
X-37170D01*
Y-13290D01*
X-39710Y-10750D01*
X-37170Y-8210D01*
Y-5670D01*
X-39710D01*
X-42250Y-8210D01*
X-44790Y-5670D01*
X-47330D01*
Y-8210D01*
X-44790Y-10750D01*
X-47330Y-13290D01*
Y-15830D01*
X-136080Y-59580D02*
X-133540D01*
X-131000Y-57040D01*
X-128460Y-59580D01*
X-125920D01*
Y-57040D01*
X-128460Y-54500D01*
X-125920Y-51960D01*
Y-49420D01*
X-128460D01*
X-131000Y-51960D01*
X-133540Y-49420D01*
X-136080D01*
Y-51960D01*
X-133540Y-54500D01*
X-136080Y-57040D01*
Y-59580D01*
X122309Y-52205D02*
X124849D01*
X127389Y-49665D01*
X129929Y-52205D01*
X132469D01*
Y-49665D01*
X129929Y-47125D01*
X132469Y-44585D01*
Y-42045D01*
X129929D01*
X127389Y-44585D01*
X124849Y-42045D01*
X122309D01*
Y-44585D01*
X124849Y-47125D01*
X122309Y-49665D01*
Y-52205D01*
X105809Y-44205D02*
X108349D01*
X110889Y-41665D01*
X113429Y-44205D01*
X115969D01*
Y-41665D01*
X113429Y-39125D01*
X115969Y-36585D01*
Y-34045D01*
X113429D01*
X110889Y-36585D01*
X108349Y-34045D01*
X105809D01*
Y-36585D01*
X108349Y-39125D01*
X105809Y-41665D01*
Y-44205D01*
M02*
