M48
;Layer_Color=9474304
;FILE_FORMAT=4:4
METRIC,LZ
;TYPE=PLATED
T01F00S00C0.2000
T02F00S00C0.5000
T04F00S00C1.0000
T05F00S00C1.1000
;TYPE=NON_PLATED
T06F00S00C1.0000
T07F00S00C3.3000
%
T01
X-00209878Y-0006825
X-00183Y-000535
X-00248628Y-00017
Y00017
X-0021475Y00018
X-00131Y-000545
X-00113Y-000615
X-0004225Y-0001075
X001305Y-000145
Y-000205
Y-00005
X00138Y00025
X0017125Y-00005
X00165Y-000525
X0014475Y-0006
X00127389Y-00047125
X0013625Y-00038
X00110889Y-00039125
X0020625Y-0003875
X0021625
Y-0004625
Y-0005375
Y-0006225
X0023125Y-0004625
X0021625Y-0003125
X002145Y-00022
X002475Y-00025
Y-0003125
X00205Y0002675
Y0003375
X0024875Y00017
X00248628Y-00017
X0023225Y000425
X0022625
X0021875
X002175Y0006
X0017875Y0003625
X001625
X0015375
X0013175Y000495
X00126161Y0004625
X000785Y0004
X000155
X-000575Y0005025
X-00071902Y0004934
X-00078152Y0004934
X-00084152Y0004934
X-00090402Y0004934
X-0009Y0006725
X-00118
X-00171Y0006775
X-0017875Y0005075
X-001893Y00050674
X-0021475Y0005475
X-00209878Y0006825
T02
X-0017Y-000325
Y-00023
Y-000135
Y-000045
Y000045
Y000135
Y00023
Y000325
X-00156
Y00023
Y000135
Y000045
Y-000045
Y-000135
Y-00023
Y-000325
T04
X-00118684Y-00021463
X-00097094
X-00075504
X-00053914
X-00032324
X-00010734
X00010856
X00032446
X00054036
X00075626
X00097216
X00118806
Y00021463
X00097216
X00075626
X00054036
X00032446
X00010856
X-00010734
X-00032324
X-00053914
X-00075504
X-00097094
X-00118684
T05
X-00032Y-0005975
X-000066Y-0005975
X000188Y-0005975
X000442Y-0005975
X000696Y-0005975
X00095Y-0005975
T06
X-00266Y-00015
X-002665Y0
X-00266Y00015
X0026625Y00015
X002665Y-0
X0026625Y-00015
T07
X-00234Y-0
X00234122
M30
