G04*
G04 #@! TF.GenerationSoftware,Altium Limited,Altium Designer,25.5.2 (35)*
G04*
G04 Layer_Physical_Order=1*
G04 Layer_Color=255*
%FSLAX44Y44*%
%MOMM*%
G71*
G04*
G04 #@! TF.SameCoordinates,128D8583-6615-4204-B1AC-86CD56F38C64*
G04*
G04*
G04 #@! TF.FilePolarity,Positive*
G04*
G01*
G75*
%ADD11C,0.1500*%
%ADD20C,0.4000*%
%ADD21C,0.6000*%
%ADD22C,0.5153*%
%ADD23C,0.4000*%
%ADD24O,1.5000X2.0000*%
%ADD25O,0.8000X2.0000*%
%ADD26C,0.7000*%
G04:AMPARAMS|DCode=27|XSize=1.7mm|YSize=1.7mm|CornerRadius=0.05mm|HoleSize=0mm|Usage=FLASHONLY|Rotation=180.000|XOffset=0mm|YOffset=0mm|HoleType=Round|Shape=RoundedRectangle|*
%AMROUNDEDRECTD27*
21,1,1.7000,1.6000,0,0,180.0*
21,1,1.6000,1.7000,0,0,180.0*
1,1,0.1000,-0.8000,0.8000*
1,1,0.1000,0.8000,0.8000*
1,1,0.1000,0.8000,-0.8000*
1,1,0.1000,-0.8000,-0.8000*
%
%ADD27ROUNDEDRECTD27*%
%ADD28C,1.7000*%
%ADD29C,0.5000*%
%ADD30C,0.4500*%
D11*
X178750Y24412D02*
Y36250D01*
Y24412D02*
X221553Y-18391D01*
X137364Y-22000D02*
X214500D01*
X125651Y-33713D02*
X137364Y-22000D01*
X-55620Y60226D02*
X182523D01*
X188750Y54000D01*
X-55643Y60250D02*
X-55620Y60226D01*
X222000Y54000D02*
X225750Y50250D01*
Y50250D02*
Y50250D01*
X188750Y54000D02*
X222000D01*
X-79243Y60250D02*
X-55643D01*
X-82750Y51554D02*
Y56743D01*
X-79243Y60250D01*
X-84152Y50152D02*
X-82750Y51554D01*
X-84152Y49340D02*
Y50152D01*
X225750Y50250D02*
X232250Y43750D01*
Y42500D02*
Y43750D01*
X-56886Y57250D02*
X-56863Y57227D01*
X181281D01*
X-78000Y57250D02*
X-56886D01*
X187507Y51000D02*
X220757D01*
X181281Y57227D02*
X187507Y51000D01*
X-79750Y55500D02*
X-78000Y57250D01*
X-78152Y49340D02*
Y50121D01*
X226072Y42678D02*
X226250Y42500D01*
X220757Y51000D02*
X226072Y45686D01*
Y42678D02*
Y45686D01*
X-79750Y51719D02*
Y55500D01*
Y51719D02*
X-78152Y50121D01*
X104659Y-47744D02*
X107537Y-50622D01*
X119303D01*
X108658Y-47500D02*
X120423D01*
X105902Y-44744D02*
X108658Y-47500D01*
X119303Y-50622D02*
X123306Y-54625D01*
X216250Y-38750D02*
X221553Y-33447D01*
X44200Y-59750D02*
X59206Y-44744D01*
X120423Y-47500D02*
X124548Y-51625D01*
X107144Y-41744D02*
X109025Y-43625D01*
X118639D02*
X119639Y-42625D01*
X109025Y-43625D02*
X118639D01*
X119639Y-42625D02*
X129253D01*
X123306Y-54625D02*
X154390D01*
X208500Y-46500D02*
X216250Y-38750D01*
X154390Y-54625D02*
X162515Y-46500D01*
X129253Y-42625D02*
X130253Y-43625D01*
X124548Y-51625D02*
X153147D01*
X18800Y-59750D02*
X36806Y-41744D01*
X130253Y-43625D02*
X156904D01*
X168780Y-31750D01*
X153147Y-51625D02*
X166022Y-38750D01*
X206250D01*
X168780Y-31750D02*
X215750D01*
X109937Y-33713D02*
X125651D01*
X108437Y-35213D02*
X109937Y-33713D01*
X162515Y-46500D02*
X208500D01*
X221553Y-33447D02*
Y-18391D01*
X215750Y-31750D02*
X216250Y-31250D01*
X36806Y-41744D02*
X107144D01*
X81606Y-47744D02*
X104659D01*
X69600Y-59750D02*
X81606Y-47744D01*
X59206Y-44744D02*
X105902D01*
X-6600Y-59750D02*
X17937Y-35213D01*
X108437D01*
D20*
X-182300Y-20000D02*
Y20000D01*
X118806Y5720D02*
Y21463D01*
X113086Y-0D02*
X118806Y5720D01*
X8724Y-0D02*
X113086D01*
X-143700Y-2950D02*
X-140750Y-0D01*
X-143700Y-20000D02*
Y-2950D01*
X-149979Y-43500D02*
X-143700Y-37221D01*
Y-20000D01*
X-176021Y-43500D02*
X-149979D01*
X-182300Y-37221D02*
X-176021Y-43500D01*
X-182300Y-37221D02*
Y-20000D01*
X-143700Y2950D02*
Y20000D01*
Y2950D02*
X-140750Y-0D01*
X-24469D01*
X-24469Y-0D01*
X8724D01*
X8724Y-0D01*
D21*
X-163000Y17814D02*
Y23000D01*
Y-23000D02*
Y-17814D01*
Y23000D02*
X-156000D01*
X-170000Y-23000D02*
X-163000D01*
X-156000D01*
X-170000Y23000D02*
X-163000D01*
D22*
Y17814D02*
X-163000Y17814D01*
Y16400D02*
Y17814D01*
D23*
Y4250D02*
Y16400D01*
X-163000Y4250D02*
X-163000Y4250D01*
X-163000Y-17814D02*
Y4250D01*
D24*
X-118684Y21463D02*
D03*
X-97094D02*
D03*
X-75504D02*
D03*
X-53914D02*
D03*
X-32324D02*
D03*
X-10734D02*
D03*
X10856D02*
D03*
X32446D02*
D03*
X54036D02*
D03*
X75626D02*
D03*
X97216D02*
D03*
X118806D02*
D03*
X-118684Y-21463D02*
D03*
X-97094D02*
D03*
X-75504D02*
D03*
X-53914D02*
D03*
X-32324D02*
D03*
X-10734D02*
D03*
X10856D02*
D03*
X32446D02*
D03*
X54036D02*
D03*
X75626D02*
D03*
X97216D02*
D03*
X118806D02*
D03*
D25*
X-182300Y-20000D02*
D03*
Y20000D02*
D03*
X-143700D02*
D03*
Y-20000D02*
D03*
D26*
X-156000Y-32500D02*
D03*
Y-23000D02*
D03*
Y-13500D02*
D03*
Y-4500D02*
D03*
Y4500D02*
D03*
Y13500D02*
D03*
Y23000D02*
D03*
Y32500D02*
D03*
X-170000D02*
D03*
Y23000D02*
D03*
Y13500D02*
D03*
Y4500D02*
D03*
Y-4500D02*
D03*
Y-13500D02*
D03*
Y-23000D02*
D03*
Y-32500D02*
D03*
D27*
X95000Y-59750D02*
D03*
D28*
X-32000D02*
D03*
X69600Y-59750D02*
D03*
X44200Y-59750D02*
D03*
X18800Y-59750D02*
D03*
X-6600Y-59750D02*
D03*
D29*
X171250Y-5000D02*
D03*
D30*
X136250Y-38000D02*
D03*
X138000Y25000D02*
D03*
X130500Y-20500D02*
D03*
Y-14500D02*
D03*
Y-5000D02*
D03*
X214500Y-22000D02*
D03*
X126161Y46250D02*
D03*
X232250Y42500D02*
D03*
X-84152Y49340D02*
D03*
X226250Y42500D02*
D03*
X-78152Y49340D02*
D03*
X78500Y40000D02*
D03*
X-209878Y-68250D02*
D03*
Y68250D02*
D03*
X-248628Y17000D02*
D03*
Y-17000D02*
D03*
X248628Y-17000D02*
D03*
X248750Y17000D02*
D03*
X-171000Y67750D02*
D03*
X-90402Y49340D02*
D03*
X-71902Y49340D02*
D03*
X144750Y-60000D02*
D03*
X131750Y49500D02*
D03*
X-90000Y67250D02*
D03*
X-118000D02*
D03*
X-57500Y50250D02*
D03*
X15500Y40000D02*
D03*
X-183000Y-53500D02*
D03*
X162500Y36250D02*
D03*
X218750Y42500D02*
D03*
X216250Y-62250D02*
D03*
X247500Y-31250D02*
D03*
Y-25000D02*
D03*
X205000Y33750D02*
D03*
Y26750D02*
D03*
X217500Y60000D02*
D03*
X153750Y36250D02*
D03*
X178750D02*
D03*
X165000Y-52500D02*
D03*
X206250Y-38750D02*
D03*
X231250Y-46250D02*
D03*
X216250Y-31250D02*
D03*
Y-53750D02*
D03*
Y-46250D02*
D03*
Y-38750D02*
D03*
X-214750Y18000D02*
D03*
Y54750D02*
D03*
X-113000Y-61500D02*
D03*
X-178750Y50750D02*
D03*
X-189300Y50674D02*
D03*
X-42250Y-10750D02*
D03*
X-131000Y-54500D02*
D03*
X127389Y-47125D02*
D03*
X110889Y-39125D02*
D03*
M02*
