G04*
G04 #@! TF.GenerationSoftware,Altium Limited,Altium Designer,25.5.2 (35)*
G04*
G04 Layer_Color=8388736*
%FSLAX44Y44*%
%MOMM*%
G71*
G04*
G04 #@! TF.SameCoordinates,128D8583-6615-4204-B1AC-86CD56F38C64*
G04*
G04*
G04 #@! TF.FilePolarity,Positive*
G04*
G01*
G75*
%ADD57C,1.0000*%
D57*
X-262641Y34249D02*
G03*
X-265504Y29746I8763J-8734D01*
G01*
Y-29746D02*
G03*
X-262641Y-34249I11626J4232D01*
G01*
X262891Y-34249D02*
G03*
X265754Y-29746I-8763J8734D01*
G01*
Y29746D02*
G03*
X262891Y34249I-11626J-4232D01*
G01*
D02*
G03*
X262876Y34263I-8763J-8734D01*
G01*
X217107Y80033D02*
G03*
X213568Y81500I-3538J-3533D01*
G01*
X217104Y80035D02*
G03*
X213568Y81500I-3536J-3536D01*
G01*
X262891Y34249D02*
G03*
X262876Y34263I-3550J-3521D01*
G01*
X213568Y-81501D02*
G03*
X217107Y-80033I0J5000D01*
G01*
X213568Y-81501D02*
G03*
X217104Y-80036I0J5000D01*
G01*
X-213569Y81500D02*
G03*
X-217104Y80036I0J-5000D01*
G01*
X-213569Y81500D02*
G03*
X-217107Y80033I0J-5000D01*
G01*
X-262877Y-34264D02*
G03*
X-262867Y-34274I3536J3536D01*
G01*
X-217104Y-80036D02*
G03*
X-213569Y-81500I3536J3536D01*
G01*
X-217107Y-80033D02*
G03*
X-213569Y-81500I3538J3533D01*
G01*
X217104Y80035D02*
X217107Y80033D01*
X262876Y34263D01*
X217107Y-80033D02*
X262876Y-34264D01*
X217104Y-80036D02*
X217107Y-80033D01*
X-213569Y81500D02*
X213568Y81500D01*
X-217107Y80033D02*
X-217104Y80036D01*
X-262876Y34264D02*
X-217107Y80033D01*
X-213569Y-81500D02*
X213568Y-81501D01*
X-262876Y-34264D02*
X-262867Y-34274D01*
X-217107Y-80033D01*
X-217104Y-80036D01*
M02*
