G04*
G04 #@! TF.GenerationSoftware,Altium Limited,Altium Designer,25.5.2 (35)*
G04*
G04 Layer_Color=8388736*
%FSLAX44Y44*%
%MOMM*%
G71*
G04*
G04 #@! TF.SameCoordinates,449EA512-5FDF-437D-9D79-FEBFBDB7331F*
G04*
G04*
G04 #@! TF.FilePolarity,Negative*
G04*
G01*
G75*
%ADD12C,3.6000*%
%ADD13O,1.6000X2.1000*%
%ADD14O,0.9000X2.1000*%
%ADD15C,0.8000*%
G04:AMPARAMS|DCode=16|XSize=1.8mm|YSize=1.8mm|CornerRadius=0.1mm|HoleSize=0mm|Usage=FLASHONLY|Rotation=180.000|XOffset=0mm|YOffset=0mm|HoleType=Round|Shape=RoundedRectangle|*
%AMROUNDEDRECTD16*
21,1,1.8000,1.6000,0,0,180.0*
21,1,1.6000,1.8000,0,0,180.0*
1,1,0.2000,-0.8000,0.8000*
1,1,0.2000,0.8000,0.8000*
1,1,0.2000,0.8000,-0.8000*
1,1,0.2000,-0.8000,-0.8000*
%
%ADD16ROUNDEDRECTD16*%
%ADD17C,1.8000*%
%ADD18C,0.7032*%
D12*
X-234000Y-0D02*
D03*
X234122D02*
D03*
D13*
X-118684Y21463D02*
D03*
X-97094D02*
D03*
X-75504D02*
D03*
X-53914D02*
D03*
X-32324D02*
D03*
X-10734D02*
D03*
X10856D02*
D03*
X32446D02*
D03*
X54036D02*
D03*
X75626D02*
D03*
X97216D02*
D03*
X118806D02*
D03*
X-118684Y-21463D02*
D03*
X-97094D02*
D03*
X-75504D02*
D03*
X-53914D02*
D03*
X-32324D02*
D03*
X-10734D02*
D03*
X10856D02*
D03*
X32446D02*
D03*
X54036D02*
D03*
X75626D02*
D03*
X97216D02*
D03*
X118806D02*
D03*
D14*
X-182300Y-20000D02*
D03*
Y20000D02*
D03*
X-143700D02*
D03*
Y-20000D02*
D03*
D15*
X-156000Y-32500D02*
D03*
Y-23000D02*
D03*
Y-13500D02*
D03*
Y-4500D02*
D03*
Y4500D02*
D03*
Y13500D02*
D03*
Y23000D02*
D03*
Y32500D02*
D03*
X-170000D02*
D03*
Y23000D02*
D03*
Y13500D02*
D03*
Y4500D02*
D03*
Y-4500D02*
D03*
Y-13500D02*
D03*
Y-23000D02*
D03*
Y-32500D02*
D03*
D16*
X95000Y-59750D02*
D03*
D17*
X-32000D02*
D03*
X69600Y-59750D02*
D03*
X44200Y-59750D02*
D03*
X18800Y-59750D02*
D03*
X-6600Y-59750D02*
D03*
D18*
X171250Y-5000D02*
D03*
M02*
