G04*
G04 #@! TF.GenerationSoftware,Altium Limited,Altium Designer,25.5.2 (35)*
G04*
G04 Layer_Physical_Order=2*
G04 Layer_Color=32768*
%FSLAX44Y44*%
%MOMM*%
G71*
G04*
G04 #@! TF.SameCoordinates,449EA512-5FDF-437D-9D79-FEBFBDB7331F*
G04*
G04*
G04 #@! TF.FilePolarity,Positive*
G04*
G01*
G75*
%ADD11C,0.1500*%
%ADD24O,1.5000X2.0000*%
%ADD25O,0.8000X2.0000*%
%ADD26C,0.7000*%
G04:AMPARAMS|DCode=27|XSize=1.7mm|YSize=1.7mm|CornerRadius=0.05mm|HoleSize=0mm|Usage=FLASHONLY|Rotation=180.000|XOffset=0mm|YOffset=0mm|HoleType=Round|Shape=RoundedRectangle|*
%AMROUNDEDRECTD27*
21,1,1.7000,1.6000,0,0,180.0*
21,1,1.6000,1.7000,0,0,180.0*
1,1,0.1000,-0.8000,0.8000*
1,1,0.1000,0.8000,0.8000*
1,1,0.1000,0.8000,-0.8000*
1,1,0.1000,-0.8000,-0.8000*
%
%ADD27ROUNDEDRECTD27*%
%ADD28C,1.7000*%
%ADD29C,0.4500*%
%ADD30C,0.5000*%
G36*
X211666Y71907D02*
X235876Y47697D01*
X235026Y46425D01*
X234846Y46500D01*
X233354D01*
X231976Y45929D01*
X231100Y45053D01*
X230224Y45929D01*
X228846Y46500D01*
X227354D01*
X225976Y45929D01*
X224921Y44874D01*
X224350Y43496D01*
Y42004D01*
X224921Y40626D01*
X225976Y39571D01*
X227354Y39000D01*
X228846D01*
X230224Y39571D01*
X231100Y40447D01*
X231976Y39571D01*
X233354Y39000D01*
X234846D01*
X236224Y39571D01*
X237279Y40626D01*
X237850Y42004D01*
Y43496D01*
X237775Y43676D01*
X239047Y44526D01*
X254411Y29162D01*
X254412Y29162D01*
X259303Y24269D01*
X259303Y24269D01*
X260210Y23145D01*
X260611Y22623D01*
X261417Y20677D01*
X261678Y18694D01*
X261657Y18588D01*
Y-10000D01*
Y-18589D01*
X261678Y-18695D01*
X261417Y-20677D01*
X260611Y-22623D01*
X259394Y-24209D01*
X259303Y-24270D01*
X254662Y-28912D01*
X236445Y-47128D01*
X235000Y-46452D01*
Y-45504D01*
X234429Y-44126D01*
X233374Y-43071D01*
X231996Y-42500D01*
X230504D01*
X229126Y-43071D01*
X228071Y-44126D01*
X227500Y-45504D01*
Y-46996D01*
X228071Y-48374D01*
X229126Y-49429D01*
X230504Y-50000D01*
X231452D01*
X232128Y-51445D01*
X211666Y-71907D01*
X-211666Y-71907D01*
X-258243Y-25330D01*
X-259304Y-24270D01*
X-259304Y-24269D01*
X-260211Y-23145D01*
X-260611Y-22623D01*
X-261417Y-20677D01*
X-261678Y-18695D01*
X-261657Y-18588D01*
Y-10000D01*
Y18588D01*
X-261678Y18695D01*
X-261417Y20677D01*
X-260611Y22623D01*
X-259394Y24209D01*
X-259304Y24269D01*
X-211666Y71907D01*
X211666Y71907D01*
D02*
G37*
%LPC*%
G36*
X-77491Y52750D02*
X-78983D01*
X-80361Y52179D01*
X-81237Y51303D01*
X-82113Y52179D01*
X-83491Y52750D01*
X-84983D01*
X-86361Y52179D01*
X-87416Y51124D01*
X-87987Y49746D01*
Y48254D01*
X-87416Y46876D01*
X-86361Y45821D01*
X-84983Y45250D01*
X-83491D01*
X-82113Y45821D01*
X-81237Y46697D01*
X-80361Y45821D01*
X-78983Y45250D01*
X-77491D01*
X-76113Y45821D01*
X-75058Y46876D01*
X-74487Y48254D01*
Y49746D01*
X-75058Y51124D01*
X-76113Y52179D01*
X-77491Y52750D01*
D02*
G37*
G36*
X126907Y50000D02*
X125415D01*
X124037Y49429D01*
X122982Y48374D01*
X122411Y46996D01*
Y45504D01*
X122982Y44126D01*
X124037Y43071D01*
X125415Y42500D01*
X126907D01*
X128285Y43071D01*
X129340Y44126D01*
X129911Y45504D01*
Y46996D01*
X129340Y48374D01*
X128285Y49429D01*
X126907Y50000D01*
D02*
G37*
G36*
X163246Y40000D02*
X161754D01*
X160376Y39429D01*
X159321Y38374D01*
X158886Y37324D01*
X157364D01*
X156929Y38374D01*
X155874Y39429D01*
X154496Y40000D01*
X153004D01*
X151626Y39429D01*
X150571Y38374D01*
X150000Y36996D01*
Y35504D01*
X150571Y34126D01*
X151626Y33071D01*
X153004Y32500D01*
X154496D01*
X155874Y33071D01*
X156929Y34126D01*
X157364Y35176D01*
X158886D01*
X159321Y34126D01*
X160376Y33071D01*
X161754Y32500D01*
X163246D01*
X164624Y33071D01*
X165679Y34126D01*
X166250Y35504D01*
Y36996D01*
X165679Y38374D01*
X164624Y39429D01*
X163246Y40000D01*
D02*
G37*
G36*
X179496D02*
X178004D01*
X176626Y39429D01*
X175571Y38374D01*
X175000Y36996D01*
Y35504D01*
X175571Y34126D01*
X176626Y33071D01*
X178004Y32500D01*
X179496D01*
X180874Y33071D01*
X181929Y34126D01*
X182500Y35504D01*
Y36996D01*
X181929Y38374D01*
X180874Y39429D01*
X179496Y40000D01*
D02*
G37*
G36*
X-178004Y54500D02*
X-179496D01*
X-180874Y53929D01*
X-181929Y52874D01*
X-182500Y51496D01*
Y50004D01*
X-181929Y48626D01*
X-180874Y47571D01*
X-179496Y47000D01*
X-178244D01*
X-168872Y37628D01*
X-168128Y37131D01*
X-167250Y36956D01*
X-143698D01*
X-139646Y32905D01*
X-140422Y31678D01*
X-142003Y32333D01*
X-143700Y32556D01*
X-145397Y32333D01*
X-146978Y31678D01*
X-148336Y30636D01*
X-149378Y29278D01*
X-150033Y27697D01*
X-150256Y26000D01*
X-151756Y25820D01*
X-151761Y25832D01*
X-153168Y27239D01*
X-155005Y28000D01*
X-156995D01*
X-158832Y27239D01*
X-160239Y25832D01*
X-161000Y23995D01*
Y22005D01*
X-160239Y20168D01*
X-159257Y19186D01*
X-158982Y18250D01*
X-159257Y17314D01*
X-160239Y16332D01*
X-161000Y14495D01*
Y12505D01*
X-160239Y10668D01*
X-159551Y9980D01*
X-158984Y9000D01*
X-159551Y8020D01*
X-160239Y7332D01*
X-161000Y5495D01*
Y3505D01*
X-160239Y1668D01*
X-159551Y980D01*
X-158984Y0D01*
X-159551Y-980D01*
X-160239Y-1668D01*
X-161000Y-3505D01*
Y-5495D01*
X-160239Y-7332D01*
X-159551Y-8020D01*
X-158984Y-9000D01*
X-159551Y-9980D01*
X-160239Y-10668D01*
X-161000Y-12505D01*
Y-14495D01*
X-160239Y-16332D01*
X-159257Y-17314D01*
X-158982Y-18250D01*
X-159257Y-19186D01*
X-160239Y-20168D01*
X-161000Y-22005D01*
Y-23995D01*
X-160239Y-25832D01*
X-158832Y-27239D01*
X-156995Y-28000D01*
X-155005D01*
X-153168Y-27239D01*
X-151761Y-25832D01*
X-151756Y-25820D01*
X-150256Y-26000D01*
X-150033Y-27697D01*
X-149378Y-29278D01*
X-148336Y-30636D01*
X-146978Y-31678D01*
X-145397Y-32333D01*
X-143700Y-32556D01*
X-142003Y-32333D01*
X-140422Y-31678D01*
X-139064Y-30636D01*
X-138022Y-29278D01*
X-137367Y-27697D01*
X-137144Y-26000D01*
Y-14000D01*
X-137367Y-12303D01*
X-138022Y-10722D01*
X-139064Y-9364D01*
X-140422Y-8322D01*
X-142003Y-7667D01*
X-143700Y-7444D01*
X-143707Y-7445D01*
X-144407Y-6024D01*
X-131328Y7055D01*
X-130831Y7799D01*
X-130656Y8677D01*
X-130656Y8677D01*
Y29453D01*
X-130656Y29453D01*
X-130831Y30331D01*
X-131328Y31075D01*
X-131328Y31075D01*
X-141125Y40872D01*
X-141869Y41369D01*
X-142747Y41544D01*
X-166300D01*
X-175000Y50244D01*
Y51496D01*
X-175571Y52874D01*
X-176626Y53929D01*
X-178004Y54500D01*
D02*
G37*
G36*
X205746Y37500D02*
X204254D01*
X202876Y36929D01*
X201821Y35874D01*
X201250Y34496D01*
Y33004D01*
X201821Y31626D01*
X202217Y31230D01*
X202713Y30250D01*
X202217Y29270D01*
X201821Y28874D01*
X201250Y27496D01*
Y26004D01*
X201821Y24626D01*
X202876Y23571D01*
X204254Y23000D01*
X205746D01*
X207124Y23571D01*
X208179Y24626D01*
X208750Y26004D01*
Y27496D01*
X208179Y28874D01*
X207783Y29270D01*
X207287Y30250D01*
X207783Y31230D01*
X208179Y31626D01*
X208750Y33004D01*
Y34496D01*
X208179Y35874D01*
X207124Y36929D01*
X205746Y37500D01*
D02*
G37*
G36*
X138746Y28750D02*
X137254D01*
X135876Y28179D01*
X134821Y27124D01*
X134250Y25746D01*
Y24254D01*
X134821Y22876D01*
X135876Y21821D01*
X137254Y21250D01*
X138746D01*
X140124Y21821D01*
X141179Y22876D01*
X141750Y24254D01*
Y25746D01*
X141179Y27124D01*
X140124Y28179D01*
X138746Y28750D01*
D02*
G37*
G36*
X97216Y33040D02*
X94867Y32731D01*
X92677Y31824D01*
X90797Y30382D01*
X89354Y28502D01*
X88448Y26312D01*
X88138Y23963D01*
Y18963D01*
X88448Y16613D01*
X89354Y14424D01*
X90797Y12544D01*
X92677Y11101D01*
X94867Y10195D01*
X97216Y9885D01*
X99565Y10195D01*
X101755Y11101D01*
X103635Y12544D01*
X105077Y14424D01*
X105984Y16613D01*
X106294Y18963D01*
Y23963D01*
X105984Y26312D01*
X105077Y28502D01*
X103635Y30382D01*
X101755Y31824D01*
X99565Y32731D01*
X97216Y33040D01*
D02*
G37*
G36*
X75626D02*
X73277Y32731D01*
X71087Y31824D01*
X69207Y30382D01*
X67765Y28502D01*
X66858Y26312D01*
X66548Y23963D01*
Y18963D01*
X66858Y16613D01*
X67765Y14424D01*
X69207Y12544D01*
X71087Y11101D01*
X73277Y10195D01*
X75626Y9885D01*
X77975Y10195D01*
X80165Y11101D01*
X82045Y12544D01*
X83487Y14424D01*
X84394Y16613D01*
X84704Y18963D01*
Y23963D01*
X84394Y26312D01*
X83487Y28502D01*
X82045Y30382D01*
X80165Y31824D01*
X77975Y32731D01*
X75626Y33040D01*
D02*
G37*
G36*
X54036D02*
X51687Y32731D01*
X49497Y31824D01*
X47617Y30382D01*
X46175Y28502D01*
X45268Y26312D01*
X44958Y23963D01*
Y18963D01*
X45268Y16613D01*
X46175Y14424D01*
X47617Y12544D01*
X49497Y11101D01*
X51687Y10195D01*
X54036Y9885D01*
X56385Y10195D01*
X58575Y11101D01*
X60455Y12544D01*
X61897Y14424D01*
X62804Y16613D01*
X63114Y18963D01*
Y23963D01*
X62804Y26312D01*
X61897Y28502D01*
X60455Y30382D01*
X58575Y31824D01*
X56385Y32731D01*
X54036Y33040D01*
D02*
G37*
G36*
X32446D02*
X30096Y32731D01*
X27907Y31824D01*
X26027Y30382D01*
X24585Y28502D01*
X23678Y26312D01*
X23368Y23963D01*
Y18963D01*
X23678Y16613D01*
X24585Y14424D01*
X26027Y12544D01*
X27907Y11101D01*
X30096Y10195D01*
X32446Y9885D01*
X34795Y10195D01*
X36985Y11101D01*
X38865Y12544D01*
X40307Y14424D01*
X41214Y16613D01*
X41524Y18963D01*
Y23963D01*
X41214Y26312D01*
X40307Y28502D01*
X38865Y30382D01*
X36985Y31824D01*
X34795Y32731D01*
X32446Y33040D01*
D02*
G37*
G36*
X10856D02*
X8507Y32731D01*
X6317Y31824D01*
X4437Y30382D01*
X2995Y28502D01*
X2088Y26312D01*
X1778Y23963D01*
Y18963D01*
X2088Y16613D01*
X2995Y14424D01*
X4437Y12544D01*
X6317Y11101D01*
X8507Y10195D01*
X10856Y9885D01*
X13205Y10195D01*
X15395Y11101D01*
X17275Y12544D01*
X18717Y14424D01*
X19624Y16613D01*
X19934Y18963D01*
Y23963D01*
X19624Y26312D01*
X18717Y28502D01*
X17275Y30382D01*
X15395Y31824D01*
X13205Y32731D01*
X10856Y33040D01*
D02*
G37*
G36*
X-10734D02*
X-13083Y32731D01*
X-15273Y31824D01*
X-17153Y30382D01*
X-18595Y28502D01*
X-19502Y26312D01*
X-19812Y23963D01*
Y18963D01*
X-19502Y16613D01*
X-18595Y14424D01*
X-17153Y12544D01*
X-15273Y11101D01*
X-13083Y10195D01*
X-10734Y9885D01*
X-8385Y10195D01*
X-6195Y11101D01*
X-4315Y12544D01*
X-2873Y14424D01*
X-1966Y16613D01*
X-1656Y18963D01*
Y23963D01*
X-1966Y26312D01*
X-2873Y28502D01*
X-4315Y30382D01*
X-6195Y31824D01*
X-8385Y32731D01*
X-10734Y33040D01*
D02*
G37*
G36*
X-32324D02*
X-34674Y32731D01*
X-36863Y31824D01*
X-38743Y30382D01*
X-40185Y28502D01*
X-41092Y26312D01*
X-41402Y23963D01*
Y18963D01*
X-41092Y16613D01*
X-40185Y14424D01*
X-38743Y12544D01*
X-36863Y11101D01*
X-34674Y10195D01*
X-32324Y9885D01*
X-29975Y10195D01*
X-27785Y11101D01*
X-25905Y12544D01*
X-24463Y14424D01*
X-23556Y16613D01*
X-23246Y18963D01*
Y23963D01*
X-23556Y26312D01*
X-24463Y28502D01*
X-25905Y30382D01*
X-27785Y31824D01*
X-29975Y32731D01*
X-32324Y33040D01*
D02*
G37*
G36*
X-53914D02*
X-56263Y32731D01*
X-58453Y31824D01*
X-60333Y30382D01*
X-61775Y28502D01*
X-62682Y26312D01*
X-62992Y23963D01*
Y18963D01*
X-62682Y16613D01*
X-61775Y14424D01*
X-60333Y12544D01*
X-58453Y11101D01*
X-56263Y10195D01*
X-53914Y9885D01*
X-51565Y10195D01*
X-49375Y11101D01*
X-47495Y12544D01*
X-46053Y14424D01*
X-45146Y16613D01*
X-44836Y18963D01*
Y23963D01*
X-45146Y26312D01*
X-46053Y28502D01*
X-47495Y30382D01*
X-49375Y31824D01*
X-51565Y32731D01*
X-53914Y33040D01*
D02*
G37*
G36*
X-75504D02*
X-77853Y32731D01*
X-80043Y31824D01*
X-81923Y30382D01*
X-83365Y28502D01*
X-84272Y26312D01*
X-84582Y23963D01*
Y18963D01*
X-84272Y16613D01*
X-83365Y14424D01*
X-81923Y12544D01*
X-80043Y11101D01*
X-77853Y10195D01*
X-75504Y9885D01*
X-73155Y10195D01*
X-70965Y11101D01*
X-69085Y12544D01*
X-67643Y14424D01*
X-66736Y16613D01*
X-66426Y18963D01*
Y23963D01*
X-66736Y26312D01*
X-67643Y28502D01*
X-69085Y30382D01*
X-70965Y31824D01*
X-73155Y32731D01*
X-75504Y33040D01*
D02*
G37*
G36*
X-97094D02*
X-99444Y32731D01*
X-101633Y31824D01*
X-103513Y30382D01*
X-104956Y28502D01*
X-105862Y26312D01*
X-106172Y23963D01*
Y18963D01*
X-105862Y16613D01*
X-104956Y14424D01*
X-103513Y12544D01*
X-101633Y11101D01*
X-99444Y10195D01*
X-97094Y9885D01*
X-94745Y10195D01*
X-92555Y11101D01*
X-90675Y12544D01*
X-89233Y14424D01*
X-88326Y16613D01*
X-88016Y18963D01*
Y23963D01*
X-88326Y26312D01*
X-89233Y28502D01*
X-90675Y30382D01*
X-92555Y31824D01*
X-94745Y32731D01*
X-97094Y33040D01*
D02*
G37*
G36*
X-118684D02*
X-121033Y32731D01*
X-123223Y31824D01*
X-125103Y30382D01*
X-126545Y28502D01*
X-127452Y26312D01*
X-127762Y23963D01*
Y18963D01*
X-127452Y16613D01*
X-126545Y14424D01*
X-125103Y12544D01*
X-123223Y11101D01*
X-121033Y10195D01*
X-118684Y9885D01*
X-116335Y10195D01*
X-114145Y11101D01*
X-112265Y12544D01*
X-110823Y14424D01*
X-109916Y16613D01*
X-109606Y18963D01*
Y23963D01*
X-109916Y26312D01*
X-110823Y28502D01*
X-112265Y30382D01*
X-114145Y31824D01*
X-116335Y32731D01*
X-118684Y33040D01*
D02*
G37*
G36*
X118806Y34049D02*
X116195Y33705D01*
X113763Y32698D01*
X111674Y31095D01*
X110071Y29006D01*
X109063Y26573D01*
X108720Y23963D01*
Y18963D01*
X109063Y16352D01*
X110071Y13920D01*
X111674Y11831D01*
X113763Y10228D01*
X116195Y9220D01*
X118806Y8877D01*
X121417Y9220D01*
X123849Y10228D01*
X125938Y11831D01*
X127541Y13920D01*
X128548Y16352D01*
X128892Y18963D01*
Y23963D01*
X128548Y26573D01*
X127541Y29006D01*
X125938Y31095D01*
X123849Y32698D01*
X121417Y33705D01*
X118806Y34049D01*
D02*
G37*
G36*
X131246Y-1250D02*
X129754D01*
X128376Y-1821D01*
X127321Y-2876D01*
X126750Y-4254D01*
Y-5746D01*
X127321Y-7124D01*
X128376Y-8179D01*
X129754Y-8750D01*
X131246D01*
X132624Y-8179D01*
X133679Y-7124D01*
X134250Y-5746D01*
Y-4254D01*
X133679Y-2876D01*
X132624Y-1821D01*
X131246Y-1250D01*
D02*
G37*
G36*
X-188554Y54424D02*
X-190046D01*
X-191424Y53853D01*
X-192479Y52798D01*
X-193050Y51420D01*
Y49928D01*
X-192883Y49524D01*
X-193028Y49378D01*
X-193526Y48634D01*
X-193700Y47756D01*
Y11228D01*
X-193526Y10350D01*
X-193028Y9606D01*
X-187694Y4272D01*
X-186950Y3774D01*
X-186072Y3600D01*
X-178528D01*
X-177650Y3774D01*
X-176906Y4272D01*
X-176500Y4678D01*
X-175000Y4056D01*
Y3505D01*
X-174239Y1668D01*
X-173551Y980D01*
X-172984Y0D01*
X-173551Y-980D01*
X-174239Y-1668D01*
X-175000Y-3505D01*
Y-5495D01*
X-174239Y-7332D01*
X-173551Y-8020D01*
X-172984Y-9000D01*
X-173551Y-9980D01*
X-174239Y-10668D01*
X-174630Y-11612D01*
X-176254Y-11612D01*
X-176622Y-10722D01*
X-177664Y-9364D01*
X-179022Y-8322D01*
X-180603Y-7667D01*
X-182300Y-7444D01*
X-183997Y-7667D01*
X-185578Y-8322D01*
X-186936Y-9364D01*
X-187978Y-10722D01*
X-188633Y-12303D01*
X-188856Y-14000D01*
Y-26000D01*
X-188633Y-27697D01*
X-187978Y-29278D01*
X-186936Y-30636D01*
X-185578Y-31678D01*
X-183997Y-32333D01*
X-182300Y-32556D01*
X-180603Y-32333D01*
X-179022Y-31678D01*
X-177664Y-30636D01*
X-176622Y-29278D01*
X-175967Y-27697D01*
X-175744Y-26000D01*
X-174244Y-25820D01*
X-174239Y-25832D01*
X-172832Y-27239D01*
X-170995Y-28000D01*
X-169006D01*
X-167168Y-27239D01*
X-165761Y-25832D01*
X-165000Y-23995D01*
Y-22005D01*
X-165761Y-20168D01*
X-166743Y-19186D01*
X-167018Y-18250D01*
X-166743Y-17314D01*
X-165761Y-16332D01*
X-165000Y-14495D01*
Y-12505D01*
X-165761Y-10668D01*
X-166449Y-9980D01*
X-167017Y-9000D01*
X-166449Y-8020D01*
X-165761Y-7332D01*
X-165000Y-5495D01*
Y-3505D01*
X-165761Y-1668D01*
X-166449Y-980D01*
X-167017Y0D01*
X-166449Y980D01*
X-165761Y1668D01*
X-165000Y3505D01*
Y5495D01*
X-165761Y7332D01*
X-166449Y8020D01*
X-167017Y9000D01*
X-166449Y9980D01*
X-165761Y10668D01*
X-165000Y12505D01*
Y14495D01*
X-165761Y16332D01*
X-166743Y17314D01*
X-167018Y18250D01*
X-166743Y19186D01*
X-165761Y20168D01*
X-165000Y22005D01*
Y23995D01*
X-165761Y25832D01*
X-167168Y27239D01*
X-169006Y28000D01*
X-170995D01*
X-172832Y27239D01*
X-174239Y25832D01*
X-174244Y25820D01*
X-175744Y26000D01*
X-175967Y27697D01*
X-176622Y29278D01*
X-177664Y30636D01*
X-179022Y31678D01*
X-180603Y32333D01*
X-182300Y32556D01*
X-183997Y32333D01*
X-185578Y31678D01*
X-186936Y30636D01*
X-187612Y29754D01*
X-189112Y30264D01*
Y46805D01*
X-188994Y46924D01*
X-188554D01*
X-187176Y47495D01*
X-186121Y48549D01*
X-185550Y49928D01*
Y51420D01*
X-186121Y52798D01*
X-187176Y53853D01*
X-188554Y54424D01*
D02*
G37*
G36*
X-41504Y-7000D02*
X-42996D01*
X-44374Y-7571D01*
X-45429Y-8626D01*
X-46000Y-10004D01*
Y-11496D01*
X-45520Y-12654D01*
X-46831Y-13410D01*
X-47495Y-12544D01*
X-49375Y-11102D01*
X-51565Y-10195D01*
X-53914Y-9886D01*
X-56263Y-10195D01*
X-58453Y-11102D01*
X-60333Y-12544D01*
X-61775Y-14424D01*
X-62682Y-16614D01*
X-62992Y-18963D01*
Y-23963D01*
X-62682Y-26313D01*
X-61775Y-28502D01*
X-60333Y-30382D01*
X-58453Y-31825D01*
X-56263Y-32731D01*
X-53914Y-33041D01*
X-51565Y-32731D01*
X-49375Y-31825D01*
X-47495Y-30382D01*
X-46053Y-28502D01*
X-45146Y-26313D01*
X-44836Y-23963D01*
Y-18963D01*
X-45146Y-16614D01*
X-45963Y-14641D01*
X-46052Y-14424D01*
X-46058Y-14366D01*
X-44847Y-13456D01*
X-44374Y-13929D01*
X-42996Y-14500D01*
X-41841D01*
X-41045Y-15314D01*
X-40762Y-15816D01*
X-41092Y-16614D01*
X-41402Y-18963D01*
Y-23963D01*
X-41092Y-26313D01*
X-40185Y-28502D01*
X-38743Y-30382D01*
X-36863Y-31825D01*
X-34674Y-32731D01*
X-32324Y-33041D01*
X-29975Y-32731D01*
X-27785Y-31825D01*
X-25905Y-30382D01*
X-24463Y-28502D01*
X-23556Y-26313D01*
X-23246Y-23963D01*
Y-18963D01*
X-23556Y-16614D01*
X-24463Y-14424D01*
X-25905Y-12544D01*
X-27785Y-11102D01*
X-29975Y-10195D01*
X-32324Y-9886D01*
X-34674Y-10195D01*
X-36863Y-11102D01*
X-37000Y-11207D01*
X-38500Y-10467D01*
Y-10004D01*
X-39071Y-8626D01*
X-40126Y-7571D01*
X-41504Y-7000D01*
D02*
G37*
G36*
X236042Y19500D02*
X232201D01*
X228434Y18750D01*
X224885Y17281D01*
X221691Y15146D01*
X218975Y12430D01*
X216841Y9237D01*
X215371Y5688D01*
X214622Y1920D01*
Y-1921D01*
X215371Y-5688D01*
X216841Y-9237D01*
X218975Y-12431D01*
X221691Y-15147D01*
X224885Y-17281D01*
X228434Y-18751D01*
X232201Y-19500D01*
X236042D01*
X239810Y-18751D01*
X243359Y-17281D01*
X246553Y-15147D01*
X249269Y-12431D01*
X251403Y-9237D01*
X252873Y-5688D01*
X253622Y-1921D01*
Y1920D01*
X252873Y5688D01*
X251403Y9237D01*
X249269Y12430D01*
X246553Y15146D01*
X243359Y17281D01*
X239810Y18750D01*
X236042Y19500D01*
D02*
G37*
G36*
X-232080D02*
X-235921D01*
X-239688Y18750D01*
X-243237Y17281D01*
X-246431Y15146D01*
X-249147Y12430D01*
X-251281Y9237D01*
X-252751Y5688D01*
X-253500Y1920D01*
Y-1921D01*
X-252751Y-5688D01*
X-251281Y-9237D01*
X-249147Y-12431D01*
X-246431Y-15147D01*
X-243237Y-17281D01*
X-239688Y-18751D01*
X-235921Y-19500D01*
X-232080D01*
X-228312Y-18751D01*
X-224763Y-17281D01*
X-221569Y-15147D01*
X-218853Y-12431D01*
X-216719Y-9237D01*
X-215249Y-5688D01*
X-214500Y-1921D01*
Y1920D01*
X-215249Y5688D01*
X-216719Y9237D01*
X-218853Y12430D01*
X-221569Y15146D01*
X-224763Y17281D01*
X-228312Y18750D01*
X-232080Y19500D01*
D02*
G37*
G36*
X131246Y-10750D02*
X129754D01*
X128376Y-11321D01*
X127321Y-12376D01*
X126750Y-13754D01*
Y-15246D01*
X127321Y-16624D01*
X128197Y-17500D01*
X127321Y-18376D01*
X126750Y-19754D01*
Y-21246D01*
X127321Y-22624D01*
X128376Y-23679D01*
X129754Y-24250D01*
X131246D01*
X132624Y-23679D01*
X133679Y-22624D01*
X134250Y-21246D01*
Y-19754D01*
X133679Y-18376D01*
X132803Y-17500D01*
X133679Y-16624D01*
X134250Y-15246D01*
Y-13754D01*
X133679Y-12376D01*
X132624Y-11321D01*
X131246Y-10750D01*
D02*
G37*
G36*
X215246Y-18250D02*
X213754D01*
X212376Y-18821D01*
X211321Y-19876D01*
X210750Y-21254D01*
Y-22746D01*
X211321Y-24124D01*
X212376Y-25179D01*
X213754Y-25750D01*
X215246D01*
X216624Y-25179D01*
X217679Y-24124D01*
X218250Y-22746D01*
Y-21254D01*
X217679Y-19876D01*
X216624Y-18821D01*
X215246Y-18250D01*
D02*
G37*
G36*
X-75504Y-9886D02*
X-77853Y-10195D01*
X-80043Y-11102D01*
X-81923Y-12544D01*
X-83365Y-14424D01*
X-84272Y-16614D01*
X-84582Y-18963D01*
Y-23963D01*
X-84272Y-26313D01*
X-83365Y-28502D01*
X-81923Y-30382D01*
X-80043Y-31825D01*
X-77853Y-32731D01*
X-75504Y-33041D01*
X-73155Y-32731D01*
X-70965Y-31825D01*
X-69085Y-30382D01*
X-67643Y-28502D01*
X-66736Y-26313D01*
X-66426Y-23963D01*
Y-18963D01*
X-66736Y-16614D01*
X-67643Y-14424D01*
X-69085Y-12544D01*
X-70965Y-11102D01*
X-73155Y-10195D01*
X-75504Y-9886D01*
D02*
G37*
G36*
X-97094D02*
X-99444Y-10195D01*
X-101633Y-11102D01*
X-103513Y-12544D01*
X-104956Y-14424D01*
X-105862Y-16614D01*
X-106172Y-18963D01*
Y-23963D01*
X-105862Y-26313D01*
X-104956Y-28502D01*
X-103513Y-30382D01*
X-101633Y-31825D01*
X-99444Y-32731D01*
X-97094Y-33041D01*
X-94745Y-32731D01*
X-92555Y-31825D01*
X-90675Y-30382D01*
X-89233Y-28502D01*
X-88326Y-26313D01*
X-88016Y-23963D01*
Y-18963D01*
X-88326Y-16614D01*
X-89233Y-14424D01*
X-90675Y-12544D01*
X-92555Y-11102D01*
X-94745Y-10195D01*
X-97094Y-9886D01*
D02*
G37*
G36*
X-118684D02*
X-121033Y-10195D01*
X-123223Y-11102D01*
X-125103Y-12544D01*
X-126545Y-14424D01*
X-127452Y-16614D01*
X-127762Y-18963D01*
Y-23963D01*
X-127452Y-26313D01*
X-126545Y-28502D01*
X-125103Y-30382D01*
X-123223Y-31825D01*
X-121033Y-32731D01*
X-118684Y-33041D01*
X-116335Y-32731D01*
X-114145Y-31825D01*
X-112265Y-30382D01*
X-110823Y-28502D01*
X-109916Y-26313D01*
X-109606Y-23963D01*
Y-18963D01*
X-109916Y-16614D01*
X-110823Y-14424D01*
X-112265Y-12544D01*
X-114145Y-11102D01*
X-116335Y-10195D01*
X-118684Y-9886D01*
D02*
G37*
G36*
X136996Y-34250D02*
X135504D01*
X134126Y-34821D01*
X133071Y-35876D01*
X132500Y-37254D01*
Y-38746D01*
X133071Y-40124D01*
X134126Y-41179D01*
X135504Y-41750D01*
X136996D01*
X138374Y-41179D01*
X139429Y-40124D01*
X140000Y-38746D01*
Y-37254D01*
X139429Y-35876D01*
X138374Y-34821D01*
X136996Y-34250D01*
D02*
G37*
G36*
X206996Y-35000D02*
X205504D01*
X204126Y-35571D01*
X203071Y-36626D01*
X202500Y-38004D01*
Y-39496D01*
X203071Y-40874D01*
X204126Y-41929D01*
X205504Y-42500D01*
X206996D01*
X208374Y-41929D01*
X209429Y-40874D01*
X210000Y-39496D01*
Y-38004D01*
X209429Y-36626D01*
X208374Y-35571D01*
X206996Y-35000D01*
D02*
G37*
G36*
X216996Y-27500D02*
X215504D01*
X214126Y-28071D01*
X213071Y-29126D01*
X212500Y-30504D01*
Y-31996D01*
X213071Y-33374D01*
X213785Y-34088D01*
X213995Y-35000D01*
X213785Y-35912D01*
X213071Y-36626D01*
X212500Y-38004D01*
Y-39496D01*
X213071Y-40874D01*
X213785Y-41588D01*
X213995Y-42500D01*
X213785Y-43412D01*
X213071Y-44126D01*
X212500Y-45504D01*
Y-46996D01*
X213071Y-48374D01*
X214126Y-49429D01*
X215504Y-50000D01*
X216996D01*
X218374Y-49429D01*
X219429Y-48374D01*
X220000Y-46996D01*
Y-45504D01*
X219429Y-44126D01*
X218715Y-43412D01*
X218505Y-42500D01*
X218715Y-41588D01*
X219429Y-40874D01*
X220000Y-39496D01*
Y-38004D01*
X219429Y-36626D01*
X218715Y-35912D01*
X218505Y-35000D01*
X218715Y-34088D01*
X219429Y-33374D01*
X220000Y-31996D01*
Y-30504D01*
X219429Y-29126D01*
X218374Y-28071D01*
X216996Y-27500D01*
D02*
G37*
G36*
X128135Y-43375D02*
X126643D01*
X125265Y-43946D01*
X124210Y-45001D01*
X123639Y-46379D01*
Y-47871D01*
X124210Y-49249D01*
X125265Y-50304D01*
X126643Y-50875D01*
X128135D01*
X129513Y-50304D01*
X130568Y-49249D01*
X131139Y-47871D01*
Y-46379D01*
X130568Y-45001D01*
X129513Y-43946D01*
X128135Y-43375D01*
D02*
G37*
G36*
X-130254Y-50750D02*
X-131746D01*
X-133124Y-51321D01*
X-134179Y-52376D01*
X-134750Y-53754D01*
Y-55246D01*
X-134179Y-56624D01*
X-133124Y-57679D01*
X-131746Y-58250D01*
X-130254D01*
X-128876Y-57679D01*
X-127821Y-56624D01*
X-127250Y-55246D01*
Y-53754D01*
X-127821Y-52376D01*
X-128876Y-51321D01*
X-130254Y-50750D01*
D02*
G37*
G36*
X145496Y-56250D02*
X144004D01*
X142626Y-56821D01*
X141571Y-57876D01*
X141000Y-59254D01*
Y-60746D01*
X141571Y-62124D01*
X142626Y-63179D01*
X144004Y-63750D01*
X145496D01*
X146874Y-63179D01*
X147929Y-62124D01*
X148500Y-60746D01*
Y-59254D01*
X147929Y-57876D01*
X146874Y-56821D01*
X145496Y-56250D01*
D02*
G37*
G36*
X45516Y-49750D02*
X42883D01*
X40340Y-50431D01*
X38060Y-51748D01*
X36198Y-53610D01*
X34881Y-55890D01*
X34200Y-58433D01*
Y-61066D01*
X34881Y-63610D01*
X36198Y-65890D01*
X38060Y-67752D01*
X40340Y-69068D01*
X42883Y-69750D01*
X45516D01*
X48060Y-69068D01*
X50340Y-67752D01*
X52202Y-65890D01*
X53518Y-63610D01*
X54200Y-61066D01*
Y-58433D01*
X53518Y-55890D01*
X52202Y-53610D01*
X50340Y-51748D01*
X48060Y-50431D01*
X45516Y-49750D01*
D02*
G37*
G36*
X70917Y-49750D02*
X68283D01*
X65740Y-50431D01*
X63460Y-51748D01*
X61598Y-53610D01*
X60282Y-55890D01*
X59600Y-58433D01*
Y-61066D01*
X60282Y-63610D01*
X61598Y-65890D01*
X63460Y-67752D01*
X65740Y-69068D01*
X68283Y-69750D01*
X70917D01*
X73460Y-69068D01*
X75740Y-67752D01*
X77602Y-65890D01*
X78918Y-63610D01*
X79600Y-61066D01*
Y-58433D01*
X78918Y-55890D01*
X77602Y-53610D01*
X75740Y-51748D01*
X73460Y-50431D01*
X70917Y-49750D01*
D02*
G37*
G36*
X-5283D02*
X-7917D01*
X-10460Y-50431D01*
X-12740Y-51748D01*
X-14602Y-53610D01*
X-15919Y-55890D01*
X-16600Y-58433D01*
Y-61066D01*
X-15919Y-63610D01*
X-14602Y-65890D01*
X-12740Y-67752D01*
X-10460Y-69068D01*
X-7917Y-69750D01*
X-5283D01*
X-2740Y-69068D01*
X-460Y-67752D01*
X1402Y-65890D01*
X2718Y-63610D01*
X3400Y-61066D01*
Y-58433D01*
X2718Y-55890D01*
X1402Y-53610D01*
X-460Y-51748D01*
X-2740Y-50431D01*
X-5283Y-49750D01*
D02*
G37*
G36*
X20117Y-49750D02*
X17484D01*
X14940Y-50431D01*
X12660Y-51748D01*
X10798Y-53610D01*
X9481Y-55890D01*
X8800Y-58433D01*
Y-61067D01*
X9481Y-63610D01*
X10798Y-65890D01*
X12660Y-67752D01*
X14940Y-69068D01*
X17484Y-69750D01*
X20117D01*
X22660Y-69068D01*
X24940Y-67752D01*
X26802Y-65890D01*
X28119Y-63610D01*
X28800Y-61067D01*
Y-58433D01*
X28119Y-55890D01*
X26802Y-53610D01*
X24940Y-51748D01*
X22660Y-50431D01*
X20117Y-49750D01*
D02*
G37*
G36*
X103000Y-49711D02*
X87000D01*
X86220Y-49866D01*
X85558Y-50308D01*
X85116Y-50970D01*
X84961Y-51750D01*
Y-67750D01*
X85116Y-68530D01*
X85558Y-69192D01*
X86220Y-69634D01*
X87000Y-69789D01*
X103000D01*
X103780Y-69634D01*
X104442Y-69192D01*
X104884Y-68530D01*
X105039Y-67750D01*
Y-51750D01*
X104884Y-50970D01*
X104442Y-50308D01*
X103780Y-49866D01*
X103000Y-49711D01*
D02*
G37*
%LPD*%
D11*
X-132950Y8677D02*
Y29453D01*
X-152073Y-10445D02*
X-132950Y8677D01*
X-152945Y-10445D02*
X-152073D01*
X-156000Y-13500D02*
X-152945Y-10445D01*
X-178750Y50750D02*
X-167250Y39250D01*
X-142747D01*
X-132950Y29453D01*
X-186072Y5894D02*
X-178528D01*
X-191406Y11228D02*
Y47756D01*
Y11228D02*
X-186072Y5894D01*
X-189300Y49862D02*
Y50674D01*
X-173020Y10480D02*
X-170000Y13500D01*
X-173942Y10480D02*
X-173020D01*
X-178528Y5894D02*
X-173942Y10480D01*
X-191406Y47756D02*
X-189300Y49862D01*
D24*
X-118684Y21463D02*
D03*
X-97094D02*
D03*
X-75504D02*
D03*
X-53914D02*
D03*
X-32324D02*
D03*
X-10734D02*
D03*
X10856D02*
D03*
X32446D02*
D03*
X54036D02*
D03*
X75626D02*
D03*
X97216D02*
D03*
X118806D02*
D03*
X-118684Y-21463D02*
D03*
X-97094D02*
D03*
X-75504D02*
D03*
X-53914D02*
D03*
X-32324D02*
D03*
X-10734D02*
D03*
X10856D02*
D03*
X32446D02*
D03*
X54036D02*
D03*
X75626D02*
D03*
X97216D02*
D03*
X118806D02*
D03*
D25*
X-182300Y-20000D02*
D03*
Y20000D02*
D03*
X-143700D02*
D03*
Y-20000D02*
D03*
D26*
X-156000Y-32500D02*
D03*
Y-23000D02*
D03*
Y-13500D02*
D03*
Y-4500D02*
D03*
Y4500D02*
D03*
Y13500D02*
D03*
Y23000D02*
D03*
Y32500D02*
D03*
X-170000D02*
D03*
Y23000D02*
D03*
Y13500D02*
D03*
Y4500D02*
D03*
Y-4500D02*
D03*
Y-13500D02*
D03*
Y-23000D02*
D03*
Y-32500D02*
D03*
D27*
X95000Y-59750D02*
D03*
D28*
X-32000D02*
D03*
X69600Y-59750D02*
D03*
X44200Y-59750D02*
D03*
X18800Y-59750D02*
D03*
X-6600Y-59750D02*
D03*
D29*
X234100Y42750D02*
D03*
X228100D02*
D03*
X-84237Y49000D02*
D03*
X-78237D02*
D03*
X-124750Y-7500D02*
D03*
X-58250Y-7250D02*
D03*
X-124750Y-44750D02*
D03*
X136250Y-38000D02*
D03*
X138000Y25000D02*
D03*
X130500Y-20500D02*
D03*
Y-14500D02*
D03*
Y-5000D02*
D03*
X214500Y-22000D02*
D03*
X126161Y46250D02*
D03*
X78500Y40000D02*
D03*
X-209878Y-68250D02*
D03*
Y68250D02*
D03*
X-248628Y17000D02*
D03*
Y-17000D02*
D03*
X248628Y-17000D02*
D03*
X248750Y17000D02*
D03*
X-171000Y67750D02*
D03*
X-95750Y49500D02*
D03*
X-71902Y49340D02*
D03*
X144750Y-60000D02*
D03*
X131750Y49500D02*
D03*
X-90000Y67250D02*
D03*
X-118000D02*
D03*
X-57500Y50250D02*
D03*
X15500Y40000D02*
D03*
X-183000Y-53500D02*
D03*
X162500Y36250D02*
D03*
X218750Y42500D02*
D03*
X216250Y-62250D02*
D03*
X247500Y-31250D02*
D03*
Y-25000D02*
D03*
X205000Y33750D02*
D03*
Y26750D02*
D03*
X217500Y60000D02*
D03*
X153750Y36250D02*
D03*
X178750D02*
D03*
X165000Y-52500D02*
D03*
X206250Y-38750D02*
D03*
X231250Y-46250D02*
D03*
X216250Y-31250D02*
D03*
Y-53750D02*
D03*
Y-46250D02*
D03*
Y-38750D02*
D03*
X-214750Y18000D02*
D03*
Y54750D02*
D03*
X-113000Y-61500D02*
D03*
X-178750Y50750D02*
D03*
X-189300Y50674D02*
D03*
X-42250Y-10750D02*
D03*
X-131000Y-54500D02*
D03*
X127389Y-47125D02*
D03*
X110889Y-39125D02*
D03*
D30*
X171250Y-5000D02*
D03*
M02*
