G04*
G04 #@! TF.GenerationSoftware,Altium Limited,Altium Designer,25.5.2 (35)*
G04*
G04 Layer_Color=32896*
%FSLAX44Y44*%
%MOMM*%
G71*
G04*
G04 #@! TF.SameCoordinates,449EA512-5FDF-437D-9D79-FEBFBDB7331F*
G04*
G04*
G04 #@! TF.FilePolarity,Positive*
G04*
G01*
G75*
%ADD10C,0.0500*%
%ADD56C,0.1000*%
D10*
X-220750Y37500D02*
X-194750D01*
X-220750Y22500D02*
X-194750D01*
X-220750D02*
Y37500D01*
X-194750Y22500D02*
Y37500D01*
X-207750Y30000D02*
Y35000D01*
Y25000D02*
Y30000D01*
X-212750D02*
X-207750D01*
X-202750D01*
X199750Y-64750D02*
X204750D01*
X209750D01*
X204750D02*
Y-60000D01*
Y-69500D02*
Y-64750D01*
X195750Y-69500D02*
Y-60000D01*
X213750Y-69500D02*
Y-60000D01*
X195750D02*
X213750D01*
X195750Y-69500D02*
X213750D01*
X157500Y-64750D02*
X162500D01*
X152500D02*
X157500D01*
Y-69500D02*
Y-64750D01*
Y-60000D01*
X166500Y-69500D02*
Y-60000D01*
X148500Y-69500D02*
Y-60000D01*
Y-69500D02*
X166500D01*
X148500Y-60000D02*
X166500D01*
X122639Y-39125D02*
X127639D01*
X117639D02*
X122639D01*
Y-43875D02*
Y-39125D01*
Y-34375D01*
X131639Y-43875D02*
Y-34375D01*
X113639Y-43875D02*
Y-34375D01*
Y-43875D02*
X131639D01*
X113639Y-34375D02*
X131639D01*
X200000Y65000D02*
X205000D01*
X210000D01*
X205000D02*
Y69750D01*
Y60250D02*
Y65000D01*
X196000Y60250D02*
Y69750D01*
X214000Y60250D02*
Y69750D01*
X196000D02*
X214000D01*
X196000Y60250D02*
X214000D01*
X200000Y45000D02*
X205000D01*
X210000D01*
X205000D02*
Y49750D01*
Y40250D02*
Y45000D01*
X196000Y40250D02*
Y49750D01*
X214000Y40250D02*
Y49750D01*
X196000D02*
X214000D01*
X196000Y40250D02*
X214000D01*
X-178500Y-61500D02*
X-173500D01*
X-183500D02*
X-178500D01*
Y-66250D02*
Y-61500D01*
Y-56750D01*
X-169500Y-66250D02*
Y-56750D01*
X-187500Y-66250D02*
Y-56750D01*
Y-66250D02*
X-169500D01*
X-187500Y-56750D02*
X-169500D01*
X199750Y-53500D02*
X204750D01*
X209750D01*
X204750D02*
Y-48750D01*
Y-58250D02*
Y-53500D01*
X195750Y-58250D02*
Y-48750D01*
X213750Y-58250D02*
Y-48750D01*
X195750D02*
X213750D01*
X195750Y-58250D02*
X213750D01*
X230000Y-25000D02*
X235000D01*
X240000D01*
X235000D02*
Y-20250D01*
Y-29750D02*
Y-25000D01*
X226000Y-29750D02*
Y-20250D01*
X244000Y-29750D02*
Y-20250D01*
X226000D02*
X244000D01*
X226000Y-29750D02*
X244000D01*
X-131250Y-61500D02*
X-126250D01*
X-121250D01*
X-126250D02*
Y-56750D01*
Y-66250D02*
Y-61500D01*
X-135250Y-66250D02*
Y-56750D01*
X-117250Y-66250D02*
Y-56750D01*
X-135250D02*
X-117250D01*
X-135250Y-66250D02*
X-117250D01*
X138750Y40000D02*
Y45000D01*
Y50000D01*
X134000Y45000D02*
X138750D01*
X143500D01*
X134000Y36000D02*
X143500D01*
X134000Y54000D02*
X143500D01*
X134000Y36000D02*
Y54000D01*
X143500Y36000D02*
Y54000D01*
X230000Y-35000D02*
X235000D01*
X240000D01*
X235000D02*
Y-30250D01*
Y-39750D02*
Y-35000D01*
X226000Y-39750D02*
Y-30250D01*
X244000Y-39750D02*
Y-30250D01*
X226000D02*
X244000D01*
X226000Y-39750D02*
X244000D01*
X216250Y26250D02*
Y31250D01*
Y36250D01*
X211500Y31250D02*
X216250D01*
X221000D01*
X211500Y22250D02*
X221000D01*
X211500Y40250D02*
X221000D01*
X211500Y22250D02*
Y40250D01*
X221000Y22250D02*
Y40250D01*
X-194750Y37500D02*
Y52500D01*
X-212750Y45000D02*
X-207750D01*
X-220750Y37500D02*
X-194750D01*
X-207750Y45000D02*
Y50000D01*
X-220750Y37500D02*
Y52500D01*
X-207750Y45000D02*
X-202750D01*
X-207750Y40000D02*
Y45000D01*
X-220750Y52500D02*
X-194750D01*
X-184250Y54250D02*
Y72250D01*
X-193750Y54250D02*
X-184250D01*
X-189000Y58250D02*
Y63250D01*
X-184250D01*
X-193750D02*
X-189000D01*
X-193750Y72250D02*
X-184250D01*
X-189000Y63250D02*
Y68250D01*
X-193750Y54250D02*
Y72250D01*
X83750Y49000D02*
X101750D01*
X87750Y53750D02*
X92750D01*
X83750Y49000D02*
Y58500D01*
X92750Y49000D02*
Y53750D01*
Y58500D01*
Y53750D02*
X97750D01*
X101750Y49000D02*
Y58500D01*
X83750D02*
X101750D01*
X83750Y68500D02*
X101750D01*
Y59000D02*
Y68500D01*
X92750Y63750D02*
X97750D01*
X92750D02*
Y68500D01*
Y59000D02*
Y63750D01*
X83750Y59000D02*
Y68500D01*
X87750Y63750D02*
X92750D01*
X83750Y59000D02*
X101750D01*
X-183500Y54250D02*
Y72250D01*
X-178750Y63250D02*
Y68250D01*
X-183500Y72250D02*
X-174000D01*
X-183500Y63250D02*
X-178750D01*
X-174000D01*
X-178750Y58250D02*
Y63250D01*
X-183500Y54250D02*
X-174000D01*
Y72250D01*
X196000Y59750D02*
X214000D01*
Y50250D02*
Y59750D01*
X205000Y55000D02*
X210000D01*
X205000D02*
Y59750D01*
Y50250D02*
Y55000D01*
X196000Y50250D02*
Y59750D01*
X200000Y55000D02*
X205000D01*
X196000Y50250D02*
X214000D01*
X83750Y35000D02*
X101750D01*
X87750Y39750D02*
X92750D01*
X83750Y35000D02*
Y44500D01*
X92750Y35000D02*
Y39750D01*
Y44500D01*
Y39750D02*
X97750D01*
X101750Y35000D02*
Y44500D01*
X83750D02*
X101750D01*
X231500Y22250D02*
Y40250D01*
X241000D01*
X236250Y31250D02*
Y36250D01*
X231500Y31250D02*
X236250D01*
X241000D01*
X231500Y22250D02*
X241000D01*
X236250Y26250D02*
Y31250D01*
X241000Y22250D02*
Y40250D01*
X231000Y22250D02*
Y40250D01*
X226250Y26250D02*
Y31250D01*
X221500Y22250D02*
X231000D01*
X226250Y31250D02*
X231000D01*
X221500D02*
X226250D01*
Y36250D01*
X221500Y40250D02*
X231000D01*
X221500Y22250D02*
Y40250D01*
X209500Y-43250D02*
X209500Y33250D01*
X133000Y33250D02*
X133000Y-43250D01*
X133000Y33250D02*
X209500Y33250D01*
X133000Y-43250D02*
X209500Y-43250D01*
X-184500Y50000D02*
X-141500D01*
Y-50000D02*
Y50000D01*
X-184500Y-50000D02*
Y50000D01*
Y-50000D02*
X-141500D01*
X-163001Y-1D02*
X-163000Y5000D01*
X-163001Y-1D02*
X-158000Y-2D01*
X-163002Y-5002D02*
X-163001Y-1D01*
X-168002Y0D02*
X-163001Y-1D01*
X-167750Y-54750D02*
X-143000Y-54750D01*
X-167750Y-68250D02*
X-143000D01*
X-167750D02*
X-167750Y-54750D01*
X-143000Y-68250D02*
X-143000Y-54750D01*
X-155500Y-61500D02*
X-150500D01*
X-155500D02*
Y-56500D01*
Y-66500D02*
Y-61500D01*
X-160500D02*
X-155500D01*
X-104000Y55750D02*
Y65750D01*
X-109000Y60750D02*
X-99000D01*
X-112350Y67750D02*
X-95650Y67750D01*
X-112350Y53750D02*
X-95650Y53750D01*
X-95650Y67750D01*
X-112350Y67750D02*
X-112350Y53750D01*
X179250Y-59500D02*
Y-54500D01*
Y-59500D02*
X184250D01*
X179250Y-64500D02*
Y-59500D01*
X174250D02*
X179250D01*
X167250Y-69500D02*
X173000Y-69500D01*
X167250Y-69500D02*
X167250Y-49500D01*
X191250D01*
X191250Y-69500D02*
X191250Y-49500D01*
X173000Y-69500D02*
X191250Y-69500D01*
X-54250Y39000D02*
X-5750Y39000D01*
Y73000D01*
X-54250Y73000D02*
X-5750Y73000D01*
X-54250Y39000D02*
Y73000D01*
X-30000Y51000D02*
X-30000Y61000D01*
X-35000Y56000D02*
X-25000Y56000D01*
X5750Y39000D02*
X54250Y39000D01*
Y73000D01*
X5750Y73000D02*
X54250Y73000D01*
X5750Y39000D02*
Y73000D01*
X30000Y51000D02*
X30000Y61000D01*
X25000Y56000D02*
X35000Y56000D01*
X194250Y72000D02*
X194250Y36000D01*
X144250Y72000D02*
X194250D01*
X144250D02*
X144250Y36000D01*
X194250D01*
X169250Y59000D02*
X169250Y54000D01*
X164250Y54000D02*
X169250Y54000D01*
X164250Y54000D02*
X169250Y54000D01*
X169250Y49000D01*
X169250Y54000D02*
X169250Y49000D01*
X169250Y54000D02*
X174250Y54000D01*
X169250Y54000D02*
X174250Y54000D01*
X-47250Y-75000D02*
X-47250Y-44500D01*
X-47250Y-75000D02*
X110250D01*
X110250Y-44500D01*
X-47250Y-44500D02*
X110250Y-44500D01*
D56*
X166250Y-5000D02*
X176250Y-5000D01*
X171250Y-10000D02*
X171250Y0D01*
M02*
