G04*
G04 #@! TF.GenerationSoftware,Altium Limited,Altium Designer,25.5.2 (35)*
G04*
G04 Layer_Physical_Order=4*
G04 Layer_Color=16711680*
%FSLAX44Y44*%
%MOMM*%
G71*
G04*
G04 #@! TF.SameCoordinates,449EA512-5FDF-437D-9D79-FEBFBDB7331F*
G04*
G04*
G04 #@! TF.FilePolarity,Positive*
G04*
G01*
G75*
%ADD11C,0.1500*%
%ADD19C,0.2200*%
%ADD20C,0.4000*%
%ADD21C,0.6000*%
%ADD24O,1.5000X2.0000*%
%ADD25O,0.8000X2.0000*%
%ADD26C,0.7000*%
G04:AMPARAMS|DCode=27|XSize=1.7mm|YSize=1.7mm|CornerRadius=0.05mm|HoleSize=0mm|Usage=FLASHONLY|Rotation=180.000|XOffset=0mm|YOffset=0mm|HoleType=Round|Shape=RoundedRectangle|*
%AMROUNDEDRECTD27*
21,1,1.7000,1.6000,0,0,180.0*
21,1,1.6000,1.7000,0,0,180.0*
1,1,0.1000,-0.8000,0.8000*
1,1,0.1000,0.8000,0.8000*
1,1,0.1000,0.8000,-0.8000*
1,1,0.1000,-0.8000,-0.8000*
%
%ADD27ROUNDEDRECTD27*%
%ADD28C,1.7000*%
%ADD29C,0.4500*%
%ADD30C,0.5000*%
G04:AMPARAMS|DCode=32|XSize=0.2mm|YSize=0.6mm|CornerRadius=0.05mm|HoleSize=0mm|Usage=FLASHONLY|Rotation=270.000|XOffset=0mm|YOffset=0mm|HoleType=Round|Shape=RoundedRectangle|*
%AMROUNDEDRECTD32*
21,1,0.2000,0.5000,0,0,270.0*
21,1,0.1000,0.6000,0,0,270.0*
1,1,0.1000,-0.2500,-0.0500*
1,1,0.1000,-0.2500,0.0500*
1,1,0.1000,0.2500,0.0500*
1,1,0.1000,0.2500,-0.0500*
%
%ADD32ROUNDEDRECTD32*%
G04:AMPARAMS|DCode=33|XSize=0.72mm|YSize=0.99mm|CornerRadius=0.09mm|HoleSize=0mm|Usage=FLASHONLY|Rotation=180.000|XOffset=0mm|YOffset=0mm|HoleType=Round|Shape=RoundedRectangle|*
%AMROUNDEDRECTD33*
21,1,0.7200,0.8100,0,0,180.0*
21,1,0.5400,0.9900,0,0,180.0*
1,1,0.1800,-0.2700,0.4050*
1,1,0.1800,0.2700,0.4050*
1,1,0.1800,0.2700,-0.4050*
1,1,0.1800,-0.2700,-0.4050*
%
%ADD33ROUNDEDRECTD33*%
G04:AMPARAMS|DCode=34|XSize=0.55mm|YSize=0.6mm|CornerRadius=0.0688mm|HoleSize=0mm|Usage=FLASHONLY|Rotation=0.000|XOffset=0mm|YOffset=0mm|HoleType=Round|Shape=RoundedRectangle|*
%AMROUNDEDRECTD34*
21,1,0.5500,0.4625,0,0,0.0*
21,1,0.4125,0.6000,0,0,0.0*
1,1,0.1375,0.2063,-0.2313*
1,1,0.1375,-0.2063,-0.2313*
1,1,0.1375,-0.2063,0.2313*
1,1,0.1375,0.2063,0.2313*
%
%ADD34ROUNDEDRECTD34*%
G04:AMPARAMS|DCode=35|XSize=0.55mm|YSize=0.6mm|CornerRadius=0.0688mm|HoleSize=0mm|Usage=FLASHONLY|Rotation=90.000|XOffset=0mm|YOffset=0mm|HoleType=Round|Shape=RoundedRectangle|*
%AMROUNDEDRECTD35*
21,1,0.5500,0.4625,0,0,90.0*
21,1,0.4125,0.6000,0,0,90.0*
1,1,0.1375,0.2313,0.2063*
1,1,0.1375,0.2313,-0.2063*
1,1,0.1375,-0.2313,-0.2063*
1,1,0.1375,-0.2313,0.2063*
%
%ADD35ROUNDEDRECTD35*%
G04:AMPARAMS|DCode=36|XSize=0.25mm|YSize=0.85mm|CornerRadius=0.05mm|HoleSize=0mm|Usage=FLASHONLY|Rotation=180.000|XOffset=0mm|YOffset=0mm|HoleType=Round|Shape=RoundedRectangle|*
%AMROUNDEDRECTD36*
21,1,0.2500,0.7500,0,0,180.0*
21,1,0.1500,0.8500,0,0,180.0*
1,1,0.1000,-0.0750,0.3750*
1,1,0.1000,0.0750,0.3750*
1,1,0.1000,0.0750,-0.3750*
1,1,0.1000,-0.0750,-0.3750*
%
%ADD36ROUNDEDRECTD36*%
G04:AMPARAMS|DCode=37|XSize=0.25mm|YSize=0.85mm|CornerRadius=0.05mm|HoleSize=0mm|Usage=FLASHONLY|Rotation=90.000|XOffset=0mm|YOffset=0mm|HoleType=Round|Shape=RoundedRectangle|*
%AMROUNDEDRECTD37*
21,1,0.2500,0.7500,0,0,90.0*
21,1,0.1500,0.8500,0,0,90.0*
1,1,0.1000,0.3750,0.0750*
1,1,0.1000,0.3750,-0.0750*
1,1,0.1000,-0.3750,-0.0750*
1,1,0.1000,-0.3750,0.0750*
%
%ADD37ROUNDEDRECTD37*%
G04:AMPARAMS|DCode=38|XSize=5.2mm|YSize=5.2mm|CornerRadius=0.05mm|HoleSize=0mm|Usage=FLASHONLY|Rotation=180.000|XOffset=0mm|YOffset=0mm|HoleType=Round|Shape=RoundedRectangle|*
%AMROUNDEDRECTD38*
21,1,5.2000,5.1000,0,0,180.0*
21,1,5.1000,5.2000,0,0,180.0*
1,1,0.1000,-2.5500,2.5500*
1,1,0.1000,2.5500,2.5500*
1,1,0.1000,2.5500,-2.5500*
1,1,0.1000,-2.5500,-2.5500*
%
%ADD38ROUNDEDRECTD38*%
G04:AMPARAMS|DCode=39|XSize=0.775mm|YSize=0.675mm|CornerRadius=0.0338mm|HoleSize=0mm|Usage=FLASHONLY|Rotation=0.000|XOffset=0mm|YOffset=0mm|HoleType=Round|Shape=RoundedRectangle|*
%AMROUNDEDRECTD39*
21,1,0.7750,0.6075,0,0,0.0*
21,1,0.7075,0.6750,0,0,0.0*
1,1,0.0675,0.3538,-0.3038*
1,1,0.0675,-0.3538,-0.3038*
1,1,0.0675,-0.3538,0.3038*
1,1,0.0675,0.3538,0.3038*
%
%ADD39ROUNDEDRECTD39*%
G04:AMPARAMS|DCode=40|XSize=1.15mm|YSize=1.05mm|CornerRadius=0.1313mm|HoleSize=0mm|Usage=FLASHONLY|Rotation=0.000|XOffset=0mm|YOffset=0mm|HoleType=Round|Shape=RoundedRectangle|*
%AMROUNDEDRECTD40*
21,1,1.1500,0.7875,0,0,0.0*
21,1,0.8875,1.0500,0,0,0.0*
1,1,0.2625,0.4438,-0.3938*
1,1,0.2625,-0.4438,-0.3938*
1,1,0.2625,-0.4438,0.3938*
1,1,0.2625,0.4438,0.3938*
%
%ADD40ROUNDEDRECTD40*%
G04:AMPARAMS|DCode=41|XSize=1.6mm|YSize=2.4mm|CornerRadius=0.05mm|HoleSize=0mm|Usage=FLASHONLY|Rotation=0.000|XOffset=0mm|YOffset=0mm|HoleType=Round|Shape=RoundedRectangle|*
%AMROUNDEDRECTD41*
21,1,1.6000,2.3000,0,0,0.0*
21,1,1.5000,2.4000,0,0,0.0*
1,1,0.1000,0.7500,-1.1500*
1,1,0.1000,-0.7500,-1.1500*
1,1,0.1000,-0.7500,1.1500*
1,1,0.1000,0.7500,1.1500*
%
%ADD41ROUNDEDRECTD41*%
%ADD42R,1.1500X1.0500*%
%ADD43C,0.4897*%
%ADD44C,0.2000*%
G36*
X-7039Y71907D02*
X-6465Y70521D01*
X-7581Y69406D01*
X-8250Y69539D01*
X-23250D01*
X-24030Y69384D01*
X-24692Y68942D01*
X-25134Y68280D01*
X-25289Y67500D01*
Y44500D01*
X-25134Y43720D01*
X-24692Y43058D01*
X-24030Y42616D01*
X-23250Y42461D01*
X-8250D01*
X-7470Y42616D01*
X-6808Y43058D01*
X-6366Y43720D01*
X-6211Y44500D01*
Y64524D01*
X-5499Y64999D01*
X-2292Y68206D01*
X34132D01*
X34711Y67500D01*
Y44500D01*
X34866Y43720D01*
X35308Y43058D01*
X35970Y42616D01*
X36750Y42461D01*
X38031D01*
X38195Y42009D01*
X38281Y40961D01*
X37774Y40622D01*
X31608Y34456D01*
X31111Y33712D01*
X30938Y32842D01*
X30096Y32731D01*
X27907Y31824D01*
X26027Y30382D01*
X24585Y28502D01*
X23678Y26312D01*
X23368Y23963D01*
Y18963D01*
X23678Y16613D01*
X24585Y14424D01*
X26027Y12544D01*
X27907Y11101D01*
X30096Y10195D01*
X32446Y9885D01*
X34795Y10195D01*
X36985Y11101D01*
X38865Y12544D01*
X40307Y14424D01*
X41214Y16613D01*
X41524Y18963D01*
Y23963D01*
X41214Y26312D01*
X40307Y28502D01*
X38865Y30382D01*
X37325Y31563D01*
X36917Y33277D01*
X40346Y36706D01*
X60316D01*
X61194Y36881D01*
X61938Y37378D01*
X69016Y44456D01*
X92352D01*
X93154Y42956D01*
X93127Y42916D01*
X92957Y42063D01*
Y37438D01*
X93127Y36584D01*
X93610Y35860D01*
X94334Y35377D01*
X94956Y35253D01*
Y32743D01*
X94867Y32731D01*
X92677Y31824D01*
X90797Y30382D01*
X89354Y28502D01*
X88448Y26312D01*
X88138Y23963D01*
Y18963D01*
X88448Y16613D01*
X89354Y14424D01*
X90797Y12544D01*
X92677Y11101D01*
X94867Y10195D01*
X97216Y9885D01*
X99565Y10195D01*
X101755Y11101D01*
X103635Y12544D01*
X105077Y14424D01*
X105984Y16613D01*
X106294Y18963D01*
Y23963D01*
X105984Y26312D01*
X105077Y28502D01*
X103635Y30382D01*
X101755Y31824D01*
X99565Y32731D01*
X99544Y32734D01*
Y35253D01*
X100166Y35377D01*
X100890Y35860D01*
X101373Y36584D01*
X101543Y37438D01*
Y42063D01*
X101373Y42916D01*
X101346Y42956D01*
X102148Y44456D01*
X113807D01*
X120320Y37943D01*
X120381Y37638D01*
X120878Y36894D01*
X123168Y34604D01*
X122318Y33332D01*
X121417Y33705D01*
X118806Y34049D01*
X116195Y33705D01*
X113763Y32698D01*
X111674Y31095D01*
X110071Y29006D01*
X109063Y26573D01*
X108720Y23963D01*
Y18963D01*
X109063Y16352D01*
X110071Y13920D01*
X111674Y11831D01*
X113763Y10228D01*
X116195Y9220D01*
X118806Y8877D01*
X121417Y9220D01*
X123849Y10228D01*
X125938Y11831D01*
X127541Y13920D01*
X127912Y14815D01*
X129412Y14517D01*
Y12178D01*
X129118Y12119D01*
X128373Y11622D01*
X123758Y7007D01*
X16306D01*
X14292Y9021D01*
X14644Y10790D01*
X15395Y11101D01*
X17275Y12544D01*
X18717Y14424D01*
X19624Y16613D01*
X19934Y18963D01*
Y23963D01*
X19624Y26312D01*
X18717Y28502D01*
X17275Y30382D01*
X15395Y31824D01*
X13205Y32731D01*
X10856Y33040D01*
X8507Y32731D01*
X6317Y31824D01*
X4437Y30382D01*
X2995Y28502D01*
X2088Y26312D01*
X1778Y23963D01*
Y18963D01*
X2088Y16613D01*
X2995Y14424D01*
X4437Y12544D01*
X6317Y11101D01*
X8507Y10195D01*
X8562Y10187D01*
Y9213D01*
X8737Y8335D01*
X9234Y7591D01*
X11432Y5393D01*
X10858Y4007D01*
X-2284D01*
X-7298Y9021D01*
X-6946Y10790D01*
X-6195Y11101D01*
X-4315Y12544D01*
X-2873Y14424D01*
X-1966Y16613D01*
X-1656Y18963D01*
Y23963D01*
X-1966Y26312D01*
X-2873Y28502D01*
X-4315Y30382D01*
X-6195Y31824D01*
X-8385Y32731D01*
X-10734Y33040D01*
X-13083Y32731D01*
X-15273Y31824D01*
X-17153Y30382D01*
X-18595Y28502D01*
X-19502Y26312D01*
X-19812Y23963D01*
Y18963D01*
X-19502Y16613D01*
X-18595Y14424D01*
X-17153Y12544D01*
X-15273Y11101D01*
X-13083Y10195D01*
X-13028Y10187D01*
Y9213D01*
X-12853Y8335D01*
X-12356Y7591D01*
X-7158Y2393D01*
X-7732Y1007D01*
X-25537D01*
X-25537Y1007D01*
X-26415Y832D01*
X-27159Y335D01*
X-27159Y335D01*
X-28568Y-1073D01*
X-29007Y-998D01*
X-30030Y-414D01*
Y10187D01*
X-29975Y10195D01*
X-27785Y11101D01*
X-25905Y12544D01*
X-24463Y14424D01*
X-23556Y16613D01*
X-23246Y18963D01*
Y23963D01*
X-23556Y26312D01*
X-24463Y28502D01*
X-25905Y30382D01*
X-27785Y31824D01*
X-29975Y32731D01*
X-32324Y33040D01*
X-34674Y32731D01*
X-36863Y31824D01*
X-38743Y30382D01*
X-40185Y28502D01*
X-41092Y26312D01*
X-41402Y23963D01*
Y18963D01*
X-41092Y16613D01*
X-40185Y14424D01*
X-38743Y12544D01*
X-36863Y11101D01*
X-34674Y10195D01*
X-34618Y10187D01*
Y126D01*
X-41744Y-7000D01*
X-42996D01*
X-44374Y-7571D01*
X-45429Y-8626D01*
X-46000Y-10004D01*
Y-11496D01*
X-45520Y-12654D01*
X-46831Y-13410D01*
X-47495Y-12544D01*
X-49375Y-11102D01*
X-51565Y-10195D01*
X-53914Y-9886D01*
X-56263Y-10195D01*
X-58453Y-11102D01*
X-60333Y-12544D01*
X-60915Y-13303D01*
X-62415Y-12794D01*
Y-4409D01*
X-52292Y5714D01*
X-51795Y6458D01*
X-51620Y7336D01*
Y10187D01*
X-51565Y10195D01*
X-49375Y11101D01*
X-47495Y12544D01*
X-46053Y14424D01*
X-45146Y16613D01*
X-44836Y18963D01*
Y23963D01*
X-45146Y26312D01*
X-46053Y28502D01*
X-47495Y30382D01*
X-49375Y31824D01*
X-51565Y32731D01*
X-53914Y33040D01*
X-56263Y32731D01*
X-58453Y31824D01*
X-60333Y30382D01*
X-61775Y28502D01*
X-62682Y26312D01*
X-62992Y23963D01*
Y18963D01*
X-62682Y16613D01*
X-61775Y14424D01*
X-60333Y12544D01*
X-58453Y11101D01*
X-56263Y10195D01*
X-56208Y10187D01*
Y8286D01*
X-66331Y-1837D01*
X-66828Y-2581D01*
X-67003Y-3459D01*
Y-12794D01*
X-68503Y-13303D01*
X-69085Y-12544D01*
X-70965Y-11102D01*
X-73155Y-10195D01*
X-75504Y-9886D01*
X-77853Y-10195D01*
X-80043Y-11102D01*
X-81923Y-12544D01*
X-82505Y-13303D01*
X-84005Y-12794D01*
Y-5999D01*
X-73882Y4124D01*
X-73385Y4868D01*
X-73210Y5746D01*
Y10187D01*
X-73155Y10195D01*
X-70965Y11101D01*
X-69085Y12544D01*
X-67643Y14424D01*
X-66736Y16613D01*
X-66426Y18963D01*
Y23963D01*
X-66736Y26312D01*
X-67643Y28502D01*
X-69085Y30382D01*
X-70965Y31824D01*
X-73155Y32731D01*
X-75504Y33040D01*
X-77853Y32731D01*
X-80043Y31824D01*
X-81923Y30382D01*
X-83365Y28502D01*
X-84272Y26312D01*
X-84582Y23963D01*
Y18963D01*
X-84272Y16613D01*
X-83365Y14424D01*
X-81923Y12544D01*
X-80043Y11101D01*
X-77853Y10195D01*
X-77798Y10187D01*
Y6696D01*
X-87921Y-3427D01*
X-88418Y-4171D01*
X-88593Y-5049D01*
Y-12794D01*
X-90093Y-13303D01*
X-90675Y-12544D01*
X-92555Y-11102D01*
X-94745Y-10195D01*
X-97094Y-9886D01*
X-99444Y-10195D01*
X-101633Y-11102D01*
X-103513Y-12544D01*
X-104095Y-13303D01*
X-105595Y-12794D01*
Y-10422D01*
X-95472Y-299D01*
X-94975Y445D01*
X-94800Y1323D01*
Y10187D01*
X-94745Y10195D01*
X-92555Y11101D01*
X-90675Y12544D01*
X-89233Y14424D01*
X-88326Y16613D01*
X-88016Y18963D01*
Y23963D01*
X-88326Y26312D01*
X-89233Y28502D01*
X-90675Y30382D01*
X-92555Y31824D01*
X-94745Y32731D01*
X-97094Y33040D01*
X-99444Y32731D01*
X-101633Y31824D01*
X-103513Y30382D01*
X-104956Y28502D01*
X-105862Y26312D01*
X-106172Y23963D01*
Y18963D01*
X-105862Y16613D01*
X-104956Y14424D01*
X-103513Y12544D01*
X-101633Y11101D01*
X-99444Y10195D01*
X-99388Y10187D01*
Y2273D01*
X-109511Y-7850D01*
X-110008Y-8594D01*
X-110183Y-9472D01*
Y-12794D01*
X-111683Y-13303D01*
X-112265Y-12544D01*
X-114145Y-11102D01*
X-116335Y-10195D01*
X-118684Y-9886D01*
X-121033Y-10195D01*
X-123223Y-11102D01*
X-125103Y-12544D01*
X-126545Y-14424D01*
X-127452Y-16614D01*
X-127762Y-18963D01*
Y-23963D01*
X-127452Y-26313D01*
X-126545Y-28502D01*
X-125103Y-30382D01*
X-123223Y-31825D01*
X-121033Y-32731D01*
X-118684Y-33041D01*
X-116335Y-32731D01*
X-114145Y-31825D01*
X-112265Y-30382D01*
X-111519Y-29409D01*
X-111006Y-29376D01*
X-109797Y-29629D01*
X-109544Y-30008D01*
X-109441Y-30523D01*
X-108944Y-31267D01*
X-93351Y-46860D01*
X-92607Y-47358D01*
X-91729Y-47532D01*
X100600D01*
X101116Y-48211D01*
X100372Y-49711D01*
X87000D01*
X86220Y-49866D01*
X85558Y-50308D01*
X85116Y-50970D01*
X84961Y-51750D01*
Y-67750D01*
X85116Y-68530D01*
X85558Y-69192D01*
X86220Y-69634D01*
X87000Y-69789D01*
X103000D01*
X103780Y-69634D01*
X104442Y-69192D01*
X104884Y-68530D01*
X105039Y-67750D01*
Y-53490D01*
X106539Y-52868D01*
X114543Y-60872D01*
X115287Y-61369D01*
X116165Y-61544D01*
X133699D01*
X134576Y-61369D01*
X135321Y-60872D01*
X141149Y-55044D01*
X142996D01*
X143294Y-56544D01*
X142626Y-56821D01*
X141571Y-57876D01*
X141000Y-59254D01*
Y-60746D01*
X141571Y-62124D01*
X142626Y-63179D01*
X144004Y-63750D01*
X145496D01*
X146874Y-63179D01*
X147929Y-62124D01*
X148500Y-60746D01*
Y-59494D01*
X149950Y-58044D01*
X155260D01*
X156138Y-57869D01*
X156883Y-57372D01*
X167416Y-46838D01*
X168956D01*
Y-47870D01*
X169131Y-48748D01*
X168626Y-49862D01*
X168018Y-50268D01*
X167612Y-50876D01*
X167469Y-51592D01*
Y-54992D01*
X166771Y-55131D01*
X166027Y-55628D01*
X164499Y-57156D01*
X164002Y-57900D01*
X163827Y-58778D01*
Y-59428D01*
X163048Y-60207D01*
X159937D01*
X159084Y-60377D01*
X158360Y-60860D01*
X157877Y-61584D01*
X157707Y-62438D01*
Y-67063D01*
X157877Y-67916D01*
X158360Y-68640D01*
X159084Y-69123D01*
X159937Y-69293D01*
X164062D01*
X164916Y-69123D01*
X165639Y-68640D01*
X166123Y-67916D01*
X166293Y-67063D01*
Y-63451D01*
X167743Y-62001D01*
X168241Y-61257D01*
X168415Y-60379D01*
Y-59728D01*
X168600Y-59544D01*
X170260D01*
X170275Y-59541D01*
X176418D01*
X176763Y-59472D01*
X177133Y-59720D01*
X177630Y-60464D01*
X179044Y-61877D01*
X179044Y-61877D01*
X179788Y-62374D01*
X180214Y-62459D01*
Y-67413D01*
X180357Y-68130D01*
X180763Y-68737D01*
X181371Y-69143D01*
X182087Y-69286D01*
X189163D01*
X189879Y-69143D01*
X190487Y-68737D01*
X190893Y-68130D01*
X191036Y-67413D01*
Y-66669D01*
X195957D01*
Y-67063D01*
X196127Y-67916D01*
X196610Y-68640D01*
X197334Y-69123D01*
X198188Y-69293D01*
X202313D01*
X203166Y-69123D01*
X203890Y-68640D01*
X204373Y-67916D01*
X204543Y-67063D01*
Y-62438D01*
X204373Y-61584D01*
X203890Y-60860D01*
X203166Y-60377D01*
X202313Y-60207D01*
X198188D01*
X197334Y-60377D01*
X196610Y-60860D01*
X196127Y-61584D01*
X196028Y-62081D01*
X191036D01*
Y-61337D01*
X190893Y-60621D01*
X190487Y-60013D01*
X189879Y-59607D01*
X189163Y-59464D01*
X183784D01*
X182953Y-58633D01*
X182209Y-58135D01*
X181687Y-58032D01*
X181547Y-57892D01*
Y-50418D01*
X181547Y-50418D01*
X181546Y-50418D01*
Y-48647D01*
X181546Y-48647D01*
X181485Y-48338D01*
X182178Y-47134D01*
X182554Y-46838D01*
X186334D01*
X187498Y-48002D01*
X187498Y-48002D01*
X188242Y-48500D01*
X188870Y-48625D01*
X191117Y-50872D01*
X191118Y-50872D01*
X191862Y-51369D01*
X192740Y-51544D01*
X192740Y-51544D01*
X194790D01*
X195957Y-52712D01*
Y-55813D01*
X196127Y-56666D01*
X196610Y-57390D01*
X197334Y-57873D01*
X198188Y-58043D01*
X202313D01*
X203166Y-57873D01*
X203890Y-57390D01*
X204373Y-56666D01*
X204543Y-55813D01*
Y-52201D01*
X208200Y-48544D01*
X213241D01*
X214126Y-49429D01*
X215504Y-50000D01*
X216996D01*
X218374Y-49429D01*
X219429Y-48374D01*
X220000Y-46996D01*
Y-45504D01*
X219429Y-44126D01*
X218715Y-43412D01*
X218505Y-42500D01*
X218715Y-41588D01*
X219429Y-40874D01*
X220000Y-39496D01*
Y-38004D01*
X219429Y-36626D01*
X218715Y-35912D01*
X218505Y-35000D01*
X218715Y-34088D01*
X219429Y-33374D01*
X220000Y-31996D01*
Y-30516D01*
X220036Y-30481D01*
X221280Y-29675D01*
X225977Y-34372D01*
X225977Y-34372D01*
X226207Y-34526D01*
Y-37313D01*
X226377Y-38166D01*
X226861Y-38890D01*
X227584Y-39373D01*
X228438Y-39543D01*
X228581D01*
Y-43616D01*
X228071Y-44126D01*
X227500Y-45504D01*
Y-46996D01*
X228071Y-48374D01*
X229126Y-49429D01*
X230504Y-50000D01*
X231452D01*
X232128Y-51445D01*
X211666Y-71907D01*
X-211666Y-71907D01*
X-258243Y-25330D01*
X-259304Y-24270D01*
X-259304Y-24269D01*
X-260211Y-23145D01*
X-260611Y-22623D01*
X-261417Y-20677D01*
X-261678Y-18695D01*
X-261657Y-18588D01*
Y-10000D01*
Y18588D01*
X-261678Y18695D01*
X-261417Y20677D01*
X-260611Y22623D01*
X-259394Y24209D01*
X-259304Y24269D01*
X-211666Y71907D01*
X-7039Y71907D01*
D02*
G37*
G36*
X211666Y71907D02*
X235876Y47697D01*
X235026Y46425D01*
X234846Y46500D01*
X233354D01*
X231976Y45929D01*
X231100Y45053D01*
X230224Y45929D01*
X228846Y46500D01*
X227354D01*
X225976Y45929D01*
X224921Y44874D01*
X224350Y43496D01*
Y42004D01*
X224541Y41543D01*
X224246Y40809D01*
X223609Y39978D01*
X223084Y39873D01*
X222360Y39390D01*
X221877Y38666D01*
X221707Y37812D01*
Y33688D01*
X221877Y32834D01*
X222342Y32138D01*
X222360Y32107D01*
Y31250D01*
Y30393D01*
X222357Y30387D01*
X222272Y30335D01*
X221017Y29850D01*
X221010D01*
X220417Y29975D01*
X220140Y30390D01*
X219416Y30873D01*
X218563Y31043D01*
X213937D01*
X213088Y31740D01*
Y32250D01*
X212739Y34006D01*
X211744Y35494D01*
X210256Y36489D01*
X208500Y36838D01*
X207215D01*
X207124Y36929D01*
X205746Y37500D01*
X205294D01*
Y42250D01*
X205294Y42250D01*
X205119Y43128D01*
X204793Y43617D01*
Y46298D01*
X204946Y46452D01*
X205443Y47196D01*
X205616Y48064D01*
X208009Y50457D01*
X211562D01*
X212416Y50627D01*
X213140Y51110D01*
X213623Y51834D01*
X213793Y52688D01*
Y57312D01*
X213623Y58166D01*
X213140Y58890D01*
X212416Y59373D01*
X211562Y59543D01*
X207437D01*
X206584Y59373D01*
X205860Y58890D01*
X204139D01*
X203725Y59167D01*
X203599Y59760D01*
Y60240D01*
X203725Y60833D01*
X204140Y61110D01*
X204623Y61834D01*
X204793Y62688D01*
Y67312D01*
X204623Y68166D01*
X204140Y68890D01*
X203416Y69373D01*
X202563Y69543D01*
X198438D01*
X197584Y69373D01*
X196860Y68890D01*
X196377Y68166D01*
X196207Y67312D01*
Y64044D01*
X193305D01*
Y65687D01*
X193087Y66785D01*
X192465Y67715D01*
X191535Y68337D01*
X190438Y68555D01*
X181562D01*
X180465Y68337D01*
X179535Y67715D01*
X178913Y66785D01*
X178695Y65687D01*
Y58189D01*
X175044Y54538D01*
X174360Y54645D01*
X173544Y55076D01*
Y58950D01*
X173369Y59828D01*
X172872Y60572D01*
X162923Y70521D01*
X163497Y71907D01*
X211666D01*
D02*
G37*
G36*
X144092Y52378D02*
X144092Y52378D01*
X144837Y51880D01*
X145715Y51706D01*
X160686D01*
X165206Y47186D01*
Y40807D01*
X163706Y39809D01*
X163246Y40000D01*
X161754D01*
X160376Y39429D01*
X159321Y38374D01*
X158886Y37324D01*
X157364D01*
X156929Y38374D01*
X155874Y39429D01*
X154496Y40000D01*
X153004D01*
X151626Y39429D01*
X150571Y38374D01*
X150000Y36996D01*
Y36838D01*
X146906D01*
X145872Y37872D01*
X145128Y38369D01*
X144250Y38544D01*
X144200D01*
X143293Y39451D01*
Y42562D01*
X143123Y43416D01*
X142640Y44140D01*
X141916Y44623D01*
X141062Y44793D01*
X136438D01*
X135584Y44623D01*
X134860Y44140D01*
X134377Y43416D01*
X134346Y43259D01*
X132791Y43041D01*
X129911Y45921D01*
Y46996D01*
X129340Y48374D01*
X128285Y49429D01*
X126907Y50000D01*
X125415D01*
X124037Y49429D01*
X122982Y48374D01*
X122411Y46996D01*
Y45504D01*
X122982Y44126D01*
X124037Y43071D01*
X125415Y42500D01*
X126844D01*
X130466Y38878D01*
X130466Y38878D01*
X131210Y38381D01*
X132088Y38206D01*
X133188D01*
X133328Y36787D01*
X133180Y36675D01*
X132244Y36489D01*
X130756Y35494D01*
X130615Y35284D01*
X129123Y35137D01*
X124680Y39580D01*
X124619Y39885D01*
X124122Y40629D01*
X124122Y40629D01*
X116379Y48372D01*
X115635Y48869D01*
X114757Y49044D01*
X102726D01*
X101908Y50445D01*
X102420Y51456D01*
X109982D01*
X110860Y51631D01*
X111604Y52128D01*
X112933Y53456D01*
X143014D01*
X144092Y52378D01*
D02*
G37*
G36*
X254411Y29162D02*
X254412Y29162D01*
X259303Y24269D01*
X259303Y24269D01*
X260210Y23145D01*
X260611Y22623D01*
X261417Y20677D01*
X261678Y18694D01*
X261657Y18588D01*
Y-10000D01*
Y-18589D01*
X261678Y-18695D01*
X261417Y-20677D01*
X260611Y-22623D01*
X259394Y-24209D01*
X259303Y-24270D01*
X254662Y-28912D01*
X236445Y-47128D01*
X235000Y-46452D01*
Y-45504D01*
X234429Y-44126D01*
X233374Y-43071D01*
X233169Y-42986D01*
Y-39422D01*
X233416Y-39373D01*
X234140Y-38890D01*
X234623Y-38166D01*
X234793Y-37313D01*
Y-32687D01*
X234623Y-31834D01*
X234140Y-31110D01*
X233725Y-30833D01*
X233599Y-30240D01*
Y-29760D01*
X233725Y-29167D01*
X234140Y-28890D01*
X234623Y-28166D01*
X234793Y-27313D01*
Y-22687D01*
X234623Y-21834D01*
X234140Y-21110D01*
X233974Y-21000D01*
X234429Y-19500D01*
X236042D01*
X239810Y-18751D01*
X243359Y-17281D01*
X246553Y-15147D01*
X249269Y-12431D01*
X251403Y-9237D01*
X252873Y-5688D01*
X253622Y-1921D01*
Y1920D01*
X252873Y5688D01*
X251403Y9237D01*
X249269Y12430D01*
X246553Y15146D01*
X243359Y17281D01*
X239810Y18750D01*
X236042Y19500D01*
X234855D01*
X234280Y20886D01*
X235622Y22227D01*
X235776Y22457D01*
X238563D01*
X239416Y22627D01*
X240140Y23110D01*
X240623Y23834D01*
X240793Y24688D01*
Y28812D01*
X240623Y29666D01*
X240158Y30362D01*
X240140Y30393D01*
Y31250D01*
Y32107D01*
X240158Y32138D01*
X240623Y32834D01*
X240793Y33688D01*
Y37812D01*
X240623Y38666D01*
X240140Y39390D01*
X239416Y39873D01*
X238563Y40043D01*
X238356D01*
X237659Y41543D01*
X237850Y42004D01*
Y43496D01*
X237775Y43676D01*
X239047Y44526D01*
X254411Y29162D01*
D02*
G37*
G36*
X124130Y-11622D02*
X124875Y-12119D01*
X125753Y-12294D01*
X126750Y-13754D01*
Y-15246D01*
X127321Y-16624D01*
X128197Y-17500D01*
X127321Y-18376D01*
X126750Y-19754D01*
Y-21246D01*
X127321Y-22624D01*
X128376Y-23679D01*
X127969Y-25134D01*
X127881Y-25266D01*
X127706Y-26143D01*
Y-28414D01*
X125517Y-30603D01*
X125020Y-31347D01*
X124845Y-32225D01*
Y-34628D01*
X124223Y-34752D01*
X123500Y-35235D01*
X123016Y-35959D01*
X122846Y-36813D01*
Y-41438D01*
X123016Y-42291D01*
X123500Y-43015D01*
X123845Y-43245D01*
X124213Y-44643D01*
X124210Y-45001D01*
X123639Y-46379D01*
Y-47871D01*
X122620Y-49331D01*
X117976D01*
X105522Y-36878D01*
X104778Y-36381D01*
X103900Y-36206D01*
X-24096D01*
X-24670Y-34820D01*
X-19907Y-30057D01*
X-19907Y-30057D01*
X-19410Y-29312D01*
X-19235Y-28435D01*
Y-15442D01*
X-13800Y-10007D01*
X122516D01*
X124130Y-11622D01*
D02*
G37*
%LPC*%
G36*
X-84207Y63401D02*
X-84207Y63401D01*
X-126733D01*
X-126733Y63401D01*
X-127747Y63199D01*
X-128607Y62625D01*
X-128607Y62625D01*
X-136124Y55107D01*
X-136699Y54247D01*
X-136901Y53233D01*
X-136901Y53232D01*
Y30281D01*
X-138401Y29771D01*
X-139064Y30636D01*
X-140422Y31678D01*
X-142003Y32333D01*
X-143700Y32556D01*
X-145397Y32333D01*
X-146978Y31678D01*
X-148336Y30636D01*
X-149378Y29278D01*
X-150033Y27697D01*
X-150256Y26000D01*
X-151756Y25820D01*
X-151761Y25832D01*
X-153168Y27239D01*
X-155005Y28000D01*
X-156995D01*
X-158832Y27239D01*
X-160239Y25832D01*
X-161000Y23995D01*
Y22005D01*
X-160239Y20168D01*
X-159257Y19186D01*
X-158982Y18250D01*
X-159257Y17314D01*
X-160239Y16332D01*
X-161000Y14495D01*
Y12505D01*
X-160239Y10668D01*
X-159551Y9980D01*
X-158984Y9000D01*
X-159551Y8020D01*
X-160239Y7332D01*
X-160694Y6233D01*
X-161712D01*
X-162727Y6031D01*
X-163506Y5510D01*
X-163842Y5507D01*
X-165196Y5968D01*
X-165761Y7332D01*
X-166449Y8020D01*
X-167017Y9000D01*
X-166449Y9980D01*
X-165761Y10668D01*
X-165000Y12505D01*
Y14495D01*
X-165761Y16332D01*
X-166743Y17314D01*
X-167018Y18250D01*
X-166743Y19186D01*
X-165761Y20168D01*
X-165000Y22005D01*
Y23995D01*
X-165761Y25832D01*
X-167168Y27239D01*
X-169006Y28000D01*
X-170995D01*
X-172832Y27239D01*
X-174239Y25832D01*
X-174244Y25820D01*
X-175744Y26000D01*
X-175967Y27697D01*
X-176622Y29278D01*
X-177664Y30636D01*
X-179022Y31678D01*
X-180603Y32333D01*
X-182300Y32556D01*
X-183997Y32333D01*
X-185578Y31678D01*
X-186659Y30848D01*
X-189056Y33244D01*
X-190544Y34239D01*
X-192300Y34588D01*
X-194790D01*
X-194947Y35377D01*
X-195699Y36501D01*
X-196068Y36748D01*
Y38252D01*
X-195699Y38499D01*
X-194947Y39623D01*
X-194683Y40950D01*
Y49050D01*
X-194947Y50377D01*
X-195699Y51501D01*
X-196823Y52253D01*
X-198150Y52517D01*
X-203550D01*
X-204877Y52253D01*
X-206001Y51501D01*
X-206753Y50377D01*
X-207017Y49050D01*
Y40950D01*
X-206753Y39623D01*
X-206001Y38499D01*
X-205632Y38252D01*
Y36748D01*
X-206001Y36501D01*
X-206753Y35377D01*
X-207017Y34050D01*
Y25950D01*
X-206753Y24623D01*
X-206001Y23499D01*
X-204877Y22747D01*
X-203550Y22483D01*
X-199358D01*
X-199250Y22462D01*
X-197900D01*
X-196144Y22811D01*
X-194656Y23806D01*
X-194487Y24058D01*
X-192994Y24205D01*
X-191615Y22827D01*
X-190127Y21832D01*
X-188856Y21579D01*
Y14000D01*
X-188633Y12303D01*
X-187978Y10722D01*
X-186936Y9364D01*
X-185578Y8322D01*
X-183997Y7667D01*
X-182300Y7444D01*
X-180603Y7667D01*
X-179022Y8322D01*
X-177664Y9364D01*
X-176622Y10722D01*
X-176254Y11612D01*
X-174630Y11612D01*
X-174239Y10668D01*
X-173551Y9980D01*
X-172984Y9000D01*
X-173551Y8020D01*
X-174239Y7332D01*
X-175000Y5495D01*
Y3505D01*
X-174239Y1668D01*
X-173551Y980D01*
X-172984Y0D01*
X-173551Y-980D01*
X-174239Y-1668D01*
X-175000Y-3505D01*
Y-5495D01*
X-174239Y-7332D01*
X-173551Y-8020D01*
X-172984Y-9000D01*
X-173551Y-9980D01*
X-174239Y-10668D01*
X-174630Y-11612D01*
X-176254Y-11612D01*
X-176622Y-10722D01*
X-177664Y-9364D01*
X-179022Y-8322D01*
X-180603Y-7667D01*
X-182300Y-7444D01*
X-183997Y-7667D01*
X-185578Y-8322D01*
X-186936Y-9364D01*
X-187978Y-10722D01*
X-188633Y-12303D01*
X-188856Y-14000D01*
Y-26000D01*
X-188633Y-27697D01*
X-187978Y-29278D01*
X-186936Y-30636D01*
X-185578Y-31678D01*
X-183997Y-32333D01*
X-182300Y-32556D01*
X-180603Y-32333D01*
X-179022Y-31678D01*
X-177664Y-30636D01*
X-176622Y-29278D01*
X-175967Y-27697D01*
X-175744Y-26000D01*
X-174244Y-25820D01*
X-174239Y-25832D01*
X-172832Y-27239D01*
X-170995Y-28000D01*
X-169006D01*
X-167617Y-29049D01*
X-167489Y-29692D01*
X-167089Y-30291D01*
X-166970Y-30891D01*
X-166569Y-31491D01*
Y-34055D01*
X-167239Y-35058D01*
X-167588Y-36814D01*
Y-39137D01*
X-177244Y-48793D01*
X-178239Y-50282D01*
X-178588Y-52038D01*
Y-61500D01*
X-178293Y-62985D01*
Y-63812D01*
X-178123Y-64666D01*
X-177640Y-65390D01*
X-176916Y-65873D01*
X-176063Y-66043D01*
X-174228D01*
X-174000Y-66088D01*
X-174000Y-66088D01*
X-167440D01*
X-167361Y-66486D01*
X-166830Y-67280D01*
X-166036Y-67811D01*
X-165100Y-67997D01*
X-159700D01*
X-158764Y-67811D01*
X-157970Y-67280D01*
X-157439Y-66486D01*
X-157253Y-65550D01*
Y-57450D01*
X-157439Y-56514D01*
X-157970Y-55720D01*
X-158764Y-55189D01*
X-159700Y-55003D01*
X-165100D01*
X-166036Y-55189D01*
X-166830Y-55720D01*
X-167361Y-56514D01*
X-167440Y-56912D01*
X-169412D01*
Y-53938D01*
X-159756Y-44282D01*
X-158761Y-42793D01*
X-158412Y-41038D01*
Y-36814D01*
X-158761Y-35058D01*
X-159431Y-34055D01*
Y-31367D01*
X-159281Y-31141D01*
X-158974Y-29601D01*
X-158983Y-29553D01*
X-158818Y-28719D01*
X-157334Y-27931D01*
X-157162Y-27931D01*
X-156995Y-28000D01*
X-155005D01*
X-153168Y-27239D01*
X-151761Y-25832D01*
X-151756Y-25820D01*
X-150256Y-26000D01*
X-150033Y-27697D01*
X-149378Y-29278D01*
X-148336Y-30636D01*
X-146978Y-31678D01*
X-145397Y-32333D01*
X-143700Y-32556D01*
X-142003Y-32333D01*
X-140422Y-31678D01*
X-139064Y-30636D01*
X-138022Y-29278D01*
X-137367Y-27697D01*
X-137144Y-26000D01*
Y-14000D01*
X-137367Y-12303D01*
X-138022Y-10722D01*
X-139064Y-9364D01*
X-140422Y-8322D01*
X-142003Y-7667D01*
X-143700Y-7444D01*
X-145397Y-7667D01*
X-146978Y-8322D01*
X-148336Y-9364D01*
X-149378Y-10722D01*
X-149746Y-11612D01*
X-151370Y-11612D01*
X-151761Y-10668D01*
X-152449Y-9980D01*
X-153016Y-9000D01*
X-152449Y-8020D01*
X-151761Y-7332D01*
X-151000Y-5495D01*
Y-4501D01*
X-139967D01*
X-139967Y-4501D01*
X-138953Y-4299D01*
X-138093Y-3724D01*
X-128675Y5693D01*
X-128101Y6553D01*
X-127899Y7567D01*
X-127899Y7567D01*
Y13818D01*
X-127086Y14182D01*
X-126399Y14233D01*
X-125103Y12544D01*
X-123223Y11101D01*
X-121033Y10195D01*
X-118684Y9885D01*
X-116335Y10195D01*
X-114145Y11101D01*
X-112265Y12544D01*
X-110823Y14424D01*
X-109916Y16613D01*
X-109606Y18963D01*
Y23963D01*
X-109916Y26312D01*
X-110823Y28502D01*
X-112265Y30382D01*
X-114145Y31824D01*
X-116335Y32731D01*
X-118684Y33040D01*
X-121033Y32731D01*
X-123223Y31824D01*
X-125103Y30382D01*
X-126399Y28693D01*
X-127086Y28744D01*
X-127899Y29108D01*
Y50602D01*
X-124402Y54099D01*
X-86962D01*
X-86576Y53714D01*
X-86361Y52179D01*
X-87416Y51124D01*
X-87987Y49746D01*
Y48254D01*
X-87416Y46876D01*
X-86361Y45821D01*
X-84983Y45250D01*
X-83491D01*
X-82113Y45821D01*
X-81237Y46697D01*
X-80361Y45821D01*
X-78983Y45250D01*
X-77491D01*
X-76113Y45821D01*
X-75058Y46876D01*
X-74487Y48254D01*
Y49746D01*
X-75058Y51124D01*
X-76113Y52179D01*
X-76651Y52402D01*
Y55845D01*
X-76651Y55845D01*
X-76853Y56860D01*
X-77428Y57720D01*
X-82332Y62625D01*
X-83192Y63199D01*
X-84207Y63401D01*
D02*
G37*
G36*
X-176437Y63043D02*
X-181063D01*
X-181916Y62873D01*
X-182640Y62390D01*
X-183103Y61695D01*
X-183272Y61666D01*
X-184478D01*
X-184647Y61695D01*
X-185110Y62390D01*
X-185834Y62873D01*
X-186688Y63043D01*
X-191313D01*
X-192166Y62873D01*
X-192890Y62390D01*
X-193373Y61666D01*
X-193543Y60813D01*
Y56687D01*
X-193373Y55834D01*
X-192890Y55110D01*
X-192323Y54732D01*
X-192172Y53779D01*
X-192177Y53100D01*
X-192479Y52798D01*
X-193050Y51420D01*
Y49928D01*
X-192479Y48549D01*
X-191424Y47495D01*
X-190046Y46924D01*
X-188554D01*
X-187176Y47495D01*
X-186121Y48549D01*
X-185550Y49928D01*
Y51420D01*
X-186121Y52798D01*
X-186323Y53000D01*
X-185963Y54601D01*
X-185834Y54627D01*
X-185110Y55110D01*
X-184647Y55805D01*
X-184478Y55834D01*
X-183272D01*
X-183103Y55805D01*
X-182640Y55110D01*
X-182145Y54780D01*
X-181813Y53707D01*
X-181741Y53063D01*
X-181929Y52874D01*
X-182500Y51496D01*
Y50004D01*
X-181929Y48626D01*
X-180874Y47571D01*
X-179496Y47000D01*
X-178004D01*
X-176626Y47571D01*
X-175571Y48626D01*
X-175000Y50004D01*
Y51496D01*
X-175571Y52874D01*
X-175759Y53063D01*
X-175687Y53707D01*
X-175355Y54780D01*
X-174860Y55110D01*
X-174377Y55834D01*
X-174207Y56687D01*
Y60813D01*
X-174377Y61666D01*
X-174860Y62390D01*
X-175584Y62873D01*
X-176437Y63043D01*
D02*
G37*
G36*
X75626Y33040D02*
X73277Y32731D01*
X71087Y31824D01*
X69207Y30382D01*
X67765Y28502D01*
X66858Y26312D01*
X66548Y23963D01*
Y18963D01*
X66858Y16613D01*
X67765Y14424D01*
X69207Y12544D01*
X71087Y11101D01*
X73277Y10195D01*
X75626Y9885D01*
X77975Y10195D01*
X80165Y11101D01*
X82045Y12544D01*
X83487Y14424D01*
X84394Y16613D01*
X84704Y18963D01*
Y23963D01*
X84394Y26312D01*
X83487Y28502D01*
X82045Y30382D01*
X80165Y31824D01*
X77975Y32731D01*
X75626Y33040D01*
D02*
G37*
G36*
X54036D02*
X51687Y32731D01*
X49497Y31824D01*
X47617Y30382D01*
X46175Y28502D01*
X45268Y26312D01*
X44958Y23963D01*
Y18963D01*
X45268Y16613D01*
X46175Y14424D01*
X47617Y12544D01*
X49497Y11101D01*
X51687Y10195D01*
X54036Y9885D01*
X56385Y10195D01*
X58575Y11101D01*
X60455Y12544D01*
X61897Y14424D01*
X62804Y16613D01*
X63114Y18963D01*
Y23963D01*
X62804Y26312D01*
X61897Y28502D01*
X60455Y30382D01*
X58575Y31824D01*
X56385Y32731D01*
X54036Y33040D01*
D02*
G37*
G36*
X-232080Y19500D02*
X-235921D01*
X-239688Y18750D01*
X-243237Y17281D01*
X-246431Y15146D01*
X-249147Y12430D01*
X-251281Y9237D01*
X-252751Y5688D01*
X-253500Y1920D01*
Y-1921D01*
X-252751Y-5688D01*
X-251281Y-9237D01*
X-249147Y-12431D01*
X-246431Y-15147D01*
X-243237Y-17281D01*
X-239688Y-18751D01*
X-235921Y-19500D01*
X-232080D01*
X-228312Y-18751D01*
X-224763Y-17281D01*
X-221569Y-15147D01*
X-218853Y-12431D01*
X-216719Y-9237D01*
X-215249Y-5688D01*
X-214500Y-1921D01*
Y1920D01*
X-215249Y5688D01*
X-216719Y9237D01*
X-218853Y12430D01*
X-221569Y15146D01*
X-224763Y17281D01*
X-228312Y18750D01*
X-232080Y19500D01*
D02*
G37*
G36*
X-130254Y-50750D02*
X-131746D01*
X-133124Y-51321D01*
X-134179Y-52376D01*
X-134750Y-53754D01*
Y-55246D01*
X-134179Y-56624D01*
X-134268Y-57529D01*
X-134389Y-57610D01*
X-134873Y-58334D01*
X-135043Y-59187D01*
Y-59206D01*
X-143353D01*
Y-57450D01*
X-143539Y-56514D01*
X-144070Y-55720D01*
X-144864Y-55189D01*
X-145800Y-55003D01*
X-151200D01*
X-152136Y-55189D01*
X-152930Y-55720D01*
X-153461Y-56514D01*
X-153647Y-57450D01*
Y-65550D01*
X-153461Y-66486D01*
X-152930Y-67280D01*
X-152136Y-67811D01*
X-151200Y-67997D01*
X-145800D01*
X-144864Y-67811D01*
X-144070Y-67280D01*
X-143539Y-66486D01*
X-143353Y-65550D01*
Y-63794D01*
X-135043D01*
Y-63812D01*
X-134873Y-64666D01*
X-134389Y-65389D01*
X-133666Y-65873D01*
X-132812Y-66043D01*
X-128687D01*
X-127834Y-65873D01*
X-127110Y-65389D01*
X-126627Y-64666D01*
X-126457Y-63812D01*
Y-59187D01*
X-126627Y-58334D01*
X-127110Y-57610D01*
X-127730Y-56750D01*
X-127446Y-55719D01*
X-127250Y-55246D01*
Y-53754D01*
X-127821Y-52376D01*
X-128876Y-51321D01*
X-130254Y-50750D01*
D02*
G37*
G36*
X45516Y-49750D02*
X42883D01*
X40340Y-50431D01*
X38060Y-51748D01*
X36198Y-53610D01*
X34881Y-55890D01*
X34200Y-58433D01*
Y-61066D01*
X34881Y-63610D01*
X36198Y-65890D01*
X38060Y-67752D01*
X40340Y-69068D01*
X42883Y-69750D01*
X45516D01*
X48060Y-69068D01*
X50340Y-67752D01*
X52202Y-65890D01*
X53518Y-63610D01*
X54200Y-61066D01*
Y-58433D01*
X53518Y-55890D01*
X52202Y-53610D01*
X50340Y-51748D01*
X48060Y-50431D01*
X45516Y-49750D01*
D02*
G37*
G36*
X70917Y-49750D02*
X68283D01*
X65740Y-50431D01*
X63460Y-51748D01*
X61598Y-53610D01*
X60282Y-55890D01*
X59600Y-58433D01*
Y-61066D01*
X60282Y-63610D01*
X61598Y-65890D01*
X63460Y-67752D01*
X65740Y-69068D01*
X68283Y-69750D01*
X70917D01*
X73460Y-69068D01*
X75740Y-67752D01*
X77602Y-65890D01*
X78918Y-63610D01*
X79600Y-61066D01*
Y-58433D01*
X78918Y-55890D01*
X77602Y-53610D01*
X75740Y-51748D01*
X73460Y-50431D01*
X70917Y-49750D01*
D02*
G37*
G36*
X-5283D02*
X-7917D01*
X-10460Y-50431D01*
X-12740Y-51748D01*
X-14602Y-53610D01*
X-15919Y-55890D01*
X-16600Y-58433D01*
Y-61066D01*
X-15919Y-63610D01*
X-14602Y-65890D01*
X-12740Y-67752D01*
X-10460Y-69068D01*
X-7917Y-69750D01*
X-5283D01*
X-2740Y-69068D01*
X-460Y-67752D01*
X1402Y-65890D01*
X2718Y-63610D01*
X3400Y-61066D01*
Y-58433D01*
X2718Y-55890D01*
X1402Y-53610D01*
X-460Y-51748D01*
X-2740Y-50431D01*
X-5283Y-49750D01*
D02*
G37*
G36*
X20117Y-49750D02*
X17484D01*
X14940Y-50431D01*
X12660Y-51748D01*
X10798Y-53610D01*
X9481Y-55890D01*
X8800Y-58433D01*
Y-61067D01*
X9481Y-63610D01*
X10798Y-65890D01*
X12660Y-67752D01*
X14940Y-69068D01*
X17484Y-69750D01*
X20117D01*
X22660Y-69068D01*
X24940Y-67752D01*
X26802Y-65890D01*
X28119Y-63610D01*
X28800Y-61067D01*
Y-58433D01*
X28119Y-55890D01*
X26802Y-53610D01*
X24940Y-51748D01*
X22660Y-50431D01*
X20117Y-49750D01*
D02*
G37*
%LPD*%
D11*
X217500Y52349D02*
Y60000D01*
X213401Y48250D02*
X217500Y52349D01*
X212500Y48250D02*
X213401D01*
X234000Y23849D02*
Y24750D01*
X224000D02*
X226000Y26750D01*
X210484Y5000D02*
X225734Y20250D01*
X205500Y10000D02*
X210151D01*
X224000Y23849D02*
Y24750D01*
X226000Y26750D02*
X226250D01*
X225734Y20250D02*
X230401D01*
X234000Y23849D01*
X210151Y10000D02*
X224000Y23849D01*
X214688Y19927D02*
Y25187D01*
X214562Y25312D02*
X214688Y25187D01*
X205500Y15000D02*
X209760D01*
X214688Y19927D01*
X196250Y28000D02*
Y40500D01*
X171250Y-5000D02*
X191250Y15000D01*
Y28000D01*
X161636Y54000D02*
X167500Y48136D01*
Y34886D02*
Y48136D01*
X159700Y70500D02*
X171250Y58950D01*
Y28000D02*
Y58950D01*
X166250Y33636D02*
X167500Y34886D01*
X166250Y28000D02*
Y33636D01*
X162500Y35438D02*
Y36250D01*
X161250Y34188D02*
X162500Y35438D01*
X161250Y28000D02*
Y34188D01*
X153750Y36250D02*
X156250Y33750D01*
Y28000D02*
Y33750D01*
X152452Y19048D02*
X152500D01*
X151250Y20250D02*
X152452Y19048D01*
X151250Y20250D02*
Y28000D01*
X138750Y40500D02*
X139000D01*
X143250Y36250D01*
X144250D01*
X146250Y34250D01*
Y28000D02*
Y34250D01*
X216500Y-13393D02*
Y-11740D01*
X209760Y-5000D02*
X216500Y-11740D01*
X204250Y-5000D02*
X209760D01*
X204250Y-5000D02*
X204250Y-5000D01*
X213500Y-14636D02*
Y-13740D01*
X209760Y-10000D02*
X213500Y-13740D01*
X204250Y-10000D02*
X209760D01*
X191250Y-43510D02*
X193740Y-46000D01*
X191250Y-43510D02*
Y-38000D01*
X189870Y-46380D02*
X192740Y-49250D01*
X189120Y-46380D02*
X189870D01*
X186250Y-43510D02*
X189120Y-46380D01*
X186250Y-43510D02*
Y-38000D01*
X186250Y-38000D02*
X186250Y-38000D01*
X185125Y-54630D02*
X185397Y-54358D01*
Y-49500D01*
X181250Y-45353D02*
X185397Y-49500D01*
X181250Y-45353D02*
Y-38000D01*
X181331Y-60255D02*
X182500Y-61424D01*
X180666Y-60255D02*
X181331D01*
X179252Y-58842D02*
X180666Y-60255D01*
X179252Y-58842D02*
Y-50418D01*
X179252Y-50418D02*
X179252Y-50418D01*
X179252Y-50418D02*
Y-48647D01*
X176250Y-45644D02*
X179252Y-48647D01*
X176250Y-45644D02*
Y-38000D01*
X171250Y-47870D02*
X172880Y-49500D01*
X171250Y-47870D02*
Y-38000D01*
Y-45188D02*
Y-38000D01*
X155260Y-55750D02*
X166250Y-44760D01*
Y-38000D01*
X153260Y-52750D02*
X161250Y-44760D01*
Y-38000D01*
X151260Y-49750D02*
X156250Y-44760D01*
Y-38000D01*
X148010Y-46750D02*
X151250Y-43510D01*
Y-38000D01*
X151250Y-38000D01*
X145750Y-38000D02*
X146250Y-38500D01*
X136250Y-38000D02*
X145750D01*
X146250Y-39125D02*
Y-38500D01*
X138000Y20500D02*
Y25000D01*
X138500Y20000D02*
X139500D01*
X138000Y20500D02*
X138500Y20000D01*
X127139Y-32225D02*
X130000Y-29364D01*
Y-26143D01*
X130879Y-25265D01*
X139235D01*
X130500Y-20500D02*
X131000Y-20000D01*
X139500D01*
X131000Y-15000D02*
X139000D01*
X139000Y-15000D01*
X130500Y-14500D02*
X131000Y-15000D01*
X125753Y-10000D02*
X139500D01*
X123466Y-7713D02*
X125753Y-10000D01*
X127139Y-39125D02*
Y-32225D01*
X130500Y-5000D02*
X139000D01*
X131708Y15879D02*
Y29307D01*
Y15879D02*
X132587Y15000D01*
X139500D01*
X122500Y38516D02*
Y39007D01*
X114757Y46750D02*
X122500Y39007D01*
Y38516D02*
X131708Y29307D01*
X205500Y5000D02*
X210484D01*
X234000Y24750D02*
X236000Y26750D01*
X205500Y-20000D02*
X212121D01*
X214121Y-22000D02*
X214500D01*
X212121Y-20000D02*
X214121Y-22000D01*
X211010Y-25000D02*
X213500Y-27490D01*
X205500Y-25000D02*
X205500Y-25000D01*
X213500Y-28879D02*
Y-27490D01*
Y-28879D02*
X215871Y-31250D01*
X216250D01*
X205500Y-25000D02*
X211010D01*
X223357Y-20250D02*
X226000D01*
X220750Y-25901D02*
Y-21886D01*
X216500Y-13393D02*
X223357Y-20250D01*
X213500Y-14636D02*
X220750Y-21886D01*
X227600Y-32750D02*
X228500D01*
X230500Y-34750D01*
X220750Y-25901D02*
X227600Y-32750D01*
X230500Y-35000D02*
Y-34750D01*
Y-35000D02*
X230875Y-35375D01*
X226000Y-20250D02*
X231000Y-25250D01*
X126161Y46250D02*
X126338D01*
X132088Y40500D01*
X138750D01*
X-178750Y50750D02*
Y58750D01*
X97216Y21463D02*
X97250Y21497D01*
Y39750D01*
X60316Y39000D02*
X68066Y46750D01*
X114757D01*
X72033Y56000D02*
X74283Y53750D01*
X88250D01*
X44250Y56000D02*
X72033D01*
X97250Y53750D02*
X109982D01*
X109316Y63750D02*
X116066Y70500D01*
X97250Y63750D02*
X109316D01*
X116066Y70500D02*
X159700D01*
X66500Y63750D02*
X88250D01*
X32446Y21463D02*
X33230Y22247D01*
Y32834D01*
X39396Y39000D01*
X60316D01*
X109982Y53750D02*
X111982Y55750D01*
X143965D01*
X-131000Y-54500D02*
X-131000Y-61500D01*
X209500Y54750D02*
Y56000D01*
X200000Y-53500D02*
X207250Y-46250D01*
X127389Y-46996D02*
Y-39000D01*
X-131000Y-61500D02*
Y-61500D01*
X-107322Y-29645D02*
X-91729Y-45238D01*
X102153D01*
X116165Y-59250D01*
X133699D01*
X-107000Y-29645D02*
Y-29323D01*
X-76669Y-41744D02*
X102902D01*
X-57451Y-38500D02*
X103900D01*
X-86299Y-32115D02*
X-76669Y-41744D01*
X102902D02*
X115783Y-54625D01*
X103900Y-38500D02*
X117025Y-51625D01*
X-64709Y-31242D02*
X-57451Y-38500D01*
X-64709Y-31242D02*
Y-3459D01*
X117025Y-51625D02*
X131018D01*
X115783Y-54625D02*
X132659D01*
X-86299Y-32115D02*
Y-5049D01*
X140199Y-52750D02*
X153260D01*
X133699Y-59250D02*
X140199Y-52750D01*
X132659Y-54625D02*
X137534Y-49750D01*
X131018Y-51625D02*
X135893Y-46750D01*
X144750Y-60000D02*
X149000Y-55750D01*
X155260D01*
X138750Y49500D02*
X139000D01*
X141500Y47000D01*
X142901D01*
X143651Y46250D01*
X152500D01*
X161636Y54000D02*
X161636Y54000D01*
X145715Y54000D02*
X161636D01*
X143965Y55750D02*
X145715Y54000D01*
X-97094Y1323D02*
Y21463D01*
X-107889Y-9472D02*
X-97094Y1323D01*
X-107889Y-28435D02*
Y-9472D01*
Y-28435D02*
X-107000Y-29323D01*
X139235Y-25265D02*
X139500Y-25000D01*
Y-30000D02*
X147500D01*
X-53914Y-33086D02*
X-51787Y-35213D01*
X-28308D01*
X-53914Y-33086D02*
Y-21463D01*
X-28308Y-35213D02*
X-21529Y-28435D01*
X-14750Y-7713D02*
X123466D01*
X139000Y-5000D02*
X139750Y-5750D01*
X-21529Y-28435D02*
Y-14492D01*
X-14750Y-7713D01*
X-32324Y-8074D02*
X-25537Y-1287D01*
X127194D01*
X-32324Y-21463D02*
Y-8074D01*
X128481Y0D02*
X139500D01*
X127194Y-1287D02*
X128481Y0D01*
X-53914Y7336D02*
Y21463D01*
X-64709Y-3459D02*
X-53914Y7336D01*
X-75504Y5746D02*
Y21463D01*
X-86299Y-5049D02*
X-75504Y5746D01*
X129238Y5000D02*
X139500D01*
X125951Y1713D02*
X129238Y5000D01*
X10856Y9213D02*
X15356Y4713D01*
X129996Y10000D02*
X139500D01*
X131750Y49500D02*
X138750D01*
X-57500Y54000D02*
X-55250Y56250D01*
X-57500Y50250D02*
Y54000D01*
X-55250Y56250D02*
X-45750D01*
X-214750Y54750D02*
X-201750Y67750D01*
X-178750D01*
X-183000Y-61500D02*
Y-53500D01*
X216250Y40000D02*
X218750Y42500D01*
X216250Y35750D02*
Y40000D01*
X200500Y55000D02*
Y65000D01*
X185500Y61750D02*
X197500D01*
X200500Y64750D01*
X205000Y33750D02*
Y34379D01*
X200500Y44750D02*
X203000Y42250D01*
Y36379D02*
Y42250D01*
Y36379D02*
X205000Y34379D01*
X165549Y-70438D02*
X171183D01*
X158500Y-70500D02*
X165486D01*
X165549Y-70438D01*
X172880Y-68741D02*
Y-64375D01*
X153000Y-65000D02*
X158500Y-70500D01*
X171183Y-70438D02*
X172880Y-68741D01*
X185125Y-64375D02*
X199875D01*
X182500Y-61750D02*
Y-61424D01*
Y-61750D02*
X185125Y-64375D01*
X185125Y-54630D02*
X192320D01*
X174879Y-70500D02*
X187158D01*
X173000Y-68621D02*
X174879Y-70500D01*
X187158Y-70438D02*
X203812D01*
X155000Y-62500D02*
Y-61099D01*
X163025Y-53074D02*
X164426D01*
X209000Y-64750D02*
X211031Y-62719D01*
X195740Y-49250D02*
X199995Y-53505D01*
X192740Y-49250D02*
X195740D01*
X193740Y-46000D02*
X203258D01*
X206007Y-43250D01*
X211750D02*
X216250Y-38750D01*
X207250Y-46250D02*
X216250D01*
X199995Y-53505D02*
Y-53505D01*
X205750Y-33750D02*
X206250Y-34250D01*
Y-38750D02*
Y-34250D01*
X205750Y-33750D02*
Y-30750D01*
X230875Y-45875D02*
X231250Y-46250D01*
X236000Y26750D02*
X236250D01*
X200500Y44750D02*
Y45000D01*
X196250Y40500D02*
X200500Y44750D01*
X201250Y46000D02*
X203324Y48074D01*
X230875Y-45875D02*
Y-35375D01*
X205000Y26750D02*
X216250D01*
X205500Y15000D02*
X205500Y15000D01*
X209500Y45750D02*
X210000D01*
X209500Y64750D02*
X211500Y62750D01*
X213938D01*
X206007Y-43250D02*
X211750D01*
X-148500Y-61500D02*
X-131000D01*
X59750Y70500D02*
X66500Y63750D01*
X-32324Y-824D02*
Y21463D01*
X-42250Y-10750D02*
X-32324Y-824D01*
X-10734Y9213D02*
X-3234Y1713D01*
X124708Y4713D02*
X129996Y10000D01*
X137534Y-49750D02*
X151260D01*
X135893Y-46750D02*
X148010D01*
X166121Y-58778D02*
X167649Y-57250D01*
X170260D01*
X215781Y-62719D02*
X216250Y-62250D01*
X153000Y-65000D02*
Y-64750D01*
X164426Y-53074D02*
X165000Y-52500D01*
X155000Y-61099D02*
X163025Y-53074D01*
X153000Y-64500D02*
X155000Y-62500D01*
X211031Y-62719D02*
X215781D01*
X196815Y-59125D02*
X203875D01*
X209250Y-64500D01*
Y-65000D02*
Y-64500D01*
X192320Y-54630D02*
X196815Y-59125D01*
X203812Y-70438D02*
X209250Y-65000D01*
X199875Y-64375D02*
X200250Y-64750D01*
X172880Y-54630D02*
Y-49500D01*
X162000Y-64500D02*
X166121Y-60379D01*
X170260Y-57250D02*
X172880Y-54630D01*
X166121Y-60379D02*
Y-58778D01*
X162000Y-64750D02*
Y-64500D01*
X207500Y52750D02*
X209500Y54750D01*
X203324Y49016D02*
X207057Y52750D01*
X203324Y48074D02*
Y49016D01*
X207057Y52750D02*
X207500D01*
X200500Y46000D02*
X201250D01*
X110889Y-39125D02*
X118139D01*
X209500Y64750D02*
Y66500D01*
X210000Y45750D02*
X212500Y48250D01*
X216688Y60000D02*
X217500D01*
X213938Y62750D02*
X216688Y60000D01*
X-8961Y66621D02*
X-7121D01*
X-3243Y70500D01*
X59750D01*
X-8961Y66621D02*
X-7671D01*
X178750Y36250D02*
Y37062D01*
X176500Y52750D02*
X185500Y61750D01*
X-3234Y1713D02*
X125951D01*
X15356Y4713D02*
X124708D01*
X176500Y39312D02*
X178750Y37062D01*
X176500Y39312D02*
Y52750D01*
X-17250Y56250D02*
Y59621D01*
X-10250Y66621D01*
X-8961D01*
X-10734Y9213D02*
Y21463D01*
X10856Y9213D02*
Y21463D01*
D19*
X234840Y37160D02*
Y42310D01*
X227660D02*
X228100Y42750D01*
X227660Y37160D02*
Y42310D01*
X226250Y35750D02*
X227660Y37160D01*
X-85864Y56750D02*
X-83172Y54058D01*
X-99900Y56750D02*
X-85864D01*
X-83172Y50065D02*
Y54058D01*
X-84237Y49000D02*
X-83172Y50065D01*
X-130550Y51700D02*
X-125500Y56750D01*
X-108100D02*
X-99900D01*
X-125500D02*
X-108100D01*
X-130550Y7567D02*
Y51700D01*
X-139967Y-1850D02*
X-130550Y7567D01*
X-156000Y-4500D02*
X-153350Y-1850D01*
X-139967D01*
X-84207Y60750D02*
X-79302Y55845D01*
X-108100Y60750D02*
X-84207D01*
X-79302Y50065D02*
Y55845D01*
Y50065D02*
X-78237Y49000D01*
X-134250Y53233D02*
X-126733Y60750D01*
X-108100D01*
X-134250Y9100D02*
Y53233D01*
X-156000Y4500D02*
X-153350Y1850D01*
X-156918Y3582D02*
X-156000Y4500D01*
X-161712Y3582D02*
X-156918D01*
X-163001Y2293D02*
X-161712Y3582D01*
X-141500Y1850D02*
X-134250Y9100D01*
X-153350Y1850D02*
X-141500D01*
X-164287Y-3582D02*
X-162999Y-2293D01*
Y-1D01*
X-163001Y1D02*
Y2293D01*
X-169082Y-3582D02*
X-164287D01*
D20*
X-182300Y20000D02*
Y24223D01*
X-184148Y26071D02*
X-182300Y24223D01*
X-188371Y26071D02*
X-184148D01*
X-192300Y30000D02*
X-188371Y26071D01*
X-200850Y30000D02*
X-192300D01*
X-163000Y-36814D02*
Y-29601D01*
X-199250Y27050D02*
X-197900D01*
X-200850Y28650D02*
X-199250Y27050D01*
X-200850Y28650D02*
Y30000D01*
Y45000D01*
D21*
X-163250Y-23250D02*
X-163000Y-23000D01*
X-163250Y-27936D02*
Y-23250D01*
X-163000Y-41038D02*
Y-36814D01*
X-170000Y-23000D02*
X-163000D01*
X-156000D01*
X-174000Y-52038D02*
X-163000Y-41038D01*
X-174000Y-61500D02*
Y-52038D01*
X-174000Y-61500D02*
X-162400D01*
X-174000Y-61500D02*
X-174000Y-61500D01*
D24*
X-118684Y21463D02*
D03*
X-97094D02*
D03*
X-75504D02*
D03*
X-53914D02*
D03*
X-32324D02*
D03*
X-10734D02*
D03*
X10856D02*
D03*
X32446D02*
D03*
X54036D02*
D03*
X75626D02*
D03*
X97216D02*
D03*
X118806D02*
D03*
X-118684Y-21463D02*
D03*
X-97094D02*
D03*
X-75504D02*
D03*
X-53914D02*
D03*
X-32324D02*
D03*
X-10734D02*
D03*
X10856D02*
D03*
X32446D02*
D03*
X54036D02*
D03*
X75626D02*
D03*
X97216D02*
D03*
X118806D02*
D03*
D25*
X-182300Y-20000D02*
D03*
Y20000D02*
D03*
X-143700D02*
D03*
Y-20000D02*
D03*
D26*
X-156000Y-32500D02*
D03*
Y-23000D02*
D03*
Y-13500D02*
D03*
Y-4500D02*
D03*
Y4500D02*
D03*
Y13500D02*
D03*
Y23000D02*
D03*
Y32500D02*
D03*
X-170000D02*
D03*
Y23000D02*
D03*
Y13500D02*
D03*
Y4500D02*
D03*
Y-4500D02*
D03*
Y-13500D02*
D03*
Y-23000D02*
D03*
Y-32500D02*
D03*
D27*
X95000Y-59750D02*
D03*
D28*
X-32000D02*
D03*
X69600Y-59750D02*
D03*
X44200Y-59750D02*
D03*
X18800Y-59750D02*
D03*
X-6600Y-59750D02*
D03*
D29*
X234100Y42750D02*
D03*
X228100D02*
D03*
X-84237Y49000D02*
D03*
X-78237D02*
D03*
X-124750Y-7500D02*
D03*
X-58250Y-7250D02*
D03*
X-124750Y-44750D02*
D03*
X136250Y-38000D02*
D03*
X138000Y25000D02*
D03*
X130500Y-20500D02*
D03*
Y-14500D02*
D03*
Y-5000D02*
D03*
X214500Y-22000D02*
D03*
X126161Y46250D02*
D03*
X78500Y40000D02*
D03*
X-209878Y-68250D02*
D03*
Y68250D02*
D03*
X-248628Y17000D02*
D03*
Y-17000D02*
D03*
X248628Y-17000D02*
D03*
X248750Y17000D02*
D03*
X-171000Y67750D02*
D03*
X-95750Y49500D02*
D03*
X-71902Y49340D02*
D03*
X144750Y-60000D02*
D03*
X131750Y49500D02*
D03*
X-90000Y67250D02*
D03*
X-118000D02*
D03*
X-57500Y50250D02*
D03*
X15500Y40000D02*
D03*
X-183000Y-53500D02*
D03*
X162500Y36250D02*
D03*
X218750Y42500D02*
D03*
X216250Y-62250D02*
D03*
X247500Y-31250D02*
D03*
Y-25000D02*
D03*
X205000Y33750D02*
D03*
Y26750D02*
D03*
X217500Y60000D02*
D03*
X153750Y36250D02*
D03*
X178750D02*
D03*
X165000Y-52500D02*
D03*
X206250Y-38750D02*
D03*
X231250Y-46250D02*
D03*
X216250Y-31250D02*
D03*
Y-53750D02*
D03*
Y-46250D02*
D03*
Y-38750D02*
D03*
X-214750Y18000D02*
D03*
Y54750D02*
D03*
X-113000Y-61500D02*
D03*
X-178750Y50750D02*
D03*
X-189300Y50674D02*
D03*
X-42250Y-10750D02*
D03*
X-131000Y-54500D02*
D03*
X127389Y-47125D02*
D03*
X110889Y-39125D02*
D03*
D30*
X171250Y-5000D02*
D03*
D32*
X-108100Y56750D02*
D03*
X-108100Y60750D02*
D03*
X-99900Y64750D02*
D03*
X-99900Y60750D02*
D03*
X-99900Y56750D02*
D03*
X-108100Y64750D02*
D03*
D33*
X-200850Y30000D02*
D03*
X-214650D02*
D03*
Y45000D02*
D03*
X-200850D02*
D03*
X-162400Y-61500D02*
D03*
X-148500D02*
D03*
D34*
X209250Y-64750D02*
D03*
X200250D02*
D03*
X153000Y-64750D02*
D03*
X162000D02*
D03*
X118139Y-39125D02*
D03*
X127139D02*
D03*
X209500Y65000D02*
D03*
X200500D02*
D03*
X209500Y45000D02*
D03*
X200500D02*
D03*
X-183000Y-61500D02*
D03*
X-174000D02*
D03*
X209250Y-53500D02*
D03*
X200250D02*
D03*
X239500Y-25000D02*
D03*
X230500D02*
D03*
X-121750Y-61500D02*
D03*
X-130750D02*
D03*
X239500Y-35000D02*
D03*
X230500D02*
D03*
X97250Y53750D02*
D03*
X88250D02*
D03*
Y63750D02*
D03*
X97250D02*
D03*
X200500Y55000D02*
D03*
X209500D02*
D03*
X97250Y39750D02*
D03*
X88250D02*
D03*
D35*
X138750Y49500D02*
D03*
Y40500D02*
D03*
X216250Y35750D02*
D03*
Y26750D02*
D03*
X-189000Y67750D02*
D03*
Y58750D02*
D03*
X-178750D02*
D03*
Y67750D02*
D03*
X236250Y26750D02*
D03*
Y35750D02*
D03*
X226250D02*
D03*
Y26750D02*
D03*
D36*
X146250Y-38000D02*
D03*
X196250Y-38000D02*
D03*
X191250Y-38000D02*
D03*
X171250Y-38000D02*
D03*
X166250Y-38000D02*
D03*
X161250Y-38000D02*
D03*
X156250Y-38000D02*
D03*
X151250D02*
D03*
X156250Y28000D02*
D03*
X161250Y28000D02*
D03*
X166250Y28000D02*
D03*
X171250D02*
D03*
X176250D02*
D03*
X181250Y28000D02*
D03*
X186250Y28000D02*
D03*
X191250Y28000D02*
D03*
X151250D02*
D03*
X181250Y-38000D02*
D03*
X176250Y-38000D02*
D03*
X196250Y28000D02*
D03*
X146250D02*
D03*
X186250Y-38000D02*
D03*
D37*
X204250Y20000D02*
D03*
X204250Y10000D02*
D03*
X204250Y5000D02*
D03*
X204250Y-5000D02*
D03*
X204250Y-15000D02*
D03*
X204250Y-20000D02*
D03*
X204250Y-25000D02*
D03*
Y-30000D02*
D03*
X138250Y-20000D02*
D03*
X138250Y-15000D02*
D03*
X138250Y-10000D02*
D03*
X138250Y-5000D02*
D03*
X138250Y0D02*
D03*
Y5000D02*
D03*
X138250Y10000D02*
D03*
Y15000D02*
D03*
X138250Y20000D02*
D03*
X138250Y-30000D02*
D03*
X204250Y-0D02*
D03*
X138250Y-25000D02*
D03*
X204250Y-10000D02*
D03*
X204250Y15000D02*
D03*
D38*
X171250Y-5000D02*
D03*
D39*
X185625Y-54630D02*
D03*
X185625Y-64375D02*
D03*
X172880Y-64375D02*
D03*
X172880Y-54630D02*
D03*
D40*
X152500Y46250D02*
D03*
X186000D02*
D03*
Y61750D02*
D03*
D41*
X15750Y56000D02*
D03*
X-44250D02*
D03*
X-15750Y56000D02*
D03*
X44250D02*
D03*
D42*
X152500Y61750D02*
D03*
D43*
X-163250Y-29351D02*
Y-27936D01*
Y-29351D02*
X-163000Y-29601D01*
D44*
X78750Y39750D02*
X88250D01*
X78500Y40000D02*
X78750Y39750D01*
X-99900Y64750D02*
X-92500D01*
X-90000Y67250D01*
X-118000D02*
X-115500Y64750D01*
X-108100D01*
X-99900D01*
X15404Y40096D02*
X15500Y40000D01*
X15404Y40096D02*
Y55654D01*
X15329Y55578D02*
X15750Y56000D01*
X8750Y55578D02*
X15329D01*
X15404Y55654D02*
X15750Y56000D01*
X172250Y-5000D02*
X177500Y-0D01*
X205500D01*
X244078Y-34672D02*
X247500Y-31250D01*
X239828Y-34672D02*
X244078D01*
X239500Y-35000D02*
X239828Y-34672D01*
X239500Y-25000D02*
X247500D01*
X209404Y-53654D02*
X216154D01*
X216250Y-53750D01*
X209250Y-53500D02*
X209404Y-53654D01*
X-214750Y18000D02*
X-214650Y18100D01*
Y30000D01*
X-214750Y45100D02*
Y54750D01*
Y45100D02*
X-214650Y45000D01*
X-113000Y-61500D02*
X-113000Y-61500D01*
X-121750Y-61500D02*
X-113000D01*
X-189300Y58450D02*
X-189000Y58750D01*
X-189300Y50674D02*
Y58450D01*
M02*
