G04*
G04 #@! TF.GenerationSoftware,Altium Limited,Altium Designer,25.5.2 (35)*
G04*
G04 Layer_Color=8388736*
%FSLAX44Y44*%
%MOMM*%
G71*
G04*
G04 #@! TF.SameCoordinates,449EA512-5FDF-437D-9D79-FEBFBDB7331F*
G04*
G04*
G04 #@! TF.FilePolarity,Positive*
G04*
G01*
G75*
%ADD10C,0.0500*%
G36*
X23604Y44000D02*
X7750D01*
Y67854D01*
X23604D01*
Y44000D01*
D02*
G37*
G36*
X158250Y56500D02*
X146750D01*
Y67000D01*
X158250D01*
Y56500D01*
D02*
G37*
G36*
X-36396Y44000D02*
X-52250D01*
Y67854D01*
X-36396D01*
Y44000D01*
D02*
G37*
%LPC*%
G36*
X19047Y61141D02*
X13391D01*
X18173D01*
X18034Y61127D01*
X17882Y61114D01*
X17854D01*
X17785Y61100D01*
X17702Y61072D01*
X17618Y61044D01*
X17605Y61030D01*
X17577Y61003D01*
X17521Y60947D01*
X17480Y60892D01*
X13680Y55733D01*
Y60892D01*
Y60905D01*
Y60919D01*
X13666Y60961D01*
X13638Y61003D01*
Y61017D01*
X13610Y61030D01*
X13583Y61058D01*
X13527Y61086D01*
X13513D01*
X13472Y61100D01*
X13402D01*
X13305Y61114D01*
X13278D01*
X13222Y61127D01*
X13125Y61141D01*
X12307D01*
X12875D01*
X12764Y61127D01*
X12653Y61114D01*
X12640D01*
X12584Y61100D01*
X12515D01*
X12445Y61086D01*
X12432D01*
X12404Y61058D01*
X12362Y61044D01*
X12335Y61003D01*
Y60989D01*
X12321Y60961D01*
X12307Y60892D01*
Y50712D01*
D01*
Y50934D01*
X12335Y50865D01*
Y50851D01*
X12362Y50837D01*
X12390Y50809D01*
X12445Y50782D01*
X12459D01*
X12501Y50768D01*
X12570Y50754D01*
X12653Y50740D01*
X12681D01*
X12751Y50726D01*
X12848Y50712D01*
X13097D01*
X13208Y50726D01*
X13305Y50740D01*
X13333D01*
X13389Y50754D01*
X13458Y50768D01*
X13527Y50782D01*
X13541D01*
X13569Y50795D01*
X13610Y50823D01*
X13638Y50865D01*
X13652Y50879D01*
X13666Y50893D01*
X13680Y50934D01*
Y50976D01*
Y55566D01*
X17327Y50976D01*
X17341Y50962D01*
X17369Y50934D01*
X17438Y50865D01*
X17452Y50851D01*
X17480Y50837D01*
X17535Y50809D01*
X17591Y50782D01*
X17605D01*
X17660Y50768D01*
X17729Y50754D01*
X17812Y50740D01*
X17840D01*
X17910Y50726D01*
X18021Y50712D01*
X18284D01*
X18381Y50726D01*
X18492Y50740D01*
X18520D01*
X18575Y50754D01*
X18645Y50768D01*
X18700Y50795D01*
X18714D01*
X18742Y50809D01*
X18783Y50837D01*
X18811Y50879D01*
X18825Y50906D01*
X18839Y50976D01*
Y50990D01*
Y51031D01*
X18811Y51101D01*
X18783Y51184D01*
X18770Y51198D01*
X18742Y51253D01*
X18672Y51350D01*
X18589Y51475D01*
X15164Y55566D01*
X18853Y60476D01*
Y60490D01*
X18880Y60503D01*
X18922Y60587D01*
X18978Y60684D01*
X19019Y60753D01*
Y60767D01*
X19033Y60795D01*
X19047Y60878D01*
Y60503D01*
Y60878D01*
Y60919D01*
X19019Y61003D01*
X18991Y61030D01*
X18964Y61044D01*
X18908Y61072D01*
X18894D01*
X18853Y61086D01*
X18783Y61100D01*
X18686Y61114D01*
X18658D01*
X18603Y61127D01*
X18492Y61141D01*
X19047D01*
D02*
G37*
G36*
X153859Y64354D02*
X151141D01*
X151099Y64340D01*
X151085Y64326D01*
X151058Y64298D01*
Y64291D01*
X151044Y64278D01*
X151037Y64250D01*
X151023Y64215D01*
Y64208D01*
Y64180D01*
X151016Y64139D01*
Y64083D01*
Y64069D01*
Y64042D01*
Y64007D01*
X151023Y63965D01*
Y63959D01*
X151030Y63931D01*
X151044Y63903D01*
X151051Y63875D01*
X151058Y63868D01*
X151065Y63854D01*
X151099Y63820D01*
X151106Y63813D01*
X151120Y63806D01*
X151134Y63799D01*
X152236D01*
Y59867D01*
X151238Y60464D01*
X151224Y60471D01*
X151196Y60484D01*
X151155Y60505D01*
X151113Y60519D01*
X151085D01*
X151058Y60512D01*
X151037Y60498D01*
X151030Y60491D01*
X151023Y60477D01*
X151009Y60450D01*
X151002Y60415D01*
Y60401D01*
Y60374D01*
X150995Y60325D01*
Y60138D01*
X151002Y60117D01*
X151009Y60089D01*
X151016Y60068D01*
Y60061D01*
X151023Y60048D01*
X151051Y60013D01*
X151058Y60006D01*
X151065Y59992D01*
X151106Y59957D01*
X152299Y59195D01*
X152306Y59188D01*
X152333Y59181D01*
X152340D01*
X152354Y59174D01*
X152396Y59160D01*
X152403D01*
X152417Y59153D01*
X152486D01*
X152514Y59146D01*
X150995D01*
D01*
X152653D01*
X152708Y59153D01*
X152757Y59160D01*
X152770D01*
X152798Y59167D01*
X152833Y59174D01*
X152860Y59181D01*
X152867D01*
X152881Y59188D01*
X152895Y59202D01*
X152909Y59215D01*
X152916Y59229D01*
X152923Y59264D01*
Y63799D01*
X153880D01*
X153894Y63806D01*
X153914Y63820D01*
X153921Y63827D01*
X153928Y63834D01*
X153963Y63875D01*
X153970Y63882D01*
X153977Y63896D01*
X153984Y63931D01*
X153991Y63965D01*
Y63972D01*
X153998Y64000D01*
X154005Y64035D01*
Y64125D01*
X153998Y64173D01*
X153991Y64215D01*
Y64222D01*
X153984Y64243D01*
X153956Y64298D01*
Y64305D01*
X153942Y64312D01*
X153908Y64340D01*
X153894Y64347D01*
X153859Y64354D01*
D02*
G37*
G36*
X-41508Y61141D02*
X-41827D01*
X-41966Y61127D01*
X-42118Y61114D01*
X-42146D01*
X-42215Y61100D01*
X-42298Y61072D01*
X-42382Y61044D01*
X-42396Y61030D01*
X-42423Y61003D01*
X-42479Y60947D01*
X-42520Y60892D01*
X-46320Y55733D01*
Y60892D01*
Y60905D01*
Y60919D01*
X-46334Y60961D01*
X-46362Y61003D01*
Y61017D01*
X-46390Y61030D01*
X-46417Y61058D01*
X-46473Y61086D01*
X-46487D01*
X-46528Y61100D01*
X-46598D01*
X-46695Y61114D01*
X-46722D01*
X-46778Y61127D01*
X-46875Y61141D01*
X-47125D01*
X-47236Y61127D01*
X-47347Y61114D01*
X-47360D01*
X-47416Y61100D01*
X-47485D01*
X-47555Y61086D01*
X-47568D01*
X-47596Y61058D01*
X-47638Y61044D01*
X-47666Y61003D01*
Y60989D01*
X-47679Y60961D01*
X-47693Y60892D01*
Y50712D01*
X-40953D01*
D01*
X-41716D01*
X-41619Y50726D01*
X-41508Y50740D01*
X-41480D01*
X-41425Y50754D01*
X-41355Y50768D01*
X-41300Y50795D01*
X-41286D01*
X-41258Y50809D01*
X-41217Y50837D01*
X-41189Y50879D01*
X-41175Y50906D01*
X-41161Y50976D01*
Y50990D01*
Y51031D01*
X-41189Y51101D01*
X-41217Y51184D01*
X-41231Y51198D01*
X-41258Y51253D01*
X-41328Y51350D01*
X-41411Y51475D01*
X-44836Y55566D01*
X-41147Y60476D01*
Y60490D01*
X-41120Y60503D01*
X-41078Y60587D01*
X-41023Y60684D01*
X-40981Y60753D01*
Y60767D01*
X-40967Y60795D01*
X-40953Y60878D01*
Y60503D01*
Y60878D01*
Y60919D01*
X-40981Y61003D01*
X-41009Y61030D01*
X-41036Y61044D01*
X-41092Y61072D01*
X-41106D01*
X-41147Y61086D01*
X-41217Y61100D01*
X-41314Y61114D01*
X-41342D01*
X-41397Y61127D01*
X-41508Y61141D01*
D02*
G37*
%LPD*%
G36*
X-42673Y50976D02*
X-42659Y50962D01*
X-42631Y50934D01*
X-42562Y50865D01*
X-42548Y50851D01*
X-42520Y50837D01*
X-42465Y50809D01*
X-42409Y50782D01*
X-42396D01*
X-42340Y50768D01*
X-42271Y50754D01*
X-42188Y50740D01*
X-42160D01*
X-42090Y50726D01*
X-41979Y50712D01*
X-46903D01*
X-46792Y50726D01*
X-46695Y50740D01*
X-46667D01*
X-46611Y50754D01*
X-46542Y50768D01*
X-46473Y50782D01*
X-46459D01*
X-46431Y50795D01*
X-46390Y50823D01*
X-46362Y50865D01*
X-46348Y50879D01*
X-46334Y50893D01*
X-46320Y50934D01*
Y50976D01*
Y55566D01*
X-42673Y50976D01*
D02*
G37*
G36*
X-47666Y50865D02*
Y50851D01*
X-47638Y50837D01*
X-47610Y50809D01*
X-47555Y50782D01*
X-47541D01*
X-47499Y50768D01*
X-47430Y50754D01*
X-47347Y50740D01*
X-47319D01*
X-47249Y50726D01*
X-47152Y50712D01*
X-47693D01*
Y50934D01*
X-47666Y50865D01*
D02*
G37*
D10*
X-147202Y31698D02*
G03*
X-160201Y44698I-13000J0D01*
G01*
X-165802D02*
G03*
X-178802Y31698I0J-13000D01*
G01*
Y-31702D02*
G03*
X-165802Y-44702I13000J0D01*
G01*
X-160201D02*
G03*
X-147202Y-31702I0J13000D01*
G01*
X-160250Y-47250D02*
G03*
X-144750Y-31750I0J15500D01*
G01*
X-181250D02*
G03*
X-165750Y-47250I15500J0D01*
G01*
Y47250D02*
G03*
X-181250Y31750I0J-15500D01*
G01*
X-144750D02*
G03*
X-160250Y47250I-15500J0D01*
G01*
X100506Y-59750D02*
G03*
X100506Y-59750I-5506J0D01*
G01*
X78100Y-59750D02*
G03*
X78100Y-59750I-8500J0D01*
G01*
X74950D02*
G03*
X74950Y-59750I-5350J0D01*
G01*
X52700Y-59750D02*
G03*
X52700Y-59750I-8500J0D01*
G01*
X49550D02*
G03*
X49550Y-59750I-5350J0D01*
G01*
X27300Y-59750D02*
G03*
X27300Y-59750I-8500J0D01*
G01*
X24150D02*
G03*
X24150Y-59750I-5350J0D01*
G01*
X1900Y-59750D02*
G03*
X1900Y-59750I-8500J0D01*
G01*
X-1250D02*
G03*
X-1250Y-59750I-5350J0D01*
G01*
X-23500Y-59750D02*
G03*
X-23500Y-59750I-8500J0D01*
G01*
X-26650D02*
G03*
X-26650Y-59750I-5350J0D01*
G01*
X-204450Y25050D02*
X-197250D01*
X-204450Y34950D02*
X-197250D01*
X-204450Y25050D02*
Y34950D01*
X-197250Y25050D02*
Y34950D01*
X-218250Y25050D02*
X-211050D01*
X-218250Y34950D02*
X-211050D01*
X-218250Y25050D02*
Y34950D01*
X-211050Y25050D02*
Y34950D01*
X-215852Y34101D02*
X-199651D01*
X-215852Y25902D02*
X-199651D01*
X-215852D02*
Y34101D01*
X-199651Y25902D02*
Y34101D01*
X199751Y-67260D02*
Y-62241D01*
X209751Y-67260D02*
Y-62241D01*
X199751D02*
X209751D01*
X199751Y-67260D02*
X209751D01*
X206500Y-67750D02*
Y-61750D01*
X212000Y-67750D02*
Y-61750D01*
X206500Y-67750D02*
X212000D01*
X206500Y-61750D02*
X212000D01*
X197500Y-67750D02*
Y-61750D01*
X203000Y-67750D02*
Y-61750D01*
X197500Y-67750D02*
X203000D01*
X197500Y-61750D02*
X203000D01*
X162499Y-67259D02*
Y-62239D01*
X152499Y-67259D02*
Y-62239D01*
Y-67259D02*
X162499D01*
X152499Y-62239D02*
X162499D01*
X155750Y-67750D02*
Y-61750D01*
X150250Y-67750D02*
Y-61750D01*
X155750D01*
X150250Y-67750D02*
X155750D01*
X164750D02*
Y-61750D01*
X159250Y-67750D02*
Y-61750D01*
X164750D01*
X159250Y-67750D02*
X164750D01*
X127638Y-41634D02*
Y-36614D01*
X117638Y-41634D02*
Y-36614D01*
Y-41634D02*
X127638D01*
X117638Y-36614D02*
X127638D01*
X120889Y-42125D02*
Y-36125D01*
X115389Y-42125D02*
Y-36125D01*
X120889D01*
X115389Y-42125D02*
X120889D01*
X129889D02*
Y-36125D01*
X124389Y-42125D02*
Y-36125D01*
X129889D01*
X124389Y-42125D02*
X129889D01*
X200001Y62490D02*
Y67509D01*
X210001Y62490D02*
Y67509D01*
X200001D02*
X210001D01*
X200001Y62490D02*
X210001D01*
X206750Y62000D02*
Y68000D01*
X212250Y62000D02*
Y68000D01*
X206750Y62000D02*
X212250D01*
X206750Y68000D02*
X212250D01*
X197750Y62000D02*
Y68000D01*
X203250Y62000D02*
Y68000D01*
X197750Y62000D02*
X203250D01*
X197750Y68000D02*
X203250D01*
X200001Y42490D02*
Y47509D01*
X210001Y42490D02*
Y47509D01*
X200001D02*
X210001D01*
X200001Y42490D02*
X210001D01*
X206750Y42000D02*
Y48000D01*
X212250Y42000D02*
Y48000D01*
X206750Y42000D02*
X212250D01*
X206750Y48000D02*
X212250D01*
X197750Y42000D02*
Y48000D01*
X203250Y42000D02*
Y48000D01*
X197750Y42000D02*
X203250D01*
X197750Y48000D02*
X203250D01*
X-173501Y-64009D02*
Y-58990D01*
X-183501Y-64009D02*
Y-58990D01*
Y-64009D02*
X-173501D01*
X-183501Y-58990D02*
X-173501D01*
X-180250Y-64500D02*
Y-58500D01*
X-185750Y-64500D02*
Y-58500D01*
X-180250D01*
X-185750Y-64500D02*
X-180250D01*
X-171250D02*
Y-58500D01*
X-176750Y-64500D02*
Y-58500D01*
X-171250D01*
X-176750Y-64500D02*
X-171250D01*
X199751Y-56010D02*
Y-50991D01*
X209751Y-56010D02*
Y-50991D01*
X199751D02*
X209751D01*
X199751Y-56010D02*
X209751D01*
X206500Y-56500D02*
Y-50500D01*
X212000Y-56500D02*
Y-50500D01*
X206500Y-56500D02*
X212000D01*
X206500Y-50500D02*
X212000D01*
X197500Y-56500D02*
Y-50500D01*
X203000Y-56500D02*
Y-50500D01*
X197500Y-56500D02*
X203000D01*
X197500Y-50500D02*
X203000D01*
X230001Y-27510D02*
Y-22490D01*
X240001Y-27510D02*
Y-22490D01*
X230001D02*
X240001D01*
X230001Y-27510D02*
X240001D01*
X236750Y-28000D02*
Y-22000D01*
X242250Y-28000D02*
Y-22000D01*
X236750Y-28000D02*
X242250D01*
X236750Y-22000D02*
X242250D01*
X227750Y-28000D02*
Y-22000D01*
X233250Y-28000D02*
Y-22000D01*
X227750Y-28000D02*
X233250D01*
X227750Y-22000D02*
X233250D01*
X-131249Y-64010D02*
Y-58990D01*
X-121249Y-64010D02*
Y-58990D01*
X-131249D02*
X-121249D01*
X-131249Y-64010D02*
X-121249D01*
X-124500Y-64500D02*
Y-58500D01*
X-119000Y-64500D02*
Y-58500D01*
X-124500Y-64500D02*
X-119000D01*
X-124500Y-58500D02*
X-119000D01*
X-133500Y-64500D02*
Y-58500D01*
X-128000Y-64500D02*
Y-58500D01*
X-133500Y-64500D02*
X-128000D01*
X-133500Y-58500D02*
X-128000D01*
X136241Y40001D02*
X141260D01*
X136241Y50001D02*
X141260D01*
X136241Y40001D02*
Y50001D01*
X141260Y40001D02*
Y50001D01*
X135750Y46750D02*
X141750D01*
X135750Y52250D02*
X141750D01*
Y46750D02*
Y52250D01*
X135750Y46750D02*
Y52250D01*
Y37750D02*
X141750D01*
X135750Y43250D02*
X141750D01*
Y37750D02*
Y43250D01*
X135750Y37750D02*
Y43250D01*
X230001Y-37510D02*
Y-32490D01*
X240001Y-37510D02*
Y-32490D01*
X230001D02*
X240001D01*
X230001Y-37510D02*
X240001D01*
X236750Y-38000D02*
Y-32000D01*
X242250Y-38000D02*
Y-32000D01*
X236750Y-38000D02*
X242250D01*
X236750Y-32000D02*
X242250D01*
X227750Y-38000D02*
Y-32000D01*
X233250Y-38000D02*
Y-32000D01*
X227750Y-38000D02*
X233250D01*
X227750Y-32000D02*
X233250D01*
X213741Y26251D02*
X218761D01*
X213741Y36251D02*
X218761D01*
X213741Y26251D02*
Y36251D01*
X218761Y26251D02*
Y36251D01*
X213250Y33000D02*
X219250D01*
X213250Y38500D02*
X219250D01*
Y33000D02*
Y38500D01*
X213250Y33000D02*
Y38500D01*
Y24000D02*
X219250D01*
X213250Y29500D02*
X219250D01*
Y24000D02*
Y29500D01*
X213250Y24000D02*
Y29500D01*
X-204450Y40050D02*
Y49950D01*
X-215751Y40991D02*
X-199751D01*
X-215751D02*
Y49011D01*
X-218250Y40050D02*
X-211050D01*
X-204450D02*
X-197250D01*
X-218250Y49950D02*
X-211050D01*
X-218250Y40050D02*
Y49950D01*
X-197250Y40050D02*
Y49950D01*
X-215751Y49011D02*
X-199751D01*
X-204450Y49950D02*
X-197250D01*
X-199751Y40991D02*
Y49011D01*
X-211050Y40050D02*
Y49950D01*
X-186000Y65000D02*
Y70500D01*
X-192000Y61500D02*
X-186000D01*
X-192000Y70500D02*
X-186000D01*
Y56000D02*
Y61500D01*
X-191509Y58251D02*
Y68251D01*
X-192000Y56000D02*
X-186000D01*
X-191509Y58251D02*
X-186490D01*
X-191509Y68251D02*
X-186490D01*
X-192000Y65000D02*
Y70500D01*
X-186490Y58251D02*
Y68251D01*
X-192000Y56000D02*
Y61500D01*
Y65000D02*
X-186000D01*
X91000Y50750D02*
Y56750D01*
X94500Y50750D02*
X100000D01*
X87749Y56260D02*
X97749D01*
X85500Y50750D02*
X91000D01*
X87749Y51241D02*
Y56260D01*
X97749Y51241D02*
Y56260D01*
X100000Y50750D02*
Y56750D01*
X87749Y51241D02*
X97749D01*
X94500Y56750D02*
X100000D01*
X85500Y50750D02*
Y56750D01*
X94500Y50750D02*
Y56750D01*
X85500D02*
X91000D01*
X85500Y66750D02*
X91000D01*
X94500Y60750D02*
Y66750D01*
X85500Y60750D02*
Y66750D01*
X94500D02*
X100000D01*
X87749Y61241D02*
X97749D01*
X100000Y60750D02*
Y66750D01*
X97749Y61241D02*
Y66260D01*
X87749Y61241D02*
Y66260D01*
X85500Y60750D02*
X91000D01*
X87749Y66260D02*
X97749D01*
X94500Y60750D02*
X100000D01*
X91000D02*
Y66750D01*
X-181750Y65000D02*
X-175750D01*
X-181750Y56000D02*
Y61500D01*
X-176239Y58251D02*
Y68251D01*
X-181750Y65000D02*
Y70500D01*
X-181259Y68251D02*
X-176239D01*
X-181259Y58251D02*
X-176239D01*
X-181750Y56000D02*
X-175750D01*
X-181259Y58251D02*
Y68251D01*
X-175750Y56000D02*
Y61500D01*
X-181750Y70500D02*
X-175750D01*
X-181750Y61500D02*
X-175750D01*
Y65000D02*
Y70500D01*
X197750Y58000D02*
X203250D01*
X206750Y52000D02*
Y58000D01*
X197750Y52000D02*
Y58000D01*
X206750D02*
X212250D01*
X199999Y52491D02*
X209999D01*
X212250Y52000D02*
Y58000D01*
X209999Y52491D02*
Y57510D01*
X199999Y52491D02*
Y57510D01*
X197750Y52000D02*
X203250D01*
X199999Y57510D02*
X209999D01*
X206750Y52000D02*
X212250D01*
X203250D02*
Y58000D01*
X91000Y36750D02*
Y42750D01*
X94500Y36750D02*
X100000D01*
X87749Y42260D02*
X97749D01*
X85500Y36750D02*
X91000D01*
X87749Y37241D02*
Y42260D01*
X97749Y37241D02*
Y42260D01*
X100000Y36750D02*
Y42750D01*
X87749Y37241D02*
X97749D01*
X94500Y42750D02*
X100000D01*
X85500Y36750D02*
Y42750D01*
X94500Y36750D02*
Y42750D01*
X85500D02*
X91000D01*
X233250Y24000D02*
Y29500D01*
Y33000D02*
X239250D01*
X233250Y24000D02*
X239250D01*
X233250Y33000D02*
Y38500D01*
X238759Y26249D02*
Y36249D01*
X233250Y38500D02*
X239250D01*
X233739Y36249D02*
X238759D01*
X233739Y26249D02*
X238759D01*
X239250Y24000D02*
Y29500D01*
X233739Y26249D02*
Y36249D01*
X239250Y33000D02*
Y38500D01*
X233250Y29500D02*
X239250D01*
X223250D02*
X229250D01*
Y33000D02*
Y38500D01*
X223739Y26249D02*
Y36249D01*
X229250Y24000D02*
Y29500D01*
X223739Y26249D02*
X228759D01*
X223739Y36249D02*
X228759D01*
X223250Y38500D02*
X229250D01*
X228759Y26249D02*
Y36249D01*
X223250Y33000D02*
Y38500D01*
Y24000D02*
X229250D01*
X223250Y33000D02*
X229250D01*
X223250Y24000D02*
Y29500D01*
X206250Y30000D02*
X206250Y-40000D01*
X136250Y-40000D02*
X136250Y30000D01*
X206250Y30000D01*
X136250Y-40000D02*
X206250Y-40000D01*
X-147202Y-31702D02*
Y31698D01*
X-165802Y44698D02*
X-160201D01*
X-178802Y-31702D02*
Y31698D01*
X-165802Y-44702D02*
X-160201D01*
X-165750Y-47250D02*
X-160250D01*
X-181250Y-31750D02*
Y31750D01*
X-165750Y47250D02*
X-160250D01*
X-144750Y-31750D02*
Y31750D01*
X-146002Y-47502D02*
X-144002Y-45501D01*
Y45498D01*
X-146002Y47498D02*
X-144002Y45498D01*
X-180001Y47498D02*
X-146002D01*
X-182002Y45498D02*
X-180001Y47498D01*
X-182002Y-45501D02*
Y45498D01*
Y-45501D02*
X-180001Y-47502D01*
X-146002D01*
X-152100Y-66450D02*
X-144900Y-66450D01*
X-166000Y-56550D02*
X-166000Y-66450D01*
X-158800Y-66450D02*
Y-56550D01*
X-163499Y-65501D02*
X-163499Y-57502D01*
X-166000Y-66450D02*
X-158800Y-66450D01*
X-147498Y-65501D02*
X-147498Y-57502D01*
X-166000Y-56550D02*
X-158800Y-56550D01*
X-152100Y-56550D02*
X-144900D01*
X-152100Y-66450D02*
X-152100Y-56550D01*
X-163499Y-57502D02*
X-147498Y-57502D01*
X-163499Y-65501D02*
X-147498Y-65501D01*
X-144900Y-56550D02*
X-144900Y-66450D01*
X-109000Y66750D02*
X-99000Y66750D01*
X-109000Y54750D02*
X-99000Y54750D01*
Y66750D01*
X-109000Y66750D02*
X-109000Y54750D01*
X179250Y-51500D02*
X189250Y-51500D01*
Y-67500D02*
Y-51500D01*
X169250Y-67500D02*
X189250Y-67500D01*
X169250Y-67500D02*
Y-51500D01*
X179250D01*
X169104Y-58005D02*
X172880Y-58005D01*
X176755D01*
X176755Y-51255D01*
X169005Y-51255D02*
X176755Y-51255D01*
X169005Y-58005D02*
X169005Y-51255D01*
X169005Y-58005D02*
X169250Y-58005D01*
X181849Y-58005D02*
X185625Y-58005D01*
X189500Y-58005D01*
X189500Y-51255D02*
X189500Y-58005D01*
X181750Y-51255D02*
X189500Y-51255D01*
X181750Y-51255D02*
X181750Y-58005D01*
X181995Y-58005D01*
X181849Y-67750D02*
X185625Y-67750D01*
X189500D01*
X189500Y-61000D01*
X181750Y-61000D02*
X189500Y-61000D01*
X181750Y-61000D02*
X181750Y-67750D01*
X181995Y-67750D01*
X169104D02*
X172880D01*
X176755Y-67750D01*
Y-61000D01*
X169005Y-61000D02*
X176755Y-61000D01*
X169005Y-61000D02*
X169005Y-67750D01*
X169250Y-67750D01*
X-15750Y44000D02*
X-7750Y44000D01*
Y68000D01*
X-23750Y68000D02*
X-7750Y68000D01*
X-23750Y56000D02*
Y68000D01*
Y44000D02*
Y56000D01*
Y44000D02*
X-15750Y44000D01*
X-44250Y44000D02*
X-36250Y44000D01*
Y68000D01*
X-52250Y68000D02*
X-36250Y68000D01*
X-52250Y44000D02*
Y68000D01*
Y44000D02*
X-44250Y44000D01*
X-46000Y50000D02*
X-38000Y42000D01*
X-46000Y42000D02*
X-14000Y42000D01*
X-14000Y70000D01*
X-46000Y70000D02*
X-14000Y70000D01*
X-46000Y42000D02*
X-46000Y70000D01*
X44250Y44000D02*
X52250Y44000D01*
Y68000D01*
X36250Y68000D02*
X52250Y68000D01*
X36250Y56000D02*
Y68000D01*
Y44000D02*
Y56000D01*
Y44000D02*
X44250Y44000D01*
X15750Y44000D02*
X23750Y44000D01*
Y68000D01*
X7750Y68000D02*
X23750Y68000D01*
X7750Y44000D02*
Y68000D01*
Y44000D02*
X15750Y44000D01*
X14000Y50000D02*
X22000Y42000D01*
X14000Y42000D02*
X46000Y42000D01*
X46000Y70000D01*
X14000Y70000D02*
X46000Y70000D01*
X14000Y42000D02*
X14000Y70000D01*
X147750Y69546D02*
X147750Y38454D01*
X147750Y69546D02*
X190750Y69546D01*
X190750Y38454D01*
X147750Y38454D02*
X190750Y38454D01*
X146750Y56500D02*
X152500Y56500D01*
X146750Y67000D02*
X146750Y56500D01*
X146750Y67000D02*
X158250Y67000D01*
X158250Y56500D01*
X152500Y56500D02*
X158250Y56500D01*
X146750Y41000D02*
X152500Y41000D01*
X146750Y51500D02*
X146750Y41000D01*
X146750Y51500D02*
X158250Y51500D01*
X158250Y41000D01*
X152500D02*
X158250D01*
X180250Y41000D02*
X186000Y41000D01*
X180250Y51500D02*
X180250Y41000D01*
X180250Y51500D02*
X191750Y51500D01*
X191750Y41000D01*
X186000Y41000D02*
X191750Y41000D01*
X180250Y56500D02*
X186000Y56500D01*
X180250Y67000D02*
X180250Y56500D01*
X180250Y67000D02*
X191750Y67000D01*
X191750Y56500D01*
X186000Y56500D02*
X191750Y56500D01*
X-44700Y-47050D02*
X107700Y-47050D01*
X107700Y-72450D02*
X107700Y-47050D01*
X-44700Y-72450D02*
X107700Y-72450D01*
X-44700Y-72450D02*
Y-47050D01*
X95000Y-51250D02*
X103500D01*
X103500Y-68250D02*
X103500Y-51250D01*
X86500Y-68250D02*
X103500Y-68250D01*
X86500Y-51250D02*
X86500Y-68250D01*
X86500Y-51250D02*
X95000Y-51250D01*
M02*
