G04*
G04 #@! TF.GenerationSoftware,Altium Limited,Altium Designer,25.5.2 (35)*
G04*
G04 Layer_Physical_Order=3*
G04 Layer_Color=128*
%FSLAX44Y44*%
%MOMM*%
G71*
G04*
G04 #@! TF.SameCoordinates,449EA512-5FDF-437D-9D79-FEBFBDB7331F*
G04*
G04*
G04 #@! TF.FilePolarity,Positive*
G04*
G01*
G75*
%ADD11C,0.1500*%
%ADD19C,0.2200*%
%ADD24O,1.5000X2.0000*%
%ADD25O,0.8000X2.0000*%
%ADD26C,0.7000*%
G04:AMPARAMS|DCode=27|XSize=1.7mm|YSize=1.7mm|CornerRadius=0.05mm|HoleSize=0mm|Usage=FLASHONLY|Rotation=180.000|XOffset=0mm|YOffset=0mm|HoleType=Round|Shape=RoundedRectangle|*
%AMROUNDEDRECTD27*
21,1,1.7000,1.6000,0,0,180.0*
21,1,1.6000,1.7000,0,0,180.0*
1,1,0.1000,-0.8000,0.8000*
1,1,0.1000,0.8000,0.8000*
1,1,0.1000,0.8000,-0.8000*
1,1,0.1000,-0.8000,-0.8000*
%
%ADD27ROUNDEDRECTD27*%
%ADD28C,1.7000*%
%ADD29C,0.4500*%
%ADD30C,0.5000*%
%ADD31C,0.4500*%
G36*
X211666Y71907D02*
X235876Y47697D01*
X235026Y46425D01*
X234846Y46500D01*
X233354D01*
X231976Y45929D01*
X231100Y45053D01*
X230224Y45929D01*
X228846Y46500D01*
X227354D01*
X225976Y45929D01*
X224921Y44874D01*
X224350Y43496D01*
Y42004D01*
X224921Y40626D01*
X225976Y39571D01*
X227354Y39000D01*
X228846D01*
X230224Y39571D01*
X231100Y40447D01*
X231976Y39571D01*
X233354Y39000D01*
X234846D01*
X236224Y39571D01*
X237279Y40626D01*
X237850Y42004D01*
Y43496D01*
X237775Y43676D01*
X239047Y44526D01*
X254411Y29162D01*
X254412Y29162D01*
X259303Y24269D01*
X259303Y24269D01*
X260210Y23145D01*
X260611Y22623D01*
X261417Y20677D01*
X261678Y18694D01*
X261657Y18588D01*
Y-10000D01*
Y-18589D01*
X261678Y-18695D01*
X261417Y-20677D01*
X260611Y-22623D01*
X259394Y-24209D01*
X259303Y-24270D01*
X254662Y-28912D01*
X236853Y-46720D01*
X236516Y-46687D01*
X235073Y-46250D01*
X235000Y-45881D01*
Y-45504D01*
X234856Y-45156D01*
X234782Y-44787D01*
X234573Y-44474D01*
X234429Y-44126D01*
X234163Y-43860D01*
X233954Y-43546D01*
X233640Y-43337D01*
X233374Y-43071D01*
X233026Y-42927D01*
X232713Y-42718D01*
X232344Y-42644D01*
X231996Y-42500D01*
X231619D01*
X231250Y-42427D01*
X219998D01*
X219377Y-40927D01*
X219429Y-40874D01*
X220000Y-39496D01*
Y-38004D01*
X219429Y-36626D01*
X218715Y-35912D01*
X218505Y-35000D01*
X218715Y-34088D01*
X219429Y-33374D01*
X220000Y-31996D01*
Y-30504D01*
X219429Y-29126D01*
X218374Y-28071D01*
X216996Y-27500D01*
X215504D01*
X214126Y-28071D01*
X213071Y-29126D01*
X212500Y-30504D01*
Y-31996D01*
X213071Y-33374D01*
X213785Y-34088D01*
X213995Y-35000D01*
X213785Y-35912D01*
X213071Y-36626D01*
X212500Y-38004D01*
Y-39496D01*
X213071Y-40874D01*
X213123Y-40927D01*
X212502Y-42427D01*
X209998D01*
X209530Y-41736D01*
X209331Y-40973D01*
X209429Y-40874D01*
X210000Y-39496D01*
Y-38004D01*
X209429Y-36626D01*
X208374Y-35571D01*
X206996Y-35000D01*
X205504D01*
X204126Y-35571D01*
X203071Y-36626D01*
X202500Y-38004D01*
Y-39496D01*
X203071Y-40874D01*
X203373Y-41177D01*
X202752Y-42677D01*
X192471D01*
Y17814D01*
X197584Y22927D01*
X205000D01*
X205369Y23000D01*
X205746D01*
X206094Y23144D01*
X206463Y23218D01*
X206776Y23427D01*
X207124Y23571D01*
X207390Y23837D01*
X207704Y24046D01*
X207913Y24360D01*
X208179Y24626D01*
X208323Y24974D01*
X208532Y25287D01*
X208606Y25656D01*
X208750Y26004D01*
Y26381D01*
X208823Y26750D01*
Y33750D01*
X208750Y34119D01*
Y34496D01*
X208606Y34844D01*
X208532Y35213D01*
X208323Y35526D01*
X208179Y35874D01*
X207913Y36140D01*
X207704Y36454D01*
X207390Y36663D01*
X207124Y36929D01*
X206776Y37073D01*
X206463Y37282D01*
X206094Y37356D01*
X205746Y37500D01*
X205369D01*
X205000Y37573D01*
X204631Y37500D01*
X204254D01*
X203906Y37356D01*
X203537Y37282D01*
X203224Y37073D01*
X202876Y36929D01*
X202610Y36663D01*
X202296Y36454D01*
X202087Y36140D01*
X201821Y35874D01*
X201677Y35526D01*
X201468Y35213D01*
X201394Y34844D01*
X201250Y34496D01*
Y34119D01*
X201177Y33750D01*
Y30573D01*
X196000D01*
X194537Y30282D01*
X193296Y29454D01*
X188647Y24805D01*
X182248Y31204D01*
X181480Y31717D01*
X181362Y31981D01*
X181235Y33159D01*
X181304Y33501D01*
X181929Y34126D01*
X182500Y35504D01*
Y36996D01*
X181929Y38374D01*
X180874Y39429D01*
X179496Y40000D01*
X178004D01*
X176626Y39429D01*
X175948Y38752D01*
X174897Y38985D01*
X174422Y39220D01*
X174157Y40548D01*
X173329Y41789D01*
X172954Y42164D01*
X172954Y42164D01*
X168414Y46704D01*
X167173Y47532D01*
X165710Y47823D01*
X150540D01*
X149077Y47532D01*
X148764Y47323D01*
X130849D01*
X129218Y48954D01*
X127978Y49782D01*
X126928Y49991D01*
X126907Y50000D01*
X126884D01*
X126515Y50073D01*
X-15000D01*
X-16463Y49782D01*
X-17704Y48954D01*
X-23584Y43073D01*
X-124000D01*
X-125463Y42782D01*
X-126704Y41954D01*
X-134704Y33954D01*
X-135532Y32713D01*
X-135823Y31250D01*
Y27462D01*
X-137323Y27364D01*
X-137367Y27697D01*
X-138022Y29278D01*
X-139064Y30636D01*
X-140422Y31678D01*
X-142003Y32333D01*
X-143700Y32556D01*
X-145397Y32333D01*
X-146978Y31678D01*
X-148336Y30636D01*
X-149378Y29278D01*
X-150033Y27697D01*
X-150256Y26000D01*
X-151756Y25820D01*
X-151761Y25832D01*
X-153168Y27239D01*
X-155005Y28000D01*
X-156995D01*
X-158832Y27239D01*
X-160239Y25832D01*
X-161000Y23995D01*
Y22005D01*
X-160239Y20168D01*
X-159257Y19186D01*
X-158982Y18250D01*
X-159257Y17314D01*
X-160239Y16332D01*
X-161000Y14495D01*
Y12505D01*
X-160239Y10668D01*
X-159551Y9980D01*
X-158984Y9000D01*
X-159551Y8020D01*
X-160239Y7332D01*
X-160804Y5968D01*
X-162158Y5507D01*
X-162494Y5510D01*
X-163273Y6031D01*
X-164287Y6233D01*
X-164288Y6233D01*
X-165306D01*
X-165761Y7332D01*
X-166449Y8020D01*
X-167017Y9000D01*
X-166449Y9980D01*
X-165761Y10668D01*
X-165000Y12505D01*
Y14495D01*
X-165761Y16332D01*
X-166743Y17314D01*
X-167018Y18250D01*
X-166743Y19186D01*
X-165761Y20168D01*
X-165000Y22005D01*
Y23995D01*
X-165761Y25832D01*
X-167168Y27239D01*
X-169006Y28000D01*
X-170995D01*
X-172832Y27239D01*
X-174239Y25832D01*
X-174244Y25820D01*
X-175744Y26000D01*
X-175967Y27697D01*
X-176622Y29278D01*
X-177664Y30636D01*
X-179022Y31678D01*
X-180603Y32333D01*
X-182300Y32556D01*
X-183997Y32333D01*
X-185578Y31678D01*
X-186936Y30636D01*
X-187978Y29278D01*
X-188633Y27697D01*
X-188856Y26000D01*
Y14000D01*
X-188633Y12303D01*
X-187978Y10722D01*
X-186936Y9364D01*
X-185578Y8322D01*
X-183997Y7667D01*
X-182300Y7444D01*
X-180603Y7667D01*
X-179022Y8322D01*
X-177664Y9364D01*
X-176622Y10722D01*
X-176254Y11612D01*
X-174630Y11612D01*
X-174239Y10668D01*
X-173551Y9980D01*
X-172984Y9000D01*
X-173551Y8020D01*
X-174239Y7332D01*
X-175000Y5495D01*
Y3505D01*
X-174239Y1668D01*
X-173551Y980D01*
X-172984Y0D01*
X-173551Y-980D01*
X-174239Y-1668D01*
X-175000Y-3505D01*
Y-5495D01*
X-174239Y-7332D01*
X-173551Y-8020D01*
X-172984Y-9000D01*
X-173551Y-9980D01*
X-174239Y-10668D01*
X-174630Y-11612D01*
X-176254Y-11612D01*
X-176622Y-10722D01*
X-177664Y-9364D01*
X-179022Y-8322D01*
X-180603Y-7667D01*
X-182300Y-7444D01*
X-183997Y-7667D01*
X-185578Y-8322D01*
X-186936Y-9364D01*
X-187978Y-10722D01*
X-188633Y-12303D01*
X-188856Y-14000D01*
Y-26000D01*
X-188633Y-27697D01*
X-187978Y-29278D01*
X-186936Y-30636D01*
X-185578Y-31678D01*
X-183997Y-32333D01*
X-182300Y-32556D01*
X-180603Y-32333D01*
X-179022Y-31678D01*
X-177664Y-30636D01*
X-176622Y-29278D01*
X-175967Y-27697D01*
X-175744Y-26000D01*
X-174244Y-25820D01*
X-174239Y-25832D01*
X-172832Y-27239D01*
X-170995Y-28000D01*
X-169006D01*
X-167168Y-27239D01*
X-165761Y-25832D01*
X-165000Y-23995D01*
Y-22005D01*
X-165761Y-20168D01*
X-166743Y-19186D01*
X-167018Y-18250D01*
X-166743Y-17314D01*
X-165761Y-16332D01*
X-165000Y-14495D01*
Y-12505D01*
X-165761Y-10668D01*
X-166449Y-9980D01*
X-167017Y-9000D01*
X-166449Y-8020D01*
X-165761Y-7332D01*
X-165196Y-5968D01*
X-163842Y-5507D01*
X-163506Y-5510D01*
X-162727Y-6031D01*
X-161712Y-6233D01*
X-160694D01*
X-160239Y-7332D01*
X-159551Y-8020D01*
X-158984Y-9000D01*
X-159551Y-9980D01*
X-160239Y-10668D01*
X-161000Y-12505D01*
Y-14495D01*
X-160239Y-16332D01*
X-159257Y-17314D01*
X-158982Y-18250D01*
X-159257Y-19186D01*
X-160239Y-20168D01*
X-161000Y-22005D01*
Y-23995D01*
X-160239Y-25832D01*
X-158832Y-27239D01*
X-156995Y-28000D01*
X-155005D01*
X-153168Y-27239D01*
X-151761Y-25832D01*
X-151756Y-25820D01*
X-150256Y-26000D01*
X-150033Y-27697D01*
X-149378Y-29278D01*
X-148336Y-30636D01*
X-146978Y-31678D01*
X-145397Y-32333D01*
X-143700Y-32556D01*
X-142003Y-32333D01*
X-140422Y-31678D01*
X-139064Y-30636D01*
X-138022Y-29278D01*
X-137367Y-27697D01*
X-137323Y-27364D01*
X-135823Y-27462D01*
Y-53500D01*
X-135532Y-54963D01*
X-134704Y-56204D01*
X-133704Y-57204D01*
X-133390Y-57413D01*
X-133124Y-57679D01*
X-132776Y-57823D01*
X-132463Y-58032D01*
X-132094Y-58106D01*
X-131746Y-58250D01*
X-131369D01*
X-131000Y-58323D01*
X-130631Y-58250D01*
X-130619D01*
X-130463Y-58354D01*
X-129000Y-58645D01*
X-47898D01*
X-47000Y-58823D01*
X-45537Y-58532D01*
X-44296Y-57704D01*
X-43296Y-56704D01*
X-43198Y-56556D01*
X-32209Y-45568D01*
X74510D01*
X78410Y-49468D01*
X78902Y-50204D01*
X84961Y-56262D01*
Y-67750D01*
X85116Y-68530D01*
X85558Y-69192D01*
X86220Y-69634D01*
X87000Y-69789D01*
X103000D01*
X103780Y-69634D01*
X104442Y-69192D01*
X104884Y-68530D01*
X105039Y-67750D01*
Y-63573D01*
X126840D01*
X132220Y-68954D01*
X133460Y-69782D01*
X134923Y-70073D01*
X168647D01*
X170111Y-69782D01*
X171351Y-68954D01*
X189981Y-50323D01*
X209460D01*
X210717Y-50073D01*
X231250D01*
X231687Y-51516D01*
X231720Y-51853D01*
X211666Y-71907D01*
X-211666Y-71907D01*
X-258243Y-25330D01*
X-259304Y-24270D01*
X-259304Y-24269D01*
X-260211Y-23145D01*
X-260611Y-22623D01*
X-261417Y-20677D01*
X-261678Y-18695D01*
X-261657Y-18588D01*
Y-10000D01*
Y18588D01*
X-261678Y18695D01*
X-261417Y20677D01*
X-260611Y22623D01*
X-259394Y24209D01*
X-259304Y24269D01*
X-211666Y71907D01*
X211666Y71907D01*
D02*
G37*
G36*
X94605Y40927D02*
X90972Y37294D01*
X76879D01*
X76001Y37119D01*
X75257Y36622D01*
X74378Y35744D01*
X73881Y34999D01*
X73706Y34121D01*
Y32788D01*
X73277Y32731D01*
X71087Y31824D01*
X69207Y30382D01*
X67765Y28502D01*
X66858Y26312D01*
X66548Y23963D01*
Y18963D01*
X66858Y16613D01*
X67765Y14424D01*
X69207Y12544D01*
X70559Y11507D01*
X70049Y10007D01*
X59612D01*
X59103Y11507D01*
X60455Y12544D01*
X61897Y14424D01*
X62804Y16613D01*
X63114Y18963D01*
Y23963D01*
X62804Y26312D01*
X61897Y28502D01*
X60455Y30382D01*
X58575Y31824D01*
X56385Y32731D01*
X54036Y33040D01*
X51687Y32731D01*
X49497Y31824D01*
X47617Y30382D01*
X46175Y28502D01*
X45268Y26312D01*
X44958Y23963D01*
Y18963D01*
X45268Y16613D01*
X46175Y14424D01*
X47617Y12544D01*
X49497Y11101D01*
X51687Y10195D01*
X51742Y10187D01*
Y9964D01*
X51916Y9086D01*
X52304Y8507D01*
X52010Y7367D01*
X51861Y7007D01*
X-112763D01*
X-115108Y9353D01*
X-114816Y10824D01*
X-114145Y11101D01*
X-112265Y12544D01*
X-110823Y14424D01*
X-109916Y16613D01*
X-109606Y18963D01*
Y23963D01*
X-109916Y26312D01*
X-110823Y28502D01*
X-112265Y30382D01*
X-114145Y31824D01*
X-116335Y32731D01*
X-118684Y33040D01*
X-121033Y32731D01*
X-123223Y31824D01*
X-125103Y30382D01*
X-126222Y28923D01*
X-127784Y29235D01*
X-127889Y29954D01*
X-122416Y35427D01*
X-22000D01*
X-20537Y35718D01*
X-19296Y36546D01*
X-13416Y42427D01*
X93983D01*
X94605Y40927D01*
D02*
G37*
G36*
X128376Y-8179D02*
X129754Y-8750D01*
X131246D01*
X131472Y-8656D01*
X131774Y-8708D01*
X132945Y-9670D01*
X132929Y-9813D01*
X132402Y-10165D01*
X131650Y-10917D01*
X131246Y-10750D01*
X129754D01*
X128376Y-11321D01*
X127321Y-12376D01*
X126750Y-13754D01*
Y-15246D01*
X127321Y-16624D01*
X128197Y-17500D01*
X127321Y-18376D01*
X126750Y-19754D01*
Y-21246D01*
X127321Y-22624D01*
X128376Y-23679D01*
X129754Y-24250D01*
X131246D01*
X132624Y-23679D01*
X133679Y-22624D01*
X134250Y-21246D01*
Y-20806D01*
X134542Y-20514D01*
X135144D01*
X136022Y-20339D01*
X136766Y-19842D01*
X140956Y-15652D01*
X141640Y-15760D01*
X142456Y-16190D01*
Y-56991D01*
X141571Y-57876D01*
X141000Y-59254D01*
Y-60746D01*
X141075Y-60926D01*
X140073Y-62427D01*
X136507D01*
X131213Y-57132D01*
Y-47125D01*
X131139Y-46756D01*
Y-46379D01*
X130995Y-46031D01*
X130922Y-45662D01*
X130712Y-45349D01*
X130568Y-45001D01*
X130302Y-44735D01*
X130093Y-44421D01*
X129780Y-44212D01*
X129513Y-43946D01*
X129165Y-43802D01*
X128852Y-43593D01*
X128483Y-43519D01*
X128135Y-43375D01*
X127759D01*
X127389Y-43302D01*
X127020Y-43375D01*
X126643D01*
X126295Y-43519D01*
X125926Y-43593D01*
X125613Y-43802D01*
X125265Y-43946D01*
X124999Y-44212D01*
X124686Y-44421D01*
X124476Y-44735D01*
X124210Y-45001D01*
X124066Y-45349D01*
X123857Y-45662D01*
X123783Y-46031D01*
X123639Y-46379D01*
Y-46756D01*
X123566Y-47125D01*
Y-55927D01*
X105039D01*
Y-51750D01*
X104884Y-50970D01*
X104442Y-50308D01*
X103780Y-49866D01*
X103000Y-49711D01*
X90368D01*
X85454Y-44796D01*
X84213Y-43968D01*
X83603Y-43846D01*
X78798Y-39041D01*
X78748Y-39007D01*
X79203Y-37507D01*
X101876D01*
X102754Y-37332D01*
X103372Y-36919D01*
X112608D01*
X116436Y-40747D01*
X117180Y-41244D01*
X118058Y-41419D01*
X126186D01*
X127064Y-41244D01*
X127808Y-40747D01*
X128261Y-40294D01*
X133241D01*
X134126Y-41179D01*
X135504Y-41750D01*
X136996D01*
X138374Y-41179D01*
X139429Y-40124D01*
X140000Y-38746D01*
Y-37254D01*
X139429Y-35876D01*
X138374Y-34821D01*
X136996Y-34250D01*
X135504D01*
X134126Y-34821D01*
X133241Y-35706D01*
X127311D01*
X126433Y-35881D01*
X125688Y-36378D01*
X125235Y-36831D01*
X119008D01*
X115180Y-33003D01*
X114436Y-32506D01*
X113558Y-32331D01*
X102464D01*
X101586Y-32506D01*
X100967Y-32919D01*
X-26748D01*
X-27257Y-31419D01*
X-25905Y-30382D01*
X-24463Y-28502D01*
X-23556Y-26313D01*
X-23246Y-23963D01*
Y-18963D01*
X-23556Y-16614D01*
X-24463Y-14424D01*
X-25905Y-12544D01*
X-27785Y-11102D01*
X-29975Y-10195D01*
X-32324Y-9886D01*
X-34674Y-10195D01*
X-35781Y-10654D01*
X-37453Y-9732D01*
X-37529Y-9273D01*
X-35550Y-7294D01*
X127491D01*
X128376Y-8179D01*
D02*
G37*
G36*
X-39711Y-4967D02*
X-41744Y-7000D01*
X-42996D01*
X-44374Y-7571D01*
X-45429Y-8626D01*
X-46000Y-10004D01*
Y-11496D01*
X-45520Y-12654D01*
X-46831Y-13410D01*
X-47495Y-12544D01*
X-49375Y-11102D01*
X-51565Y-10195D01*
X-53914Y-9886D01*
X-56263Y-10195D01*
X-58453Y-11102D01*
X-60333Y-12544D01*
X-61775Y-14424D01*
X-62682Y-16614D01*
X-62992Y-18963D01*
Y-23963D01*
X-62682Y-26313D01*
X-61775Y-28502D01*
X-60333Y-30382D01*
X-58981Y-31419D01*
X-59491Y-32919D01*
X-69928D01*
X-70437Y-31419D01*
X-69085Y-30382D01*
X-67643Y-28502D01*
X-66736Y-26313D01*
X-66426Y-23963D01*
Y-18963D01*
X-66736Y-16614D01*
X-67643Y-14424D01*
X-69085Y-12544D01*
X-70965Y-11102D01*
X-71716Y-10791D01*
X-72068Y-9021D01*
X-66628Y-3581D01*
X-40285D01*
X-39711Y-4967D01*
D02*
G37*
G36*
X-126545Y14424D02*
X-125103Y12544D01*
X-123223Y11101D01*
X-121033Y10195D01*
X-120978Y10187D01*
Y9684D01*
X-120803Y8806D01*
X-120306Y8062D01*
X-115335Y3091D01*
X-115335Y3091D01*
X-114591Y2594D01*
X-113713Y2419D01*
X-112256D01*
X-111682Y1033D01*
X-120306Y-7591D01*
X-120803Y-8335D01*
X-120978Y-9213D01*
Y-10187D01*
X-121033Y-10195D01*
X-123223Y-11102D01*
X-125103Y-12544D01*
X-126545Y-14424D01*
X-126677Y-14741D01*
X-128177Y-14442D01*
Y14442D01*
X-126677Y14741D01*
X-126545Y14424D01*
D02*
G37*
G36*
X-71502Y-1967D02*
X-77126Y-7591D01*
X-77624Y-8335D01*
X-77798Y-9213D01*
Y-10187D01*
X-77853Y-10195D01*
X-80043Y-11102D01*
X-81923Y-12544D01*
X-83365Y-14424D01*
X-84272Y-16614D01*
X-84582Y-18963D01*
Y-23963D01*
X-84272Y-26313D01*
X-83365Y-28502D01*
X-81923Y-30382D01*
X-80571Y-31419D01*
X-81081Y-32919D01*
X-91517D01*
X-92027Y-31419D01*
X-90675Y-30382D01*
X-89233Y-28502D01*
X-88326Y-26313D01*
X-88016Y-23963D01*
Y-18963D01*
X-88326Y-16614D01*
X-89233Y-14424D01*
X-90675Y-12544D01*
X-92555Y-11102D01*
X-94745Y-10195D01*
X-97094Y-9886D01*
X-99444Y-10195D01*
X-101633Y-11102D01*
X-103513Y-12544D01*
X-104956Y-14424D01*
X-105862Y-16614D01*
X-106172Y-18963D01*
Y-23963D01*
X-105862Y-26313D01*
X-104956Y-28502D01*
X-103513Y-30382D01*
X-101633Y-31825D01*
X-99444Y-32731D01*
X-99388Y-32739D01*
Y-33406D01*
X-99213Y-34284D01*
X-98716Y-35028D01*
X-96909Y-36835D01*
X-96165Y-37332D01*
X-95287Y-37507D01*
X-36902D01*
X-36447Y-39007D01*
X-36497Y-39041D01*
X-48454Y-50998D01*
X-127416D01*
X-128177Y-50238D01*
Y-28484D01*
X-126677Y-28186D01*
X-126545Y-28502D01*
X-125103Y-30382D01*
X-123223Y-31825D01*
X-121033Y-32731D01*
X-118684Y-33041D01*
X-116335Y-32731D01*
X-114145Y-31825D01*
X-112265Y-30382D01*
X-110823Y-28502D01*
X-109916Y-26313D01*
X-109606Y-23963D01*
Y-18963D01*
X-109916Y-16614D01*
X-110823Y-14424D01*
X-112265Y-12544D01*
X-114145Y-11102D01*
X-114896Y-10791D01*
X-115248Y-9021D01*
X-106808Y-581D01*
X-72076D01*
X-71502Y-1967D01*
D02*
G37*
G36*
X166353Y33515D02*
X166828Y33279D01*
X167093Y31952D01*
X167921Y30711D01*
X172836Y25796D01*
X174077Y24968D01*
X175540Y24677D01*
X177961D01*
X184824Y17814D01*
Y-44666D01*
X167064Y-62427D01*
X149427D01*
X148425Y-60926D01*
X148500Y-60746D01*
Y-59254D01*
X147929Y-57876D01*
X147044Y-56991D01*
Y-2901D01*
X146869Y-2023D01*
X146372Y-1279D01*
X146372Y-1279D01*
X137971Y7122D01*
X137227Y7619D01*
X136580Y7748D01*
X135811Y9100D01*
X139622Y12911D01*
X140119Y13655D01*
X140294Y14533D01*
Y21991D01*
X141179Y22876D01*
X141750Y24254D01*
Y25746D01*
X141179Y27124D01*
X140347Y27956D01*
X140569Y29011D01*
X140807Y29456D01*
X158000D01*
X158878Y29631D01*
X159622Y30128D01*
X161994Y32500D01*
X163246D01*
X164624Y33071D01*
X165301Y33748D01*
X166353Y33515D01*
D02*
G37*
%LPC*%
G36*
X-77491Y52750D02*
X-78983D01*
X-80361Y52179D01*
X-81237Y51303D01*
X-82113Y52179D01*
X-83491Y52750D01*
X-84983D01*
X-86361Y52179D01*
X-87416Y51124D01*
X-87987Y49746D01*
Y48254D01*
X-87416Y46876D01*
X-86361Y45821D01*
X-84983Y45250D01*
X-83491D01*
X-82113Y45821D01*
X-81237Y46697D01*
X-80361Y45821D01*
X-78983Y45250D01*
X-77491D01*
X-76113Y45821D01*
X-75058Y46876D01*
X-74487Y48254D01*
Y49746D01*
X-75058Y51124D01*
X-76113Y52179D01*
X-77491Y52750D01*
D02*
G37*
G36*
X-178004Y54500D02*
X-179496D01*
X-180874Y53929D01*
X-181929Y52874D01*
X-182500Y51496D01*
Y50004D01*
X-181929Y48626D01*
X-180874Y47571D01*
X-179496Y47000D01*
X-178004D01*
X-176626Y47571D01*
X-175571Y48626D01*
X-175000Y50004D01*
Y51496D01*
X-175571Y52874D01*
X-176626Y53929D01*
X-178004Y54500D01*
D02*
G37*
G36*
X-188554Y54424D02*
X-190046D01*
X-191424Y53853D01*
X-192479Y52798D01*
X-193050Y51420D01*
Y49928D01*
X-192479Y48549D01*
X-191424Y47495D01*
X-190046Y46924D01*
X-188554D01*
X-187176Y47495D01*
X-186121Y48549D01*
X-185550Y49928D01*
Y51420D01*
X-186121Y52798D01*
X-187176Y53853D01*
X-188554Y54424D01*
D02*
G37*
G36*
X236042Y19500D02*
X232201D01*
X228434Y18750D01*
X224885Y17281D01*
X221691Y15146D01*
X218975Y12430D01*
X216841Y9237D01*
X215371Y5688D01*
X214622Y1920D01*
Y-1921D01*
X215371Y-5688D01*
X216841Y-9237D01*
X218975Y-12431D01*
X221691Y-15147D01*
X224885Y-17281D01*
X228434Y-18751D01*
X232201Y-19500D01*
X236042D01*
X239810Y-18751D01*
X243359Y-17281D01*
X246553Y-15147D01*
X249269Y-12431D01*
X251403Y-9237D01*
X252873Y-5688D01*
X253622Y-1921D01*
Y1920D01*
X252873Y5688D01*
X251403Y9237D01*
X249269Y12430D01*
X246553Y15146D01*
X243359Y17281D01*
X239810Y18750D01*
X236042Y19500D01*
D02*
G37*
G36*
X-232080D02*
X-235921D01*
X-239688Y18750D01*
X-243237Y17281D01*
X-246431Y15146D01*
X-249147Y12430D01*
X-251281Y9237D01*
X-252751Y5688D01*
X-253500Y1920D01*
Y-1921D01*
X-252751Y-5688D01*
X-251281Y-9237D01*
X-249147Y-12431D01*
X-246431Y-15147D01*
X-243237Y-17281D01*
X-239688Y-18751D01*
X-235921Y-19500D01*
X-232080D01*
X-228312Y-18751D01*
X-224763Y-17281D01*
X-221569Y-15147D01*
X-218853Y-12431D01*
X-216719Y-9237D01*
X-215249Y-5688D01*
X-214500Y-1921D01*
Y1920D01*
X-215249Y5688D01*
X-216719Y9237D01*
X-218853Y12430D01*
X-221569Y15146D01*
X-224763Y17281D01*
X-228312Y18750D01*
X-232080Y19500D01*
D02*
G37*
G36*
X215246Y-18250D02*
X213754D01*
X212376Y-18821D01*
X211321Y-19876D01*
X210750Y-21254D01*
Y-22746D01*
X211321Y-24124D01*
X212376Y-25179D01*
X213754Y-25750D01*
X215246D01*
X216624Y-25179D01*
X217679Y-24124D01*
X218250Y-22746D01*
Y-21254D01*
X217679Y-19876D01*
X216624Y-18821D01*
X215246Y-18250D01*
D02*
G37*
G36*
X45516Y-49750D02*
X42883D01*
X40340Y-50431D01*
X38060Y-51748D01*
X36198Y-53610D01*
X34881Y-55890D01*
X34200Y-58433D01*
Y-61066D01*
X34881Y-63610D01*
X36198Y-65890D01*
X38060Y-67752D01*
X40340Y-69068D01*
X42883Y-69750D01*
X45516D01*
X48060Y-69068D01*
X50340Y-67752D01*
X52202Y-65890D01*
X53518Y-63610D01*
X54200Y-61066D01*
Y-58433D01*
X53518Y-55890D01*
X52202Y-53610D01*
X50340Y-51748D01*
X48060Y-50431D01*
X45516Y-49750D01*
D02*
G37*
G36*
X70917Y-49750D02*
X68283D01*
X65740Y-50431D01*
X63460Y-51748D01*
X61598Y-53610D01*
X60282Y-55890D01*
X59600Y-58433D01*
Y-61066D01*
X60282Y-63610D01*
X61598Y-65890D01*
X63460Y-67752D01*
X65740Y-69068D01*
X68283Y-69750D01*
X70917D01*
X73460Y-69068D01*
X75740Y-67752D01*
X77602Y-65890D01*
X78918Y-63610D01*
X79600Y-61066D01*
Y-58433D01*
X78918Y-55890D01*
X77602Y-53610D01*
X75740Y-51748D01*
X73460Y-50431D01*
X70917Y-49750D01*
D02*
G37*
G36*
X-5283D02*
X-7917D01*
X-10460Y-50431D01*
X-12740Y-51748D01*
X-14602Y-53610D01*
X-15919Y-55890D01*
X-16600Y-58433D01*
Y-61066D01*
X-15919Y-63610D01*
X-14602Y-65890D01*
X-12740Y-67752D01*
X-10460Y-69068D01*
X-7917Y-69750D01*
X-5283D01*
X-2740Y-69068D01*
X-460Y-67752D01*
X1402Y-65890D01*
X2718Y-63610D01*
X3400Y-61066D01*
Y-58433D01*
X2718Y-55890D01*
X1402Y-53610D01*
X-460Y-51748D01*
X-2740Y-50431D01*
X-5283Y-49750D01*
D02*
G37*
G36*
X20117Y-49750D02*
X17484D01*
X14940Y-50431D01*
X12660Y-51748D01*
X10798Y-53610D01*
X9481Y-55890D01*
X8800Y-58433D01*
Y-61067D01*
X9481Y-63610D01*
X10798Y-65890D01*
X12660Y-67752D01*
X14940Y-69068D01*
X17484Y-69750D01*
X20117D01*
X22660Y-69068D01*
X24940Y-67752D01*
X26802Y-65890D01*
X28119Y-63610D01*
X28800Y-61067D01*
Y-58433D01*
X28119Y-55890D01*
X26802Y-53610D01*
X24940Y-51748D01*
X22660Y-50431D01*
X20117Y-49750D01*
D02*
G37*
G36*
X32446Y33040D02*
X30096Y32731D01*
X27907Y31824D01*
X26027Y30382D01*
X24585Y28502D01*
X23678Y26312D01*
X23368Y23963D01*
Y18963D01*
X23678Y16613D01*
X24585Y14424D01*
X26027Y12544D01*
X27907Y11101D01*
X30096Y10195D01*
X32446Y9885D01*
X34795Y10195D01*
X36985Y11101D01*
X38865Y12544D01*
X40307Y14424D01*
X41214Y16613D01*
X41524Y18963D01*
Y23963D01*
X41214Y26312D01*
X40307Y28502D01*
X38865Y30382D01*
X36985Y31824D01*
X34795Y32731D01*
X32446Y33040D01*
D02*
G37*
G36*
X10856D02*
X8507Y32731D01*
X6317Y31824D01*
X4437Y30382D01*
X2995Y28502D01*
X2088Y26312D01*
X1778Y23963D01*
Y18963D01*
X2088Y16613D01*
X2995Y14424D01*
X4437Y12544D01*
X6317Y11101D01*
X8507Y10195D01*
X10856Y9885D01*
X13205Y10195D01*
X15395Y11101D01*
X17275Y12544D01*
X18717Y14424D01*
X19624Y16613D01*
X19934Y18963D01*
Y23963D01*
X19624Y26312D01*
X18717Y28502D01*
X17275Y30382D01*
X15395Y31824D01*
X13205Y32731D01*
X10856Y33040D01*
D02*
G37*
G36*
X-10734D02*
X-13083Y32731D01*
X-15273Y31824D01*
X-17153Y30382D01*
X-18595Y28502D01*
X-19502Y26312D01*
X-19812Y23963D01*
Y18963D01*
X-19502Y16613D01*
X-18595Y14424D01*
X-17153Y12544D01*
X-15273Y11101D01*
X-13083Y10195D01*
X-10734Y9885D01*
X-8385Y10195D01*
X-6195Y11101D01*
X-4315Y12544D01*
X-2873Y14424D01*
X-1966Y16613D01*
X-1656Y18963D01*
Y23963D01*
X-1966Y26312D01*
X-2873Y28502D01*
X-4315Y30382D01*
X-6195Y31824D01*
X-8385Y32731D01*
X-10734Y33040D01*
D02*
G37*
G36*
X-32324D02*
X-34674Y32731D01*
X-36863Y31824D01*
X-38743Y30382D01*
X-40185Y28502D01*
X-41092Y26312D01*
X-41402Y23963D01*
Y18963D01*
X-41092Y16613D01*
X-40185Y14424D01*
X-38743Y12544D01*
X-36863Y11101D01*
X-34674Y10195D01*
X-32324Y9885D01*
X-29975Y10195D01*
X-27785Y11101D01*
X-25905Y12544D01*
X-24463Y14424D01*
X-23556Y16613D01*
X-23246Y18963D01*
Y23963D01*
X-23556Y26312D01*
X-24463Y28502D01*
X-25905Y30382D01*
X-27785Y31824D01*
X-29975Y32731D01*
X-32324Y33040D01*
D02*
G37*
G36*
X-53914D02*
X-56263Y32731D01*
X-58453Y31824D01*
X-60333Y30382D01*
X-61775Y28502D01*
X-62682Y26312D01*
X-62992Y23963D01*
Y18963D01*
X-62682Y16613D01*
X-61775Y14424D01*
X-60333Y12544D01*
X-58453Y11101D01*
X-56263Y10195D01*
X-53914Y9885D01*
X-51565Y10195D01*
X-49375Y11101D01*
X-47495Y12544D01*
X-46053Y14424D01*
X-45146Y16613D01*
X-44836Y18963D01*
Y23963D01*
X-45146Y26312D01*
X-46053Y28502D01*
X-47495Y30382D01*
X-49375Y31824D01*
X-51565Y32731D01*
X-53914Y33040D01*
D02*
G37*
G36*
X-75504D02*
X-77853Y32731D01*
X-80043Y31824D01*
X-81923Y30382D01*
X-83365Y28502D01*
X-84272Y26312D01*
X-84582Y23963D01*
Y18963D01*
X-84272Y16613D01*
X-83365Y14424D01*
X-81923Y12544D01*
X-80043Y11101D01*
X-77853Y10195D01*
X-75504Y9885D01*
X-73155Y10195D01*
X-70965Y11101D01*
X-69085Y12544D01*
X-67643Y14424D01*
X-66736Y16613D01*
X-66426Y18963D01*
Y23963D01*
X-66736Y26312D01*
X-67643Y28502D01*
X-69085Y30382D01*
X-70965Y31824D01*
X-73155Y32731D01*
X-75504Y33040D01*
D02*
G37*
G36*
X-97094D02*
X-99444Y32731D01*
X-101633Y31824D01*
X-103513Y30382D01*
X-104956Y28502D01*
X-105862Y26312D01*
X-106172Y23963D01*
Y18963D01*
X-105862Y16613D01*
X-104956Y14424D01*
X-103513Y12544D01*
X-101633Y11101D01*
X-99444Y10195D01*
X-97094Y9885D01*
X-94745Y10195D01*
X-92555Y11101D01*
X-90675Y12544D01*
X-89233Y14424D01*
X-88326Y16613D01*
X-88016Y18963D01*
Y23963D01*
X-88326Y26312D01*
X-89233Y28502D01*
X-90675Y30382D01*
X-92555Y31824D01*
X-94745Y32731D01*
X-97094Y33040D01*
D02*
G37*
%LPD*%
D11*
X138000Y14533D02*
Y25000D01*
X132794Y9327D02*
X138000Y14533D01*
X125080Y9327D02*
X132794D01*
X125951Y1713D02*
X126738Y2500D01*
X-75504Y-9213D02*
X-67578Y-1287D01*
X123466Y7713D02*
X125080Y9327D01*
X124708Y4713D02*
X125496Y5500D01*
X-107758Y1713D02*
X125951D01*
X137426Y24426D02*
X138000Y25000D01*
X126738Y2500D02*
X135107D01*
X-113713Y4713D02*
X124708D01*
X-118684Y-9213D02*
X-107758Y1713D01*
X56287Y7713D02*
X123466D01*
X125496Y5500D02*
X136349D01*
X127981Y-500D02*
X133864D01*
X-67578Y-1287D02*
X127194D01*
X127981Y-500D01*
X-118684Y9684D02*
X-113713Y4713D01*
X135107Y2500D02*
X139500Y-1893D01*
X136349Y5500D02*
X144750Y-2901D01*
X133864Y-500D02*
X136500Y-3136D01*
X76000Y21837D02*
Y34121D01*
X127311Y-38000D02*
X136250D01*
X126186Y-39125D02*
X127311Y-38000D01*
X118058Y-39125D02*
X126186D01*
X130500Y-20500D02*
X131312D01*
X133592Y-18220D02*
X135144D01*
X131312Y-20500D02*
X133592Y-18220D01*
X135212Y-11788D02*
X136500Y-10500D01*
X131312Y-14500D02*
X134024Y-11788D01*
X130500Y-14500D02*
X131312D01*
X134024Y-11788D02*
X135212D01*
X-36500Y-5000D02*
X130500D01*
X144750Y-60000D02*
Y-2901D01*
X135144Y-18220D02*
X139500Y-13864D01*
Y-1893D01*
X136500Y-10500D02*
Y-3136D01*
X75626Y21463D02*
X76000Y21837D01*
Y34121D02*
X76879Y35000D01*
X91923D01*
X97135Y40213D01*
X126188D01*
X54036Y9964D02*
Y21463D01*
Y9964D02*
X56287Y7713D01*
X-97094Y-33406D02*
X-95287Y-35213D01*
X101876D01*
X113558Y-34625D02*
X118058Y-39125D01*
X100716Y37213D02*
X124945D01*
X130408Y31750D02*
X158000D01*
X97216Y21463D02*
Y33713D01*
X130151Y36250D02*
X153750D01*
X124945Y37213D02*
X130408Y31750D01*
X97216Y33713D02*
X100716Y37213D01*
X126188Y40213D02*
X130151Y36250D01*
X75626Y21463D02*
Y23963D01*
X158000Y31750D02*
X162500Y36250D01*
X-97094Y-33406D02*
Y-21463D01*
X-75504D02*
Y-9213D01*
X-118684Y9684D02*
Y21463D01*
X101876Y-35213D02*
X102464Y-34625D01*
X113558D01*
X-118684Y-21463D02*
Y-9213D01*
X-42250Y-10750D02*
X-36500Y-5000D01*
D19*
X-169082Y3582D02*
X-164287D01*
X-162999Y2293D01*
Y1D02*
Y2293D01*
X-163001Y-2293D02*
Y-1D01*
Y-2293D02*
X-161712Y-3582D01*
X-156918D01*
X-156000Y-4500D01*
D24*
X-118684Y21463D02*
D03*
X-97094D02*
D03*
X-75504D02*
D03*
X-53914D02*
D03*
X-32324D02*
D03*
X-10734D02*
D03*
X10856D02*
D03*
X32446D02*
D03*
X54036D02*
D03*
X75626D02*
D03*
X97216D02*
D03*
X118806D02*
D03*
X-118684Y-21463D02*
D03*
X-97094D02*
D03*
X-75504D02*
D03*
X-53914D02*
D03*
X-32324D02*
D03*
X-10734D02*
D03*
X10856D02*
D03*
X32446D02*
D03*
X54036D02*
D03*
X75626D02*
D03*
X97216D02*
D03*
X118806D02*
D03*
D25*
X-182300Y-20000D02*
D03*
Y20000D02*
D03*
X-143700D02*
D03*
Y-20000D02*
D03*
D26*
X-156000Y-32500D02*
D03*
Y-23000D02*
D03*
Y-13500D02*
D03*
Y-4500D02*
D03*
Y4500D02*
D03*
Y13500D02*
D03*
Y23000D02*
D03*
Y32500D02*
D03*
X-170000D02*
D03*
Y23000D02*
D03*
Y13500D02*
D03*
Y4500D02*
D03*
Y-4500D02*
D03*
Y-13500D02*
D03*
Y-23000D02*
D03*
Y-32500D02*
D03*
D27*
X95000Y-59750D02*
D03*
D28*
X-32000D02*
D03*
X69600Y-59750D02*
D03*
X44200Y-59750D02*
D03*
X18800Y-59750D02*
D03*
X-6600Y-59750D02*
D03*
D29*
X234100Y42750D02*
D03*
X228100D02*
D03*
X-84237Y49000D02*
D03*
X-78237D02*
D03*
X-124750Y-7500D02*
D03*
X-58250Y-7250D02*
D03*
X-124750Y-44750D02*
D03*
X136250Y-38000D02*
D03*
X138000Y25000D02*
D03*
X130500Y-20500D02*
D03*
Y-14500D02*
D03*
Y-5000D02*
D03*
X214500Y-22000D02*
D03*
X126161Y46250D02*
D03*
X78500Y40000D02*
D03*
X-209878Y-68250D02*
D03*
Y68250D02*
D03*
X-248628Y17000D02*
D03*
Y-17000D02*
D03*
X248628Y-17000D02*
D03*
X248750Y17000D02*
D03*
X-171000Y67750D02*
D03*
X-95750Y49500D02*
D03*
X-71902Y49340D02*
D03*
X144750Y-60000D02*
D03*
X131750Y49500D02*
D03*
X-90000Y67250D02*
D03*
X-118000D02*
D03*
X-57500Y50250D02*
D03*
X15500Y40000D02*
D03*
X-183000Y-53500D02*
D03*
X162500Y36250D02*
D03*
X218750Y42500D02*
D03*
X216250Y-62250D02*
D03*
X247500Y-31250D02*
D03*
Y-25000D02*
D03*
X205000Y33750D02*
D03*
Y26750D02*
D03*
X217500Y60000D02*
D03*
X153750Y36250D02*
D03*
X178750D02*
D03*
X165000Y-52500D02*
D03*
X206250Y-38750D02*
D03*
X231250Y-46250D02*
D03*
X216250Y-31250D02*
D03*
Y-53750D02*
D03*
Y-46250D02*
D03*
Y-38750D02*
D03*
X-214750Y18000D02*
D03*
Y54750D02*
D03*
X-113000Y-61500D02*
D03*
X-178750Y50750D02*
D03*
X-189300Y50674D02*
D03*
X-42250Y-10750D02*
D03*
X-131000Y-54500D02*
D03*
X127389Y-47125D02*
D03*
X110889Y-39125D02*
D03*
D30*
X171250Y-5000D02*
D03*
D31*
X165710Y44000D02*
X170250Y39460D01*
Y39460D02*
X170625Y39085D01*
X170250Y39460D02*
Y39460D01*
X150540Y44000D02*
X165710D01*
X129265Y43500D02*
X150040D01*
X150540Y44000D01*
X-131000Y-52821D02*
X-129000Y-54821D01*
X-132000Y-53500D02*
X-131000Y-54500D01*
X-132000Y-53500D02*
Y31250D01*
X-124000Y39250D01*
X-22000D01*
X-15000Y46250D01*
X126161D01*
X126515D02*
X129265Y43500D01*
X126161Y46250D02*
X126515D01*
X170625Y33415D02*
Y39085D01*
Y33415D02*
X175540Y28500D01*
X179545D01*
X188647Y19397D01*
X196000Y26750D02*
X205000D01*
X188647Y19397D02*
X196000Y26750D01*
X188647Y-46250D02*
Y19397D01*
X93856Y-59750D02*
X95000D01*
X81850Y-47500D02*
X82750D01*
X81606D02*
X81850D01*
X-47000Y-55000D02*
X-46000Y-54000D01*
Y-53951D01*
X-33793Y-41744D01*
X76094D02*
X81850Y-47500D01*
X-33793Y-41744D02*
X76094D01*
X81606Y-47500D02*
X93856Y-59750D01*
X95000D02*
X127389D01*
X128176Y-59503D02*
X134923Y-66250D01*
X127389Y-59750D02*
Y-47125D01*
X95000Y-59750D02*
X100750Y-65500D01*
X-129000Y-54821D02*
X-47179D01*
X134923Y-66250D02*
X168647D01*
X188647Y-46250D01*
X216250D02*
X231250D01*
X188647D02*
X188897Y-46500D01*
X209460D01*
X209710Y-46250D01*
X216250D01*
X205000Y26750D02*
Y33750D01*
X82750Y-47500D02*
X95000Y-59750D01*
M02*
